<?xml version="1.0" encoding="UTF-8" standalone="no"?>
<!-- Created with Inkscape (http://www.inkscape.org/) -->

<svg
   xmlns:dc="http://purl.org/dc/elements/1.1/"
   xmlns:cc="http://creativecommons.org/ns#"
   xmlns:rdf="http://www.w3.org/1999/02/22-rdf-syntax-ns#"
   xmlns:svg="http://www.w3.org/2000/svg"
   xmlns="http://www.w3.org/2000/svg"
   xmlns:sodipodi="http://sodipodi.sourceforge.net/DTD/sodipodi-0.dtd"
   xmlns:inkscape="http://www.inkscape.org/namespaces/inkscape"
   id="svg2"
   version="1.1"
   inkscape:version="0.48.5 r10040"
   width="29"
   height="29"
   sodipodi:docname="fb.svg">
  <metadata
     id="metadata8">
    <rdf:RDF>
      <cc:Work
         rdf:about="">
        <dc:format>image/svg+xml</dc:format>
        <dc:type
           rdf:resource="http://purl.org/dc/dcmitype/StillImage" />
        <dc:title />
      </cc:Work>
    </rdf:RDF>
  </metadata>
  <defs
     id="defs6" />
  <sodipodi:namedview
     pagecolor="#ffffff"
     bordercolor="#ffffff"
     borderopacity="1"
     objecttolerance="10"
     gridtolerance="10"
     guidetolerance="10"
     inkscape:pageopacity="1"
     inkscape:pageshadow="2"
     inkscape:window-width="1600"
     inkscape:window-height="837"
     id="namedview4"
     showgrid="false"
     inkscape:zoom="16.275861"
     inkscape:cx="11.355623"
     inkscape:cy="9.3995284"
     inkscape:window-x="-8"
     inkscape:window-y="-8"
     inkscape:window-maximized="1"
     inkscape:current-layer="svg2" />
  <rect
     style="fill:#343236;fill-opacity:1;fill-rule:evenodd;stroke:#343236;stroke-width:1;stroke-linecap:round;stroke-linejoin:round;stroke-miterlimit:4;stroke-opacity:1;stroke-dasharray:none"
     id="rect3081"
     width="30"
     height="30"
     x="0.5"
     y="-1.5"
     rx="2"
     ry="2" />
  <path
     style="fill:#343326;stroke:none;fill-opacity:0"
     d="m 3.0966101,28.582203 0,-0.491525 -0.9830508,0 -0.9830509,0 0,-1.044491 0,-1.044492 -0.49152541,0 -0.49152542,0 0,-11.427966 0,-11.4279662 0.49152542,0 0.49152541,0 0,-1.0444916 0,-1.0444915 0.9830509,0 0.9830508,0 0,-0.4915254 0,-0.49152542 11.4894069,0 11.489407,0 0,0.49152542 0,0.4915254 0.983051,0 0.98305,0 0,1.0444915 0,1.0444916 0.552966,0 0.552967,0 0,11.4279662 0,11.427966 -0.552967,0 -0.552966,0 0,1.044492 0,1.044491 -0.98305,0 -0.983051,0 0,0.491525 0,0.491526 -3.440678,0 -3.440678,0 0,-5.46822 0,-5.468221 2.457627,0 2.457627,0 0,-1.536017 0,-1.536017 0.552966,0 0.552966,0 0,-0.491525 0,-0.491526 -3.010593,0 -3.010593,0 0,-1.474576 0,-1.474576 0.491525,0 c 0.491526,0 0.491526,0 0.491526,-0.491526 0,-0.491525 0,-0.491525 0.491525,-0.491525 l 0.491525,0 0,-0.552966 0,-0.5529661 1.474577,0 1.474576,0 0,-2.0275424 0,-2.0275424 -3.502119,0 -3.502118,0 0,0.5529661 0,0.5529661 -0.491526,0 c -0.491525,0 -0.491525,0 -0.491525,0.4915254 0,0.4915255 0,0.4915255 -0.491526,0.4915255 l -0.491525,0 0,3.5021188 0,3.502118 -2.027542,0 -2.027543,0 0,2.027543 0,2.027542 2.027543,0 2.027542,0 0,5.468221 0,5.46822 -6.0211865,0 -6.0211864,0 0,-0.491526 z"
     id="path2982"
     inkscape:connector-curvature="0" />
  <path
     style="fill:#343426;stroke:none;fill-opacity:0"
     d="m 3.1703389,28.582203 0,-0.491525 -1.0444915,0 -1.0444915,0 0,-1.044491 0,-1.044492 -0.49152545,0 -0.49152543,0 0,-11.427966 0,-11.4279662 0.49152543,0 0.49152545,0 0,-1.0444916 0,-1.0444915 1.0444915,0 1.0444915,0 0,-0.4915254 0,-0.49152542 11.4894071,0 11.489406,0 0,0.49152542 0,0.4915254 0.983051,0 0.983051,0 0,1.0444915 0,1.0444916 0.491526,0 0.491525,0 0,11.4279662 0,11.427966 -0.491525,0 -0.491526,0 0,1.044492 0,1.044491 -0.983051,0 -0.983051,0 0,0.491525 0,0.491526 -3.502118,0 -3.502119,0 0,-5.46822 0,-5.468221 2.519068,0 2.519068,0 0,-1.536017 0,-1.536017 0.491525,0 c 0.491526,0 0.491526,0 0.491526,-0.491525 l 0,-0.491526 -3.010594,0 -3.010593,0 0,-1.474576 0,-1.474576 0.491526,0 c 0.491525,0 0.491525,0 0.491525,-0.491526 0,-0.491525 0,-0.491525 0.491525,-0.491525 l 0.491526,0 0,-0.552966 0,-0.5529661 1.536017,0 1.536017,0 0,-2.0275424 0,-2.0275424 -3.56356,0 -3.563559,0 0,0.5529661 0,0.5529661 -0.491525,0 c -0.491526,0 -0.491526,0 -0.491526,0.4915254 0,0.4915255 0,0.4915255 -0.491525,0.4915255 l -0.491526,0 0,3.5021188 0,3.502118 -2.027542,0 -2.027542,0 0,2.027543 0,2.027542 2.027542,0 2.027542,0 0,5.468221 0,5.46822 -5.9597453,0 -5.9597458,0 0,-0.491526 z"
     id="path3752"
     inkscape:connector-curvature="0" />
  <g
     id="g3060"
     style="fill:#ffffff">
    <path
       inkscape:connector-curvature="0"
       id="path3020"
       d="m 15.032052,27.598383 0,-0.430085 1.996822,0 1.996822,0 0,0.430085 0,0.430084 -1.996822,0 -1.996822,0 0,-0.430084 z"
       style="fill:#ffffff;stroke:none" />
    <path
       inkscape:connector-curvature="0"
       id="path3022"
       d="m 15.032052,22.560247 0,-4.546611 -2.027543,0 -2.027542,0 0,-1.996822 0,-1.996822 2.027542,0 2.027543,0 0,-3.502119 0,-3.5021188 0.427923,0 c 0.500932,0 0.555128,-0.053379 0.555128,-0.5467653 0,-0.3780983 0.08141,-0.4362857 0.610368,-0.4362857 l 0.372683,0 0,-0.5529661 0,-0.5529661 3.532839,0 3.532839,0 0,1.9968221 0,1.9968222 -1.536017,0 -1.536017,0 0,0.5460327 0,0.546033 -0.433693,0.02451 c -0.499146,0.0282 -0.547039,0.0711 -0.548417,0.491221 -0.0015,0.468175 -0.01587,0.48119 -0.52976,0.48119 l -0.454232,0 0,1.505297 0,1.505297 3.010594,0 3.010593,0 0,0.363619 c 0,0.553328 -0.0044,0.557991 -0.528819,0.557991 l -0.454232,0 0,1.536017 0,1.536017 -2.519068,0 -2.519068,0 0,4.546611 0,4.54661 -1.996822,0 -1.996822,0 0,-4.54661 z"
       style="fill:#ffffff;stroke:none" />
    <path
       inkscape:connector-curvature="0"
       id="path3026"
       d="m 15.047032,27.595506 0,-0.422405 1.989142,0 1.989142,0 0,0.422405 0,0.422404 -1.989142,0 -1.989142,0 0,-0.422404 z"
       style="fill:#ffffff;stroke:none" />
    <path
       inkscape:connector-curvature="0"
       id="path3028"
       d="m 16.032729,27.161583 c 0.546357,-0.0022 1.444927,-0.0022 1.996822,-1e-6 0.551895,0.0022 0.104876,0.0041 -0.993377,0.0041 -1.098252,0 -1.549802,-0.0018 -1.003445,-0.0041 z"
       style="fill:#ffffff;stroke:none" />
    <path
       inkscape:connector-curvature="0"
       id="path3030"
       d="m 16.517476,27.163026 c 0.0104,-0.0042 0.03114,-0.0045 0.04608,-5.7e-4 0.01495,0.0039 0.0064,0.0073 -0.01891,0.0077 -0.02534,3.14e-4 -0.03757,-0.0029 -0.02717,-0.0071 z"
       style="fill:#ffffff;stroke:none" />
    <path
       inkscape:connector-curvature="0"
       id="path3032"
       d="m 15.047032,22.54969 0,-4.546611 -2.027542,0 -2.027543,0 0,-0.337924 0,-0.337923 6.535753,0 6.535752,0 0,0.337923 0,0.337924 -2.519068,0 -2.519068,0 0,4.546611 0,4.54661 -1.989142,0 -1.989142,0 0,-4.54661 z"
       style="fill:#ffffff;stroke:none" />
    <path
       inkscape:connector-curvature="0"
       id="path3034"
       d="m 15.047032,22.54969 0,-4.546611 -2.027542,0 -2.027543,0 0,-0.337924 0,-0.337923 6.535753,0 6.535752,0 0,0.337923 0,0.337924 -2.519068,0 -2.519068,0 0,4.546611 0,4.54661 -1.989142,0 -1.989142,0 0,-4.54661 z"
       style="fill:#ffffff;stroke:none" />
    <path
       inkscape:connector-curvature="0"
       id="path3036"
       d="m 14.997137,22.60729 -0.0039,-4.55045 -2.023703,-0.0039 -2.023702,-0.0039 0,-0.360907 c 0,-0.230365 0.0056,-0.360907 0.01536,-0.360907 0.0098,0 0.01536,0.125441 0.01536,0.345603 l 0,0.345604 2.027543,0 2.027542,0 0,4.546611 0,4.54661 2.004502,0 c 1.77154,0 2.004503,0.0027 2.004503,0.02304 0,0.02036 -0.234667,0.02304 -2.019837,0.02304 l -2.019837,0 -0.0039,-4.550451 z"
       style="fill:#ffffff;stroke:none" />
    <path
       inkscape:connector-curvature="0"
       id="path3038"
       d="m 15.000952,22.60345 0,-4.55429 -2.027543,0 -2.027542,0 0,-0.183416 c 0,-0.105708 0.0065,-0.187437 0.01536,-0.192909 0.0099,-0.0061 0.01536,0.0536 0.01536,0.168056 l 0,0.177548 2.027543,0 2.027542,0 0,4.546611 0,4.54661 0.88705,0.0022 c 0.487877,0.0012 1.384719,0.0064 1.992982,0.01152 l 1.105932,0.0093 -1.480958,0.01152 c -0.814527,0.0063 -1.718281,0.01152 -2.008342,0.01152 l -0.527384,0 0,-4.554291 z"
       style="fill:#ffffff;stroke:none" />
    <path
       inkscape:connector-curvature="0"
       id="path3040"
       d="m 15.000952,22.60345 0,-4.55429 -2.027543,0 -2.027542,0 0,-0.183416 c 0,-0.105708 0.0065,-0.187437 0.01536,-0.192909 0.0099,-0.0061 0.01536,0.0536 0.01536,0.168056 l 0,0.177548 2.027543,0 2.027542,0 0,4.546611 0,4.54661 0.88705,0.0022 c 0.487877,0.0012 1.384719,0.0064 1.992982,0.01152 l 1.105932,0.0093 -1.480958,0.01152 c -0.814527,0.0063 -1.718281,0.01152 -2.008342,0.01152 l -0.527384,0 0,-4.554291 z"
       style="fill:#ffffff;stroke:none" />
    <path
       inkscape:connector-curvature="0"
       id="path3042"
       d="m 15.000952,22.60345 0,-4.55429 -2.027543,0 -2.027542,0 0,-0.183416 c 0,-0.105708 0.0065,-0.187437 0.01536,-0.192909 0.0099,-0.0061 0.01536,0.0536 0.01536,0.168056 l 0,0.177548 2.027543,0 2.027542,0 0,4.546611 0,4.54661 0.88705,0.0022 c 0.487877,0.0012 1.384719,0.0064 1.992982,0.01152 l 1.105932,0.0093 -1.480958,0.01152 c -0.814527,0.0063 -1.718281,0.01152 -2.008342,0.01152 l -0.527384,0 0,-4.554291 z"
       style="fill:#ffffff;stroke:none" />
    <path
       inkscape:connector-curvature="0"
       id="path3044"
       d="m 15.000952,22.60345 0,-4.55429 -2.027543,0 -2.027542,0 0,-0.183416 c 0,-0.105708 0.0065,-0.187437 0.01536,-0.192909 0.0099,-0.0061 0.01536,0.0536 0.01536,0.168056 l 0,0.177548 2.027543,0 2.027542,0 0,4.546611 0,4.54661 0.88705,0.0022 c 0.487877,0.0012 1.384719,0.0064 1.992982,0.01152 l 1.105932,0.0093 -1.480958,0.01152 c -0.814527,0.0063 -1.718281,0.01152 -2.008342,0.01152 l -0.527384,0 0,-4.554291 z"
       style="fill:#ffffff;stroke:none" />
    <path
       inkscape:connector-curvature="0"
       id="path3046"
       d="m 15.000952,22.60345 0,-4.55429 -2.027543,0 -2.027542,0 0,-0.183416 c 0,-0.105708 0.0065,-0.187437 0.01536,-0.192909 0.0099,-0.0061 0.01536,0.0536 0.01536,0.168056 l 0,0.177548 2.027543,0 2.027542,0 0,4.546611 0,4.54661 0.88705,0.0022 c 0.487877,0.0012 1.384719,0.0064 1.992982,0.01152 l 1.105932,0.0093 -1.480958,0.01152 c -0.814527,0.0063 -1.718281,0.01152 -2.008342,0.01152 l -0.527384,0 0,-4.554291 z"
       style="fill:#ffffff;stroke:none" />
    <path
       inkscape:connector-curvature="0"
       id="path3048"
       d="m 15.000952,22.60345 0,-4.55429 -2.027543,0 -2.027542,0 0,-0.183416 c 0,-0.105708 0.0065,-0.187437 0.01536,-0.192909 0.0099,-0.0061 0.01536,0.0536 0.01536,0.168056 l 0,0.177548 2.027543,0 2.027542,0 0,4.546611 0,4.54661 0.88705,0.0022 c 0.487877,0.0012 1.384719,0.0064 1.992982,0.01152 l 1.105932,0.0093 -1.480958,0.01152 c -0.814527,0.0063 -1.718281,0.01152 -2.008342,0.01152 l -0.527384,0 0,-4.554291 z"
       style="fill:#ffffff;stroke:none" />
    <path
       inkscape:connector-curvature="0"
       id="path3050"
       d="m 15.000952,22.60345 0,-4.55429 -2.027543,0 -2.027542,0 0,-0.183416 c 0,-0.105708 0.0065,-0.187437 0.01536,-0.192909 0.0099,-0.0061 0.01536,0.0536 0.01536,0.168056 l 0,0.177548 2.027543,0 2.027542,0 0,4.546611 0,4.54661 0.88705,0.0022 c 0.487877,0.0012 1.384719,0.0064 1.992982,0.01152 l 1.105932,0.0093 -1.480958,0.01152 c -0.814527,0.0063 -1.718281,0.01152 -2.008342,0.01152 l -0.527384,0 0,-4.554291 z"
       style="fill:#ffffff;stroke:none" />
    <path
       inkscape:connector-curvature="0"
       id="path3052"
       d="m 15.000952,22.60345 0,-4.55429 -2.027543,0 -2.027542,0 0,-0.183416 c 0,-0.105708 0.0065,-0.187437 0.01536,-0.192909 0.0099,-0.0061 0.01536,0.0536 0.01536,0.168056 l 0,0.177548 2.027543,0 2.027542,0 0,4.546611 0,4.54661 0.88705,0.0022 c 0.487877,0.0012 1.384719,0.0064 1.992982,0.01152 l 1.105932,0.0093 -1.480958,0.01152 c -0.814527,0.0063 -1.718281,0.01152 -2.008342,0.01152 l -0.527384,0 0,-4.554291 z"
       style="fill:#ffffff;stroke:none" />
    <path
       inkscape:connector-curvature="0"
       id="path3054"
       d="m 15.000952,22.60345 0,-4.55429 -2.027543,0 -2.027542,0 0,-0.183416 c 0,-0.105708 0.0065,-0.187437 0.01536,-0.192909 0.0099,-0.0061 0.01536,0.0536 0.01536,0.168056 l 0,0.177548 2.027543,0 2.027542,0 0,4.546611 0,4.54661 0.88705,0.0022 c 0.487877,0.0012 1.384719,0.0064 1.992982,0.01152 l 1.105932,0.0093 -1.480958,0.01152 c -0.814527,0.0063 -1.718281,0.01152 -2.008342,0.01152 l -0.527384,0 0,-4.554291 z"
       style="fill:#ffffff;stroke:none" />
    <path
       inkscape:connector-curvature="0"
       id="path3056"
       d="m 15.000952,22.60345 0,-4.55429 -2.027543,0 -2.027542,0 0,-0.183416 c 0,-0.105708 0.0065,-0.187437 0.01536,-0.192909 0.0099,-0.0061 0.01536,0.0536 0.01536,0.168056 l 0,0.177548 2.027543,0 2.027542,0 0,4.546611 0,4.54661 0.88705,0.0022 c 0.487877,0.0012 1.384719,0.0064 1.992982,0.01152 l 1.105932,0.0093 -1.480958,0.01152 c -0.814527,0.0063 -1.718281,0.01152 -2.008342,0.01152 l -0.527384,0 0,-4.554291 z"
       style="fill:#ffffff;stroke:none" />
    <path
       inkscape:connector-curvature="0"
       id="path3058"
       d="m 15.000952,22.60345 0,-4.55429 -2.027543,0 -2.027542,0 0,-0.183416 c 0,-0.105708 0.0065,-0.187437 0.01536,-0.192909 0.0099,-0.0061 0.01536,0.0536 0.01536,0.168056 l 0,0.177548 2.027543,0 2.027542,0 0,4.546611 0,4.54661 0.88705,0.0022 c 0.487877,0.0012 1.384719,0.0064 1.992982,0.01152 l 1.105932,0.0093 -1.480958,0.01152 c -0.814527,0.0063 -1.718281,0.01152 -2.008342,0.01152 l -0.527384,0 0,-4.554291 z"
       style="fill:#ffffff;stroke:none" />
  </g>
</svg>
