<?xml version="1.0" encoding="UTF-8" standalone="no"?>
<!-- Created with Inkscape (http://www.inkscape.org/) -->

<svg
   xmlns:dc="http://purl.org/dc/elements/1.1/"
   xmlns:cc="http://creativecommons.org/ns#"
   xmlns:rdf="http://www.w3.org/1999/02/22-rdf-syntax-ns#"
   xmlns:svg="http://www.w3.org/2000/svg"
   xmlns="http://www.w3.org/2000/svg"
   xmlns:sodipodi="http://sodipodi.sourceforge.net/DTD/sodipodi-0.dtd"
   xmlns:inkscape="http://www.inkscape.org/namespaces/inkscape"
   id="svg2"
   version="1.1"
   inkscape:version="0.48.5 r10040"
   width="504"
   height="504"
   sodipodi:docname="nstgrm.svg">
  <metadata
     id="metadata8">
    <rdf:RDF>
      <cc:Work
         rdf:about="">
        <dc:format>image/svg+xml</dc:format>
        <dc:type
           rdf:resource="http://purl.org/dc/dcmitype/StillImage" />
        <dc:title />
      </cc:Work>
    </rdf:RDF>
  </metadata>
  <defs
     id="defs6" />
  <sodipodi:namedview
     pagecolor="#ffffff"
     bordercolor="#666666"
     borderopacity="1"
     objecttolerance="10"
     gridtolerance="10"
     guidetolerance="10"
     inkscape:pageopacity="0"
     inkscape:pageshadow="2"
     inkscape:window-width="1600"
     inkscape:window-height="837"
     id="namedview4"
     showgrid="false"
     inkscape:zoom="0.6622111"
     inkscape:cx="44.136528"
     inkscape:cy="231.53975"
     inkscape:window-x="-8"
     inkscape:window-y="-8"
     inkscape:window-maximized="1"
     inkscape:current-layer="svg2" />
  <rect
     style="fill:#343236;fill-opacity:1;fill-rule:evenodd;stroke:#ffffff;stroke-width:1;stroke-linecap:round;stroke-linejoin:round;stroke-miterlimit:4;stroke-opacity:0.45882353;stroke-dasharray:none"
     id="rect2984"
     width="418"
     height="418"
     x="42.094589"
     y="41.027542"
     rx="5"
     ry="5" />
  <path
     style="fill:#ffffff;stroke:none;fill-opacity:1"
     d="m 236.60501,380.51753 c -2.38784,-0.17947 -4.34152,-0.64912 -4.34152,-1.04367 0,-0.39456 -0.8952,-0.71737 -1.98932,-0.71737 -2.74228,0 -11.89403,-1.69046 -12.35656,-2.28243 -0.20763,-0.26574 -2.50109,-0.92665 -5.09656,-1.46868 -2.59547,-0.54203 -4.71904,-1.27396 -4.71904,-1.62652 0,-0.35254 -1.52897,-1.02599 -3.3977,-1.49655 -1.86874,-0.47055 -3.39771,-1.11465 -3.39771,-1.43133 0,-0.31667 -1.52897,-0.96077 -3.39771,-1.43132 -1.86874,-0.47056 -3.39771,-1.12702 -3.39771,-1.4588 0,-0.33179 -1.1892,-1.06986 -2.64266,-1.64015 -1.45346,-0.5703 -2.64266,-1.245 -2.64266,-1.49934 0,-0.25434 -1.1892,-0.89246 -2.64266,-1.41804 -1.45347,-0.52558 -2.64267,-1.23215 -2.64267,-1.57017 0,-0.33801 -1.01931,-1.03679 -2.26513,-1.55282 -1.24583,-0.51604 -2.26514,-1.24521 -2.26514,-1.62039 0,-0.37517 -0.84943,-1.00508 -1.88762,-1.3998 -1.03819,-0.39471 -1.88761,-1.01131 -1.88761,-1.3702 0,-0.3589 -0.81458,-1.02369 -1.81017,-1.47731 -2.08553,-0.95023 -3.00272,-1.73549 -11.96943,-10.24772 -3.63366,-3.44948 -6.60665,-6.54594 -6.60665,-6.88101 0,-0.33508 -1.1892,-1.73078 -2.64266,-3.10157 -1.45347,-1.3708 -2.64267,-2.83568 -2.64267,-3.25529 0,-0.41961 -0.61922,-1.20692 -1.37606,-1.74956 -0.75683,-0.54264 -1.85908,-2.09087 -2.44945,-3.44052 -0.59037,-1.34964 -1.33123,-2.4539 -1.64637,-2.4539 -0.31514,0 -1.16177,-1.35908 -1.88141,-3.02018 -0.71965,-1.66111 -1.56806,-3.02019 -1.88538,-3.02019 -0.31731,0 -0.57693,-0.50965 -0.57693,-1.13257 0,-0.62291 -0.66006,-1.79264 -1.46682,-2.59939 -0.80675,-0.80675 -1.89874,-2.93032 -2.42666,-4.71904 -0.52791,-1.78872 -1.38347,-3.68785 -1.90123,-4.2203 -0.51776,-0.53244 -1.16243,-2.14635 -1.4326,-3.58647 -0.27016,-1.44011 -0.7688,-2.61838 -1.10808,-2.61838 -0.33927,0 -1.03507,-1.86874 -1.54621,-4.15276 -0.51114,-2.28401 -1.16698,-4.15275 -1.45743,-4.15275 -0.29045,0 -0.97184,-2.63323 -1.5142,-5.85161 -0.54236,-3.21839 -1.23649,-6.02149 -1.54249,-6.22913 -0.86419,-0.58639 -2.21529,-15.95367 -2.21529,-25.19644 0,-9.48156 1.40238,-25.58169 2.27748,-26.14671 0.32158,-0.20763 1.02628,-3.01074 1.56598,-6.22913 0.53971,-3.21838 1.22493,-5.8516 1.52273,-5.8516 0.29779,0 0.7722,-1.36582 1.05423,-3.03515 0.28203,-1.66934 0.92604,-3.45313 1.43114,-3.964 0.50509,-0.51086 1.36767,-2.54275 1.91684,-4.51531 0.54917,-1.97256 1.21993,-3.58647 1.49058,-3.58647 0.27064,0 0.93622,-1.5042 1.47905,-3.34267 0.54284,-1.83847 1.4344,-3.51437 1.98126,-3.72421 0.54685,-0.20985 1.2232,-1.42382 1.50299,-2.6977 0.2798,-1.27389 0.78278,-2.31616 1.11774,-2.31616 0.33496,0 1.17334,-1.1892 1.86305,-2.64266 0.68971,-1.45346 1.49491,-2.64266 1.78933,-2.64266 0.29442,0 1.00911,-1.07041 1.58821,-2.37869 1.11054,-2.50887 1.36188,-2.84223 6.12675,-8.12609 1.65252,-1.83252 3.00458,-3.57795 3.00458,-3.87875 0,-0.74337 11.34418,-12.04309 12.09048,-12.04309 0.32686,0 1.73253,-1.12723 3.1237,-2.50496 1.39117,-1.37773 3.69638,-3.16152 5.12269,-3.96399 1.42631,-0.80247 3.18576,-1.96869 3.90988,-2.59161 2.88774,-2.48413 3.70886,-3.06117 5.54919,-3.89968 1.0538,-0.48014 1.916,-1.13122 1.916,-1.44684 0,-0.31562 1.04227,-0.80278 2.31616,-1.08257 1.27388,-0.2798 2.48785,-0.95614 2.6977,-1.503 0.20984,-0.54686 1.88574,-1.43842 3.72421,-1.98126 1.83847,-0.54283 3.34267,-1.20841 3.34267,-1.47905 0,-0.27064 1.61391,-0.9414 3.58647,-1.49057 1.97256,-0.54918 4.00445,-1.41176 4.51531,-1.91685 0.51087,-0.5051 2.29466,-1.14911 3.96399,-1.43114 1.66934,-0.28203 3.03515,-0.77608 3.03515,-1.09787 0,-0.3218 2.63323,-1.00856 5.85161,-1.52614 3.21839,-0.51757 6.0215,-1.20262 6.22913,-1.52234 0.56657,-0.87237 16.68297,-2.27407 26.14671,-2.27407 9.24277,0 24.61005,1.3511 25.19644,2.21529 0.20763,0.30601 3.01074,1.00013 6.22913,1.54249 3.21838,0.54236 5.85161,1.22375 5.85161,1.5142 0,0.29045 1.86874,0.94629 4.15275,1.45743 2.28401,0.51114 4.15275,1.20694 4.15275,1.54622 0,0.33927 1.17828,0.83791 2.61839,1.10808 1.44012,0.27016 3.05403,0.91483 3.58647,1.43259 0.53244,0.51777 2.41211,1.36749 4.17703,1.88827 1.76492,0.52078 3.20895,1.25102 3.20895,1.62274 0,0.37173 1.18919,1.10589 2.64266,1.63147 1.45346,0.52558 2.64266,1.16369 2.64266,1.41803 0,0.25435 1.1892,0.92905 2.64266,1.49934 1.45347,0.5703 2.64266,1.32167 2.64266,1.66971 0,0.34805 0.84943,0.95576 1.88762,1.35048 1.03819,0.39472 1.88761,1.02622 1.88761,1.40334 0,0.37712 0.5946,0.88532 1.32134,1.12934 2.02532,0.68004 4.03251,2.13587 6.65792,4.82902 1.3157,1.34964 2.66658,2.4539 3.00196,2.4539 1.07267,0 15.60224,15.69587 17.14011,18.51596 0.44772,0.82102 1.26889,1.76448 1.8248,2.09657 0.55592,0.33209 1.01077,1.07969 1.01077,1.66133 0,0.58165 0.42526,1.32925 0.94504,1.66134 0.51977,0.33209 1.45414,1.61279 2.07638,2.846 0.62223,1.23321 1.72593,2.84712 2.45266,3.58647 0.72674,0.73935 1.32134,1.85393 1.32134,2.47684 0,0.62291 0.27635,1.13257 0.61411,1.13257 0.33777,0 1.08073,1.1892 1.65102,2.64266 0.5703,1.45347 1.30836,2.64266 1.64015,2.64266 0.33179,0 0.98825,1.52897 1.45881,3.39771 0.47055,1.86874 1.13959,3.39771 1.48674,3.39771 0.34716,0 0.85743,1.20587 1.13392,2.67971 0.27649,1.47384 0.94833,3.12532 1.49296,3.66996 0.54463,0.54463 1.42677,3.16118 1.9603,5.81455 0.53353,2.65338 1.17925,4.9942 1.43493,5.20184 0.61426,0.49883 2.22798,8.74768 2.22798,11.3887 0,1.14196 0.42471,2.21786 0.94381,2.3909 1.24985,0.41662 1.37827,38.84019 0.13257,39.66746 -0.44618,0.29631 -1.24586,3.51174 -1.77706,7.1454 -0.5312,3.63366 -1.20807,6.60666 -1.50415,6.60666 -0.29607,0 -0.9773,2.20851 -1.51383,4.9078 -0.53653,2.69929 -1.24452,4.9078 -1.5733,4.9078 -0.32879,0 -1.00534,1.69885 -1.50346,3.77523 -0.49811,2.07638 -1.20665,3.77523 -1.57452,3.77523 -0.36789,0 -1.05387,1.52897 -1.52443,3.39771 -0.47055,1.86874 -1.15498,3.39771 -1.52095,3.39771 -0.36598,0 -0.66542,0.44559 -0.66542,0.99019 0,0.54461 -0.6658,1.70485 -1.47956,2.57832 -0.81376,0.87346 -1.7011,2.47084 -1.97188,3.54972 -0.27079,1.07889 -0.87969,2.2121 -1.3531,2.51825 -0.47342,0.30615 -1.36931,1.57595 -1.99088,2.82178 -0.62156,1.24582 -1.55537,2.53685 -2.07514,2.86894 -0.51978,0.33209 -0.94504,1.08462 -0.94504,1.67229 0,0.58767 -0.67954,1.43217 -1.51009,1.87666 -0.83055,0.4445 -1.5101,1.22329 -1.5101,1.73065 0,0.50736 -1.18919,2.01387 -2.64266,3.34781 -1.45346,1.33394 -2.64266,2.72546 -2.64266,3.09225 0,0.88036 -11.05946,12.21554 -11.91841,12.21554 -0.36613,0 -1.65669,1.00987 -2.86791,2.24416 -1.21122,1.23429 -2.61498,2.2536 -3.11946,2.26514 -0.50449,0.0115 -1.28092,0.70052 -1.72542,1.53107 -0.4445,0.83055 -1.28899,1.51009 -1.87666,1.51009 -0.58767,0 -1.3402,0.42527 -1.67229,0.94504 -0.33209,0.51977 -1.62312,1.45358 -2.86894,2.07515 -1.24583,0.62156 -2.52199,1.52882 -2.83593,2.01614 -0.31392,0.48732 -1.58806,1.10947 -2.83142,1.38255 -1.24335,0.27309 -2.26064,0.76807 -2.26064,1.09997 0,0.3319 -1.01931,1.02567 -2.26514,1.54171 -1.24582,0.51603 -2.26514,1.19646 -2.26514,1.51206 0,0.31559 -1.52896,0.9588 -3.3977,1.42935 -1.86874,0.47056 -3.39771,1.15655 -3.39771,1.52443 0,0.36787 -1.69886,1.07641 -3.77523,1.57453 -2.07638,0.49811 -3.77523,1.17467 -3.77523,1.50345 0,0.32878 -2.20851,1.03677 -4.9078,1.5733 -2.6993,0.53653 -4.90781,1.21776 -4.90781,1.51384 0,0.29607 -2.97299,0.97294 -6.60665,1.50415 -3.63366,0.53119 -6.81712,1.27914 -7.07434,1.66208 -0.49333,0.73443 -28.17662,1.35649 -35.58577,0.79963 z m 26.61538,-44.69441 c 0,-0.35792 2.29345,-0.88493 5.09656,-1.17113 5.49229,-0.56075 11.65893,-1.90453 12.2695,-2.67365 0.20764,-0.26156 1.82155,-0.94041 3.58647,-1.50856 1.76492,-0.56815 3.20895,-1.27591 3.20895,-1.57281 0,-0.2969 0.93901,-0.72762 2.0867,-0.95715 1.14767,-0.22954 2.89852,-1.12144 3.89076,-1.982 0.99223,-0.86056 2.24484,-1.56466 2.78358,-1.56466 0.53873,0 1.25123,-0.42526 1.58332,-0.94503 0.3321,-0.51978 1.62312,-1.45415 2.86895,-2.07638 1.24582,-0.62224 3.32456,-2.2356 4.61943,-3.58524 1.29486,-1.34965 2.61371,-2.4539 2.93077,-2.4539 0.31706,0 2.06074,-1.48426 3.87484,-3.29836 1.8141,-1.8141 3.29836,-3.55778 3.29836,-3.87484 0,-0.31706 1.10425,-1.63591 2.4539,-2.93077 1.34964,-1.29487 2.96355,-3.36328 3.58647,-4.59649 0.62291,-1.23321 1.72717,-2.84712 2.4539,-3.58647 0.72673,-0.73935 1.32133,-1.81758 1.32133,-2.39606 0,-0.57849 0.46203,-1.22909 1.02674,-1.44578 0.56471,-0.2167 1.42884,-1.99089 1.92029,-3.94263 0.49146,-1.95175 1.34757,-4.00264 1.90247,-4.55753 0.5549,-0.55491 1.25092,-2.29895 1.54671,-3.87566 0.29579,-1.57671 0.86186,-3.06701 1.25792,-3.31179 0.39606,-0.24478 1.11307,-3.55833 1.59336,-7.36344 0.4803,-3.8051 1.14438,-6.91837 1.47574,-6.91837 0.33135,0 0.60246,-5.09656 0.60246,-11.32569 0,-6.22914 -0.27792,-11.3257 -0.61761,-11.3257 -0.33968,0 -1.01212,-2.94855 -1.4943,-6.55233 -0.48219,-3.60379 -1.17424,-6.74667 -1.53791,-6.98418 -0.36366,-0.23752 -1.0842,-2.21564 -1.60119,-4.39583 -0.51698,-2.1802 -1.24097,-3.964 -1.60884,-3.964 -0.36788,0 -1.06116,-1.55791 -1.54061,-3.46201 -0.47946,-1.90411 -1.31302,-3.63135 -1.85235,-3.83831 -0.53934,-0.20696 -1.20329,-1.39018 -1.47546,-2.62937 -0.27218,-1.2392 -0.97248,-2.43636 -1.55624,-2.66037 -0.58375,-0.22401 -1.06137,-0.83342 -1.06137,-1.35424 0,-0.52084 -1.52897,-2.58882 -3.3977,-4.59553 -1.86874,-2.00672 -3.39771,-3.89648 -3.39771,-4.19947 0,-0.77375 -6.13845,-6.7075 -6.9389,-6.7075 -0.36201,0 -1.74962,-1.1892 -3.08356,-2.64266 -1.33394,-1.45347 -2.86308,-2.64266 -3.39808,-2.64266 -0.535,0 -1.1461,-0.45179 -1.358,-1.00398 -0.21189,-0.55219 -1.56031,-1.46503 -2.99648,-2.02854 -1.43618,-0.56351 -2.61123,-1.2597 -2.61123,-1.54709 0,-0.28738 -1.01931,-0.94473 -2.26514,-1.46076 -1.24583,-0.51604 -2.26514,-1.19899 -2.26514,-1.51767 0,-0.31868 -1.17827,-0.80046 -2.61839,-1.07063 -1.44011,-0.27016 -3.06245,-0.93527 -3.6052,-1.47802 -0.54275,-0.54275 -2.84712,-1.42816 -5.12083,-1.96758 -2.27371,-0.53942 -4.30391,-1.22089 -4.51155,-1.51436 -0.67072,-0.948 -13.83126,-2.26734 -22.61695,-2.26734 -8.77499,0 -21.93078,1.37847 -21.93078,2.29792 0,0.28376 -2.03862,0.94854 -4.53027,1.47731 -2.49166,0.52876 -4.53028,1.21723 -4.53028,1.52992 0,0.3127 -1.52897,1.01999 -3.39771,1.57176 -1.86874,0.55177 -3.39771,1.2054 -3.39771,1.45251 0,0.2471 -1.18919,0.91588 -2.64266,1.48618 -1.45346,0.57029 -2.64266,1.24983 -2.64266,1.51009 0,0.26025 -1.17505,0.93425 -2.61123,1.49776 -1.43617,0.56351 -2.78459,1.47635 -2.99648,2.02854 -0.2119,0.55219 -0.74915,1.00398 -1.19391,1.00398 -1.13166,0 -10.42647,8.86465 -15.09472,14.39614 -1.45346,1.72224 -3.18617,3.72346 -3.85045,4.44717 -0.66428,0.72372 -1.68159,2.38625 -2.26069,3.69453 -0.5791,1.30828 -1.24632,2.37868 -1.48271,2.37868 -0.23639,0 -0.89641,1.1892 -1.46671,2.64266 -0.57029,1.45347 -1.23907,2.64267 -1.48618,2.64267 -0.2471,0 -0.90073,1.52896 -1.4525,3.3977 -0.55177,1.86874 -1.25907,3.39771 -1.57176,3.39771 -0.31269,0 -1.00116,2.03863 -1.52993,4.53028 -0.52876,2.49165 -1.19355,4.53028 -1.4773,4.53028 -0.91534,0 -2.29793,13.13871 -2.29793,21.83726 0,8.92395 1.38591,22.71046 2.28301,22.71046 0.29196,0 0.96346,2.03863 1.49222,4.53028 0.52877,2.49165 1.2411,4.53028 1.58296,4.53028 0.34186,0 1.04338,1.44402 1.55892,3.20894 0.51555,1.76492 1.12433,3.37884 1.35285,3.58647 0.22851,0.20764 0.9246,1.39684 1.54685,2.64267 0.62225,1.24582 1.72596,2.9238 2.45269,3.72884 0.72674,0.80503 1.32134,1.87294 1.32134,2.37311 0,0.50018 0.50965,1.10499 1.13257,1.34403 0.62291,0.23903 1.13256,0.87234 1.13256,1.40734 0,0.535 1.1892,2.06414 2.64267,3.39808 1.45346,1.33394 2.64266,2.72155 2.64266,3.08356 0,0.99412 5.87723,6.7847 7.37367,7.26495 0.72015,0.23111 1.96519,1.40211 2.76677,2.60221 0.80157,1.2001 2.57122,2.61903 3.93255,3.15317 1.36134,0.53414 2.63623,1.39092 2.8331,1.90395 0.19686,0.51303 1.37182,1.15547 2.61101,1.42764 1.2392,0.27217 2.4335,0.96501 2.654,1.53963 0.2205,0.57462 1.60798,1.27122 3.08326,1.54799 1.47529,0.27676 2.68235,0.79153 2.68235,1.14391 0,0.35239 1.44402,1.06252 3.20894,1.57806 1.76493,0.51555 3.37884,1.15366 3.58647,1.41802 0.57105,0.72705 6.59178,2.07505 11.89198,2.66255 2.59547,0.28769 4.71904,0.81896 4.71904,1.1806 0,0.36163 5.09656,0.65751 11.32569,0.65751 6.22914,0 11.3257,-0.29285 11.3257,-0.65078 l 0,0 z"
     id="path2982"
     inkscape:connector-curvature="0" />
  <path
     style="fill:#ffffff;fill-opacity:1;stroke:none"
     d="m 194.80193,503.24495 c 0,-0.4793 -5.76813,-0.75505 -15.7943,-0.75505 -18.64587,0 -50.08508,-1.36946 -50.63913,-2.2058 -0.21349,-0.32226 -2.93644,-0.81598 -6.05101,-1.09715 -6.67895,-0.60295 -15.32035,-2.08442 -15.85597,-2.71833 -0.20764,-0.24574 -2.58491,-0.89086 -5.28283,-1.43359 -2.69792,-0.54273 -5.07632,-1.25501 -5.28532,-1.58283 -0.20902,-0.32782 -2.3337,-1.0308 -4.72153,-1.56216 -2.38784,-0.53138 -4.34152,-1.24694 -4.34152,-1.59015 0,-0.34322 -1.52897,-1.00903 -3.39771,-1.47959 -1.86874,-0.47055 -3.39771,-1.1006 -3.39771,-1.40011 0,-0.2995 -1.35908,-0.99309 -3.02018,-1.5413 -1.6611,-0.54822 -3.02019,-1.2685 -3.02019,-1.60064 0,-0.33214 -1.35908,-1.01108 -3.02018,-1.50876 -1.6611,-0.49767 -3.02019,-1.19926 -3.02019,-1.55909 0,-0.35981 -0.84942,-0.97717 -1.88761,-1.37188 -1.03819,-0.39472 -1.88762,-1.00244 -1.88762,-1.35048 0,-0.34805 -1.18919,-1.09941 -2.64266,-1.66971 -1.45346,-0.57029 -2.64266,-1.32391 -2.64266,-1.67471 0,-0.35081 -0.5946,-0.85577 -1.32133,-1.12213 -1.71955,-0.63028 -2.49849,-1.34679 -14.37273,-13.22104 -12.65858,-12.65857 -12.9977,-13.02641 -12.9977,-14.09836 0,-0.48842 -0.45179,-1.06141 -1.00397,-1.27331 -0.55219,-0.2119 -1.46504,-1.56031 -2.02855,-2.99648 -0.56351,-1.43619 -1.30933,-2.61123 -1.65737,-2.61123 -0.34804,0 -0.95576,-0.84943 -1.35048,-1.88762 -0.39472,-1.03819 -1.01207,-1.88761 -1.37189,-1.88761 -0.35982,0 -1.06141,-1.35909 -1.55909,-3.02019 -0.49767,-1.6611 -1.17722,-3.02018 -1.51009,-3.02018 -0.33287,0 -1.01241,-1.35909 -1.51009,-3.02019 -0.49768,-1.6611 -1.19067,-3.02018 -1.53997,-3.02018 -0.34931,0 -1.0201,-1.52897 -1.49066,-3.39771 -0.47055,-1.86874 -1.13636,-3.39771 -1.47957,-3.39771 -0.34322,0 -1.05879,-1.95368 -1.59015,-4.34152 -0.53137,-2.38783 -1.23435,-4.51251 -1.56217,-4.72153 -0.32783,-0.209 -1.0401,-2.5874 -1.58283,-5.28532 -0.54274,-2.69792 -1.20222,-5.07519 -1.46552,-5.28283 -0.61274,-0.48321 -2.96917,-15.67555 -2.96917,-19.14283 0,-1.44522 -0.31712,-2.74093 -0.70471,-2.87936 C 2.89673,375.18456 1.5101,344.92815 1.5101,324.99237 1.5101,314.9662 1.23435,309.19807 0.75505,309.19807 0.25835,309.19807 0,289.69271 0,252.19208 c 0,-37.50063 0.25835,-57.00599 0.75505,-57.00599 0.47994,0 0.75505,-5.91152 0.75505,-16.22446 0,-18.63657 1.3865,-50.41578 2.22398,-50.97465 0.31115,-0.20764 0.78541,-2.58604 1.05391,-5.28533 0.69715,-7.00864 2.2358,-16.16777 2.79049,-16.61102 0.25985,-0.20763 0.91593,-2.50109 1.45796,-5.09656 0.54203,-2.59547 1.23242,-4.71904 1.53421,-4.71904 0.30179,0 0.98133,-2.03862 1.51009,-4.53028 0.52877,-2.49165 1.2144,-4.53027 1.52363,-4.53027 0.30923,0 0.94724,-1.52897 1.41779,-3.39771 0.47056,-1.86874 1.13665,-3.39771 1.48022,-3.39771 0.34356,0 1.03185,-1.35908 1.52953,-3.02018 0.49768,-1.66111 1.17662,-3.02019 1.50875,-3.02019 0.33214,0 1.05243,-1.35908 1.60064,-3.02018 0.54821,-1.66111 1.29055,-3.02019 1.64963,-3.02019 0.35909,0 0.97583,-0.84943 1.37055,-1.88761 0.39472,-1.03819 1.00244,-1.88762 1.35048,-1.88762 0.34804,0 1.09941,-1.1892 1.66971,-2.64266 0.57029,-1.453466 1.32166,-2.642664 1.6697,-2.642664 0.34805,0 0.95576,-0.849427 1.35048,-1.887616 0.39472,-1.038188 1.00844,-1.887615 1.36382,-1.887615 0.35538,0 1.1254,-0.89549 1.71115,-1.989977 1.31977,-2.46602 16.65245,-17.993397 18.99556,-19.236779 0.94239,-0.50008 2.15741,-1.534856 2.70005,-2.299502 0.54264,-0.764648 1.47701,-1.390268 2.07638,-1.390268 0.59936,0 1.08975,-0.34818 1.08975,-0.773734 0,-0.425554 0.84943,-1.096686 1.88762,-1.491404 1.03819,-0.394719 1.88761,-1.002434 1.88761,-1.350478 0,-0.348044 1.17506,-1.093862 2.61123,-1.657373 1.43617,-0.56351 2.7723,-1.444315 2.96917,-1.957344 0.19686,-0.513029 1.40021,-1.1617 2.67409,-1.441492 1.27389,-0.279793 2.31616,-0.795138 2.31616,-1.145212 0,-0.350074 1.1892,-1.02897 2.64266,-1.508656 1.45347,-0.479686 2.64266,-1.141421 2.64266,-1.470521 0,-0.329101 1.61392,-1.047686 3.58647,-1.596857 1.97256,-0.549172 4.00445,-1.411752 4.51532,-1.916847 0.51086,-0.505095 2.29466,-1.149108 3.96399,-1.43114 1.66933,-0.282032 3.03515,-0.776263 3.03515,-1.098292 0,-0.322029 2.03862,-1.018133 4.53028,-1.546898 2.49165,-0.528764 4.53027,-1.200025 4.53027,-1.49169 0,-0.291666 2.88806,-0.959972 6.4179,-1.485125 3.52984,-0.525153 6.41789,-1.209631 6.41789,-1.521061 0,-0.598895 14.91884,-2.297539 20.17881,-2.297539 1.70598,0 3.21504,-0.324957 3.35347,-0.722127 0.36395,-1.04426 62.59671,-2.294633 113.88613,-2.288185 51.89797,0.0065 112.77128,1.232609 113.13109,2.27864 0.13843,0.40242 1.83729,0.731181 3.77523,0.730582 5.35518,-0.0017 19.75705,1.683191 19.75705,2.31134 0,0.304678 2.88805,0.96392 6.41789,1.464981 3.52984,0.501061 6.41789,1.16927 6.41789,1.484908 0,0.315637 2.03863,1.006512 4.53028,1.535276 2.49165,0.528765 4.53028,1.200667 4.53028,1.493115 0,0.292447 1.86874,0.949929 4.15275,1.461069 2.28402,0.51114 4.15276,1.170572 4.15276,1.465405 0,0.294832 1.52897,0.98751 3.39771,1.539282 1.86874,0.551774 3.3977,1.291853 3.3977,1.644622 0,0.352769 1.35909,1.04859 3.02019,1.546268 1.6611,0.497678 3.02018,1.157621 3.02018,1.466538 0,0.308918 1.01932,0.917004 2.26514,1.351301 1.24583,0.434297 2.26514,1.083661 2.26514,1.443029 0,0.359368 1.1892,1.120001 2.64266,1.690296 1.45347,0.570295 2.64266,1.321663 2.64266,1.669707 0,0.348044 0.84943,0.955759 1.88762,1.350478 1.03819,0.394718 1.88762,1.06585 1.88762,1.491404 0,0.425554 0.47399,0.773734 1.05332,0.773734 0.57932,0 1.85346,0.843558 2.83142,1.874571 0.97796,1.031014 2.06721,1.880441 2.42057,1.887616 0.81149,0.01647 17.85157,17.0947 17.86921,17.909214 0.008,0.331355 0.8566,1.40261 1.88762,2.380567 1.03101,0.977957 1.87457,2.252097 1.87457,2.831423 0,0.579326 0.34818,1.05332 0.77373,1.05332 0.42555,0 1.09669,0.849427 1.4914,1.887615 0.39472,1.038185 1.00244,1.887615 1.35048,1.887615 0.34805,0 1.09942,1.1892 1.66971,2.64266 0.57029,1.45347 1.33093,2.64266 1.6903,2.64266 0.35936,0 1.00873,1.01932 1.44302,2.26514 0.4343,1.24583 1.04178,2.26514 1.34997,2.26514 0.30818,0 1.00886,1.35909 1.55708,3.02019 0.54822,1.6611 1.24463,3.02018 1.5476,3.02018 0.30297,0 1.00231,1.52897 1.55408,3.39771 0.55178,1.86874 1.24446,3.39771 1.53929,3.39771 0.29483,0 0.95426,1.86874 1.4654,4.15275 0.51114,2.28402 1.16862,4.15276 1.46107,4.15276 0.29245,0 0.96435,2.03862 1.49311,4.53027 0.52877,2.49166 1.21965,4.53028 1.53528,4.53028 0.31564,0 0.98385,2.88806 1.48491,6.4179 0.50106,3.52984 1.1603,6.41789 1.46498,6.41789 0.81715,0 2.33363,15.29456 2.84485,28.69176 0.27492,7.20486 0.76588,11.91029 1.27731,12.24195 1.18229,0.76672 1.18162,190.6932 -6.7e-4,191.4593 -0.51464,0.33348 -1.0049,5.14169 -1.28672,12.61949 -0.50804,13.48075 -1.90638,27.73766 -2.77708,28.31423 -0.31356,0.20764 -1.00903,3.35052 -1.54549,6.98418 -0.53645,3.63366 -1.21401,6.60665 -1.50567,6.60665 -0.29167,0 -0.96293,2.03863 -1.4917,4.53028 -0.52876,2.49165 -1.22486,4.53028 -1.5469,4.53028 -0.32202,0 -0.81625,1.36582 -1.09829,3.03515 -0.28203,1.66933 -0.91874,3.45313 -1.41493,3.96399 -0.49619,0.51087 -1.32825,2.37287 -1.84903,4.13779 -0.52078,1.76492 -1.21923,3.20895 -1.5521,3.20895 -0.33288,0 -1.01242,1.35908 -1.51009,3.02018 -0.49768,1.6611 -1.20401,3.02019 -1.56962,3.02019 -0.36561,0 -0.89367,1.04227 -1.17346,2.31615 -0.27979,1.27389 -0.92846,2.47724 -1.44149,2.6741 -0.51303,0.19687 -1.39383,1.53299 -1.95735,2.96917 -0.5635,1.43618 -1.30932,2.61122 -1.65737,2.61122 -0.34804,0 -0.95576,0.84943 -1.35048,1.88762 -0.39471,1.03819 -1.06585,1.88762 -1.4914,1.88762 -0.42555,0 -0.77373,0.49038 -0.77373,1.08975 0,0.59937 -0.62563,1.53374 -1.39027,2.07638 -0.76465,0.54264 -1.77835,1.71828 -2.25267,2.61254 -1.22259,2.30499 -16.86456,17.78925 -19.27098,19.07668 -1.10143,0.58927 -2.00261,1.36216 -2.00261,1.71754 0,0.35538 -0.84943,0.9691 -1.88761,1.36382 -1.03819,0.39471 -1.88762,1.00243 -1.88762,1.35047 0,0.34805 -1.1892,1.09942 -2.64266,1.66971 -1.45347,0.5703 -2.64266,1.32166 -2.64266,1.66971 0,0.34804 -0.84943,0.95576 -1.88762,1.35048 -1.03819,0.39471 -1.88762,1.01146 -1.88762,1.37055 0,0.35908 -1.35908,1.10141 -3.02018,1.64963 -1.6611,0.54822 -3.02018,1.22776 -3.02018,1.51009 0,0.28234 -1.35909,0.96188 -3.02019,1.5101 -1.6611,0.54821 -3.02018,1.27724 -3.02018,1.62007 0,0.34283 -1.52897,1.00832 -3.39771,1.47888 -1.86874,0.47055 -3.39771,1.10856 -3.39771,1.41779 0,0.30922 -2.03863,0.99486 -4.53028,1.52363 -2.49165,0.52876 -4.53028,1.2083 -4.53028,1.51009 0,0.30178 -2.12356,0.99218 -4.71903,1.53421 -2.59548,0.54203 -4.88893,1.19811 -5.09657,1.45795 -0.44324,0.5547 -9.60237,2.09335 -16.61101,2.7905 -2.69929,0.2685 -5.07769,0.74276 -5.28533,1.0539 -0.55887,0.83749 -32.33808,2.22399 -50.97465,2.22399 -10.31294,0 -16.22446,0.27511 -16.22446,0.75505 0,0.4967 -19.50536,0.75505 -57.00599,0.75505 -37.50063,0 -57.00599,-0.25835 -57.00599,-0.75505 z m 123.07253,-44.54773 c 0,-0.47485 4.97331,-0.75649 13.40207,-0.75893 15.86744,-0.005 41.87281,-1.32204 42.44573,-2.15033 0.22173,-0.32057 3.6209,-1.00247 7.55371,-1.51535 3.93281,-0.51287 7.33051,-1.18246 7.55046,-1.48798 0.21994,-0.30552 2.57084,-0.99202 5.22422,-1.52555 2.65337,-0.53353 5.26993,-1.41567 5.81456,-1.9603 0.54463,-0.54463 2.19612,-1.21647 3.66995,-1.49296 1.47384,-0.27649 2.67971,-0.75997 2.67971,-1.0744 0,-0.31442 1.69886,-1.18257 3.77523,-1.92923 2.07638,-0.74665 3.77523,-1.60866 3.77523,-1.91558 0,-0.30691 0.86221,-0.95086 1.916,-1.431 1.92703,-0.87801 3.00359,-1.65174 5.68859,-4.08844 0.80078,-0.72674 1.69249,-1.32133 1.98156,-1.32133 0.45932,0 12.10053,-11.89997 14.84615,-15.17615 0.5567,-0.66427 1.48599,-2.27818 2.06509,-3.58647 0.5791,-1.30827 1.32741,-2.37868 1.66292,-2.37868 0.3355,0 0.96534,-1.01931 1.39963,-2.26514 0.43431,-1.24582 1.04099,-2.26514 1.34818,-2.26514 0.30721,0 1.20689,-1.95368 1.99931,-4.34151 0.7924,-2.38784 1.67187,-4.51592 1.95436,-4.72907 0.2825,-0.21315 0.93362,-2.08189 1.44695,-4.15275 0.51331,-2.07087 1.18245,-3.93509 1.48696,-4.14273 0.30451,-0.20764 0.99887,-3.09569 1.54301,-6.41789 0.54415,-3.32221 1.21332,-6.21026 1.48704,-6.4179 0.75356,-0.57161 2.21631,-16.1192 2.21396,-23.53227 -0.002,-4.56537 0.28327,-6.63885 0.94174,-6.85834 0.74856,-0.24952 0.9438,-20.51629 0.9438,-97.96725 0,-77.45097 -0.19524,-97.71773 -0.9438,-97.96725 -0.65158,-0.21719 -0.94381,-2.21014 -0.94381,-6.43656 0,-7.31957 -1.52586,-23.199 -2.2292,-23.199 -0.27384,0 -0.95098,-3.05793 -1.50475,-6.79541 -0.55377,-3.73748 -1.26939,-6.79542 -1.59027,-6.79542 -0.32088,0 -0.81417,-1.36582 -1.0962,-3.03515 -0.28204,-1.66933 -0.9126,-3.45313 -1.40126,-3.96399 -0.48866,-0.51086 -1.49434,-2.88253 -2.23483,-5.27036 -0.74049,-2.38784 -1.60051,-4.34152 -1.91113,-4.34152 -0.31064,0 -0.99481,-1.18919 -1.52039,-2.64266 -0.52558,-1.45346 -1.23215,-2.64266 -1.57017,-2.64266 -0.33801,0 -1.03678,-1.01931 -1.55282,-2.26514 -0.51603,-1.24583 -1.17939,-2.26514 -1.4741,-2.26514 -0.29473,0 -1.01744,-0.89985 -1.60605,-1.99966 -1.38793,-2.59337 -12.71306,-13.9185 -15.30643,-15.30643 -1.09982,-0.58861 -1.99967,-1.31133 -1.99967,-1.60605 0,-0.29472 -1.01931,-0.95807 -2.26513,-1.47411 -1.24583,-0.51603 -2.26514,-1.2148 -2.26514,-1.55282 0,-0.33801 -1.1892,-1.044589 -2.64266,-1.570169 -1.45347,-0.52558 -2.64267,-1.209751 -2.64267,-1.520382 0,-0.310631 -1.95368,-1.170642 -4.34151,-1.911135 -2.38784,-0.740494 -4.7595,-1.746165 -5.27036,-2.234827 -0.51087,-0.488661 -2.29466,-1.119228 -3.96399,-1.40126 -1.66934,-0.282031 -3.03515,-0.775322 -3.03515,-1.096202 0,-0.320878 -3.05794,-1.0365 -6.79542,-1.59027 -3.73748,-0.553769 -6.79542,-1.230906 -6.79542,-1.504749 0,-0.70334 -15.87943,-2.2292 -23.19899,-2.2292 -4.22642,0 -6.21937,-0.29223 -6.43656,-0.943807 -0.24952,-0.74856 -20.51628,-0.943808 -97.96725,-0.943808 -77.45096,0 -97.71773,0.195248 -97.96725,0.943808 -0.21949,0.658467 -2.29297,0.943181 -6.85834,0.941736 -7.41307,-0.0023 -22.96066,1.460397 -23.53228,2.213958 -0.20763,0.273728 -3.09569,0.942895 -6.41789,1.48704 -3.3222,0.544144 -6.21025,1.2385 -6.41789,1.543012 -0.20764,0.304512 -2.07186,0.973648 -4.14273,1.486968 -2.07086,0.513321 -3.9396,1.164442 -4.15275,1.446936 -0.21315,0.282493 -2.34124,1.161962 -4.72907,1.954374 -2.38783,0.792412 -4.34151,1.692096 -4.34151,1.999297 0,0.307201 -1.01932,0.913881 -2.26514,1.348179 -1.24583,0.434297 -2.26514,1.064131 -2.26514,1.399641 0,0.3355 -1.07041,1.08382 -2.37868,1.66292 -1.30829,0.57909 -2.9222,1.50839 -3.58647,2.06509 -3.27618,2.74561 -15.17615,14.38682 -15.17615,14.84615 0,0.28907 -0.59459,1.18078 -1.32133,1.98156 -2.43669,2.68499 -3.21043,3.76155 -4.08844,5.68858 -0.48014,1.0538 -1.1241,1.916 -1.43101,1.916 -0.30691,0 -1.16892,1.69886 -1.91557,3.77523 -0.74666,2.07638 -1.61481,3.77523 -1.92923,3.77523 -0.31443,0 -0.7979,1.20587 -1.0744,2.67972 -0.27649,1.47383 -0.94833,3.12532 -1.49296,3.66995 -0.54463,0.54463 -1.42677,3.16119 -1.9603,5.81456 -0.53353,2.65338 -1.22003,5.00427 -1.52555,5.22422 -0.30552,0.21994 -0.97511,3.61765 -1.48798,7.55046 -0.51287,3.93281 -1.19478,7.33198 -1.51535,7.55371 -0.82829,0.57291 -2.14574,26.57828 -2.15033,42.44572 -0.002,8.42877 -0.28407,13.40207 -0.75893,13.40207 -0.49761,0 -0.75505,22.52555 -0.75505,66.06655 0,43.541 0.25744,66.06654 0.75505,66.06654 0.4739,0 0.75773,4.8497 0.76226,13.02455 0.009,15.86151 1.32747,42.25778 2.13907,42.81834 0.32493,0.22443 1.01041,3.62581 1.52328,7.55862 0.51287,3.93281 1.19883,7.33051 1.52436,7.55046 0.32552,0.21994 1.03534,2.52347 1.57737,5.11894 0.54203,2.59547 1.24496,4.71904 1.56208,4.71904 0.31711,0 0.98411,1.69885 1.48222,3.77523 0.49812,2.07638 1.17743,3.77523 1.50958,3.77523 0.33215,0 1.2148,1.69886 1.96146,3.77523 0.74665,2.07638 1.63861,3.77523 1.98213,3.77523 0.34352,0 0.94753,0.84943 1.34225,1.88762 0.39472,1.03819 1.06585,1.88762 1.4914,1.88762 0.42556,0 0.7783,0.42471 0.78387,0.9438 0.0146,1.36022 2.59042,4.46267 9.15756,11.0298 6.56713,6.56714 9.66958,9.14296 11.0298,9.15756 0.51909,0.005 0.9438,0.35831 0.9438,0.78386 0,0.42556 0.84943,1.09669 1.88762,1.49141 1.03819,0.39471 1.88761,0.99873 1.88761,1.34224 0,0.34353 1.69886,1.23549 3.77524,1.98214 2.07637,0.74665 3.77523,1.62931 3.77523,1.96146 0,0.33216 1.69885,1.01146 3.77523,1.50957 2.07637,0.49812 3.77523,1.16512 3.77523,1.48224 0,0.31711 2.12357,1.02004 4.71904,1.56207 2.59547,0.54203 4.89899,1.25185 5.11894,1.57737 0.21994,0.32552 3.61765,1.01149 7.55046,1.52436 3.93281,0.51288 7.33419,1.19835 7.55862,1.52329 0.56056,0.8116 26.95683,2.13026 42.81834,2.13906 8.17485,0.005 13.02454,0.28836 13.02454,0.76226 0,0.49762 22.52555,0.75505 66.06655,0.75505 43.541,0 66.06654,-0.25743 66.06654,-0.75505 z"
     id="path3752"
     inkscape:connector-curvature="0" />
  <path
     style="fill:#ffffff;stroke:none;fill-opacity:1"
     d="m 381.52505,146.81426 c -2.66385,-0.30124 -5.04225,-0.8363 -5.28532,-1.18901 -0.24307,-0.35271 -1.63115,-1.11171 -3.08461,-1.68666 -1.45347,-0.57495 -2.91438,-1.49003 -3.24647,-2.03351 -0.33209,-0.54348 -0.95282,-0.98815 -1.37941,-0.98815 -1.00825,0 -5.18972,-4.18147 -5.18972,-5.18972 0,-0.42659 -0.44467,-1.04732 -0.98815,-1.37941 -0.54348,-0.3321 -1.45856,-1.79301 -2.03351,-3.24647 -0.57495,-1.45346 -1.32525,-2.83617 -1.66734,-3.07267 -1.80293,-1.24648 -1.78783,-19.09238 0.0172,-20.26933 0.37278,-0.24308 1.09313,-1.7161 1.60079,-3.27338 0.50766,-1.55728 1.21354,-2.83142 1.56863,-2.83142 0.35508,0 0.84873,-0.63997 1.09698,-1.42214 0.62209,-1.960032 4.16715,-5.519215 6.85605,-6.883371 1.22783,-0.622913 2.66805,-1.543936 3.2005,-2.046717 0.53244,-0.502781 2.14635,-1.135194 3.58647,-1.405361 1.44011,-0.270167 2.61839,-0.79317 2.61839,-1.162229 0,-0.369059 3.22782,-0.671016 7.17294,-0.671016 3.94511,0 7.17294,0.275537 7.17294,0.612305 0,0.336767 1.69885,1.047708 3.77523,1.579867 2.07637,0.53216 3.77523,1.253038 3.77523,1.601953 0,0.348915 0.72618,0.864872 1.61374,1.146571 2.08786,0.662662 7.88382,6.458624 8.54649,8.546488 0.2817,0.88756 0.79765,1.61374 1.14657,1.61374 0.34891,0 1.06979,1.69885 1.60195,3.77523 0.53216,2.07638 1.2431,3.77523 1.57987,3.77523 0.33677,0 0.6123,3.22782 0.6123,7.17294 0,3.94512 -0.30195,7.17294 -0.67101,7.17294 -0.36906,0 -0.89207,1.17828 -1.16223,2.61839 -0.27017,1.44011 -0.90258,3.05403 -1.40536,3.58647 -0.50278,0.53244 -1.42381,1.97267 -2.04672,3.2005 -1.36416,2.6889 -4.92334,6.23396 -6.88337,6.85605 -0.78218,0.24825 -1.42214,0.74189 -1.42214,1.09698 0,0.35508 -1.27414,1.06097 -2.83142,1.56863 -1.55729,0.50766 -3.02493,1.21932 -3.26144,1.58147 -0.70471,1.0791 -9.78136,1.83315 -14.98401,1.24481 z"
     id="path3754"
     inkscape:connector-curvature="0" />
</svg>
