<?xml version="1.0" encoding="UTF-8" standalone="no"?>
<!-- Created with Inkscape (http://www.inkscape.org/) -->

<svg
   xmlns:dc="http://purl.org/dc/elements/1.1/"
   xmlns:cc="http://creativecommons.org/ns#"
   xmlns:rdf="http://www.w3.org/1999/02/22-rdf-syntax-ns#"
   xmlns:svg="http://www.w3.org/2000/svg"
   xmlns="http://www.w3.org/2000/svg"
   xmlns:sodipodi="http://sodipodi.sourceforge.net/DTD/sodipodi-0.dtd"
   xmlns:inkscape="http://www.inkscape.org/namespaces/inkscape"
   id="svg2"
   version="1.1"
   inkscape:version="0.48.5 r10040"
   width="508.61398"
   height="508.43909"
   sodipodi:docname="pntrst.svg">
  <metadata
     id="metadata8">
    <rdf:RDF>
      <cc:Work
         rdf:about="">
        <dc:format>image/svg+xml</dc:format>
        <dc:type
           rdf:resource="http://purl.org/dc/dcmitype/StillImage" />
        <dc:title />
      </cc:Work>
    </rdf:RDF>
  </metadata>
  <defs
     id="defs6" />
  <sodipodi:namedview
     pagecolor="#ffffff"
     bordercolor="#343236"
     borderopacity="1"
     objecttolerance="10"
     gridtolerance="10"
     guidetolerance="10"
     inkscape:pageopacity="0"
     inkscape:pageshadow="2"
     inkscape:window-width="1600"
     inkscape:window-height="837"
     id="namedview4"
     showgrid="false"
     inkscape:zoom="0.65186405"
     inkscape:cx="8.1586665"
     inkscape:cy="273.39255"
     inkscape:window-x="-8"
     inkscape:window-y="-8"
     inkscape:window-maximized="1"
     inkscape:current-layer="svg2"
     fit-margin-top="0"
     fit-margin-left="0"
     fit-margin-right="0"
     fit-margin-bottom="0" />
  <path
     sodipodi:type="arc"
     style="fill:#343236;fill-opacity:1;fill-rule:evenodd;stroke:#ffffff;stroke-width:1;stroke-linecap:round;stroke-linejoin:round;stroke-miterlimit:4;stroke-opacity:0.45882353;stroke-dasharray:none"
     id="path2983"
     sodipodi:cx="-279.96634"
     sodipodi:cy="35.947929"
     sodipodi:rx="167.97981"
     sodipodi:ry="188.68965"
     d="m -111.98653,35.947929 a 167.97981,188.68965 0 1 1 -335.95962,0 167.97981,188.68965 0 1 1 335.95962,0 z"
     transform="matrix(1.5078517,0,0,1.3423558,676.14772,206.18418)" />
  <path
     style="fill:#ffffff;stroke:none"
     d="m 218.47028,506.38871 c -11.19443,-1.34639 -25.9697,-4.54174 -35.1455,-7.60073 -1.7314,-0.57721 -0.0845,-5.44536 4.91793,-14.53696 16.31409,-29.65 20.4161,-40.49683 31.52894,-83.37117 6.3606,-24.53979 7.06315,-26.06904 10.42957,-22.70262 21.17482,21.17482 53.05146,27.41489 89.06487,17.43507 52.12629,-14.44493 91.92068,-68.46696 97.99576,-133.03202 4.88782,-51.94715 -8.65243,-92.86687 -41.24611,-124.64896 -13.12037,-12.79366 -33.09751,-27.0573 -41.47767,-29.61496 -2.98305,-0.91044 -6.49124,-2.50484 -7.79598,-3.5431 -4.90437,-3.90276 -37.4354,-10.708252 -57.44425,-12.017342 -35.48665,-2.32175 -80.84771,7.616382 -105.06485,23.018602 -4.77288,3.03557 -9.76092,6.00736 -11.08454,6.60397 -4.4691,2.01442 -17.05475,14.10491 -28.26976,27.15756 -21.94878,25.54518 -33.842651,59.45087 -33.852711,96.50346 -0.009,32.69671 7.90194,56.82855 26.669861,81.35593 8.64358,11.29611 25.24175,22.16986 30.66461,20.08891 1.72928,-0.66359 5.32184,-9.17311 8.0029,-18.95609 l 4.865,-17.75195 -5.69903,-7.47181 c -15.72371,-20.61486 -20.7279,-58.40495 -11.52722,-87.04994 13.54966,-42.18486 47.03739,-69.63781 93.81718,-76.9105 40.54526,-6.30343 84.01558,12.62999 105.35732,45.88821 25.19237,39.25894 19.5664,108.25207 -11.96514,146.73214 -23.74875,28.98222 -64.39569,34.67095 -81.27167,11.37432 -11.37989,-15.70946 -10.97259,-20.44865 6.67666,-77.68754 7.81976,-25.36055 8.69604,-49.32944 2.19331,-59.99349 -5.83313,-9.56593 -21.6182,-16.8203 -32.57281,-14.96953 -14.71039,2.4853 -26.45775,11.74506 -34.34294,27.07052 -6.69869,13.0194 -7.04261,14.85349 -6.8858,36.72114 0.0908,12.65952 1.39048,26.41126 2.88823,30.55943 3.07155,8.50701 4.33073,1.68874 -15.43471,83.57652 l -12.56772,52.0678 0,34.99433 0,34.99433 -5.37674,-2.04422 c -9.28661,-3.53079 -27.01932,-12.83341 -30.5907,-16.04799 -1.88379,-1.69559 -4.2154,-3.08289 -5.18136,-3.08289 -3.84769,0 -34.635081,-25.43091 -48.653331,-40.18849 C 23.657101,380.42491 -0.01465919,321.0948 6.8106235e-6,253.63273 0.01997981,161.754 45.933832,82.233888 127.39172,32.997718 144.56936,22.614918 169.99359,12.586728 196.77536,5.6304382 215.8878,0.66617824 222.73138,-0.00404176 254.26689,1.8237071e-5 286.28531,0.00401824 292.54156,0.63939824 313.54182,6.0187082 c 23.84545,6.1081098 53.65854,17.6959198 64.07411,24.9044398 3.15464,2.18329 7.23888,4.5072 9.07609,5.16424 11.48991,4.10912 50.99067,39.18449 68.93737,61.21411 23.00011,28.232652 45.16836,79.070662 50.66794,116.195642 3.09669,20.90446 3.08749,59.36039 -0.0195,80.64724 -4.38908,30.07252 -23.96121,81.36483 -36.34642,95.2524 -1.67999,1.88379 -3.05454,4.06948 -3.05454,4.85712 0,5.75707 -43.03516,52.66612 -56.62429,61.7214 -3.10268,2.06753 -12.47831,8.29833 -20.83471,13.84626 -46.34345,30.76799 -108.54231,44.07285 -170.94778,36.56715 l 2.2e-4,0 z"
     id="path2982"
     inkscape:connector-curvature="0" />
</svg>
