<?xml version="1.0" encoding="UTF-8" standalone="no"?>
<!-- Created with Inkscape (http://www.inkscape.org/) -->

<svg
   xmlns:dc="http://purl.org/dc/elements/1.1/"
   xmlns:cc="http://creativecommons.org/ns#"
   xmlns:rdf="http://www.w3.org/1999/02/22-rdf-syntax-ns#"
   xmlns:svg="http://www.w3.org/2000/svg"
   xmlns="http://www.w3.org/2000/svg"
   xmlns:sodipodi="http://sodipodi.sourceforge.net/DTD/sodipodi-0.dtd"
   xmlns:inkscape="http://www.inkscape.org/namespaces/inkscape"
   width="2.6645544mm"
   height="2.3082249mm"
   viewBox="0 0 9.4413343 8.1787497"
   id="svg12116"
   version="1.1"
   inkscape:version="0.91 r13725"
   sodipodi:docname="Airfield.svg">
  <defs
     id="defs12118" />
  <sodipodi:namedview
     id="base"
     pagecolor="#ffffff"
     bordercolor="#666666"
     borderopacity="1.0"
     inkscape:pageopacity="0.0"
     inkscape:pageshadow="2"
     inkscape:zoom="0.35"
     inkscape:cx="-467.42219"
     inkscape:cy="-10.196335"
     inkscape:document-units="px"
     inkscape:current-layer="layer1"
     showgrid="false"
     fit-margin-top="0"
     fit-margin-left="0"
     fit-margin-right="0"
     fit-margin-bottom="0"
     inkscape:window-width="690"
     inkscape:window-height="405"
     inkscape:window-x="130"
     inkscape:window-y="130"
     inkscape:window-maximized="0" />
  <metadata
     id="metadata12121">
    <rdf:RDF>
      <cc:Work
         rdf:about="">
        <dc:format>image/svg+xml</dc:format>
        <dc:type
           rdf:resource="http://purl.org/dc/dcmitype/StillImage" />
        <dc:title></dc:title>
      </cc:Work>
    </rdf:RDF>
  </metadata>
  <g
     inkscape:label="Layer 1"
     inkscape:groupmode="layer"
     id="layer1"
     transform="translate(-415.27933,-513.98712)">
    <g
       id="g3446"
       transform="matrix(1.25,0,0,-1.25,419.99997,522.16587)">
      <path
         d="m 0,0 -0.265,0.48 -1.06,0 c -0.033,0.084 0.05,0.266 0.05,0.266 0.215,0.283 0.927,0.58 0.927,0.58 l -0.215,2.799 -2.782,0.166 c -0.464,0.066 -0.431,0.396 -0.431,0.396 0,0.266 0.48,0.35 0.48,0.35 l 2.766,0.313 0.199,0.83 -0.381,0 0,0.115 0.513,0 0.216,0.248 0.182,-0.248 0.513,0 0,-0.115 -0.38,0 L 0.53,5.35 3.296,5.037 c 0,0 0.48,-0.084 0.48,-0.35 0,0 0.034,-0.33 -0.43,-0.396 L 0.563,4.125 0.348,1.326 c 0,0 0.712,-0.297 0.927,-0.58 0,0 0.083,-0.182 0.05,-0.266 l -1.06,0 L 0,0"
         style="fill:#373535;fill-opacity:1;fill-rule:nonzero;stroke:none"
         id="path3448"
         inkscape:connector-curvature="0" />
    </g>
  </g>
</svg>
