<?xml version="1.0" encoding="UTF-8" standalone="no"?>
<!-- Created with Inkscape (http://www.inkscape.org/) -->

<svg
   xmlns:dc="http://purl.org/dc/elements/1.1/"
   xmlns:cc="http://creativecommons.org/ns#"
   xmlns:rdf="http://www.w3.org/1999/02/22-rdf-syntax-ns#"
   xmlns:svg="http://www.w3.org/2000/svg"
   xmlns="http://www.w3.org/2000/svg"
   xmlns:sodipodi="http://sodipodi.sourceforge.net/DTD/sodipodi-0.dtd"
   xmlns:inkscape="http://www.inkscape.org/namespaces/inkscape"
   width="1.7762361mm"
   height="2.9142971mm"
   viewBox="0 0 6.2937498 10.32625"
   id="svg11804"
   version="1.1"
   inkscape:version="0.91 r13725"
   sodipodi:docname="FireLookout.svg">
  <defs
     id="defs11806" />
  <sodipodi:namedview
     id="base"
     pagecolor="#ffffff"
     bordercolor="#666666"
     borderopacity="1.0"
     inkscape:pageopacity="0.0"
     inkscape:pageshadow="2"
     inkscape:zoom="0.35"
     inkscape:cx="-238.99598"
     inkscape:cy="-66.265445"
     inkscape:document-units="px"
     inkscape:current-layer="layer1"
     showgrid="false"
     fit-margin-top="0"
     fit-margin-left="0"
     fit-margin-right="0"
     fit-margin-bottom="0"
     inkscape:window-width="690"
     inkscape:window-height="405"
     inkscape:window-x="78"
     inkscape:window-y="78"
     inkscape:window-maximized="0" />
  <metadata
     id="metadata11809">
    <rdf:RDF>
      <cc:Work
         rdf:about="">
        <dc:format>image/svg+xml</dc:format>
        <dc:type
           rdf:resource="http://purl.org/dc/dcmitype/StillImage" />
        <dc:title></dc:title>
      </cc:Work>
    </rdf:RDF>
  </metadata>
  <g
     inkscape:label="Layer 1"
     inkscape:groupmode="layer"
     id="layer1"
     transform="translate(-613.99598,-455.77051)">
    <g
       id="g13540"
       transform="matrix(1.25,0,0,-1.25,615.00223,465.48676)">
      <path
         d="M 0,0 -0.107,-0.488 -0.805,-0.484 0.39,4.902 -0.3,4.91 -0.3,6.871 1.714,7.773 3.728,6.871 3.728,4.91 3.039,4.902 4.23,-0.484 3.536,-0.488 3.429,-0.002 1.714,2.088 0,0 Z M 0.28,1.268 1.335,2.553 0.727,3.289 0.28,1.268 Z M 2.538,4.022 2.345,4.904 1.084,4.904 0.891,4.023 1.714,3.014 2.538,4.022 Z M 2.7,3.289 2.092,2.553 3.146,1.268 2.7,3.289 Z m -2.244,2.317 2.515,0 0,0.99 -2.515,0 0,-0.99 z"
         style="fill:#373535;fill-opacity:1;fill-rule:nonzero;stroke:none"
         id="path13542"
         inkscape:connector-curvature="0" />
    </g>
  </g>
</svg>
