<?xml version="1.0" encoding="UTF-8" standalone="no"?>
<!-- Created with Inkscape (http://www.inkscape.org/) -->

<svg
   xmlns:dc="http://purl.org/dc/elements/1.1/"
   xmlns:cc="http://creativecommons.org/ns#"
   xmlns:rdf="http://www.w3.org/1999/02/22-rdf-syntax-ns#"
   xmlns:svg="http://www.w3.org/2000/svg"
   xmlns="http://www.w3.org/2000/svg"
   xmlns:sodipodi="http://sodipodi.sourceforge.net/DTD/sodipodi-0.dtd"
   xmlns:inkscape="http://www.inkscape.org/namespaces/inkscape"
   width="3.4865029mm"
   height="3.4865029mm"
   viewBox="0 0 12.353751 12.35375"
   id="svg19743"
   version="1.1"
   inkscape:version="0.91 r13725"
   sodipodi:docname="HorsebackRiding.svg">
  <defs
     id="defs19745" />
  <sodipodi:namedview
     id="base"
     pagecolor="#ffffff"
     bordercolor="#666666"
     borderopacity="1.0"
     inkscape:pageopacity="0.0"
     inkscape:pageshadow="2"
     inkscape:zoom="15.839192"
     inkscape:cx="14.05314"
     inkscape:cy="1.2404133"
     inkscape:document-units="px"
     inkscape:current-layer="g13306"
     showgrid="false"
     fit-margin-top="0"
     fit-margin-left="0"
     fit-margin-right="0"
     fit-margin-bottom="0"
     inkscape:window-width="961"
     inkscape:window-height="405"
     inkscape:window-x="-8"
     inkscape:window-y="563"
     inkscape:window-maximized="0" />
  <metadata
     id="metadata19748">
    <rdf:RDF>
      <cc:Work
         rdf:about="">
        <dc:format>image/svg+xml</dc:format>
        <dc:type
           rdf:resource="http://purl.org/dc/dcmitype/StillImage" />
        <dc:title></dc:title>
      </cc:Work>
    </rdf:RDF>
  </metadata>
  <g
     inkscape:label="Layer 1"
     inkscape:groupmode="layer"
     id="layer1"
     transform="translate(-461.01439,-426.0781)">
    <g
       id="g13306"
       transform="matrix(1.25,0,0,-1.25,458.39758,438.71659)">
      <g
         id="g12346"
         transform="translate(10.794445,0.22778978)">
        <path
           d="m 0,0 c 0.652,0 1.182,0.527 1.182,1.18 l 0,7.522 C 1.182,9.354 0.652,9.883 0,9.883 l -7.521,0 c -0.653,0 -1.18,-0.529 -1.18,-1.181 l 0,-7.522 C -8.701,0.527 -8.174,0 -7.521,0 L 0,0 Z"
           style="fill:#373535;fill-opacity:1;fill-rule:nonzero;stroke:none"
           id="path12348"
           inkscape:connector-curvature="0" />
      </g>
      <g
         id="g12350"
         transform="translate(3.2729449,9.9103818)">
        <path
           d="m 0,0 c -0.54,0 -0.98,-0.44 -0.98,-0.98 l 0,-7.523 c 0,-0.54 0.44,-0.979 0.98,-0.979 l 7.521,0 c 0.542,0 0.982,0.439 0.982,0.979 l 0,7.523 C 8.503,-0.44 8.063,0 7.521,0 L 0,0 Z"
           style="fill:#ffffff;fill-opacity:1;fill-rule:nonzero;stroke:none"
           id="path12352"
           inkscape:connector-curvature="0" />
      </g>
      <g
         id="g12354"
         transform="translate(6.2534449,8.1554858)">
        <path
           d="M 0,0 C 0.314,0 0.568,0.254 0.568,0.566 0.568,0.881 0.314,1.135 0,1.135 -0.312,1.135 -0.566,0.881 -0.566,0.566 -0.566,0.254 -0.312,0 0,0"
           style="fill:#373535;fill-opacity:1;fill-rule:nonzero;stroke:none"
           id="path12356"
           inkscape:connector-curvature="0" />
      </g>
      <g
         id="g12358"
         transform="translate(3.0815449,5.3468858)">
        <path
           d="m 0,0 c 0,0.461 0.373,0.836 0.834,0.836 l 1.76,0 0,1.264 c 0,0.314 0.254,0.568 0.568,0.568 0.315,0 0.568,-0.254 0.568,-0.568 l 0,-0.196 0.838,-0.215 C 4.715,1.656 4.809,1.51 4.775,1.363 4.742,1.215 4.596,1.123 4.447,1.156 l -0.717,0.168 0,-0.488 0.844,0 L 6.883,3.225 6.814,2.604 7.951,1.848 C 8.139,1.74 8.207,1.498 8.1,1.31 8.016,1.16 7.848,1.088 7.689,1.117 L 7.598,1.134 C 7.488,0.691 7.088,0.365 6.613,0.365 6.52,0.365 6.428,0.379 6.342,0.402 l -0.862,-1.759 0,-2.414 c 0,-0.208 -0.169,-0.375 -0.376,-0.375 -0.208,0 -0.375,0.167 -0.375,0.375 l 0,2.468 -1.901,0 -0.34,-0.582 0.711,-1.695 C 3.303,-3.762 3.238,-3.99 3.059,-4.092 2.877,-4.195 2.648,-4.131 2.545,-3.95 l -0.83,1.956 0,0.623 -0.371,-0.584 0,-1.816 c 0,-0.208 -0.168,-0.375 -0.375,-0.375 -0.207,0 -0.377,0.167 -0.377,0.375 l 0,2.097 0.31,0.487 0,1.645 -0.308,-0.473 0,-1.37 L 0,-1.385 0,0 Z M 7.389,1.174 6.787,1.289 6.437,0.594 c 0.057,-0.014 0.116,-0.02 0.176,-0.02 0.373,0 0.686,0.254 0.776,0.6"
           style="fill:#373535;fill-opacity:1;fill-rule:nonzero;stroke:none"
           id="path12360"
           inkscape:connector-curvature="0" />
      </g>
    </g>
  </g>
</svg>
