<?xml version="1.0" encoding="UTF-8" standalone="no"?>
<!-- Created with Inkscape (http://www.inkscape.org/) -->

<svg
   xmlns:dc="http://purl.org/dc/elements/1.1/"
   xmlns:cc="http://creativecommons.org/ns#"
   xmlns:rdf="http://www.w3.org/1999/02/22-rdf-syntax-ns#"
   xmlns:svg="http://www.w3.org/2000/svg"
   xmlns="http://www.w3.org/2000/svg"
   xmlns:sodipodi="http://sodipodi.sourceforge.net/DTD/sodipodi-0.dtd"
   xmlns:inkscape="http://www.inkscape.org/namespaces/inkscape"
   width="1.7540805mm"
   height="2.2070446mm"
   viewBox="0 0 6.2152459 7.8202368"
   id="svg12014"
   version="1.1"
   inkscape:version="0.91 r13725"
   sodipodi:docname="LargeSpring2.svg">
  <defs
     id="defs12016" />
  <sodipodi:namedview
     id="base"
     pagecolor="#ffffff"
     bordercolor="#666666"
     borderopacity="1.0"
     inkscape:pageopacity="0.0"
     inkscape:pageshadow="2"
     inkscape:zoom="5.6"
     inkscape:cx="-7.3990977"
     inkscape:cy="0.61514433"
     inkscape:document-units="px"
     inkscape:current-layer="layer1"
     showgrid="false"
     fit-margin-top="0"
     fit-margin-left="0"
     fit-margin-right="0"
     fit-margin-bottom="0"
     inkscape:window-width="690"
     inkscape:window-height="405"
     inkscape:window-x="208"
     inkscape:window-y="208"
     inkscape:window-maximized="0" />
  <metadata
     id="metadata12019">
    <rdf:RDF>
      <cc:Work
         rdf:about="">
        <dc:format>image/svg+xml</dc:format>
        <dc:type
           rdf:resource="http://purl.org/dc/dcmitype/StillImage" />
        <dc:title></dc:title>
      </cc:Work>
    </rdf:RDF>
  </metadata>
  <g
     inkscape:label="Layer 1"
     inkscape:groupmode="layer"
     id="layer1"
     transform="translate(55.143817,-530.39791)">
    <g
       id="g3414"
       transform="matrix(1.2500001,0,0,-1.2500001,-49.544462,532.95057)">
      <path
         d="M 0,0 C 0.347,0.508 0.217,1.201 -0.291,1.549 -0.799,1.897 -1.492,1.766 -1.839,1.258 -2.186,0.75 -2.056,0.057 -1.548,-0.291 -1.04,-0.637 -0.347,-0.508 0,0 Z"
         style="fill:none;stroke:#00a7e8;stroke-width:0.60000002;stroke-linecap:butt;stroke-linejoin:miter;stroke-miterlimit:4;stroke-dasharray:none;stroke-opacity:1"
         id="path3416"
         inkscape:connector-curvature="0" />
    </g>
    <g
       id="g3418"
       transform="matrix(1.2500001,0,0,-1.2500001,-51.440842,533.34844)">
      <path
         d="m 0,0 c 0,0 -0.281,-0.17 -0.574,-0.123 0,0 -0.656,0.039 -0.753,-0.4 0,0 -0.027,-0.213 0.18,-0.594 0,0 0.264,-0.807 -0.042,-1.059 0,0 -0.168,-0.205 -0.899,-0.082 0,0 -0.359,-0.031 -0.249,-0.506 0,0 0.122,-0.269 -0.141,-0.582 L -2.78,-3.764"
         style="fill:none;stroke:#00a7e8;stroke-width:0.44999999;stroke-linecap:butt;stroke-linejoin:miter;stroke-miterlimit:4;stroke-dasharray:none;stroke-opacity:1"
         id="path3420"
         inkscape:connector-curvature="0" />
    </g>
  </g>
</svg>
