<?xml version="1.0" encoding="UTF-8" standalone="no"?>
<!-- Created with Inkscape (http://www.inkscape.org/) -->

<svg
   xmlns:dc="http://purl.org/dc/elements/1.1/"
   xmlns:cc="http://creativecommons.org/ns#"
   xmlns:rdf="http://www.w3.org/1999/02/22-rdf-syntax-ns#"
   xmlns:svg="http://www.w3.org/2000/svg"
   xmlns="http://www.w3.org/2000/svg"
   xmlns:sodipodi="http://sodipodi.sourceforge.net/DTD/sodipodi-0.dtd"
   xmlns:inkscape="http://www.inkscape.org/namespaces/inkscape"
   width="8.9997149mm"
   height="3.4999084mm"
   viewBox="0 0 31.888753 12.40125"
   id="svg16513"
   version="1.1"
   inkscape:version="0.91 r13725"
   sodipodi:docname="Marsh.svg">
  <defs
     id="defs16515">
    <clipPath
       clipPathUnits="userSpaceOnUse"
       id="clipPath5314">
      <path
         d="m 0,1224 792,0 L 792,0 0,0 0,1224 Z"
         id="path5316"
         inkscape:connector-curvature="0" />
    </clipPath>
    <clipPath
       clipPathUnits="userSpaceOnUse"
       id="clipPath5294">
      <path
         d="m 0,1224 792,0 L 792,0 0,0 0,1224 Z"
         id="path5296"
         inkscape:connector-curvature="0" />
    </clipPath>
    <clipPath
       clipPathUnits="userSpaceOnUse"
       id="clipPath4740">
      <path
         d="m 0,1224 792,0 L 792,0 0,0 0,1224 Z"
         id="path4742"
         inkscape:connector-curvature="0" />
    </clipPath>
  </defs>
  <sodipodi:namedview
     id="base"
     pagecolor="#ffffff"
     bordercolor="#666666"
     borderopacity="1.0"
     inkscape:pageopacity="0.0"
     inkscape:pageshadow="2"
     inkscape:zoom="0.35"
     inkscape:cx="-122.20884"
     inkscape:cy="298.30303"
     inkscape:document-units="px"
     inkscape:current-layer="layer1"
     showgrid="false"
     fit-margin-top="0"
     fit-margin-left="0"
     fit-margin-right="0"
     fit-margin-bottom="0"
     inkscape:window-width="690"
     inkscape:window-height="405"
     inkscape:window-x="26"
     inkscape:window-y="26"
     inkscape:window-maximized="0" />
  <metadata
     id="metadata16518">
    <rdf:RDF>
      <cc:Work
         rdf:about="">
        <dc:format>image/svg+xml</dc:format>
        <dc:type
           rdf:resource="http://purl.org/dc/dcmitype/StillImage" />
        <dc:title></dc:title>
      </cc:Work>
    </rdf:RDF>
  </metadata>
  <g
     inkscape:label="Layer 1"
     inkscape:groupmode="layer"
     id="layer1"
     transform="translate(-70.065975,-818.26399)">
    <path
       d="m 101.95473,818.26399 -31.888755,0 0,12.40125 31.888755,0 0,-12.40125 z"
       style="fill:#ffffff;fill-opacity:1;fill-rule:nonzero;stroke:none"
       id="path4292"
       inkscape:connector-curvature="0" />
    <g
       id="g4294"
       transform="matrix(1.25,0,0,-1.25,81.251725,824.58962)">
      <path
         d="M 0,0 1.372,0"
         style="fill:none;stroke:#373535;stroke-width:0.15000001;stroke-linecap:butt;stroke-linejoin:miter;stroke-miterlimit:4;stroke-dasharray:none;stroke-opacity:1"
         id="path4296"
         inkscape:connector-curvature="0" />
    </g>
    <g
       id="g4298"
       transform="matrix(1.25,0,0,-1.25,79.874845,824.03724)">
      <path
         d="M 0,0 3.685,0"
         style="fill:none;stroke:#373535;stroke-width:0.15000001;stroke-linecap:butt;stroke-linejoin:miter;stroke-miterlimit:4;stroke-dasharray:none;stroke-opacity:1"
         id="path4300"
         inkscape:connector-curvature="0" />
    </g>
    <g
       id="g4302"
       transform="matrix(1.25,0,0,-1.25,82.124605,822.61324)">
      <path
         d="M 0,0 0,-0.837"
         style="fill:none;stroke:#373535;stroke-width:0.15000001;stroke-linecap:butt;stroke-linejoin:miter;stroke-miterlimit:4;stroke-dasharray:none;stroke-opacity:1"
         id="path4304"
         inkscape:connector-curvature="0" />
    </g>
    <g
       id="g4306"
       transform="matrix(1.25,0,0,-1.25,81.338475,822.93374)">
      <path
         d="M 0,0 0.095,-0.604"
         style="fill:none;stroke:#373535;stroke-width:0.15000001;stroke-linecap:butt;stroke-linejoin:miter;stroke-miterlimit:4;stroke-dasharray:none;stroke-opacity:1"
         id="path4308"
         inkscape:connector-curvature="0" />
    </g>
    <g
       id="g4310"
       transform="matrix(1.25,0,0,-1.25,80.699975,823.34024)">
      <path
         d="M 0,0 0.164,-0.279"
         style="fill:none;stroke:#373535;stroke-width:0.15000001;stroke-linecap:butt;stroke-linejoin:miter;stroke-miterlimit:4;stroke-dasharray:none;stroke-opacity:1"
         id="path4312"
         inkscape:connector-curvature="0" />
    </g>
    <g
       id="g4314"
       transform="matrix(1.25,0,0,-1.25,82.878975,822.90449)">
      <path
         d="M 0,0 -0.093,-0.604"
         style="fill:none;stroke:#373535;stroke-width:0.15000001;stroke-linecap:butt;stroke-linejoin:miter;stroke-miterlimit:4;stroke-dasharray:none;stroke-opacity:1"
         id="path4316"
         inkscape:connector-curvature="0" />
    </g>
    <g
       id="g4318"
       transform="matrix(1.25,0,0,-1.25,83.517345,823.31099)">
      <path
         d="M 0,0 -0.162,-0.279"
         style="fill:none;stroke:#373535;stroke-width:0.15000001;stroke-linecap:butt;stroke-linejoin:miter;stroke-miterlimit:4;stroke-dasharray:none;stroke-opacity:1"
         id="path4320"
         inkscape:connector-curvature="0" />
    </g>
    <g
       id="g4322"
       transform="matrix(1.25,0,0,-1.25,89.393845,829.83562)">
      <path
         d="M 0,0 1.51,0"
         style="fill:none;stroke:#373535;stroke-width:0.15000001;stroke-linecap:butt;stroke-linejoin:miter;stroke-miterlimit:4;stroke-dasharray:none;stroke-opacity:1"
         id="path4324"
         inkscape:connector-curvature="0" />
    </g>
    <g
       id="g4326"
       transform="matrix(1.25,0,0,-1.25,87.234475,829.20086)">
      <path
         d="M 0,0 4.749,0"
         style="fill:none;stroke:#373535;stroke-width:0.15000001;stroke-linecap:butt;stroke-linejoin:miter;stroke-miterlimit:4;stroke-dasharray:none;stroke-opacity:1"
         id="path4328"
         inkscape:connector-curvature="0" />
    </g>
    <g
       id="g4330"
       transform="matrix(1.25,0,0,-1.25,90.206855,827.77686)">
      <path
         d="M 0,0 0,-0.836"
         style="fill:none;stroke:#373535;stroke-width:0.15000001;stroke-linecap:butt;stroke-linejoin:miter;stroke-miterlimit:4;stroke-dasharray:none;stroke-opacity:1"
         id="path4332"
         inkscape:connector-curvature="0" />
    </g>
    <g
       id="g4334"
       transform="matrix(1.25,0,0,-1.25,89.421975,828.09674)">
      <path
         d="M 0,0 0.093,-0.604"
         style="fill:none;stroke:#373535;stroke-width:0.15000001;stroke-linecap:butt;stroke-linejoin:miter;stroke-miterlimit:4;stroke-dasharray:none;stroke-opacity:1"
         id="path4336"
         inkscape:connector-curvature="0" />
    </g>
    <g
       id="g4338"
       transform="matrix(1.25,0,0,-1.25,88.783475,828.50324)">
      <path
         d="M 0,0 0.162,-0.279"
         style="fill:none;stroke:#373535;stroke-width:0.15000001;stroke-linecap:butt;stroke-linejoin:miter;stroke-miterlimit:4;stroke-dasharray:none;stroke-opacity:1"
         id="path4340"
         inkscape:connector-curvature="0" />
    </g>
    <g
       id="g4342"
       transform="matrix(1.25,0,0,-1.25,90.962475,828.06737)">
      <path
         d="M 0,0 -0.095,-0.604"
         style="fill:none;stroke:#373535;stroke-width:0.15000001;stroke-linecap:butt;stroke-linejoin:miter;stroke-miterlimit:4;stroke-dasharray:none;stroke-opacity:1"
         id="path4344"
         inkscape:connector-curvature="0" />
    </g>
    <g
       id="g4346"
       transform="matrix(1.25,0,0,-1.25,91.600855,828.47386)">
      <path
         d="M 0,0 -0.162,-0.279"
         style="fill:none;stroke:#373535;stroke-width:0.15000001;stroke-linecap:butt;stroke-linejoin:miter;stroke-miterlimit:4;stroke-dasharray:none;stroke-opacity:1"
         id="path4348"
         inkscape:connector-curvature="0" />
    </g>
    <g
       id="g4350"
       transform="matrix(1.25,0,0,-1.25,79.603845,829.78986)">
      <path
         d="M 0,0 1.373,0"
         style="fill:none;stroke:#373535;stroke-width:0.15000001;stroke-linecap:butt;stroke-linejoin:miter;stroke-miterlimit:4;stroke-dasharray:none;stroke-opacity:1"
         id="path4352"
         inkscape:connector-curvature="0" />
    </g>
    <g
       id="g4354"
       transform="matrix(1.25,0,0,-1.25,78.228095,829.23811)">
      <path
         d="M 0,0 3.685,0"
         style="fill:none;stroke:#373535;stroke-width:0.15000001;stroke-linecap:butt;stroke-linejoin:miter;stroke-miterlimit:4;stroke-dasharray:none;stroke-opacity:1"
         id="path4356"
         inkscape:connector-curvature="0" />
    </g>
    <g
       id="g4358"
       transform="matrix(1.25,0,0,-1.25,80.477855,827.81474)">
      <path
         d="M 0,0 0,-0.837"
         style="fill:none;stroke:#373535;stroke-width:0.15000001;stroke-linecap:butt;stroke-linejoin:miter;stroke-miterlimit:4;stroke-dasharray:none;stroke-opacity:1"
         id="path4360"
         inkscape:connector-curvature="0" />
    </g>
    <g
       id="g4362"
       transform="matrix(1.25,0,0,-1.25,79.691725,828.13386)">
      <path
         d="M 0,0 0.093,-0.604"
         style="fill:none;stroke:#373535;stroke-width:0.15000001;stroke-linecap:butt;stroke-linejoin:miter;stroke-miterlimit:4;stroke-dasharray:none;stroke-opacity:1"
         id="path4364"
         inkscape:connector-curvature="0" />
    </g>
    <g
       id="g4366"
       transform="matrix(1.25,0,0,-1.25,79.052105,828.54099)">
      <path
         d="M 0,0 0.164,-0.279"
         style="fill:none;stroke:#373535;stroke-width:0.15000001;stroke-linecap:butt;stroke-linejoin:miter;stroke-miterlimit:4;stroke-dasharray:none;stroke-opacity:1"
         id="path4368"
         inkscape:connector-curvature="0" />
    </g>
    <g
       id="g4370"
       transform="matrix(1.25,0,0,-1.25,81.232225,828.10524)">
      <path
         d="M 0,0 -0.094,-0.604"
         style="fill:none;stroke:#373535;stroke-width:0.15000001;stroke-linecap:butt;stroke-linejoin:miter;stroke-miterlimit:4;stroke-dasharray:none;stroke-opacity:1"
         id="path4372"
         inkscape:connector-curvature="0" />
    </g>
    <g
       id="g4374"
       transform="matrix(1.25,0,0,-1.25,81.871855,828.51236)">
      <path
         d="M 0,0 -0.164,-0.279"
         style="fill:none;stroke:#373535;stroke-width:0.15000001;stroke-linecap:butt;stroke-linejoin:miter;stroke-miterlimit:4;stroke-dasharray:none;stroke-opacity:1"
         id="path4376"
         inkscape:connector-curvature="0" />
    </g>
    <g
       id="g4378"
       transform="matrix(1.25,0,0,-1.25,73.473475,820.89449)">
      <path
         d="M 0,0 1.513,0"
         style="fill:none;stroke:#373535;stroke-width:0.15000001;stroke-linecap:butt;stroke-linejoin:miter;stroke-miterlimit:4;stroke-dasharray:none;stroke-opacity:1"
         id="path4380"
         inkscape:connector-curvature="0" />
    </g>
    <g
       id="g4382"
       transform="matrix(1.25,0,0,-1.25,71.316475,820.17674)">
      <path
         d="M 0,0 4.747,0"
         style="fill:none;stroke:#373535;stroke-width:0.15000001;stroke-linecap:butt;stroke-linejoin:miter;stroke-miterlimit:4;stroke-dasharray:none;stroke-opacity:1"
         id="path4384"
         inkscape:connector-curvature="0" />
    </g>
    <g
       id="g4386"
       transform="matrix(1.25,0,0,-1.25,74.288845,818.75349)">
      <path
         d="M 0,0 0,-0.837"
         style="fill:none;stroke:#373535;stroke-width:0.15000001;stroke-linecap:butt;stroke-linejoin:miter;stroke-miterlimit:4;stroke-dasharray:none;stroke-opacity:1"
         id="path4388"
         inkscape:connector-curvature="0" />
    </g>
    <g
       id="g4390"
       transform="matrix(1.25,0,0,-1.25,73.503975,819.07261)">
      <path
         d="M 0,0 0.093,-0.604"
         style="fill:none;stroke:#373535;stroke-width:0.15000001;stroke-linecap:butt;stroke-linejoin:miter;stroke-miterlimit:4;stroke-dasharray:none;stroke-opacity:1"
         id="path4392"
         inkscape:connector-curvature="0" />
    </g>
    <g
       id="g4394"
       transform="matrix(1.25,0,0,-1.25,72.864355,819.47974)">
      <path
         d="M 0,0 0.163,-0.279"
         style="fill:none;stroke:#373535;stroke-width:0.15000001;stroke-linecap:butt;stroke-linejoin:miter;stroke-miterlimit:4;stroke-dasharray:none;stroke-opacity:1"
         id="path4396"
         inkscape:connector-curvature="0" />
    </g>
    <g
       id="g4398"
       transform="matrix(1.25,0,0,-1.25,75.043225,819.04399)">
      <path
         d="M 0,0 -0.093,-0.604"
         style="fill:none;stroke:#373535;stroke-width:0.15000001;stroke-linecap:butt;stroke-linejoin:miter;stroke-miterlimit:4;stroke-dasharray:none;stroke-opacity:1"
         id="path4400"
         inkscape:connector-curvature="0" />
    </g>
    <g
       id="g4402"
       transform="matrix(1.25,0,0,-1.25,75.682975,819.45049)">
      <path
         d="M 0,0 -0.163,-0.279"
         style="fill:none;stroke:#373535;stroke-width:0.15000001;stroke-linecap:butt;stroke-linejoin:miter;stroke-miterlimit:4;stroke-dasharray:none;stroke-opacity:1"
         id="path4404"
         inkscape:connector-curvature="0" />
    </g>
    <g
       id="g4406"
       transform="matrix(1.25,0,0,-1.25,85.400975,821.14787)">
      <path
         d="M 0,0 4.456,0"
         style="fill:none;stroke:#373535;stroke-width:0.15000001;stroke-linecap:butt;stroke-linejoin:miter;stroke-miterlimit:4;stroke-dasharray:none;stroke-opacity:1"
         id="path4408"
         inkscape:connector-curvature="0" />
    </g>
    <g
       id="g4410"
       transform="matrix(1.25,0,0,-1.25,87.924095,819.54999)">
      <path
         d="M 0,0 0,-0.976"
         style="fill:none;stroke:#373535;stroke-width:0.15000001;stroke-linecap:butt;stroke-linejoin:miter;stroke-miterlimit:4;stroke-dasharray:none;stroke-opacity:1"
         id="path4412"
         inkscape:connector-curvature="0" />
    </g>
    <g
       id="g4414"
       transform="matrix(1.25,0,0,-1.25,87.167355,819.95649)">
      <path
         d="M 0,0 0.07,-0.674"
         style="fill:none;stroke:#373535;stroke-width:0.15000001;stroke-linecap:butt;stroke-linejoin:miter;stroke-miterlimit:4;stroke-dasharray:none;stroke-opacity:1"
         id="path4416"
         inkscape:connector-curvature="0" />
    </g>
    <g
       id="g4418"
       transform="matrix(1.25,0,0,-1.25,86.471475,820.36299)">
      <path
         d="M 0,0 0.186,-0.349"
         style="fill:none;stroke:#373535;stroke-width:0.15000001;stroke-linecap:butt;stroke-linejoin:miter;stroke-miterlimit:4;stroke-dasharray:none;stroke-opacity:1"
         id="path4420"
         inkscape:connector-curvature="0" />
    </g>
    <g
       id="g4422"
       transform="matrix(1.25,0,0,-1.25,88.680975,819.75324)">
      <path
         d="M 0,0 -0.095,-0.813"
         style="fill:none;stroke:#373535;stroke-width:0.15000001;stroke-linecap:butt;stroke-linejoin:miter;stroke-miterlimit:4;stroke-dasharray:none;stroke-opacity:1"
         id="path4424"
         inkscape:connector-curvature="0" />
    </g>
    <g
       id="g4426"
       transform="matrix(1.25,0,0,-1.25,89.318225,820.15974)">
      <path
         d="M 0,0 -0.163,-0.488"
         style="fill:none;stroke:#373535;stroke-width:0.15000001;stroke-linecap:butt;stroke-linejoin:miter;stroke-miterlimit:4;stroke-dasharray:none;stroke-opacity:1"
         id="path4428"
         inkscape:connector-curvature="0" />
    </g>
    <g
       id="g4430"
       transform="matrix(1.25,0,0,-1.25,89.841855,820.53749)">
      <path
         d="M 0,0 -0.14,-0.21"
         style="fill:none;stroke:#373535;stroke-width:0.15000001;stroke-linecap:butt;stroke-linejoin:miter;stroke-miterlimit:4;stroke-dasharray:none;stroke-opacity:1"
         id="path4432"
         inkscape:connector-curvature="0" />
    </g>
    <g
       id="g4434"
       transform="matrix(1.25,0,0,-1.25,97.936345,829.96624)">
      <path
         d="M 0,0 1.888,0"
         style="fill:none;stroke:#373535;stroke-width:0.15000001;stroke-linecap:butt;stroke-linejoin:miter;stroke-miterlimit:4;stroke-dasharray:none;stroke-opacity:1"
         id="path4436"
         inkscape:connector-curvature="0" />
    </g>
    <g
       id="g4438"
       transform="matrix(1.25,0,0,-1.25,95.238605,829.06836)">
      <path
         d="M 0,0 5.311,0"
         style="fill:none;stroke:#373535;stroke-width:0.15000001;stroke-linecap:butt;stroke-linejoin:miter;stroke-miterlimit:4;stroke-dasharray:none;stroke-opacity:1"
         id="path4440"
         inkscape:connector-curvature="0" />
    </g>
    <g
       id="g4442"
       transform="matrix(1.25,0,0,-1.25,98.951975,827.28924)">
      <path
         d="M 0,0 0,-1.046"
         style="fill:none;stroke:#373535;stroke-width:0.15000001;stroke-linecap:butt;stroke-linejoin:miter;stroke-miterlimit:4;stroke-dasharray:none;stroke-opacity:1"
         id="path4444"
         inkscape:connector-curvature="0" />
    </g>
    <g
       id="g4446"
       transform="matrix(1.25,0,0,-1.25,97.972975,827.68774)">
      <path
         d="M 0,0 0.115,-0.756"
         style="fill:none;stroke:#373535;stroke-width:0.15000001;stroke-linecap:butt;stroke-linejoin:miter;stroke-miterlimit:4;stroke-dasharray:none;stroke-opacity:1"
         id="path4448"
         inkscape:connector-curvature="0" />
    </g>
    <g
       id="g4450"
       transform="matrix(1.25,0,0,-1.25,97.172225,828.19674)">
      <path
         d="M 0,0 0.204,-0.349"
         style="fill:none;stroke:#373535;stroke-width:0.15000001;stroke-linecap:butt;stroke-linejoin:miter;stroke-miterlimit:4;stroke-dasharray:none;stroke-opacity:1"
         id="path4452"
         inkscape:connector-curvature="0" />
    </g>
    <g
       id="g4454"
       transform="matrix(1.25,0,0,-1.25,99.895605,827.65174)">
      <path
         d="M 0,0 -0.116,-0.756"
         style="fill:none;stroke:#373535;stroke-width:0.15000001;stroke-linecap:butt;stroke-linejoin:miter;stroke-miterlimit:4;stroke-dasharray:none;stroke-opacity:1"
         id="path4456"
         inkscape:connector-curvature="0" />
    </g>
    <g
       id="g4458"
       transform="matrix(1.25,0,0,-1.25,100.69635,828.16011)">
      <path
         d="M 0,0 -0.204,-0.349"
         style="fill:none;stroke:#373535;stroke-width:0.15000001;stroke-linecap:butt;stroke-linejoin:miter;stroke-miterlimit:4;stroke-dasharray:none;stroke-opacity:1"
         id="path4460"
         inkscape:connector-curvature="0" />
    </g>
    <g
       id="g4462"
       transform="matrix(1.25,0,0,-1.25,96.393345,821.02574)">
      <path
         d="M 0,0 1.371,0"
         style="fill:none;stroke:#373535;stroke-width:0.15000001;stroke-linecap:butt;stroke-linejoin:miter;stroke-miterlimit:4;stroke-dasharray:none;stroke-opacity:1"
         id="path4464"
         inkscape:connector-curvature="0" />
    </g>
    <g
       id="g4466"
       transform="matrix(1.25,0,0,-1.25,94.508595,820.47399)">
      <path
         d="M 0,0 4.455,0"
         style="fill:none;stroke:#373535;stroke-width:0.15000001;stroke-linecap:butt;stroke-linejoin:miter;stroke-miterlimit:4;stroke-dasharray:none;stroke-opacity:1"
         id="path4468"
         inkscape:connector-curvature="0" />
    </g>
    <g
       id="g4470"
       transform="matrix(1.25,0,0,-1.25,97.032975,818.87611)">
      <path
         d="M 0,0 0,-0.976"
         style="fill:none;stroke:#373535;stroke-width:0.15000001;stroke-linecap:butt;stroke-linejoin:miter;stroke-miterlimit:4;stroke-dasharray:none;stroke-opacity:1"
         id="path4472"
         inkscape:connector-curvature="0" />
    </g>
    <g
       id="g4474"
       transform="matrix(1.25,0,0,-1.25,96.276225,819.28324)">
      <path
         d="M 0,0 0.07,-0.674"
         style="fill:none;stroke:#373535;stroke-width:0.15000001;stroke-linecap:butt;stroke-linejoin:miter;stroke-miterlimit:4;stroke-dasharray:none;stroke-opacity:1"
         id="path4476"
         inkscape:connector-curvature="0" />
    </g>
    <g
       id="g4478"
       transform="matrix(1.25,0,0,-1.25,95.577975,819.68974)">
      <path
         d="M 0,0 0.187,-0.349"
         style="fill:none;stroke:#373535;stroke-width:0.15000001;stroke-linecap:butt;stroke-linejoin:miter;stroke-miterlimit:4;stroke-dasharray:none;stroke-opacity:1"
         id="path4480"
         inkscape:connector-curvature="0" />
    </g>
    <g
       id="g4482"
       transform="matrix(1.25,0,0,-1.25,97.786225,819.07937)">
      <path
         d="M 0,0 -0.092,-0.814"
         style="fill:none;stroke:#373535;stroke-width:0.15000001;stroke-linecap:butt;stroke-linejoin:miter;stroke-miterlimit:4;stroke-dasharray:none;stroke-opacity:1"
         id="path4484"
         inkscape:connector-curvature="0" />
    </g>
    <g
       id="g4486"
       transform="matrix(1.25,0,0,-1.25,98.425855,819.48649)">
      <path
         d="M 0,0 -0.162,-0.488"
         style="fill:none;stroke:#373535;stroke-width:0.15000001;stroke-linecap:butt;stroke-linejoin:miter;stroke-miterlimit:4;stroke-dasharray:none;stroke-opacity:1"
         id="path4488"
         inkscape:connector-curvature="0" />
    </g>
    <g
       id="g4490"
       transform="matrix(1.25,0,0,-1.25,98.948345,819.86361)">
      <path
         d="M 0,0 -0.139,-0.209"
         style="fill:none;stroke:#373535;stroke-width:0.15000001;stroke-linecap:butt;stroke-linejoin:miter;stroke-miterlimit:4;stroke-dasharray:none;stroke-opacity:1"
         id="path4492"
         inkscape:connector-curvature="0" />
    </g>
    <g
       id="g4494"
       transform="matrix(1.25,0,0,-1.25,79.579475,819.89361)">
      <path
         d="M 0,0 2.424,0"
         style="fill:none;stroke:#373535;stroke-width:0.15000001;stroke-linecap:butt;stroke-linejoin:miter;stroke-miterlimit:4;stroke-dasharray:none;stroke-opacity:1"
         id="path4496"
         inkscape:connector-curvature="0" />
    </g>
    <g
       id="g4498"
       transform="matrix(1.25,0,0,-1.25,72.665355,823.33111)">
      <path
         d="M 0,0 2.422,0"
         style="fill:none;stroke:#373535;stroke-width:0.15000001;stroke-linecap:butt;stroke-linejoin:miter;stroke-miterlimit:4;stroke-dasharray:none;stroke-opacity:1"
         id="path4500"
         inkscape:connector-curvature="0" />
    </g>
    <g
       id="g4502"
       transform="matrix(1.25,0,0,-1.25,98.866475,825.07974)">
      <path
         d="M 0,0 2.422,0"
         style="fill:none;stroke:#373535;stroke-width:0.15000001;stroke-linecap:butt;stroke-linejoin:miter;stroke-miterlimit:4;stroke-dasharray:none;stroke-opacity:1"
         id="path4504"
         inkscape:connector-curvature="0" />
    </g>
    <g
       id="g4506"
       transform="matrix(1.25,0,0,-1.25,95.535225,823.07224)">
      <path
         d="M 0,0 2.422,0"
         style="fill:none;stroke:#373535;stroke-width:0.15000001;stroke-linecap:butt;stroke-linejoin:miter;stroke-miterlimit:4;stroke-dasharray:none;stroke-opacity:1"
         id="path4508"
         inkscape:connector-curvature="0" />
    </g>
    <g
       id="g4510"
       transform="matrix(1.25,0,0,-1.25,70.189725,829.81786)">
      <path
         d="M 0,0 2.423,0"
         style="fill:none;stroke:#373535;stroke-width:0.15000001;stroke-linecap:butt;stroke-linejoin:miter;stroke-miterlimit:4;stroke-dasharray:none;stroke-opacity:1"
         id="path4512"
         inkscape:connector-curvature="0" />
    </g>
    <g
       id="g4514"
       transform="matrix(1.25,0,0,-1.25,83.185345,826.56412)">
      <path
         d="M 0,0 2.422,0"
         style="fill:none;stroke:#373535;stroke-width:0.15000001;stroke-linecap:butt;stroke-linejoin:miter;stroke-miterlimit:4;stroke-dasharray:none;stroke-opacity:1"
         id="path4516"
         inkscape:connector-curvature="0" />
    </g>
    <g
       id="g4518"
       transform="matrix(1.25,0,0,-1.25,72.666595,827.57424)">
      <path
         d="M 0,0 1.371,0"
         style="fill:none;stroke:#373535;stroke-width:0.15000001;stroke-linecap:butt;stroke-linejoin:miter;stroke-miterlimit:4;stroke-dasharray:none;stroke-opacity:1"
         id="path4520"
         inkscape:connector-curvature="0" />
    </g>
    <g
       id="g4522"
       transform="matrix(1.25,0,0,-1.25,70.782975,826.85586)">
      <path
         d="M 0,0 4.456,0"
         style="fill:none;stroke:#373535;stroke-width:0.15000001;stroke-linecap:butt;stroke-linejoin:miter;stroke-miterlimit:4;stroke-dasharray:none;stroke-opacity:1"
         id="path4524"
         inkscape:connector-curvature="0" />
    </g>
    <g
       id="g4526"
       transform="matrix(1.25,0,0,-1.25,73.306225,825.25799)">
      <path
         d="M 0,0 0,-0.976"
         style="fill:none;stroke:#373535;stroke-width:0.15000001;stroke-linecap:butt;stroke-linejoin:miter;stroke-miterlimit:4;stroke-dasharray:none;stroke-opacity:1"
         id="path4528"
         inkscape:connector-curvature="0" />
    </g>
    <g
       id="g4530"
       transform="matrix(1.25,0,0,-1.25,72.551855,825.66449)">
      <path
         d="M 0,0 0.069,-0.674"
         style="fill:none;stroke:#373535;stroke-width:0.15000001;stroke-linecap:butt;stroke-linejoin:miter;stroke-miterlimit:4;stroke-dasharray:none;stroke-opacity:1"
         id="path4532"
         inkscape:connector-curvature="0" />
    </g>
    <g
       id="g4534"
       transform="matrix(1.25,0,0,-1.25,71.853595,826.07149)">
      <path
         d="M 0,0 0.187,-0.349"
         style="fill:none;stroke:#373535;stroke-width:0.15000001;stroke-linecap:butt;stroke-linejoin:miter;stroke-miterlimit:4;stroke-dasharray:none;stroke-opacity:1"
         id="path4536"
         inkscape:connector-curvature="0" />
    </g>
    <g
       id="g4538"
       transform="matrix(1.25,0,0,-1.25,74.061845,825.46124)">
      <path
         d="M 0,0 -0.094,-0.813"
         style="fill:none;stroke:#373535;stroke-width:0.15000001;stroke-linecap:butt;stroke-linejoin:miter;stroke-miterlimit:4;stroke-dasharray:none;stroke-opacity:1"
         id="path4540"
         inkscape:connector-curvature="0" />
    </g>
    <g
       id="g4542"
       transform="matrix(1.25,0,0,-1.25,74.701475,825.86824)">
      <path
         d="M 0,0 -0.164,-0.488"
         style="fill:none;stroke:#373535;stroke-width:0.15000001;stroke-linecap:butt;stroke-linejoin:miter;stroke-miterlimit:4;stroke-dasharray:none;stroke-opacity:1"
         id="path4544"
         inkscape:connector-curvature="0" />
    </g>
    <g
       id="g4546"
       transform="matrix(1.25,0,0,-1.25,75.223975,826.24611)">
      <path
         d="M 0,0 -0.141,-0.209"
         style="fill:none;stroke:#373535;stroke-width:0.15000001;stroke-linecap:butt;stroke-linejoin:miter;stroke-miterlimit:4;stroke-dasharray:none;stroke-opacity:1"
         id="path4548"
         inkscape:connector-curvature="0" />
    </g>
    <g
       id="g4550"
       transform="matrix(1.25,0,0,-1.25,91.366475,826.21986)">
      <path
         d="M 0,0 1.372,0"
         style="fill:none;stroke:#373535;stroke-width:0.15000001;stroke-linecap:butt;stroke-linejoin:miter;stroke-miterlimit:4;stroke-dasharray:none;stroke-opacity:1"
         id="path4552"
         inkscape:connector-curvature="0" />
    </g>
    <g
       id="g4554"
       transform="matrix(1.25,0,0,-1.25,89.482975,825.50211)">
      <path
         d="M 0,0 4.455,0"
         style="fill:none;stroke:#373535;stroke-width:0.15000001;stroke-linecap:butt;stroke-linejoin:miter;stroke-miterlimit:4;stroke-dasharray:none;stroke-opacity:1"
         id="path4556"
         inkscape:connector-curvature="0" />
    </g>
    <g
       id="g4558"
       transform="matrix(1.25,0,0,-1.25,92.004975,823.90424)">
      <path
         d="M 0,0 0,-0.975"
         style="fill:none;stroke:#373535;stroke-width:0.15000001;stroke-linecap:butt;stroke-linejoin:miter;stroke-miterlimit:4;stroke-dasharray:none;stroke-opacity:1"
         id="path4560"
         inkscape:connector-curvature="0" />
    </g>
    <g
       id="g4562"
       transform="matrix(1.25,0,0,-1.25,91.251725,824.31074)">
      <path
         d="M 0,0 0.068,-0.674"
         style="fill:none;stroke:#373535;stroke-width:0.15000001;stroke-linecap:butt;stroke-linejoin:miter;stroke-miterlimit:4;stroke-dasharray:none;stroke-opacity:1"
         id="path4564"
         inkscape:connector-curvature="0" />
    </g>
    <g
       id="g4566"
       transform="matrix(1.25,0,0,-1.25,90.552345,824.71724)">
      <path
         d="M 0,0 0.186,-0.349"
         style="fill:none;stroke:#373535;stroke-width:0.15000001;stroke-linecap:butt;stroke-linejoin:miter;stroke-miterlimit:4;stroke-dasharray:none;stroke-opacity:1"
         id="path4568"
         inkscape:connector-curvature="0" />
    </g>
    <g
       id="g4570"
       transform="matrix(1.25,0,0,-1.25,92.760595,824.10749)">
      <path
         d="M 0,0 -0.093,-0.813"
         style="fill:none;stroke:#373535;stroke-width:0.15000001;stroke-linecap:butt;stroke-linejoin:miter;stroke-miterlimit:4;stroke-dasharray:none;stroke-opacity:1"
         id="path4572"
         inkscape:connector-curvature="0" />
    </g>
    <g
       id="g4574"
       transform="matrix(1.25,0,0,-1.25,93.400225,824.51399)">
      <path
         d="M 0,0 -0.162,-0.488"
         style="fill:none;stroke:#373535;stroke-width:0.15000001;stroke-linecap:butt;stroke-linejoin:miter;stroke-miterlimit:4;stroke-dasharray:none;stroke-opacity:1"
         id="path4576"
         inkscape:connector-curvature="0" />
    </g>
    <g
       id="g4578"
       transform="matrix(1.25,0,0,-1.25,93.922725,824.89174)">
      <path
         d="M 0,0 -0.139,-0.21"
         style="fill:none;stroke:#373535;stroke-width:0.15000001;stroke-linecap:butt;stroke-linejoin:miter;stroke-miterlimit:4;stroke-dasharray:none;stroke-opacity:1"
         id="path4580"
         inkscape:connector-curvature="0" />
    </g>
    <g
       id="g4582"
       transform="matrix(1.25,0,0,-1.25,87.145355,821.66237)">
      <path
         d="M 0,0 1.371,0"
         style="fill:none;stroke:#373535;stroke-width:0.15000001;stroke-linecap:butt;stroke-linejoin:miter;stroke-miterlimit:4;stroke-dasharray:none;stroke-opacity:1"
         id="path4584"
         inkscape:connector-curvature="0" />
    </g>
  </g>
</svg>
