<?xml version="1.0" encoding="UTF-8" standalone="no"?>
<!-- Created with Inkscape (http://www.inkscape.org/) -->

<svg
   xmlns:dc="http://purl.org/dc/elements/1.1/"
   xmlns:cc="http://creativecommons.org/ns#"
   xmlns:rdf="http://www.w3.org/1999/02/22-rdf-syntax-ns#"
   xmlns:svg="http://www.w3.org/2000/svg"
   xmlns="http://www.w3.org/2000/svg"
   xmlns:sodipodi="http://sodipodi.sourceforge.net/DTD/sodipodi-0.dtd"
   xmlns:inkscape="http://www.inkscape.org/namespaces/inkscape"
   width="9.1058998mm"
   height="3.6057417mm"
   viewBox="0 0 32.264999 12.77625"
   id="svg16513"
   version="1.1"
   inkscape:version="0.91 r13725"
   sodipodi:docname="Rapids.svg">
  <defs
     id="defs16515">
    <clipPath
       clipPathUnits="userSpaceOnUse"
       id="clipPath5314">
      <path
         d="m 0,1224 792,0 L 792,0 0,0 0,1224 Z"
         id="path5316"
         inkscape:connector-curvature="0" />
    </clipPath>
    <clipPath
       clipPathUnits="userSpaceOnUse"
       id="clipPath5294">
      <path
         d="m 0,1224 792,0 L 792,0 0,0 0,1224 Z"
         id="path5296"
         inkscape:connector-curvature="0" />
    </clipPath>
    <clipPath
       clipPathUnits="userSpaceOnUse"
       id="clipPath4740">
      <path
         d="m 0,1224 792,0 L 792,0 0,0 0,1224 Z"
         id="path4742"
         inkscape:connector-curvature="0" />
    </clipPath>
  </defs>
  <sodipodi:namedview
     id="base"
     pagecolor="#ffffff"
     bordercolor="#666666"
     borderopacity="1.0"
     inkscape:pageopacity="0.0"
     inkscape:pageshadow="2"
     inkscape:zoom="0.35"
     inkscape:cx="16.1325"
     inkscape:cy="6.3881222"
     inkscape:document-units="px"
     inkscape:current-layer="layer1"
     showgrid="false"
     fit-margin-top="0"
     fit-margin-left="0"
     fit-margin-right="0"
     fit-margin-bottom="0"
     inkscape:window-width="690"
     inkscape:window-height="405"
     inkscape:window-x="26"
     inkscape:window-y="26"
     inkscape:window-maximized="0" />
  <metadata
     id="metadata16518">
    <rdf:RDF>
      <cc:Work
         rdf:about="">
        <dc:format>image/svg+xml</dc:format>
        <dc:type
           rdf:resource="http://purl.org/dc/dcmitype/StillImage" />
        <dc:title></dc:title>
      </cc:Work>
    </rdf:RDF>
  </metadata>
  <g
     inkscape:label="Layer 1"
     inkscape:groupmode="layer"
     id="layer1"
     transform="translate(68.275364,-525.97408)">
    <path
       d="m -36.197864,526.16158 -31.89,0 0,12.40125 31.89,0 0,-12.40125 z"
       style="fill:#ffffff;fill-opacity:1;fill-rule:nonzero;stroke:none"
       id="path4762"
       inkscape:connector-curvature="0" />
    <g
       id="g4764"
       transform="matrix(1.25,0,0,-1.25,-41.345114,531.56871)">
      <path
         d="m 0,0 c 0,0 -0.7,0.196 -1.596,0.393 l -0.071,0.014 c -0.031,0.007 -0.065,0.012 -0.096,0.019 l 0,-3.061 c 0.032,-0.002 0.065,-0.005 0.096,-0.007 l 0.059,-0.007 c 1.126,-0.057 2.15,-0.037 3.191,0.149 2.334,0.417 2.523,0.667 2.523,0.667 L 4.106,0 0,0 Z"
         style="fill:#dddddf;fill-opacity:1;fill-rule:nonzero;stroke:none"
         id="path4766"
         inkscape:connector-curvature="0" />
    </g>
    <g
       id="g4780"
       transform="matrix(1.25,0,0,-1.25,-46.006984,530.63121)">
      <path
         d="m 0,0 c -2.911,0.306 -4,-0.333 -4.833,-0.083 -0.833,0.25 -2.917,0.5 -3.917,0.166 -0.349,-0.116 -1.531,-0.222 -2.916,-0.31 l -0.145,0.055 c -0.014,-0.001 -0.03,-0.001 -0.043,-0.003 l 0,-3.113 c 0.013,-0.001 0.024,-0.003 0.038,-0.004 l 0.15,-0.067 c 0.775,-0.061 1.746,-0.067 2.833,0.109 2.583,0.417 2.5,0.5 6,0.25 1.896,-0.135 3.417,-0.315 4.792,-0.389 l 0,3.054 C 1.334,-0.199 0.63,-0.066 0,0"
         style="fill:#373535;fill-opacity:1;fill-rule:nonzero;stroke:none"
         id="path4782"
         inkscape:connector-curvature="0" />
    </g>
    <g
       id="g4784"
       transform="matrix(1.25,0,0,-1.25,-68.046744,531.20371)">
      <path
         d="m 0,0 0,-1.917 4.174,-0.646 c 0,0 0.617,-0.178 1.604,-0.267 l 0,3.113 C 3.206,0.122 0,0 0,0"
         style="fill:#dddddf;fill-opacity:1;fill-rule:nonzero;stroke:none"
         id="path4786"
         inkscape:connector-curvature="0" />
    </g>
    <path
       inkscape:connector-curvature="0"
       id="path4790"
       style="fill:none;stroke:#373535;stroke-width:0.375;stroke-linecap:butt;stroke-linejoin:miter;stroke-miterlimit:4;stroke-dasharray:none;stroke-opacity:1"
       d="m -43.355614,534.87983 c -1.73,-0.0913 -3.7225,-0.3275 -6.115,-0.49875 -4.375,-0.3125 -4.27125,-0.20875 -7.5,0.3125 -1.3575,0.22 -2.57125,0.2125 -3.54125,0.1375 l -0.1875,-0.0838 c -1.265,-0.11 -2.0525,-0.34 -2.0525,-0.34 l -5.30625,-0.8075 0,-2.39625 c 0,0 4.14125,-0.15375 7.365,-0.3575 l 0.18125,0.0688 c 1.73125,-0.11 3.21,-0.2425 3.645,-0.3875 1.25,-0.4175 3.855,-0.105 4.89625,0.2075 1.04125,0.3125 2.4025,-0.48625 6.04125,-0.10375 0.80625,0.085 1.7075,0.255 2.5,0.42875 l 0.09,0.0175 c 1.11875,0.24625 1.99375,0.49125 1.99375,0.49125 l 5.13375,0 0,2.29125 c 0,0 -0.2375,0.3125 -3.155,0.83375 -1.30125,0.2325 -2.58125,0.2575 -3.98875,0.18625" />
    <path
       d="m -36.197864,526.16158 -31.89,0 0,12.40125 31.89,0 0,-12.40125 z"
       style="fill:none;stroke:#373535;stroke-width:0.375;stroke-linecap:butt;stroke-linejoin:miter;stroke-miterlimit:4;stroke-dasharray:none;stroke-opacity:1"
       id="path4792"
       inkscape:connector-curvature="0" />
  </g>
</svg>
