<?xml version="1.0" encoding="UTF-8" standalone="no"?>
<!-- Created with Inkscape (http://www.inkscape.org/) -->

<svg
   xmlns:dc="http://purl.org/dc/elements/1.1/"
   xmlns:cc="http://creativecommons.org/ns#"
   xmlns:rdf="http://www.w3.org/1999/02/22-rdf-syntax-ns#"
   xmlns:svg="http://www.w3.org/2000/svg"
   xmlns="http://www.w3.org/2000/svg"
   xmlns:sodipodi="http://sodipodi.sourceforge.net/DTD/sodipodi-0.dtd"
   xmlns:inkscape="http://www.inkscape.org/namespaces/inkscape"
   width="9.0000668mm"
   height="3.6043305mm"
   viewBox="0 0 31.89 12.77125"
   id="svg16513"
   version="1.1"
   inkscape:version="0.91 r13725"
   sodipodi:docname="RiverMilepost.svg">
  <defs
     id="defs16515">
    <clipPath
       clipPathUnits="userSpaceOnUse"
       id="clipPath5314">
      <path
         d="m 0,1224 792,0 L 792,0 0,0 0,1224 Z"
         id="path5316"
         inkscape:connector-curvature="0" />
    </clipPath>
    <clipPath
       clipPathUnits="userSpaceOnUse"
       id="clipPath5294">
      <path
         d="m 0,1224 792,0 L 792,0 0,0 0,1224 Z"
         id="path5296"
         inkscape:connector-curvature="0" />
    </clipPath>
    <clipPath
       clipPathUnits="userSpaceOnUse"
       id="clipPath4740">
      <path
         d="m 0,1224 792,0 L 792,0 0,0 0,1224 Z"
         id="path4742"
         inkscape:connector-curvature="0" />
    </clipPath>
  </defs>
  <sodipodi:namedview
     id="base"
     pagecolor="#ffffff"
     bordercolor="#666666"
     borderopacity="1.0"
     inkscape:pageopacity="0.0"
     inkscape:pageshadow="2"
     inkscape:zoom="0.35"
     inkscape:cx="15.945"
     inkscape:cy="6.3856221"
     inkscape:document-units="px"
     inkscape:current-layer="layer1"
     showgrid="false"
     fit-margin-top="0"
     fit-margin-left="0"
     fit-margin-right="0"
     fit-margin-bottom="0"
     inkscape:window-width="690"
     inkscape:window-height="405"
     inkscape:window-x="26"
     inkscape:window-y="26"
     inkscape:window-maximized="0" />
  <metadata
     id="metadata16518">
    <rdf:RDF>
      <cc:Work
         rdf:about="">
        <dc:format>image/svg+xml</dc:format>
        <dc:type
           rdf:resource="http://purl.org/dc/dcmitype/StillImage" />
        <dc:title></dc:title>
      </cc:Work>
    </rdf:RDF>
  </metadata>
  <g
     inkscape:label="Layer 1"
     inkscape:groupmode="layer"
     id="layer1"
     transform="translate(68.087864,-525.97658)">
    <path
       d="m -36.197864,526.17808 -31.89,0 0,12.40125 31.89,0 0,-12.40125 z"
       style="fill:#ffffff;fill-opacity:1;fill-rule:nonzero;stroke:none"
       id="path4722"
       inkscape:connector-curvature="0" />
    <g
       id="g4724"
       transform="matrix(1.25,0,0,-1.25,-46.526994,526.16408)">
      <path
         d="m 0,0 1.666,0 c 0,0 0.292,-0.815 0.834,-1.536 0.25,-0.333 0.75,-1 1.25,-2.083 0.492,-1.07 0,-0.75 0,-2.333 0,-1.27 -1.334,-3.167 -1.334,-3.167 L 2.25,-9.917 0,-9.917 c 0,0 0,0.881 0.416,1.465 0.417,0.583 1.084,1.083 1,2.083 -0.083,1 -1,1.667 -1.083,2.417 -0.083,0.75 0.25,1.5 -0.083,2.5 C -0.084,-0.452 0,0 0,0"
         style="fill:#dddddf;fill-opacity:1;fill-rule:nonzero;stroke:none"
         id="path4726"
         inkscape:connector-curvature="0" />
    </g>
    <g
       id="g4728"
       transform="matrix(1.25,0,0,-1.25,-46.526994,526.16408)">
      <path
         d="m 0,0 1.666,0 c 0,0 0.292,-0.815 0.834,-1.536 0.25,-0.333 0.75,-1 1.25,-2.083 0.492,-1.07 0,-0.75 0,-2.333 0,-1.27 -1.334,-3.167 -1.334,-3.167 L 2.25,-9.917 0,-9.917 c 0,0 0,0.881 0.416,1.465 0.417,0.583 1.084,1.083 1,2.083 -0.083,1 -1,1.667 -1.083,2.417 -0.083,0.75 0.25,1.5 -0.083,2.5 C -0.084,-0.452 0,0 0,0 Z"
         style="fill:none;stroke:#373535;stroke-width:0.30000001;stroke-linecap:butt;stroke-linejoin:miter;stroke-miterlimit:4;stroke-dasharray:none;stroke-opacity:1"
         id="path4730"
         inkscape:connector-curvature="0" />
    </g>
    <text
       y="534.85431"
       x="-58.264366"
       style="font-variant:normal;font-weight:bold;font-stretch:normal;font-size:7.5px;font-family:'Frutiger LT Std 55 Roman';-inkscape-font-specification:FrutigerLTStd-Black;writing-mode:lr-tb;fill:#373535;fill-opacity:1;fill-rule:nonzero;stroke:none"
       id="text4732">
      <tspan
         x="-58.264366 -53.674366"
         y="534.85431"
         sodipodi:role="line"
         id="tspan4734">55</tspan>
    </text>
    <g
       transform="matrix(1.25,0,0,-1.25,-907.37787,1611.5469)"
       id="g4736">
      <g
         id="g4738"
         clip-path="url(#clipPath4740)">
        <g
           id="g4744"
           transform="translate(687.9717,862.7056)">
          <path
             d="M 0,0 C 0.358,0 0.648,0.29 0.648,0.648 0.648,1.006 0.358,1.296 0,1.296 -0.357,1.296 -0.648,1.006 -0.648,0.648 -0.648,0.29 -0.357,0 0,0"
             style="fill:#373535;fill-opacity:1;fill-rule:nonzero;stroke:none"
             id="path4746"
             inkscape:connector-curvature="0" />
        </g>
      </g>
    </g>
  </g>
</svg>
