<?xml version="1.0" encoding="UTF-8" standalone="no"?>
<!-- Created with Inkscape (http://www.inkscape.org/) -->

<svg
   xmlns:dc="http://purl.org/dc/elements/1.1/"
   xmlns:cc="http://creativecommons.org/ns#"
   xmlns:rdf="http://www.w3.org/1999/02/22-rdf-syntax-ns#"
   xmlns:svg="http://www.w3.org/2000/svg"
   xmlns="http://www.w3.org/2000/svg"
   xmlns:sodipodi="http://sodipodi.sourceforge.net/DTD/sodipodi-0.dtd"
   xmlns:inkscape="http://www.inkscape.org/namespaces/inkscape"
   id="svg2985"
   version="1.1"
   inkscape:version="0.48.5 r10040"
   width="215.01161"
   height="218.4066"
   sodipodi:docname="nca.svg">
  <metadata
     id="metadata2991">
    <rdf:RDF>
      <cc:Work
         rdf:about="">
        <dc:format>image/svg+xml</dc:format>
        <dc:type
           rdf:resource="http://purl.org/dc/dcmitype/StillImage" />
        <dc:title />
      </cc:Work>
    </rdf:RDF>
  </metadata>
  <defs
     id="defs2989">
    <linearGradient
       id="linearGradient4233">
      <stop
         id="stop4235"
         offset="0"
         style="stop-color:#000000;stop-opacity:1" />
      <stop
         id="stop4237"
         offset="1"
         style="stop-color:#b71a1a;stop-opacity:1" />
    </linearGradient>
    <linearGradient
       id="linearGradient4217">
      <stop
         style="stop-color:#000000;stop-opacity:0.502"
         offset="0"
         id="stop4219" />
      <stop
         style="stop-color:#000000;stop-opacity:0"
         offset="1"
         id="stop4221" />
    </linearGradient>
  </defs>
  <sodipodi:namedview
     pagecolor="#ffffff"
     bordercolor="#666666"
     borderopacity="1"
     objecttolerance="10"
     gridtolerance="10"
     guidetolerance="10"
     inkscape:pageopacity="0"
     inkscape:pageshadow="2"
     inkscape:window-width="1600"
     inkscape:window-height="837"
     id="namedview2987"
     showgrid="false"
     inkscape:zoom="1.4142136"
     inkscape:cx="59.922638"
     inkscape:cy="90.063148"
     inkscape:window-x="-8"
     inkscape:window-y="-8"
     inkscape:window-maximized="1"
     inkscape:current-layer="layer1"
     fit-margin-top="0"
     fit-margin-left="0"
     fit-margin-right="0"
     fit-margin-bottom="0">
    <inkscape:grid
       type="xygrid"
       id="grid3068"
       empspacing="5"
       visible="true"
       enabled="true"
       snapvisiblegridlinesonly="true"
       originx="0.71875px"
       originy="4.7499956px" />
  </sodipodi:namedview>
  <g
     inkscape:groupmode="layer"
     id="layer1"
     inkscape:label="Drawing"
     style="display:inline"
     transform="translate(0.71875,-4.3434034)">
    <path
       inkscape:connector-curvature="0"
       style="fill:none;stroke:#ffffff;stroke-width:5.11507463;stroke-linecap:butt;stroke-linejoin:miter;stroke-miterlimit:4;stroke-opacity:0.45882353;stroke-dasharray:none;display:inline"
       d="M 104.8111,6.910122 C 69.636403,6.837897 35.120491,18.196575 1.838254,40.92537 2.61814,118.63879 2.605516,169.79329 104.90701,219.92102 212.32359,169.79329 212.33166,118.63615 211.62027,41.500815 175.81474,18.482979 139.98581,6.982387 104.8111,6.910122 z"
       id="path3035-1" />
    <path
       style="fill:#ffffff;fill-opacity:0.45882353;stroke:#000000;stroke-width:5;stroke-linecap:butt;stroke-linejoin:miter;stroke-miterlimit:4;stroke-opacity:1;stroke-dasharray:none;display:inline"
       d="M 104.90625,8.78125 C 70.522881,8.7106149 36.783475,19.81379 4.25,42.03125 5.01234,117.99633 5,168 105,217 210,168 210.00789,117.99375 209.3125,42.59375 c -35,-22.5 -70.02288,-33.7418649 -104.40625,-33.8125 z"
       id="path3035"
       inkscape:connector-curvature="0" />
    <path
       style="fill:none;stroke:#000000;stroke-width:5;stroke-linecap:round;stroke-linejoin:round;stroke-miterlimit:4;stroke-opacity:1;stroke-dasharray:none"
       d="m 6.2299521,90.869141 1.7812305,-2.671847 0.534363,0.534369 0.534363,-0.534369 0,-0.534369 2.1374904,-1.246861 0.534362,0.712492 0,-1.246862 2.137477,-1.068738 0.890622,1.246861 0.534363,-0.534369 2.671852,3.384338 0.712486,-0.712492 0.356259,-0.712492 1.959347,3.384339 1.246869,-0.53437 0.534362,1.603114 3.384339,1.068739 1.603108,-1.068739 1.603113,2.493724 0.890623,-1.603108 1.068725,0.178123 1.068745,-2.315606 1.781231,-0.890609 0.890621,1.424983 0.178104,-0.534374 0.890628,1.246867 1.603108,-1.246867 0.178117,0 2.493736,-1.068739 1.068744,-1.603108 1.603088,-1.068738 1.068746,0.712492 0.534362,-0.712492 2.315613,3.206215 2.137471,1.781237 1.603113,-0.356252 0.712499,0.356252 1.424984,0 4.274948,0.890616 1.781231,-3.918715 1.246867,-0.890615 1.068746,0.178123 1.959347,-0.178123 0.534363,0.534369 1.603114,1.603108 1.246862,-0.534369 0.534363,-1.068739 2.493736,-1.603107 1.246861,0.890615 0.534369,-1.959354 0.890622,0 0,-1.068738 3.206215,-3.384339 0,-1.068744 1.781215,-1.603108 0.356259,0.178123 1.24685,0.890622 0.356257,1.603107 0.712486,0.178123 1.959367,-1.78123 1.603109,1.603107 1.781215,-1.603107 0.890622,0 0.53438,-1.068745 1.068728,0 1.603109,2.671852 1.78123,-0.534376 4.274962,3.740591 2.493715,0 1.781228,2.137478 0.890618,-1.603108 1.06875,1.068739 3.20621,-2.493723 0.17812,0.356246 0.35626,-1.603108 2.67185,-1.95936 0.71249,-2.137477 1.95934,-1.603107 1.24687,-0.712493 0.35625,-1.424985 1.06873,0 1.60312,-0.534369 1.78122,1.068738 1.425,1.068739 0.53436,1.424984 0.71248,1.068739 1.06875,1.068745 0.53438,-0.890622 1.06873,1.959353 2.67185,-0.534368 0.53437,1.068744 0.89062,-2.137483 2.13747,-3.028092 1.24687,-1.068739 0.35623,1.603109 1.60312,-1.246862 0.17812,1.068738 1.95935,-2.493723 -0.35624,-0.53437 1.06874,-2.137476 2.49372,-0.712493 3.38434,-3.562468 2.49373,-1.78123 1.60311,-1.959354 1.24685,0 1.60311,1.424985 2.31562,7.481176 3.02808,-1.959355 0.53438,1.424985 3.74058,-2.493723 1.06874,0.890615 1.06874,-1.603107 0.89062,-0.534369 1.06874,1.068738 0.17811,-0.890615 1.60312,0.534369 0,1.068738 0.35625,-0.712492 1.78122,1.781231 0.35626,-1.068739 1.78123,2.3156 1.42498,1.246861 2.13748,-0.890614 0.71249,2.137476 1.06874,-0.356246 2.49372,1.424985 2.13747,4.27496 1.78124,1.424984 1.42499,0.356246 0.53436,1.781232 2.13748,1.246861 1.06874,2.137477 6.41244,4.096831 5.34369,3.562468 4.45308,1.246861 2.67185,1.246855 0.35625,-1.068732 2.84998,1.603108 2.13746,-0.178123"
       id="path3955"
       inkscape:connector-curvature="0" />
    <path
       style="fill:#646e83;fill-opacity:1;stroke:none"
       d="m 111.12826,130.56972 c 18.11106,2.32939 62.14362,3.82597 54.33324,6.9882 -48.18863,16.84858 -115.055298,24.89056 -114.846748,35.90638 0.20392,11.76524 64.645218,22.59151 86.161268,24.77611 5.34827,-3.27974 12.01229,-7.64866 22.59211,-15.28454 -16.67566,-4.87036 -61.391408,-7.29872 -64.327978,-11.33756 -2.82736,-2.67771 25.897868,-7.23471 54.697908,-17.11402 33.53613,-10.26358 44.87759,-13.0684 39.30859,-15.72344 -3.35714,-1.63058 -8.81304,-3.26117 -20.96459,-4.89174 -23.59496,-2.92156 -44.4915,-2.44583 -66.82466,-4.10557 l -3.494068,-0.29152"
       id="path3959"
       inkscape:connector-curvature="0"
       sodipodi:nodetypes="ccccccccccc" />
    <g
       id="g4056"
       transform="matrix(1.7060265,0,0,1.7060265,131.0671,-155.90899)">
      <g
         id="g4042">
        <g
           id="g4116"
           transform="matrix(0.1564066,0,0,0.1564066,16.621537,140.38818)">
          <g
             id="g4099">
            <g
               id="g4083">
              <path
                 sodipodi:nodetypes="ccccccccccccccccccccccccccccccccccccccc"
                 inkscape:connector-curvature="0"
                 id="path3895"
                 d="m -215.00697,330.76623 c 9.11369,0.49942 18.72269,0.85836 26.66126,3.70804 4.44463,-0.0128 34.98532,4.41907 34.98532,4.41907 -4.10099,-0.32086 -20.27588,-2.89814 -34.98322,-4.41571 -10.09309,-3.59745 -26.33988,-3.49753 -26.56539,-3.66597 l 43.13237,-47.46037 3.18684,-11.92418 -3.19402,11.91636 18.41986,55.54966 7.80317,-61.67162 14.16144,57.4403 -21.89393,4.21615 21.95527,-4.17506 6.68247,-1.35193 17.38299,-4.87111 -17.38367,4.87242 -6.77036,-29.645 3.5732,-22.14495 13.77451,19.79991 6.80456,27.11303 2.06906,-0.52315 -6.113,-26.83786 1.62539,-19.66492 11.065,16.70471 6.490799,25.99453 -13.072629,3.80236 13.075431,-3.80246 c 0,0 16.141103,-2.95923 21.951389,-3.75861 -18.120666,-21.77678 -24.626109,-41.37859 -27.198248,-47.16722 -1.168215,2.74761 -30.663242,5.09929 -48.203482,3.95084 -6.86846,-3.65979 -22.86033,-8.14581 -34.46127,-4.11896 11.96879,-4.48321 54.42941,-3.20538 54.42941,-3.20538 17.06433,-3.70316 22.39224,-1.74564 28.233617,3.38289 11.425524,2.19786 34.200137,3.5 39.339314,4.08272 -5.779333,1.18395 -41.932571,4.22679 -41.932571,4.22679 l -45.63724,-4.30835 c -1.57585,-2.18194 -22.46914,-8.95441 -34.41054,-4.27797 -5.22517,22.02859 -23.32207,38.5407 -34.9831,57.81106 z"
                 style="fill:#000000;fill-opacity:0;stroke:#777f87;stroke-width:0.31252745;stroke-linecap:round;stroke-linejoin:round;stroke-miterlimit:4;stroke-opacity:1;stroke-dasharray:none" />
              <g
                 id="g4030">
                <path
                   style="fill:#777f87;fill-opacity:1;stroke:#777f87;stroke-width:0.25;stroke-miterlimit:4;stroke-opacity:1;stroke-dasharray:none"
                   d="m -94.152666,280.50842 c -0.08069,-0.18246 -0.461465,-1.09902 -0.846167,-2.03682 -0.384703,-0.9378 -1.003388,-2.43599 -1.374857,-3.32933 -0.371468,-0.89333 -0.668586,-1.63105 -0.660261,-1.63937 0.0083,-0.008 0.407104,0.0551 0.886176,0.14085 5.80419,1.03948 14.457847,1.94617 31.308538,3.28037 2.646875,0.20957 4.893515,0.40139 4.992532,0.42626 0.22619,0.0568 -0.41212,0.14687 -4.055032,0.5722 -5.302604,0.61909 -13.288486,1.40533 -23.781249,2.34134 -3.282813,0.29284 -6.04845,0.54229 -6.145861,0.55434 -0.160684,0.0199 -0.190717,-0.009 -0.323819,-0.30984 l 0,0 z"
                   id="path3984"
                   inkscape:connector-curvature="0" />
                <path
                   style="fill:#777f87;fill-opacity:1;stroke:#777f87;stroke-width:0.25;stroke-miterlimit:4;stroke-opacity:1;stroke-dasharray:none"
                   d="m -59.679336,277.4198 c 0.0072,-0.01 0.0072,-0.011 -3.03e-4,-0.0566 -0.0042,-0.0256 -0.0068,-0.0474 -0.0058,-0.0484 0.0017,-0.002 0.408353,0.0335 0.456368,0.0395 0.01978,0.002 0.01388,0.004 -0.07422,0.0176 -0.05264,0.008 -0.155469,0.0238 -0.228516,0.0345 -0.07305,0.0108 -0.13778,0.0205 -0.143852,0.0215 l -0.01104,0.002 0.0074,-0.0101 0,0 z"
                   id="path3986"
                   inkscape:connector-curvature="0" />
                <path
                   style="fill:#777f87;fill-opacity:1;stroke:#777f87;stroke-width:0.25;stroke-miterlimit:4;stroke-opacity:1;stroke-dasharray:none"
                   d="m -119.55314,279.51621 c -10.7436,-1.01615 -19.60343,-1.8544 -19.6885,-1.86279 -0.0851,-0.008 1.67496,-0.0177 3.91118,-0.0207 10.19395,-0.0137 20.41888,-0.62114 28.49628,-1.69287 4.99377,-0.66258 8.207881,-1.43551 9.264988,-2.22805 l 0.152023,-0.11398 0.273401,0.65172 c 0.15037,0.35845 0.725161,1.75547 1.277314,3.1045 0.552153,1.34903 1.104128,2.68716 1.226607,2.97363 0.122484,0.28646 0.214214,0.52933 0.20385,0.53969 -0.01037,0.0104 -1.191303,0.11846 -2.624305,0.2402 -1.433001,0.12175 -2.685006,0.2292 -2.782233,0.23878 -0.09723,0.01 -8.966995,-0.81397 -19.710605,-1.83013 z"
                   id="path3990"
                   inkscape:connector-curvature="0" />
                <path
                   style="fill:#777f87;fill-opacity:1;stroke:#777f87;stroke-width:0.25;stroke-miterlimit:4;stroke-opacity:1;stroke-dasharray:none"
                   d="m -139.83787,277.61992 c -0.30786,-0.0293 -0.55814,-0.0537 -0.55618,-0.0544 0.002,-6.6e-4 0.22308,0.004 0.49138,0.0107 0.2683,0.007 0.51243,0.0119 0.54251,0.0119 0.0301,10e-6 0.064,10e-4 0.0754,0.003 l 0.0208,0.002 -0.002,0.0258 c -0.004,0.0391 -0.006,0.0551 -0.009,0.0546 -0.001,-2.5e-4 -0.25447,-0.0244 -0.56232,-0.0537 l 0,0 z"
                   id="path3992"
                   inkscape:connector-curvature="0" />
                <path
                   style="fill:#e97600;fill-opacity:1;stroke:none"
                   d="m -131.24084,334.20351 c -0.27689,-0.81741 -13.93252,-56.53568 -13.87051,-56.59501 0.0427,-0.0408 10.10087,0.87942 22.35149,2.04502 l 22.27387,2.11929 2.563259,-0.19412 c 4.055093,-0.3071 3.487003,-0.56807 4.681891,2.15073 0.566179,1.28826 1.957709,4.21171 3.092286,6.49655 5.055047,10.17996 10.907347,19.32459 18.101115,28.28427 l 1.348382,1.67938 -0.751333,0.13134 c -0.413233,0.0722 -2.938944,0.49251 -5.612691,0.93393 -2.673748,0.44143 -7.079896,1.20258 -9.791441,1.69145 -2.711545,0.48887 -4.987478,0.82432 -5.057629,0.74544 -0.07015,-0.0789 -1.559868,-5.8875 -3.310488,-12.90805 l -3.182946,-12.76464 -5.548005,-8.40087 c -4.79662,-7.2631 -5.99926,-8.92524 -5.98757,-8.27528 10e-4,0.0729 -0.3658,4.55509 -0.81581,9.96038 l -0.81819,9.8278 3.03191,13.30882 c 1.66755,7.31985 3.00915,13.3263 2.98132,13.34767 -0.0278,0.0214 -0.38144,0.12002 -0.78582,0.21922 l -0.73524,0.18038 -2.69851,-10.8047 c -1.48418,-5.94259 -3.02522,-12.03772 -3.42453,-13.54474 l -0.72602,-2.74004 -6.86024,-9.8553 c -3.77314,-5.42041 -6.95616,-9.8553 -7.07339,-9.8553 -0.14509,0 -0.78851,3.56962 -2.01538,11.18113 l -1.80224,11.18112 3.35238,14.66223 c 1.8438,8.06423 3.32809,14.68651 3.29841,14.71618 -0.0297,0.0297 -1.24078,0.29179 -2.69135,0.58247 -1.45057,0.29068 -2.81813,0.57128 -3.03902,0.62354 -0.24097,0.057 -0.43216,0.005 -0.47796,-0.13029 z"
                   id="path4014"
                   inkscape:connector-curvature="0" />
                <path
                   style="fill:#e97600;fill-opacity:1;stroke:none"
                   d="m -152.99541,337.91148 c 0.0537,-0.31599 1.72989,-13.5411 3.72482,-29.38913 1.99494,-15.84803 3.67307,-29.01347 3.7292,-29.25654 0.0657,-0.2847 2.51568,9.33842 6.88586,27.04684 3.7311,15.11882 6.80548,27.64041 6.83194,27.82575 0.0442,0.30926 -0.80252,0.5013 -10.29332,2.33461 -5.68779,1.09869 -10.48425,2.00108 -10.6588,2.00531 -0.26115,0.006 -0.30007,-0.0941 -0.2197,-0.56684 z"
                   id="path4020"
                   inkscape:connector-curvature="0" />
                <path
                   style="fill:#e97600;fill-opacity:1;stroke:none"
                   d="m -143.88467,276.98969 c -1.42204,-0.0935 -1.79355,-0.18459 -2.42442,-0.59477 -3.0896,-2.00875 -12.3597,-4.45152 -19.3111,-5.08866 -1.82072,-0.16688 -2.77387,-0.34895 -1.82678,-0.34895 0.19881,0 1.94227,-0.1176 3.87435,-0.26133 6.91945,-0.51473 12.90187,-0.67904 25.78674,-0.70821 l 13.08148,-0.0296 2.82843,-0.55546 c 4.27045,-0.83865 7.05906,-1.1451 10.42982,-1.14616 4.23069,-10e-4 7.21091,0.67387 9.88108,2.2387 1.14256,0.66958 3.642339,2.57728 3.642339,2.77964 0,0.0934 -0.340957,0.31603 -0.757681,0.49465 -2.576708,1.10451 -10.401768,2.20568 -20.897468,2.94078 -4.26908,0.29899 -21.06983,0.49211 -24.30679,0.27939 z"
                   id="path4022"
                   inkscape:connector-curvature="0" />
                <path
                   style="fill:#e97600;fill-opacity:1;stroke:none"
                   d="m -162.51988,310.46012 -8.99064,-27.12279 1.54994,-5.81425 1.54995,-5.81426 1.17024,0.0745 c 6.74346,0.42914 14.71962,2.39015 20.05247,4.93008 l 1.38133,0.6579 -0.0989,0.63791 c -0.0544,0.35085 -1.77157,13.87804 -3.81592,30.06042 -2.04436,16.18237 -3.73744,29.44293 -3.76241,29.4679 -0.025,0.025 -4.09119,-12.15985 -9.03604,-27.07738 l 0,0 z"
                   id="path4024"
                   inkscape:connector-curvature="0" />
                <path
                   style="fill:#e97600;fill-opacity:1;stroke:none"
                   d="m -212.99918,328.18287 c -0.0137,-0.36556 5.67847,-8.42549 10.13275,-14.34772 10.15718,-13.50456 14.44401,-19.93384 17.92793,-26.88789 1.87601,-3.74459 3.88768,-9.0041 4.7462,-12.40897 l 0.32284,-1.28038 0.97764,-0.28679 c 1.97045,-0.57803 4.22479,-0.95226 6.94713,-1.15326 1.53313,-0.1132 2.83328,-0.16005 2.88922,-0.10411 0.0559,0.0559 -0.60183,2.68599 -1.46169,5.84456 l -1.56339,5.74285 -19.89905,21.89138 c -10.94447,12.04025 -20.14999,22.16979 -20.45672,22.51009 -0.30672,0.34029 -0.56001,0.5564 -0.56286,0.48024 l 0,0 z"
                   id="path4026"
                   inkscape:connector-curvature="0" />
                <path
                   style="fill:#e97600;fill-opacity:1;stroke:none"
                   d="m -161.03201,337.58894 c -10.51717,-1.51756 -21.32838,-2.88313 -25.8094,-3.26 -0.7292,-0.0613 -2.00199,-0.3142 -2.82843,-0.56193 -5.33616,-1.59958 -10.75615,-2.39337 -20.21494,-2.96058 -2.31916,-0.13907 -4.24064,-0.27782 -4.26996,-0.30831 -0.0293,-0.0305 9.46514,-10.53231 21.09882,-23.33735 l 21.15214,-23.2819 9.05658,27.25937 c 4.98112,14.99266 9.05803,27.27926 9.05981,27.30357 0.0103,0.14118 -1.97668,-0.0927 -7.24462,-0.85287 z"
                   id="path4028"
                   inkscape:connector-curvature="0" />
              </g>
              <path
                 transform="translate(-117.73328,21.213203)"
                 inkscape:connector-curvature="0"
                 id="path4079"
                 d="m -6.9040846,311.22171 c -0.070219,-0.32656 -1.5655047,-6.88312 -3.3228584,-14.57014 -1.757353,-7.68701 -3.19607,-14.07138 -3.197149,-14.1875 -0.0011,-0.11611 0.770224,-5.00128 1.714007,-10.85594 l 1.7159684,-10.64483 0.3296838,0.45733 c 0.1813262,0.25153 3.0467362,4.36671 6.3675778,9.14483 3.32084185,4.77813 6.1974118,8.9125 6.3923793,9.1875 0.303045,0.42744 0.8430513,2.44651 3.7213038,13.91386 2.3146225,9.22177 3.3209909,13.43117 3.2201799,13.46923 -0.2513049,0.0949 -16.6419021,4.67931 -16.7300306,4.67936 -0.045866,3e-5 -0.1408435,-0.26714 -0.211062,-0.5937 z"
                 style="opacity:0.8;fill:#000000;fill-opacity:1;stroke:none" />
              <path
                 transform="translate(-117.73328,21.213203)"
                 inkscape:connector-curvature="0"
                 id="path4081"
                 d="m 12.622326,306.10381 c -0.04888,-0.19297 -1.415144,-6.17241 -3.0361446,-13.28764 l -2.9472728,-12.9368 0.7753118,-9.3132 c 0.4264214,-5.12227 0.7783127,-9.38905 0.7819803,-9.48174 0.00367,-0.0927 2.4068173,3.45106 5.3403323,7.875 l 5.333664,8.04353 3.220691,12.87273 c 1.77138,7.08 3.210294,12.88292 3.197586,12.89537 -0.01271,0.0125 -2.75123,0.81614 -6.085605,1.78597 -3.334375,0.96983 -6.159063,1.79355 -6.277086,1.83048 -0.156898,0.0491 -0.238477,-0.0272 -0.303457,-0.2837 z"
                 style="opacity:0.8;fill:#000000;fill-opacity:1;stroke:none" />
            </g>
          </g>
        </g>
      </g>
    </g>
    <g
       id="g4199"
       transform="matrix(2.292506,0,0,2.292506,-141.06086,-219.72355)">
      <g
         transform="translate(-1.6875,-0.75)"
         id="g4168">
        <path
           style="fill:none;stroke:#000000;stroke-width:0.19540624;stroke-linecap:round;stroke-linejoin:round;stroke-miterlimit:4;stroke-opacity:1;stroke-dasharray:none"
           d="m 130.4145,173.65926 -4.04444,-1.43931"
           id="path4164"
           inkscape:connector-curvature="0" />
        <path
           style="fill:none;stroke:#000000;stroke-width:0.21102883;stroke-linecap:round;stroke-linejoin:miter;stroke-miterlimit:4;stroke-opacity:1;stroke-dasharray:none"
           d="m 130.06321,172.41676 -4.08801,0.79273"
           id="path4166"
           inkscape:connector-curvature="0" />
      </g>
      <g
         transform="translate(-31.885408,-70.2818)"
         id="g4195">
        <path
           style="fill:#d87a25;fill-opacity:1;stroke:#d87a25;stroke-width:0.1;stroke-linecap:round;stroke-linejoin:round;stroke-miterlimit:4;stroke-opacity:1;stroke-dasharray:none"
           d="m 157.52746,241.13163 c -0.73361,-0.55991 -0.76223,-1.00377 0.20155,-3.06748 0.53302,0.70471 -0.15502,1.58799 -0.073,2.54887 -0.13994,-0.3954 -0.23167,-0.59151 -0.12588,-1.4882 -0.37208,0.87846 -0.3566,1.37914 -0.003,2.00681 z"
           id="path4183"
           inkscape:connector-curvature="0"
           sodipodi:nodetypes="ccccc" />
        <path
           style="fill:#d87a25;fill-opacity:1;stroke:#d87a25;stroke-width:0.1;stroke-linecap:butt;stroke-linejoin:miter;stroke-miterlimit:4;stroke-opacity:1;stroke-dasharray:none"
           d="m 156.79687,240.64843 c 0.45735,0.87758 1.88355,1.14123 1.95241,-0.15614 0.0324,-0.61074 -0.61701,-0.97676 -0.42897,-2.34385 0.25745,1.2914 0.5814,1.27146 0.76563,2.125 0.17875,-1.00442 -1.2929,-1.90408 -0.0547,-3.73438 -0.30186,0.99328 -0.38962,1.46179 -0.0824,1.92855 1.92128,2.91946 -0.98342,4.65625 -2.15191,2.18082 z"
           id="path4185"
           inkscape:connector-curvature="0"
           sodipodi:nodetypes="cscccscc" />
      </g>
    </g>
  </g>
</svg>
