<?xml version="1.0" encoding="UTF-8" standalone="no"?>
<!-- Created with Inkscape (http://www.inkscape.org/) -->

<svg
   xmlns:dc="http://purl.org/dc/elements/1.1/"
   xmlns:cc="http://creativecommons.org/ns#"
   xmlns:rdf="http://www.w3.org/1999/02/22-rdf-syntax-ns#"
   xmlns:svg="http://www.w3.org/2000/svg"
   xmlns="http://www.w3.org/2000/svg"
   xmlns:sodipodi="http://sodipodi.sourceforge.net/DTD/sodipodi-0.dtd"
   xmlns:inkscape="http://www.inkscape.org/namespaces/inkscape"
   width="3.4857972mm"
   height="3.4857972mm"
   viewBox="0 0 12.35125 12.35125"
   id="svg9436"
   version="1.1"
   inkscape:version="0.91 r13725"
   sodipodi:docname="BoatTourB.svg">
  <defs
     id="defs9438" />
  <sodipodi:namedview
     id="base"
     pagecolor="#ffffff"
     bordercolor="#666666"
     borderopacity="1.0"
     inkscape:pageopacity="0.0"
     inkscape:pageshadow="2"
     inkscape:zoom="0.35"
     inkscape:cx="-314.53866"
     inkscape:cy="-179.53866"
     inkscape:document-units="px"
     inkscape:current-layer="layer1"
     showgrid="false"
     fit-margin-top="0"
     fit-margin-left="0"
     fit-margin-right="0"
     fit-margin-bottom="0"
     inkscape:window-width="690"
     inkscape:window-height="405"
     inkscape:window-x="26"
     inkscape:window-y="26"
     inkscape:window-maximized="0" />
  <metadata
     id="metadata9441">
    <rdf:RDF>
      <cc:Work
         rdf:about="">
        <dc:format>image/svg+xml</dc:format>
        <dc:type
           rdf:resource="http://purl.org/dc/dcmitype/StillImage" />
        <dc:title></dc:title>
      </cc:Work>
    </rdf:RDF>
  </metadata>
  <g
     inkscape:label="Layer 1"
     inkscape:groupmode="layer"
     id="layer1"
     transform="translate(-262.3958,-340.47229)">
    <g
       id="g10248"
       transform="matrix(1.25,0,0,-1.25,263.87143,340.72267)">
      <path
         d="m 0,0 c -0.541,0 -0.98,-0.44 -0.98,-0.981 l 0,-7.519 c 0,-0.541 0.439,-0.981 0.98,-0.981 l 7.52,0 c 0.54,0 0.98,0.44 0.98,0.981 l 0,7.519 C 8.5,-0.44 8.06,0 7.52,0 L 0,0 Z"
         style="fill:#ffffff;fill-opacity:1;fill-rule:nonzero;stroke:none"
         id="path10250"
         inkscape:connector-curvature="0" />
    </g>
    <g
       id="g10252"
       transform="matrix(1.25,0,0,-1.25,273.2708,352.82354)">
      <path
         d="m 0,0 c 0.652,0 1.181,0.528 1.181,1.181 l 0,7.519 C 1.181,9.353 0.652,9.881 0,9.881 l -7.52,0 C -8.172,9.881 -8.7,9.353 -8.7,8.7 l 0,-7.519 C -8.7,0.528 -8.172,0 -7.52,0 L 0,0 Z"
         style="fill:#373535;fill-opacity:1;fill-rule:nonzero;stroke:none"
         id="path10254"
         inkscape:connector-curvature="0" />
    </g>
    <g
       id="g10256"
       transform="matrix(1.25,0,0,-1.25,273.71268,350.64454)">
      <path
         d="M 0,0 C -0.18,0 -0.353,0.04 -0.506,0.109 -0.665,0.182 -0.843,0.226 -1.029,0.226 -1.215,0.226 -1.394,0.182 -1.551,0.109 -1.706,0.04 -1.878,0 -2.059,0 -2.238,0 -2.411,0.04 -2.566,0.109 -2.725,0.182 -2.902,0.226 -3.088,0.226 -3.274,0.226 -3.452,0.182 -3.611,0.109 -3.765,0.04 -3.939,0 -4.118,0 -4.298,0 -4.472,0.04 -4.625,0.109 -4.784,0.182 -4.962,0.226 -5.147,0.226 -5.334,0.226 -5.513,0.182 -5.67,0.109 -5.824,0.04 -5.997,0 -6.177,0 -6.357,0 -6.53,0.04 -6.686,0.109 -6.843,0.182 -7.021,0.226 -7.207,0.226 -7.393,0.226 -7.571,0.182 -7.73,0.109 -7.884,0.04 -8.057,0 -8.236,0 l 0,0.76 c 0.179,0 0.352,0.041 0.506,0.11 0.159,0.073 0.337,0.116 0.523,0.116 0.186,0 0.364,-0.043 0.521,-0.116 0.156,-0.069 0.329,-0.11 0.509,-0.11 0.18,0 0.353,0.041 0.507,0.11 0.157,0.073 0.336,0.116 0.523,0.116 0.185,0 0.363,-0.043 0.522,-0.116 0.153,-0.069 0.327,-0.11 0.507,-0.11 0.179,0 0.353,0.041 0.507,0.11 0.159,0.073 0.337,0.116 0.523,0.116 0.186,0 0.363,-0.043 0.522,-0.116 0.155,-0.069 0.328,-0.11 0.507,-0.11 0.181,0 0.353,0.041 0.508,0.11 0.157,0.073 0.336,0.116 0.522,0.116 0.186,0 0.364,-0.043 0.523,-0.116 C -0.353,0.801 -0.18,0.76 0,0.76 L 0,0 Z"
         style="fill:#ffffff;fill-opacity:1;fill-rule:nonzero;stroke:none"
         id="path10258"
         inkscape:connector-curvature="0" />
    </g>
    <g
       id="g10260"
       transform="matrix(1.25,0,0,-1.25,263.42093,346.56254)">
      <path
         d="m 0,0 -0.003,-1.795 c 0.18,0 0.353,0.04 0.507,0.11 0.158,0.073 0.337,0.116 0.522,0.116 0.186,0 0.365,-0.043 0.522,-0.116 0.155,-0.07 0.328,-0.11 0.509,-0.11 0.179,0 0.352,0.04 0.506,0.11 0.158,0.073 0.336,0.116 0.523,0.116 0.185,0 0.363,-0.043 0.522,-0.116 0.154,-0.07 0.328,-0.11 0.507,-0.11 0.18,0 0.354,0.04 0.507,0.11 0.159,0.073 0.337,0.116 0.523,0.116 0.186,0 0.364,-0.043 0.522,-0.116 0.155,-0.07 0.328,-0.11 0.508,-0.11 0.051,0 0.099,0.011 0.149,0.017 0.091,0.019 0.183,0.028 0.271,0.063 0.002,0.001 0.004,0.002 0.006,0.003 0.654,0.266 1.218,0.923 1.571,1.413 L 8.347,0 0,0 Z"
         style="fill:#ffffff;fill-opacity:1;fill-rule:nonzero;stroke:none"
         id="path10262"
         inkscape:connector-curvature="0" />
    </g>
    <g
       id="g10264"
       transform="matrix(1.25,0,0,-1.25,271.5813,344.03691)">
      <path
         d="m 0,0 c -0.201,0.445 -0.742,0.408 -0.742,0.408 l -5.79,0 -0.001,-2.132 7.259,0 L 0,0 Z m -3.754,-1.261 c 0,-0.083 -0.068,-0.15 -0.15,-0.15 l -0.67,0 c -0.082,0 -0.15,0.067 -0.15,0.15 l 0,1.019 c 0,0.083 0.068,0.15 0.15,0.15 l 0.67,0 c 0.082,0 0.15,-0.067 0.15,-0.15 l 0,-1.019 z m 1.392,0 c 0,-0.083 -0.068,-0.15 -0.15,-0.15 l -0.674,0 c -0.082,0 -0.15,0.067 -0.15,0.15 l 0,1.019 c 0,0.083 0.068,0.15 0.15,0.15 l 0.674,0 c 0.082,0 0.15,-0.067 0.15,-0.15 l 0,-1.019 z m -2.778,0 c 0,-0.083 -0.068,-0.15 -0.15,-0.15 l -0.674,0 c -0.082,0 -0.15,0.067 -0.15,0.15 l 0,1.019 c 0,0.083 0.068,0.15 0.15,0.15 l 0.674,0 c 0.082,0 0.15,-0.067 0.15,-0.15 l 0,-1.019 z m 3.271,1.169 1.207,0 0.011,0.001 0.008,0 c 0.013,0.001 0.331,0.013 0.438,-0.224 l 0.46,-1.096 -1.57,0 -0.554,1.319 z"
         style="fill:#ffffff;fill-opacity:1;fill-rule:nonzero;stroke:none"
         id="path10266"
         inkscape:connector-curvature="0" />
    </g>
  </g>
</svg>
