<?xml version="1.0" encoding="UTF-8" standalone="no"?>
<!-- Created with Inkscape (http://www.inkscape.org/) -->

<svg
   xmlns:dc="http://purl.org/dc/elements/1.1/"
   xmlns:cc="http://creativecommons.org/ns#"
   xmlns:rdf="http://www.w3.org/1999/02/22-rdf-syntax-ns#"
   xmlns:svg="http://www.w3.org/2000/svg"
   xmlns="http://www.w3.org/2000/svg"
   xmlns:sodipodi="http://sodipodi.sourceforge.net/DTD/sodipodi-0.dtd"
   xmlns:inkscape="http://www.inkscape.org/namespaces/inkscape"
   width="3.4868555mm"
   height="3.4865029mm"
   viewBox="0 0 12.354999 12.35375"
   id="svg9579"
   version="1.1"
   inkscape:version="0.91 r13725"
   sodipodi:docname="CampfireB.svg">
  <defs
     id="defs9581" />
  <sodipodi:namedview
     id="base"
     pagecolor="#ffffff"
     bordercolor="#666666"
     borderopacity="1.0"
     inkscape:pageopacity="0.0"
     inkscape:pageshadow="2"
     inkscape:zoom="3.959798"
     inkscape:cx="-2.8872127"
     inkscape:cy="29.835814"
     inkscape:document-units="px"
     inkscape:current-layer="layer1"
     showgrid="false"
     fit-margin-top="0"
     fit-margin-left="0"
     fit-margin-right="0"
     fit-margin-bottom="0"
     inkscape:window-width="690"
     inkscape:window-height="405"
     inkscape:window-x="104"
     inkscape:window-y="104"
     inkscape:window-maximized="0" />
  <metadata
     id="metadata9584">
    <rdf:RDF>
      <cc:Work
         rdf:about="">
        <dc:format>image/svg+xml</dc:format>
        <dc:type
           rdf:resource="http://purl.org/dc/dcmitype/StillImage" />
        <dc:title></dc:title>
      </cc:Work>
    </rdf:RDF>
  </metadata>
  <g
     inkscape:label="Layer 1"
     inkscape:groupmode="layer"
     id="layer1"
     transform="translate(-450.86426,-625.84081)">
    <g
       id="g10364"
       transform="matrix(1.25,0,0,-1.25,452.34113,626.09131)">
      <path
         d="m 0,0 c -0.542,0 -0.981,-0.44 -0.981,-0.981 l 0,-7.522 c 0,-0.54 0.439,-0.979 0.981,-0.979 l 7.521,0 c 0.541,0 0.981,0.439 0.981,0.979 l 0,7.522 C 8.502,-0.44 8.062,0 7.521,0 L 0,0 Z"
         style="fill:#ffffff;fill-opacity:1;fill-rule:nonzero;stroke:none"
         id="path10366"
         inkscape:connector-curvature="0" />
    </g>
    <g
       id="g10368"
       transform="matrix(1.25,0,0,-1.25,461.74301,638.19456)">
      <path
         d="m 0,0 c 0.652,0 1.181,0.527 1.181,1.18 l 0,7.521 C 1.181,9.354 0.652,9.883 0,9.883 l -7.521,0 c -0.653,0 -1.182,-0.529 -1.182,-1.182 l 0,-7.521 C -8.703,0.527 -8.174,0 -7.521,0 L 0,0 Z"
         style="fill:#373535;fill-opacity:1;fill-rule:nonzero;stroke:none"
         id="path10370"
         inkscape:connector-curvature="0" />
    </g>
    <g
       id="g10372"
       transform="matrix(1.25,0,0,-1.25,452.78063,634.51231)">
      <path
         d="m 0,0 -0.725,0 0,-1.428 c 0,-0.437 0.393,-0.794 0.876,-0.794 l 6.347,0 c 0.483,0 0.877,0.357 0.877,0.794 l 0,1.428 -0.726,0 0,-1.276 c 0,-0.161 -0.143,-0.29 -0.32,-0.29 l -6.009,0 C 0.143,-1.566 0,-1.437 0,-1.276 L 0,0 Z"
         style="fill:#ffffff;fill-opacity:1;fill-rule:nonzero;stroke:none"
         id="path10374"
         inkscape:connector-curvature="0" />
    </g>
    <g
       id="g10376"
       transform="matrix(1.25,0,0,-1.25,459.98638,635.7043)">
      <path
         d="m 0,0 0,1.125 -4.886,1.631 0,-1.125 L 0,0 Z"
         style="fill:#ffffff;fill-opacity:1;fill-rule:nonzero;stroke:none"
         id="path10378"
         inkscape:connector-curvature="0" />
    </g>
    <g
       id="g10380"
       transform="matrix(1.25,0,0,-1.25,455.28788,632.26081)">
      <path
         d="m 0,0 c -0.168,0.189 -1.285,1.481 -0.158,2.598 0.939,0.931 1.076,1.714 0.76,2.093 0,0 2.39,-0.982 0.984,-3.261 C 1.346,1.043 0.744,0.586 1.059,-0.355 L 0,0 Z"
         style="fill:#ffffff;fill-opacity:1;fill-rule:nonzero;stroke:none"
         id="path10382"
         inkscape:connector-curvature="0" />
    </g>
    <g
       id="g10384"
       transform="matrix(1.25,0,0,-1.25,457.12263,632.64768)">
      <path
         d="m 0,0 c -0.051,0.191 -0.28,0.607 0.419,1.436 0.374,0.441 0.515,1.095 0.548,1.341 0,0 1.238,-0.71 0.007,-2.446 L 0,0 Z"
         style="fill:#ffffff;fill-opacity:1;fill-rule:nonzero;stroke:none"
         id="path10386"
         inkscape:connector-curvature="0" />
    </g>
    <g
       id="g10388"
       transform="matrix(1.25,0,0,-1.25,457.45226,632.9803)">
      <path
         d="m 0,0 2.027,0.677 0,-1.125 L 1.684,-0.561 0,0 Z"
         style="fill:#ffffff;fill-opacity:1;fill-rule:nonzero;stroke:none"
         id="path10390"
         inkscape:connector-curvature="0" />
    </g>
    <g
       id="g10392"
       transform="matrix(1.25,0,0,-1.25,456.41463,634.9848)">
      <path
         d="m 0,0 -2.028,-0.676 0,1.125 0.344,0.113 L 0,0 Z"
         style="fill:#ffffff;fill-opacity:1;fill-rule:nonzero;stroke:none"
         id="path10394"
         inkscape:connector-curvature="0" />
    </g>
  </g>
</svg>
