<?xml version="1.0" encoding="UTF-8" standalone="no"?>
<!-- Created with Inkscape (http://www.inkscape.org/) -->

<svg
   xmlns:dc="http://purl.org/dc/elements/1.1/"
   xmlns:cc="http://creativecommons.org/ns#"
   xmlns:rdf="http://www.w3.org/1999/02/22-rdf-syntax-ns#"
   xmlns:svg="http://www.w3.org/2000/svg"
   xmlns="http://www.w3.org/2000/svg"
   xmlns:sodipodi="http://sodipodi.sourceforge.net/DTD/sodipodi-0.dtd"
   xmlns:inkscape="http://www.inkscape.org/namespaces/inkscape"
   width="3.4872084mm"
   height="3.4868555mm"
   viewBox="0 0 12.356249 12.354999"
   id="svg9579"
   version="1.1"
   inkscape:version="0.91 r13725"
   sodipodi:docname="CampgroundB.svg">
  <defs
     id="defs9581" />
  <sodipodi:namedview
     id="base"
     pagecolor="#ffffff"
     bordercolor="#666666"
     borderopacity="1.0"
     inkscape:pageopacity="0.0"
     inkscape:pageshadow="2"
     inkscape:zoom="3.959798"
     inkscape:cx="-22.720519"
     inkscape:cy="32.615519"
     inkscape:document-units="px"
     inkscape:current-layer="layer1"
     showgrid="false"
     fit-margin-top="0"
     fit-margin-left="0"
     fit-margin-right="0"
     fit-margin-bottom="0"
     inkscape:window-width="690"
     inkscape:window-height="405"
     inkscape:window-x="104"
     inkscape:window-y="104"
     inkscape:window-maximized="0" />
  <metadata
     id="metadata9584">
    <rdf:RDF>
      <cc:Work
         rdf:about="">
        <dc:format>image/svg+xml</dc:format>
        <dc:type
           rdf:resource="http://purl.org/dc/dcmitype/StillImage" />
        <dc:title></dc:title>
      </cc:Work>
    </rdf:RDF>
  </metadata>
  <g
     inkscape:label="Layer 1"
     inkscape:groupmode="layer"
     id="layer1"
     transform="translate(-460.59604,-641.36097)">
    <g
       id="g10010"
       transform="matrix(1.25,0,0,-1.25,462.07291,641.61146)">
      <path
         d="m 0,0 c -0.542,0 -0.981,-0.44 -0.981,-0.98 l 0,-7.522 c 0,-0.541 0.439,-0.981 0.981,-0.981 l 7.521,0 c 0.542,0 0.982,0.44 0.982,0.981 l 0,7.522 C 8.503,-0.44 8.063,0 7.521,0 L 0,0 Z"
         style="fill:#ffffff;fill-opacity:1;fill-rule:nonzero;stroke:none"
         id="path10012"
         inkscape:connector-curvature="0" />
    </g>
    <g
       id="g10014"
       transform="matrix(1.25,0,0,-1.25,471.47479,653.71597)">
      <path
         d="m 0,0 c 0.652,0 1.182,0.529 1.182,1.182 l 0,7.521 C 1.182,9.355 0.652,9.884 0,9.884 l -7.521,0 c -0.653,0 -1.182,-0.529 -1.182,-1.181 l 0,-7.521 C -8.703,0.529 -8.174,0 -7.521,0 L 0,0 Z"
         style="fill:#373535;fill-opacity:1;fill-rule:nonzero;stroke:none"
         id="path10016"
         inkscape:connector-curvature="0" />
    </g>
    <g
       id="g10018"
       transform="matrix(1.25,0,0,-1.25,470.87916,650.82284)">
      <path
         d="M 0,0 -3.258,6.236 -6.514,0 l -0.689,0 0,-0.449 7.838,0 L 0.635,0 0,0 Z M -5.002,0 -3.258,3.342 -1.512,0 -5.002,0 Z"
         style="fill:#ffffff;fill-opacity:1;fill-rule:nonzero;stroke:none"
         id="path10020"
         inkscape:connector-curvature="0" />
    </g>
  </g>
</svg>
