<?xml version="1.0" encoding="UTF-8" standalone="no"?>
<!-- Created with Inkscape (http://www.inkscape.org/) -->

<svg
   xmlns:dc="http://purl.org/dc/elements/1.1/"
   xmlns:cc="http://creativecommons.org/ns#"
   xmlns:rdf="http://www.w3.org/1999/02/22-rdf-syntax-ns#"
   xmlns:svg="http://www.w3.org/2000/svg"
   xmlns="http://www.w3.org/2000/svg"
   xmlns:sodipodi="http://sodipodi.sourceforge.net/DTD/sodipodi-0.dtd"
   xmlns:inkscape="http://www.inkscape.org/namespaces/inkscape"
   width="3.4865029mm"
   height="3.4868557mm"
   viewBox="0 0 12.353749 12.355"
   id="svg9579"
   version="1.1"
   inkscape:version="0.91 r13725"
   sodipodi:docname="DrinkingWaterB.svg">
  <defs
     id="defs9581" />
  <sodipodi:namedview
     id="base"
     pagecolor="#ffffff"
     bordercolor="#666666"
     borderopacity="1.0"
     inkscape:pageopacity="0.0"
     inkscape:pageshadow="2"
     inkscape:zoom="3.959798"
     inkscape:cx="30.432702"
     inkscape:cy="-21.718911"
     inkscape:document-units="px"
     inkscape:current-layer="layer1"
     showgrid="false"
     fit-margin-top="0"
     fit-margin-left="0"
     fit-margin-right="0"
     fit-margin-bottom="0"
     inkscape:window-width="690"
     inkscape:window-height="405"
     inkscape:window-x="104"
     inkscape:window-y="104"
     inkscape:window-maximized="0" />
  <metadata
     id="metadata9584">
    <rdf:RDF>
      <cc:Work
         rdf:about="">
        <dc:format>image/svg+xml</dc:format>
        <dc:type
           rdf:resource="http://purl.org/dc/dcmitype/StillImage" />
        <dc:title></dc:title>
      </cc:Work>
    </rdf:RDF>
  </metadata>
  <g
     inkscape:label="Layer 1"
     inkscape:groupmode="layer"
     id="layer1"
     transform="translate(-426.29084,-647.63569)">
    <g
       id="g9780"
       transform="matrix(1.2499999,0,0,-1.2499999,427.76646,647.88619)">
      <path
         d="m 0,0 c -0.54,0 -0.98,-0.44 -0.98,-0.981 l 0,-7.521 c 0,-0.542 0.44,-0.981 0.98,-0.981 l 7.521,0 c 0.541,0 0.981,0.439 0.981,0.981 l 0,7.521 C 8.502,-0.44 8.062,0 7.521,0 L 0,0 Z"
         style="fill:#ffffff;fill-opacity:1;fill-rule:nonzero;stroke:none"
         id="path9782"
         inkscape:connector-curvature="0" />
    </g>
    <g
       id="g9784"
       transform="matrix(1.2499999,0,0,-1.2499999,437.16834,659.99069)">
      <path
         d="m 0,0 c 0.652,0 1.181,0.529 1.181,1.182 l 0,7.521 C 1.181,9.355 0.652,9.884 0,9.884 l -7.521,0 c -0.653,0 -1.181,-0.529 -1.181,-1.181 l 0,-7.521 C -8.702,0.529 -8.174,0 -7.521,0 L 0,0 Z"
         style="fill:#373535;fill-opacity:1;fill-rule:nonzero;stroke:none"
         id="path9786"
         inkscape:connector-curvature="0" />
    </g>
    <g
       id="g9788"
       transform="matrix(1.2499999,0,0,-1.2499999,434.59871,651.00632)">
      <path
         d="m 0,0 c -0.129,-0.125 -0.304,-0.174 -0.496,-0.174 -0.245,0 -0.468,0.1 -0.596,0.289 -0.127,-0.193 -0.351,-0.289 -0.599,-0.289 -0.245,0 -0.466,0.102 -0.594,0.291 -0.127,-0.195 -0.351,-0.291 -0.602,-0.291 -0.181,0 -0.347,0.041 -0.472,0.152 l -0.095,0.68 c 0.13,-0.172 0.336,-0.283 0.567,-0.283 0.251,0 0.475,0.123 0.602,0.318 0.128,-0.189 0.349,-0.318 0.594,-0.318 0.248,0 0.472,0.123 0.599,0.316 0.128,-0.189 0.351,-0.316 0.596,-0.316 0.25,0 0.471,0.129 0.597,0.324 L 0,0 Z"
         style="fill:#ffffff;fill-opacity:1;fill-rule:nonzero;stroke:none"
         id="path9790"
         inkscape:connector-curvature="0" />
    </g>
    <g
       id="g9792"
       transform="matrix(1.2499999,0,0,-1.2499999,434.82459,658.18406)">
      <path
         d="M 0,0 1.083,6.913 0.354,6.906 -0.631,0.729 -3.085,0.729 -4.07,6.906 -4.799,6.913 -3.716,0 0,0 Z"
         style="fill:#ffffff;fill-opacity:1;fill-rule:nonzero;stroke:none"
         id="path9794"
         inkscape:connector-curvature="0" />
    </g>
  </g>
</svg>
