<?xml version="1.0" encoding="UTF-8" standalone="no"?>
<!-- Created with Inkscape (http://www.inkscape.org/) -->

<svg
   xmlns:dc="http://purl.org/dc/elements/1.1/"
   xmlns:cc="http://creativecommons.org/ns#"
   xmlns:rdf="http://www.w3.org/1999/02/22-rdf-syntax-ns#"
   xmlns:svg="http://www.w3.org/2000/svg"
   xmlns="http://www.w3.org/2000/svg"
   xmlns:sodipodi="http://sodipodi.sourceforge.net/DTD/sodipodi-0.dtd"
   xmlns:inkscape="http://www.inkscape.org/namespaces/inkscape"
   width="3.4865029mm"
   height="3.4865029mm"
   viewBox="0 0 12.353751 12.35375"
   id="svg10338"
   version="1.1"
   inkscape:version="0.91 r13725"
   sodipodi:docname="EmergencyTelephoneB.svg">
  <defs
     id="defs10340">
    <clipPath
       clipPathUnits="userSpaceOnUse"
       id="clipPath10168">
      <path
         d="m 0,1224 792,0 L 792,0 0,0 0,1224 Z"
         id="path10170"
         inkscape:connector-curvature="0" />
    </clipPath>
  </defs>
  <sodipodi:namedview
     id="base"
     pagecolor="#ffffff"
     bordercolor="#666666"
     borderopacity="1.0"
     inkscape:pageopacity="0.0"
     inkscape:pageshadow="2"
     inkscape:zoom="22.4"
     inkscape:cx="3.1364176"
     inkscape:cy="5.5905501"
     inkscape:document-units="px"
     inkscape:current-layer="layer1"
     showgrid="false"
     fit-margin-top="0"
     fit-margin-left="0"
     fit-margin-right="0"
     fit-margin-bottom="0"
     inkscape:window-width="690"
     inkscape:window-height="405"
     inkscape:window-x="96"
     inkscape:window-y="84"
     inkscape:window-maximized="0" />
  <metadata
     id="metadata10343">
    <rdf:RDF>
      <cc:Work
         rdf:about="">
        <dc:format>image/svg+xml</dc:format>
        <dc:type
           rdf:resource="http://purl.org/dc/dcmitype/StillImage" />
        <dc:title></dc:title>
      </cc:Work>
    </rdf:RDF>
  </metadata>
  <g
     inkscape:label="Layer 1"
     inkscape:groupmode="layer"
     id="layer1"
     transform="translate(-288.8543,-455.50072)">
    <g
       transform="matrix(1.2500001,0,0,-1.2500001,243.3603,1144.9359)"
       id="g10164">
      <g
         id="g10166"
         clip-path="url(#clipPath10168)">
        <g
           id="g10172"
           transform="translate(37.5747,551.3487)">
          <path
             d="m 0,0 c -0.54,0 -0.98,-0.44 -0.98,-0.98 l 0,-7.522 c 0,-0.541 0.44,-0.98 0.98,-0.98 l 7.523,0 c 0.54,0 0.98,0.439 0.98,0.98 l 0,7.522 C 8.503,-0.44 8.063,0 7.523,0 L 0,0 Z"
             style="fill:#ffffff;fill-opacity:1;fill-rule:nonzero;stroke:none"
             id="path10174"
             inkscape:connector-curvature="0" />
        </g>
        <g
           id="g10176"
           transform="translate(45.0982,541.6651)">
          <path
             d="m 0,0 c 0.65,0 1.18,0.529 1.18,1.182 l 0,7.521 c 0,0.653 -0.53,1.18 -1.18,1.18 l -7.523,0 c -0.651,0 -1.18,-0.527 -1.18,-1.18 l 0,-7.521 C -8.703,0.529 -8.174,0 -7.523,0 L 0,0 Z"
             style="fill:#008dd1;fill-opacity:1;fill-rule:nonzero;stroke:none"
             id="path10178"
             inkscape:connector-curvature="0" />
        </g>
        <g
           id="g10180"
           transform="translate(41.1607,550.7959)">
          <path
             d="m 0,0 c -0.398,-0.043 -1.848,-0.707 -1.891,-4.123 -0.045,-3.6 1.493,-4.357 1.895,-4.35 l 0,2.377 c -0.332,0 -0.399,0.362 -0.475,1.108 -0.049,0.494 -0.064,1.103 0,1.711 0.047,0.425 0.125,0.842 0.473,0.842 L 0,0 Z"
             style="fill:#ffffff;fill-opacity:1;fill-rule:nonzero;stroke:none"
             id="path10182"
             inkscape:connector-curvature="0" />
        </g>
        <g
           id="g10184"
           transform="translate(42.2603,542.3194)">
          <path
             d="m 0,0 c 0.154,0 0.264,0.125 0.264,0.266 l 0.002,0.002 c 0,0 -0.002,1.851 -0.002,1.853 0,0.147 -0.119,0.262 -0.264,0.262 l -0.674,0 0,-2.383 c 0,0 0.672,-0.002 0.672,0 L 0,0 Z"
             style="fill:#ffffff;fill-opacity:1;fill-rule:nonzero;stroke:none"
             id="path10186"
             inkscape:connector-curvature="0" />
        </g>
        <g
           id="g10188"
           transform="translate(42.2603,548.3604)">
          <path
             d="m 0,0 c 0.154,0 0.264,0.125 0.264,0.266 l 0.002,0 c 0,0 -0.002,1.906 -0.002,1.908 C 0.264,2.32 0.145,2.435 0,2.435 l -0.674,0 0,-2.435 0.672,-0.002 L 0,0 Z"
             style="fill:#ffffff;fill-opacity:1;fill-rule:nonzero;stroke:none"
             id="path10190"
             inkscape:connector-curvature="0" />
        </g>
      </g>
    </g>
  </g>
</svg>
