<?xml version="1.0" encoding="UTF-8" standalone="no"?>
<!-- Created with Inkscape (http://www.inkscape.org/) -->

<svg
   xmlns:dc="http://purl.org/dc/elements/1.1/"
   xmlns:cc="http://creativecommons.org/ns#"
   xmlns:rdf="http://www.w3.org/1999/02/22-rdf-syntax-ns#"
   xmlns:svg="http://www.w3.org/2000/svg"
   xmlns="http://www.w3.org/2000/svg"
   xmlns:sodipodi="http://sodipodi.sourceforge.net/DTD/sodipodi-0.dtd"
   xmlns:inkscape="http://www.inkscape.org/namespaces/inkscape"
   width="3.4865029mm"
   height="3.4865029mm"
   viewBox="0 0 12.353749 12.353749"
   id="svg9579"
   version="1.1"
   inkscape:version="0.91 r13725"
   sodipodi:docname="FourWheelDriveB.svg">
  <defs
     id="defs9581" />
  <sodipodi:namedview
     id="base"
     pagecolor="#ffffff"
     bordercolor="#666666"
     borderopacity="1.0"
     inkscape:pageopacity="0.0"
     inkscape:pageshadow="2"
     inkscape:zoom="3.959798"
     inkscape:cx="24.223042"
     inkscape:cy="21.697668"
     inkscape:document-units="px"
     inkscape:current-layer="layer1"
     showgrid="false"
     fit-margin-top="0"
     fit-margin-left="0"
     fit-margin-right="0"
     fit-margin-bottom="0"
     inkscape:window-width="690"
     inkscape:window-height="405"
     inkscape:window-x="104"
     inkscape:window-y="104"
     inkscape:window-maximized="0" />
  <metadata
     id="metadata9584">
    <rdf:RDF>
      <cc:Work
         rdf:about="">
        <dc:format>image/svg+xml</dc:format>
        <dc:type
           rdf:resource="http://purl.org/dc/dcmitype/StillImage" />
        <dc:title></dc:title>
      </cc:Work>
    </rdf:RDF>
  </metadata>
  <g
     inkscape:label="Layer 1"
     inkscape:groupmode="layer"
     id="layer1"
     transform="translate(-407.62547,-694.91903)">
    <g
       id="g10648"
       transform="matrix(1.2499999,0,0,-1.2499999,409.09984,695.16953)">
      <path
         d="m 0,0 c -0.54,0 -0.98,-0.44 -0.98,-0.981 l 0,-7.522 c 0,-0.54 0.44,-0.979 0.98,-0.979 l 7.521,0 c 0.542,0 0.982,0.439 0.982,0.979 l 0,7.522 C 8.503,-0.44 8.063,0 7.521,0 L 0,0 Z"
         style="fill:#ffffff;fill-opacity:1;fill-rule:nonzero;stroke:none"
         id="path10650"
         inkscape:connector-curvature="0" />
    </g>
    <g
       id="g10652"
       transform="matrix(1.2499999,0,0,-1.2499999,418.50172,707.27278)">
      <path
         d="m 0,0 c 0.652,0 1.182,0.528 1.182,1.18 l 0,7.522 C 1.182,9.354 0.652,9.883 0,9.883 l -7.521,0 c -0.653,0 -1.18,-0.529 -1.18,-1.181 l 0,-7.522 C -8.701,0.528 -8.174,0 -7.521,0 L 0,0 Z"
         style="fill:#373535;fill-opacity:1;fill-rule:nonzero;stroke:none"
         id="path10654"
         inkscape:connector-curvature="0" />
    </g>
    <g
       id="g10656"
       transform="matrix(1.2499999,0,0,-1.2499999,415.74297,702.75866)">
      <path
         d="M 0,0 C 0,0.536 0.434,0.972 0.973,0.972 1.509,0.972 1.944,0.536 1.944,0 1.944,-0.538 1.509,-0.974 0.973,-0.974 0.434,-0.974 0,-0.538 0,0 m 0.973,-0.422 c 0.233,0 0.42,0.188 0.42,0.422 0,0.232 -0.187,0.421 -0.42,0.421 C 0.739,0.421 0.552,0.232 0.552,0 c 0,-0.234 0.187,-0.422 0.421,-0.422"
         style="fill:#ffffff;fill-opacity:1;fill-rule:nonzero;stroke:none"
         id="path10658"
         inkscape:connector-curvature="0" />
    </g>
    <g
       id="g10660"
       transform="matrix(1.2499999,0,0,-1.2499999,418.76784,701.45741)">
      <path
         d="m 0,0 -0.002,0.981 c 0,0.39 -0.348,0.349 -0.348,0.349 l -1.964,0 -0.717,1.209 -0.422,0 0.717,-1.209 -0.543,-0.919 -1.239,0.002 c -0.427,0.878 -1.296,0.823 -1.296,0.823 l -2.348,0 0,-2.087 0.336,0 c 0.045,0.709 0.726,1.273 1.447,1.273 0.721,0 1.404,-0.565 1.447,-1.273 l 2.041,-0.002 c 0.043,0.71 0.727,1.275 1.448,1.275 0.72,0 1.406,-0.565 1.447,-1.276 l 0.127,-0.001 c 0.14,0 0.254,0.114 0.254,0.254 L 0.385,0 0,0 Z"
         style="fill:#ffffff;fill-opacity:1;fill-rule:nonzero;stroke:none"
         id="path10662"
         inkscape:connector-curvature="0" />
    </g>
    <g
       id="g10664"
       transform="matrix(1.2499999,0,0,-1.2499999,409.57472,702.75866)">
      <path
         d="M 0,0 C 0,0.536 0.436,0.972 0.972,0.972 1.51,0.972 1.943,0.536 1.943,0 1.943,-0.538 1.51,-0.974 0.972,-0.974 0.436,-0.974 0,-0.538 0,0 m 0.972,-0.422 c 0.233,0 0.423,0.188 0.423,0.422 0,0.232 -0.19,0.421 -0.423,0.421 C 0.74,0.421 0.551,0.232 0.551,0 c 0,-0.234 0.189,-0.422 0.421,-0.422"
         style="fill:#ffffff;fill-opacity:1;fill-rule:nonzero;stroke:none"
         id="path10666"
         inkscape:connector-curvature="0" />
    </g>
  </g>
</svg>
