<?xml version="1.0" encoding="UTF-8" standalone="no"?>
<!-- Created with Inkscape (http://www.inkscape.org/) -->

<svg
   xmlns:dc="http://purl.org/dc/elements/1.1/"
   xmlns:cc="http://creativecommons.org/ns#"
   xmlns:rdf="http://www.w3.org/1999/02/22-rdf-syntax-ns#"
   xmlns:svg="http://www.w3.org/2000/svg"
   xmlns="http://www.w3.org/2000/svg"
   xmlns:sodipodi="http://sodipodi.sourceforge.net/DTD/sodipodi-0.dtd"
   xmlns:inkscape="http://www.inkscape.org/namespaces/inkscape"
   width="3.4946167mm"
   height="3.4946167mm"
   viewBox="0 0 12.382499 12.382499"
   id="svg9579"
   version="1.1"
   inkscape:version="0.91 r13725"
   sodipodi:docname="HospitalB.svg">
  <defs
     id="defs9581" />
  <sodipodi:namedview
     id="base"
     pagecolor="#ffffff"
     bordercolor="#666666"
     borderopacity="1.0"
     inkscape:pageopacity="0.0"
     inkscape:pageshadow="2"
     inkscape:zoom="3.959798"
     inkscape:cx="-16.549581"
     inkscape:cy="13.454635"
     inkscape:document-units="px"
     inkscape:current-layer="layer1"
     showgrid="false"
     fit-margin-top="0"
     fit-margin-left="0"
     fit-margin-right="0"
     fit-margin-bottom="0"
     inkscape:window-width="690"
     inkscape:window-height="405"
     inkscape:window-x="104"
     inkscape:window-y="104"
     inkscape:window-maximized="0" />
  <metadata
     id="metadata9584">
    <rdf:RDF>
      <cc:Work
         rdf:about="">
        <dc:format>image/svg+xml</dc:format>
        <dc:type
           rdf:resource="http://purl.org/dc/dcmitype/StillImage" />
        <dc:title></dc:title>
      </cc:Work>
    </rdf:RDF>
  </metadata>
  <g
     inkscape:label="Layer 1"
     inkscape:groupmode="layer"
     id="layer1"
     transform="translate(-406.1321,-731.74023)">
    <g
       id="g9998"
       transform="matrix(1.2499999,0,0,-1.2499999,407.61197,731.99011)">
      <path
         d="m 0,0 c -0.542,0 -0.983,-0.441 -0.983,-0.983 l 0,-7.539 c 0,-0.543 0.441,-0.984 0.983,-0.984 l 7.538,0 c 0.543,0 0.983,0.441 0.983,0.984 l 0,7.539 C 8.521,-0.441 8.081,0 7.538,0 L 0,0 Z"
         style="fill:#ffffff;fill-opacity:1;fill-rule:nonzero;stroke:none"
         id="path10000"
         inkscape:connector-curvature="0" />
    </g>
    <g
       id="g10002"
       transform="matrix(1.2499999,0,0,-1.2499999,417.0346,744.12273)">
      <path
         d="m 0,0 c 0.653,0 1.184,0.529 1.184,1.184 l 0,7.539 C 1.184,9.375 0.653,9.906 0,9.906 l -7.538,0 c -0.654,0 -1.184,-0.531 -1.184,-1.183 l 0,-7.539 C -8.722,0.529 -8.192,0 -7.538,0 L 0,0 Z"
         style="fill:#008dd1;fill-opacity:1;fill-rule:nonzero;stroke:none"
         id="path10004"
         inkscape:connector-curvature="0" />
    </g>
    <g
       id="g10006"
       transform="matrix(1.2499999,0,0,-1.2499999,413.9926,734.07636)">
      <path
         d="m 0,0 0,-2.1 -2.653,0 0,2.1 -1.328,0 0,-6.17 1.328,0 0,2.744 2.653,0 0,-2.744 1.329,0 0,6.17 L 0,0 Z"
         style="fill:#ffffff;fill-opacity:1;fill-rule:nonzero;stroke:none"
         id="path10008"
         inkscape:connector-curvature="0" />
    </g>
  </g>
</svg>
