<?xml version="1.0" encoding="UTF-8" standalone="no"?>
<!-- Created with Inkscape (http://www.inkscape.org/) -->

<svg
   xmlns:dc="http://purl.org/dc/elements/1.1/"
   xmlns:cc="http://creativecommons.org/ns#"
   xmlns:rdf="http://www.w3.org/1999/02/22-rdf-syntax-ns#"
   xmlns:svg="http://www.w3.org/2000/svg"
   xmlns="http://www.w3.org/2000/svg"
   xmlns:sodipodi="http://sodipodi.sourceforge.net/DTD/sodipodi-0.dtd"
   xmlns:inkscape="http://www.inkscape.org/namespaces/inkscape"
   width="3.4868557mm"
   height="3.4865029mm"
   viewBox="0 0 12.354999 12.353749"
   id="svg9579"
   version="1.1"
   inkscape:version="0.91 r13725"
   sodipodi:docname="InformationB.svg">
  <defs
     id="defs9581">
    <clipPath
       clipPathUnits="userSpaceOnUse"
       id="clipPath9804">
      <path
         d="m 0,1224 792,0 L 792,0 0,0 0,1224 Z"
         id="path9806"
         inkscape:connector-curvature="0" />
    </clipPath>
  </defs>
  <sodipodi:namedview
     id="base"
     pagecolor="#ffffff"
     bordercolor="#666666"
     borderopacity="1.0"
     inkscape:pageopacity="0.0"
     inkscape:pageshadow="2"
     inkscape:zoom="3.959798"
     inkscape:cx="6.2934544"
     inkscape:cy="15.13227"
     inkscape:document-units="px"
     inkscape:current-layer="layer1"
     showgrid="false"
     fit-margin-top="0"
     fit-margin-left="0"
     fit-margin-right="0"
     fit-margin-bottom="0"
     inkscape:window-width="690"
     inkscape:window-height="405"
     inkscape:window-x="104"
     inkscape:window-y="104"
     inkscape:window-maximized="0" />
  <metadata
     id="metadata9584">
    <rdf:RDF>
      <cc:Work
         rdf:about="">
        <dc:format>image/svg+xml</dc:format>
        <dc:type
           rdf:resource="http://purl.org/dc/dcmitype/StillImage" />
        <dc:title></dc:title>
      </cc:Work>
    </rdf:RDF>
  </metadata>
  <g
     inkscape:label="Layer 1"
     inkscape:groupmode="layer"
     id="layer1"
     transform="translate(-383.28907,-733.44661)">
    <g
       transform="matrix(1.2499999,0,0,-1.2499999,338.47807,1835.7704)"
       id="g9800">
      <g
         id="g9802"
         clip-path="url(#clipPath9804)">
        <g
           id="g9808"
           transform="translate(37.0303,881.6587)">
          <path
             d="m 0,0 c -0.542,0 -0.981,-0.439 -0.981,-0.979 l 0,-7.522 c 0,-0.541 0.439,-0.981 0.981,-0.981 l 7.521,0 c 0.541,0 0.981,0.44 0.981,0.981 l 0,7.522 C 8.502,-0.439 8.062,0 7.521,0 L 0,0 Z"
             style="fill:#ffffff;fill-opacity:1;fill-rule:nonzero;stroke:none"
             id="path9810"
             inkscape:connector-curvature="0" />
        </g>
        <g
           id="g9812"
           transform="translate(44.5518,871.9761)">
          <path
             d="m 0,0 c 0.652,0 1.181,0.529 1.181,1.182 l 0,7.521 c 0,0.653 -0.529,1.18 -1.181,1.18 l -7.521,0 c -0.653,0 -1.182,-0.527 -1.182,-1.18 l 0,-7.521 C -8.703,0.529 -8.174,0 -7.521,0 L 0,0 Z"
             style="fill:#373535;fill-opacity:1;fill-rule:nonzero;stroke:none"
             id="path9814"
             inkscape:connector-curvature="0" />
        </g>
        <g
           id="g9816"
           transform="translate(36.6778,876.9195)">
          <path
             d="M 0,0 C 0,2.271 1.842,4.111 4.113,4.111 6.385,4.111 8.227,2.271 8.227,0 8.227,-2.271 6.385,-4.113 4.113,-4.113 1.842,-4.113 0,-2.271 0,0 m 4.113,-3.51 c 1.938,0 3.51,1.57 3.51,3.51 0,1.937 -1.572,3.508 -3.51,3.508 C 2.174,3.508 0.602,1.937 0.602,0 c 0,-1.94 1.572,-3.51 3.511,-3.51"
             style="fill:#ffffff;fill-opacity:1;fill-rule:nonzero;stroke:none"
             id="path9818"
             inkscape:connector-curvature="0" />
        </g>
        <g
           id="g9820"
           transform="translate(40.334,875.6617)">
          <path
             d="m 0,0 0.838,0.002 0,0.65 C 0.838,0.83 0.921,0.998 1.14,1.143 1.36,1.285 1.976,1.58 1.976,2.35 1.976,3.121 1.33,3.65 0.787,3.764 0.244,3.875 -0.345,3.801 -0.762,3.344 -1.137,2.934 -1.214,2.611 -1.214,1.897 l 0.838,0 0,0.166 c 0,0.378 0.044,0.781 0.587,0.892 C 0.509,3.016 0.787,2.922 0.952,2.76 1.142,2.574 1.144,2.158 0.841,1.953 L 0.369,1.633 C 0.094,1.453 0,1.256 0,0.969 L 0,0 Z"
             style="fill:#ffffff;fill-opacity:1;fill-rule:nonzero;stroke:none"
             id="path9822"
             inkscape:connector-curvature="0" />
        </g>
        <path
           d="m 40.328,875.283 0.85,0 0,-0.863 -0.85,0 0,0.863 z"
           style="fill:#ffffff;fill-opacity:1;fill-rule:nonzero;stroke:none"
           id="path9824"
           inkscape:connector-curvature="0" />
      </g>
    </g>
  </g>
</svg>
