<?xml version="1.0" encoding="UTF-8" standalone="no"?>
<!-- Created with Inkscape (http://www.inkscape.org/) -->

<svg
   xmlns:dc="http://purl.org/dc/elements/1.1/"
   xmlns:cc="http://creativecommons.org/ns#"
   xmlns:rdf="http://www.w3.org/1999/02/22-rdf-syntax-ns#"
   xmlns:svg="http://www.w3.org/2000/svg"
   xmlns="http://www.w3.org/2000/svg"
   xmlns:sodipodi="http://sodipodi.sourceforge.net/DTD/sodipodi-0.dtd"
   xmlns:inkscape="http://www.inkscape.org/namespaces/inkscape"
   width="3.4868557mm"
   height="3.4865029mm"
   viewBox="0 0 12.354999 12.353749"
   id="svg9579"
   version="1.1"
   inkscape:version="0.91 r13725"
   sodipodi:docname="LitterB.svg">
  <defs
     id="defs9581">
    <clipPath
       clipPathUnits="userSpaceOnUse"
       id="clipPath9804">
      <path
         d="m 0,1224 792,0 L 792,0 0,0 0,1224 Z"
         id="path9806"
         inkscape:connector-curvature="0" />
    </clipPath>
  </defs>
  <sodipodi:namedview
     id="base"
     pagecolor="#ffffff"
     bordercolor="#666666"
     borderopacity="1.0"
     inkscape:pageopacity="0.0"
     inkscape:pageshadow="2"
     inkscape:zoom="3.959798"
     inkscape:cx="-11.015089"
     inkscape:cy="29.642903"
     inkscape:document-units="px"
     inkscape:current-layer="layer1"
     showgrid="false"
     fit-margin-top="0"
     fit-margin-left="0"
     fit-margin-right="0"
     fit-margin-bottom="0"
     inkscape:window-width="690"
     inkscape:window-height="405"
     inkscape:window-x="104"
     inkscape:window-y="104"
     inkscape:window-maximized="0" />
  <metadata
     id="metadata9584">
    <rdf:RDF>
      <cc:Work
         rdf:about="">
        <dc:format>image/svg+xml</dc:format>
        <dc:type
           rdf:resource="http://purl.org/dc/dcmitype/StillImage" />
        <dc:title></dc:title>
      </cc:Work>
    </rdf:RDF>
  </metadata>
  <g
     inkscape:label="Layer 1"
     inkscape:groupmode="layer"
     id="layer1"
     transform="translate(-400.59761,-747.95724)">
    <g
       id="g10840"
       transform="matrix(1.2499999,0,0,-1.2499999,402.07323,748.20773)">
      <path
         d="m 0,0 c -0.54,0 -0.98,-0.439 -0.98,-0.979 l 0,-7.524 c 0,-0.54 0.44,-0.979 0.98,-0.979 l 7.523,0 c 0.54,0 0.98,0.439 0.98,0.979 l 0,7.524 C 8.503,-0.439 8.063,0 7.523,0 L 0,0 Z"
         style="fill:#ffffff;fill-opacity:1;fill-rule:nonzero;stroke:none"
         id="path10842"
         inkscape:connector-curvature="0" />
    </g>
    <g
       id="g10844"
       transform="matrix(1.2499999,0,0,-1.2499999,411.47636,760.31099)">
      <path
         d="m 0,0 c 0.652,0 1.181,0.527 1.181,1.18 l 0,7.523 c 0,0.65 -0.529,1.18 -1.181,1.18 l -7.523,0 c -0.652,0 -1.18,-0.53 -1.18,-1.18 l 0,-7.523 C -8.703,0.527 -8.175,0 -7.523,0 L 0,0 Z"
         style="fill:#373535;fill-opacity:1;fill-rule:nonzero;stroke:none"
         id="path10846"
         inkscape:connector-curvature="0" />
    </g>
    <g
       id="g10848"
       transform="matrix(1.2499999,0,0,-1.2499999,409.04223,750.76511)">
      <path
         d="M 0,0 C 0.384,0 0.695,0.295 0.695,0.659 0.695,1.023 0.384,1.32 0,1.32 -0.384,1.32 -0.694,1.023 -0.694,0.659 -0.694,0.295 -0.384,0 0,0"
         style="fill:#ffffff;fill-opacity:1;fill-rule:nonzero;stroke:none"
         id="path10850"
         inkscape:connector-curvature="0" />
    </g>
    <path
       d="m 404.64236,755.84311 -0.63375,0 0,0.635 0.63375,0 0,-0.635 z"
       style="fill:#ffffff;fill-opacity:1;fill-rule:nonzero;stroke:none"
       id="path10852"
       inkscape:connector-curvature="0" />
    <g
       id="g10854"
       transform="matrix(1.2499999,0,0,-1.2499999,404.97848,754.99598)">
      <path
         d="M 0,0 -0.37,0.371 -0.74,0 -0.37,-0.369 0,0 Z"
         style="fill:#ffffff;fill-opacity:1;fill-rule:nonzero;stroke:none"
         id="path10856"
         inkscape:connector-curvature="0" />
    </g>
    <g
       id="g10858"
       transform="matrix(1.2499999,0,0,-1.2499999,404.56711,753.91448)">
      <path
         d="M 0,0 -0.37,0.369 -0.739,0 -0.37,-0.369 0,0 Z"
         style="fill:#ffffff;fill-opacity:1;fill-rule:nonzero;stroke:none"
         id="path10860"
         inkscape:connector-curvature="0" />
    </g>
    <g
       id="g10862"
       transform="matrix(1.2499999,0,0,-1.2499999,405.60836,759.27461)">
      <path
         d="m 0,0 0.628,3.34 -0.472,0 -0.551,-2.873 -1.214,0 -0.539,2.871 -0.473,0 L -2.004,0 0,0 Z"
         style="fill:#ffffff;fill-opacity:1;fill-rule:nonzero;stroke:none"
         id="path10864"
         inkscape:connector-curvature="0" />
    </g>
    <g
       id="g10866"
       transform="matrix(1.2499999,0,0,-1.2499999,406.61186,752.79748)">
      <path
         d="m 0,0 -1.046,0 c -0.414,0 -0.414,-0.519 0,-0.519 l 1.195,0.002 c 0.089,0 0.181,0.045 0.25,0.151 L 1,0.534 0.999,-4.815 c 0,-0.205 0.174,-0.372 0.39,-0.372 0.215,0 0.389,0.167 0.389,0.372 l 0,3.103 0.36,0 0,-3.103 c 0,-0.205 0.175,-0.372 0.388,-0.372 0.216,0 0.39,0.167 0.39,0.372 l 10e-4,5.349 0.358,0 0,-1.972 c 0,-0.397 0.544,-0.397 0.543,0 l 0,2.012 c 0,0.439 -0.457,0.87 -0.997,0.87 l -1.382,0 C 1.128,1.444 0.855,1.292 0.697,1.06 L 0,0 Z"
         style="fill:#ffffff;fill-opacity:1;fill-rule:nonzero;stroke:none"
         id="path10868"
         inkscape:connector-curvature="0" />
    </g>
  </g>
</svg>
