<?xml version="1.0" encoding="UTF-8" standalone="no"?>
<!-- Created with Inkscape (http://www.inkscape.org/) -->

<svg
   xmlns:dc="http://purl.org/dc/elements/1.1/"
   xmlns:cc="http://creativecommons.org/ns#"
   xmlns:rdf="http://www.w3.org/1999/02/22-rdf-syntax-ns#"
   xmlns:svg="http://www.w3.org/2000/svg"
   xmlns="http://www.w3.org/2000/svg"
   xmlns:sodipodi="http://sodipodi.sourceforge.net/DTD/sodipodi-0.dtd"
   xmlns:inkscape="http://www.inkscape.org/namespaces/inkscape"
   width="3.4868555mm"
   height="3.4857972mm"
   viewBox="0 0 12.355 12.351249"
   id="svg10338"
   version="1.1"
   inkscape:version="0.91 r13725"
   sodipodi:docname="MotorbikeB.svg">
  <defs
     id="defs10340" />
  <sodipodi:namedview
     id="base"
     pagecolor="#ffffff"
     bordercolor="#666666"
     borderopacity="1.0"
     inkscape:pageopacity="0.0"
     inkscape:pageshadow="2"
     inkscape:zoom="22.4"
     inkscape:cx="4.1224872"
     inkscape:cy="16.290091"
     inkscape:document-units="px"
     inkscape:current-layer="layer1"
     showgrid="false"
     fit-margin-top="0"
     fit-margin-left="0"
     fit-margin-right="0"
     fit-margin-bottom="0"
     inkscape:window-width="690"
     inkscape:window-height="405"
     inkscape:window-x="130"
     inkscape:window-y="130"
     inkscape:window-maximized="0" />
  <metadata
     id="metadata10343">
    <rdf:RDF>
      <cc:Work
         rdf:about="">
        <dc:format>image/svg+xml</dc:format>
        <dc:type
           rdf:resource="http://purl.org/dc/dcmitype/StillImage" />
        <dc:title></dc:title>
      </cc:Work>
    </rdf:RDF>
  </metadata>
  <g
     inkscape:label="Layer 1"
     inkscape:groupmode="layer"
     id="layer1"
     transform="translate(-287.86821,-466.20275)">
    <g
       id="g10890"
       transform="matrix(1.25,0,0,-1.25,289.34383,466.452)">
      <path
         d="m 0,0 c -0.54,0 -0.98,-0.439 -0.98,-0.98 l 0,-7.522 c 0,-0.539 0.44,-0.978 0.98,-0.978 l 7.523,0 c 0.54,0 0.98,0.439 0.98,0.978 l 0,7.522 C 8.503,-0.439 8.063,0 7.523,0 L 0,0 Z"
         style="fill:#ffffff;fill-opacity:1;fill-rule:nonzero;stroke:none"
         id="path10892"
         inkscape:connector-curvature="0" />
    </g>
    <g
       id="g10894"
       transform="matrix(1.25,0,0,-1.25,298.74696,478.554)">
      <path
         d="m 0,0 c 0.652,0 1.181,0.527 1.181,1.18 l 0,7.521 c 0,0.653 -0.529,1.18 -1.181,1.18 l -7.523,0 c -0.651,0 -1.18,-0.527 -1.18,-1.18 l 0,-7.521 C -8.703,0.527 -8.174,0 -7.523,0 L 0,0 Z"
         style="fill:#373535;fill-opacity:1;fill-rule:nonzero;stroke:none"
         id="path10896"
         inkscape:connector-curvature="0" />
    </g>
    <g
       id="g10898"
       transform="matrix(1.25,0,0,-1.25,294.74671,467.93388)">
      <path
         d="m 0,0 c -0.11,0.424 -0.497,0.738 -0.954,0.738 -0.546,0 -0.987,-0.439 -0.987,-0.984 0,-0.092 0.01,-0.176 0.034,-0.258 l 0.395,0 c 0.03,-0.068 0.061,-0.107 0.061,-0.107 0.119,-0.172 0.318,-0.284 0.543,-0.284 0.365,0 0.662,0.297 0.662,0.663 0,0.084 0.021,0.16 -0.014,0.232 L 0,0 Z"
         style="fill:#ffffff;fill-opacity:1;fill-rule:nonzero;stroke:none"
         id="path10900"
         inkscape:connector-curvature="0" />
    </g>
    <g
       id="g10902"
       transform="matrix(1.25,0,0,-1.25,294.71246,475.28987)">
      <path
         d="M 0,0 C -0.104,-0.105 -0.247,-0.185 -0.408,-0.185 L -0.409,1.959 1.075,2.385 1.447,1.652 0,0 Z"
         style="fill:#ffffff;fill-opacity:1;fill-rule:nonzero;stroke:none"
         id="path10904"
         inkscape:connector-curvature="0" />
    </g>
    <g
       id="g10906"
       transform="matrix(1.25,0,0,-1.25,293.15483,469.157)">
      <path
         d="m 0,0 c -0.098,0.109 -0.239,0.178 -0.398,0.178 -0.169,0 -0.321,-0.078 -0.417,-0.201 l -1.178,-1.799 c -0.048,-0.08 -0.075,-0.174 -0.075,-0.274 0,-0.185 0.093,-0.347 0.236,-0.443 l 1.58,-0.877 0,-1.492 c 0,-0.211 0.171,-0.383 0.382,-0.383 0.21,0 0.382,0.172 0.382,0.383 l 0,1.863 c 0,0 0.05,0.297 -0.287,0.459 l -0.986,0.516 0.718,1.095 0.381,-0.597 C 0.414,-1.693 0.517,-1.74 0.611,-1.738 l 0.978,0.004 c 0.398,0 0.398,0.517 0,0.515 l -0.793,0 L 0,0 Z"
         style="fill:#ffffff;fill-opacity:1;fill-rule:nonzero;stroke:none"
         id="path10908"
         inkscape:connector-curvature="0" />
    </g>
    <g
       id="g10910"
       transform="matrix(1.25,0,0,-1.25,298.56746,472.21363)">
      <path
         d="m 0,0 c 0.016,-0.016 0.024,-0.035 0.024,-0.061 0,-0.046 -0.039,-0.085 -0.086,-0.085 -0.012,0 -0.02,0 -0.031,0.003 -0.169,0.073 -0.276,0.118 -0.472,0.118 -0.13,0 -0.291,-0.045 -0.477,-0.196 l -0.172,0.34 C -0.999,0.184 -0.823,0.24 -0.639,0.24 -0.346,0.24 -0.192,0.18 0,0"
         style="fill:#ffffff;fill-opacity:1;fill-rule:nonzero;stroke:none"
         id="path10912"
         inkscape:connector-curvature="0" />
    </g>
    <g
       id="g10914"
       transform="matrix(1.25,0,0,-1.25,290.35458,472.54088)">
      <path
         d="m 0,0 1.658,-0.914 0.004,-0.367 -1.893,1.043 c -0.137,0.07 -0.322,0.111 -0.453,0.111 -0.195,0 -0.303,-0.045 -0.471,-0.117 -0.011,-0.004 -0.02,-0.004 -0.032,-0.004 -0.046,0 -0.086,0.039 -0.086,0.086 0,0.025 0.009,0.045 0.025,0.06 0.192,0.18 0.388,0.241 0.681,0.241 C -0.417,0.139 -0.234,0.121 0,0"
         style="fill:#ffffff;fill-opacity:1;fill-rule:nonzero;stroke:none"
         id="path10916"
         inkscape:connector-curvature="0" />
    </g>
    <g
       id="g10918"
       transform="matrix(1.25,0,0,-1.25,288.78358,475.52175)">
      <path
         d="M 0,0 C 0,0.779 0.632,1.412 1.411,1.412 2.191,1.412 2.823,0.779 2.823,0 2.823,-0.779 2.191,-1.412 1.411,-1.412 0.632,-1.412 0,-0.779 0,0 m 1.411,-0.979 c 0.54,0 0.978,0.438 0.978,0.979 0,0.541 -0.438,0.979 -0.978,0.979 -0.54,0 -0.977,-0.438 -0.977,-0.979 0,-0.541 0.437,-0.979 0.977,-0.979"
         style="fill:#ffffff;fill-opacity:1;fill-rule:nonzero;stroke:none"
         id="path10920"
         inkscape:connector-curvature="0" />
    </g>
    <g
       id="g10922"
       transform="matrix(1.25,0,0,-1.25,296.07846,475.52175)">
      <path
         d="M 0,0 C 0,0.779 0.631,1.412 1.411,1.412 2.19,1.412 2.822,0.779 2.822,0 2.822,-0.779 2.19,-1.412 1.411,-1.412 0.631,-1.412 0,-0.779 0,0 m 1.411,-0.979 c 0.54,0 0.979,0.438 0.979,0.979 0,0.541 -0.439,0.979 -0.979,0.979 -0.54,0 -0.977,-0.438 -0.977,-0.979 0,-0.541 0.437,-0.979 0.977,-0.979"
         style="fill:#ffffff;fill-opacity:1;fill-rule:nonzero;stroke:none"
         id="path10924"
         inkscape:connector-curvature="0" />
    </g>
    <g
       id="g10926"
       transform="matrix(1.25,0,0,-1.25,297.45296,473.50513)">
      <path
         d="M 0,0 -0.686,1.371 C -0.775,1.535 -0.95,1.648 -1.151,1.648 l -0.449,0 c -0.087,0 -0.158,-0.072 -0.158,-0.16 0,-0.088 0.071,-0.158 0.158,-0.158 l 0.449,0.002 c 0.075,0 0.159,-0.051 0.191,-0.125 L -0.314,-0.109 0,0 Z"
         style="fill:#ffffff;fill-opacity:1;fill-rule:nonzero;stroke:none"
         id="path10928"
         inkscape:connector-curvature="0" />
    </g>
  </g>
</svg>
