<?xml version="1.0" encoding="UTF-8" standalone="no"?>
<!-- Created with Inkscape (http://www.inkscape.org/) -->

<svg
   xmlns:dc="http://purl.org/dc/elements/1.1/"
   xmlns:cc="http://creativecommons.org/ns#"
   xmlns:rdf="http://www.w3.org/1999/02/22-rdf-syntax-ns#"
   xmlns:svg="http://www.w3.org/2000/svg"
   xmlns="http://www.w3.org/2000/svg"
   xmlns:sodipodi="http://sodipodi.sourceforge.net/DTD/sodipodi-0.dtd"
   xmlns:inkscape="http://www.inkscape.org/namespaces/inkscape"
   width="3.4868557mm"
   height="3.4865029mm"
   viewBox="0 0 12.355001 12.35375"
   id="svg10338"
   version="1.1"
   inkscape:version="0.91 r13725"
   sodipodi:docname="PetsB.svg">
  <defs
     id="defs10340" />
  <sodipodi:namedview
     id="base"
     pagecolor="#ffffff"
     bordercolor="#666666"
     borderopacity="1.0"
     inkscape:pageopacity="0.0"
     inkscape:pageshadow="2"
     inkscape:zoom="22.4"
     inkscape:cx="3.0393582"
     inkscape:cy="10.20634"
     inkscape:document-units="px"
     inkscape:current-layer="layer1"
     showgrid="false"
     fit-margin-top="0"
     fit-margin-left="0"
     fit-margin-right="0"
     fit-margin-bottom="0"
     inkscape:window-width="690"
     inkscape:window-height="405"
     inkscape:window-x="130"
     inkscape:window-y="130"
     inkscape:window-maximized="0" />
  <metadata
     id="metadata10343">
    <rdf:RDF>
      <cc:Work
         rdf:about="">
        <dc:format>image/svg+xml</dc:format>
        <dc:type
           rdf:resource="http://purl.org/dc/dcmitype/StillImage" />
        <dc:title></dc:title>
      </cc:Work>
    </rdf:RDF>
  </metadata>
  <g
     inkscape:label="Layer 1"
     inkscape:groupmode="layer"
     id="layer1"
     transform="translate(-288.95134,-460.1165)">
    <g
       id="g9748"
       transform="matrix(1.2500001,0,0,-1.2500001,290.42709,460.36575)">
      <path
         d="m 0,0 c -0.54,0 -0.98,-0.441 -0.98,-0.982 l 0,-7.522 c 0,-0.539 0.44,-0.978 0.98,-0.978 l 7.522,0 c 0.541,0 0.981,0.439 0.981,0.978 l 0,7.522 C 8.503,-0.441 8.063,0 7.522,0 L 0,0 Z"
         style="fill:#ffffff;fill-opacity:1;fill-rule:nonzero;stroke:none"
         id="path9750"
         inkscape:connector-curvature="0" />
    </g>
    <g
       id="g9752"
       transform="matrix(1.2500001,0,0,-1.2500001,299.83009,472.47025)">
      <path
         d="m 0,0 c 0.652,0 1.181,0.527 1.181,1.18 l 0,7.521 C 1.181,9.354 0.652,9.883 0,9.883 l -7.522,0 c -0.652,0 -1.181,-0.529 -1.181,-1.182 l 0,-7.521 C -8.703,0.527 -8.174,0 -7.522,0 L 0,0 Z"
         style="fill:#373535;fill-opacity:1;fill-rule:nonzero;stroke:none"
         id="path9754"
         inkscape:connector-curvature="0" />
    </g>
    <g
       id="g9756"
       transform="matrix(1.2500001,0,0,-1.2500001,296.03622,465.3585)">
      <path
         d="m 0,0 -4.13,1.963 0,0.391 L 0.137,0.309 0,0 Z"
         style="fill:#ffffff;fill-opacity:1;fill-rule:nonzero;stroke:none"
         id="path9758"
         inkscape:connector-curvature="0" />
    </g>
    <g
       id="g9760"
       transform="matrix(1.2500001,0,0,-1.2500001,294.27234,468.05375)">
      <path
         d="m 0,0 1.807,0 0,-1.613 c 0,-0.264 0.213,-0.477 0.477,-0.477 0.264,0 0.478,0.213 0.478,0.477 l 0,1.613 c 0.143,0 0.157,0.094 0.157,0.203 l 0,1.203 -1.51,0.739 -3.21,0 -0.414,0.234 C -2.348,2.455 -2.517,2.408 -2.592,2.275 -2.667,2.143 -2.621,1.975 -2.488,1.898 l 0.654,-0.375 0,-3.136 c 0,-0.264 0.214,-0.477 0.477,-0.477 0.264,0 0.478,0.213 0.478,0.477 l -0.001,1.228 0.865,-1.461 c 0.135,-0.226 0.428,-0.3 0.656,-0.166 0.225,0.135 0.299,0.43 0.165,0.657 L 0,0 Z"
         style="fill:#ffffff;fill-opacity:1;fill-rule:nonzero;stroke:none"
         id="path9762"
         inkscape:connector-curvature="0" />
    </g>
    <g
       id="g9764"
       transform="matrix(1.2500001,0,0,-1.2500001,296.21809,464.963)">
      <path
         d="m 0,0 1.359,-0.646 0,0.253 1.108,0.002 L 2.873,0.482 0,1.852 0,0 Z"
         style="fill:#ffffff;fill-opacity:1;fill-rule:nonzero;stroke:none"
         id="path9766"
         inkscape:connector-curvature="0" />
    </g>
  </g>
</svg>
