<?xml version="1.0" encoding="UTF-8" standalone="no"?>
<!-- Created with Inkscape (http://www.inkscape.org/) -->

<svg
   xmlns:dc="http://purl.org/dc/elements/1.1/"
   xmlns:cc="http://creativecommons.org/ns#"
   xmlns:rdf="http://www.w3.org/1999/02/22-rdf-syntax-ns#"
   xmlns:svg="http://www.w3.org/2000/svg"
   xmlns="http://www.w3.org/2000/svg"
   xmlns:sodipodi="http://sodipodi.sourceforge.net/DTD/sodipodi-0.dtd"
   xmlns:inkscape="http://www.inkscape.org/namespaces/inkscape"
   width="3.4865029mm"
   height="3.4872084mm"
   viewBox="0 0 12.353751 12.35625"
   id="svg10338"
   version="1.1"
   inkscape:version="0.91 r13725"
   sodipodi:docname="PostOfficeB.svg">
  <defs
     id="defs10340" />
  <sodipodi:namedview
     id="base"
     pagecolor="#ffffff"
     bordercolor="#666666"
     borderopacity="1.0"
     inkscape:pageopacity="0.0"
     inkscape:pageshadow="2"
     inkscape:zoom="22.4"
     inkscape:cx="10.25981"
     inkscape:cy="4.5702705"
     inkscape:document-units="px"
     inkscape:current-layer="layer1"
     showgrid="false"
     fit-margin-top="0"
     fit-margin-left="0"
     fit-margin-right="0"
     fit-margin-bottom="0"
     inkscape:window-width="690"
     inkscape:window-height="405"
     inkscape:window-x="130"
     inkscape:window-y="130"
     inkscape:window-maximized="0" />
  <metadata
     id="metadata10343">
    <rdf:RDF>
      <cc:Work
         rdf:about="">
        <dc:format>image/svg+xml</dc:format>
        <dc:type
           rdf:resource="http://purl.org/dc/dcmitype/StillImage" />
        <dc:title></dc:title>
      </cc:Work>
    </rdf:RDF>
  </metadata>
  <g
     inkscape:label="Layer 1"
     inkscape:groupmode="layer"
     id="layer1"
     transform="translate(-281.73089,-454.47793)">
    <g
       id="g14084"
       transform="matrix(1.2500001,0,0,-1.2500001,283.20589,454.72692)">
      <path
         d="m 0,0 c -0.54,0 -0.98,-0.441 -0.98,-0.982 l 0,-7.522 c 0,-0.541 0.44,-0.981 0.98,-0.981 l 7.521,0 c 0.542,0 0.982,0.44 0.982,0.981 l 0,7.522 C 8.503,-0.441 8.063,0 7.521,0 L 0,0 Z"
         style="fill:#ffffff;fill-opacity:1;fill-rule:nonzero;stroke:none"
         id="path14086"
         inkscape:connector-curvature="0" />
    </g>
    <g
       id="g14088"
       transform="matrix(1.2500001,0,0,-1.2500001,292.60714,454.47793)">
      <path
         d="m 0,0 -7.521,0 c -0.652,0 -1.18,-0.529 -1.18,-1.182 l 0,-7.522 c 0,-0.652 0.528,-1.181 1.18,-1.181 l 7.521,0 c 0.652,0 1.182,0.529 1.182,1.181 l 0,7.522 C 1.182,-0.529 0.652,0 0,0"
         style="fill:#373535;fill-opacity:1;fill-rule:nonzero;stroke:none"
         id="path14090"
         inkscape:connector-curvature="0" />
    </g>
    <path
       d="m 283.01627,464.37105 9.85625,0 0,-7.47875 -9.85625,0 0,7.47875 z"
       style="fill:#ffffff;fill-opacity:1;fill-rule:nonzero;stroke:none"
       id="path14092"
       inkscape:connector-curvature="0" />
    <g
       id="g14094"
       transform="matrix(1.2500001,0,0,-1.2500001,291.28627,457.74692)">
      <path
         d="m 0,0 -2.302,-2.3 c -0.096,-0.098 -0.239,-0.154 -0.389,-0.154 -0.157,0 -0.306,0.06 -0.411,0.163 L -5.388,0 0,0 Z"
         style="fill:#373535;fill-opacity:1;fill-rule:nonzero;stroke:none"
         id="path14096"
         inkscape:connector-curvature="0" />
    </g>
    <g
       id="g14098"
       transform="matrix(1.2500001,0,0,-1.2500001,283.86689,458.45618)">
      <path
         d="M 0,0 1.741,-1.745 -0.003,-3.49 0,0 Z"
         style="fill:#373535;fill-opacity:1;fill-rule:nonzero;stroke:none"
         id="path14100"
         inkscape:connector-curvature="0" />
    </g>
    <g
       id="g14102"
       transform="matrix(1.2500001,0,0,-1.2500001,284.54802,463.5263)">
      <path
         d="M 0,0 1.749,1.746 C 2.005,1.501 2.343,1.366 2.7,1.366 c 0.358,0 0.691,0.135 0.937,0.381 L 5.395,0 0,0 Z"
         style="fill:#373535;fill-opacity:1;fill-rule:nonzero;stroke:none"
         id="path14104"
         inkscape:connector-curvature="0" />
    </g>
    <g
       id="g14106"
       transform="matrix(1.2500001,0,0,-1.2500001,291.99677,462.8183)">
      <path
         d="M 0,0 -1.742,1.745 0,3.489 0,0 Z"
         style="fill:#373535;fill-opacity:1;fill-rule:nonzero;stroke:none"
         id="path14108"
         inkscape:connector-curvature="0" />
    </g>
  </g>
</svg>
