<?xml version="1.0" encoding="UTF-8" standalone="no"?>
<!-- Created with Inkscape (http://www.inkscape.org/) -->

<svg
   xmlns:dc="http://purl.org/dc/elements/1.1/"
   xmlns:cc="http://creativecommons.org/ns#"
   xmlns:rdf="http://www.w3.org/1999/02/22-rdf-syntax-ns#"
   xmlns:svg="http://www.w3.org/2000/svg"
   xmlns="http://www.w3.org/2000/svg"
   xmlns:sodipodi="http://sodipodi.sourceforge.net/DTD/sodipodi-0.dtd"
   xmlns:inkscape="http://www.inkscape.org/namespaces/inkscape"
   width="3.4889722mm"
   height="3.489325mm"
   viewBox="0 0 12.3625 12.36375"
   id="svg10338"
   version="1.1"
   inkscape:version="0.91 r13725"
   sodipodi:docname="RangerStationB.svg">
  <defs
     id="defs10340" />
  <sodipodi:namedview
     id="base"
     pagecolor="#ffffff"
     bordercolor="#666666"
     borderopacity="1.0"
     inkscape:pageopacity="0.0"
     inkscape:pageshadow="2"
     inkscape:zoom="22.4"
     inkscape:cx="8.3918609"
     inkscape:cy="6.18447"
     inkscape:document-units="px"
     inkscape:current-layer="layer1"
     showgrid="false"
     fit-margin-top="0"
     fit-margin-left="0"
     fit-margin-right="0"
     fit-margin-bottom="0"
     inkscape:window-width="690"
     inkscape:window-height="405"
     inkscape:window-x="130"
     inkscape:window-y="130"
     inkscape:window-maximized="0" />
  <metadata
     id="metadata10343">
    <rdf:RDF>
      <cc:Work
         rdf:about="">
        <dc:format>image/svg+xml</dc:format>
        <dc:type
           rdf:resource="http://purl.org/dc/dcmitype/StillImage" />
        <dc:title></dc:title>
      </cc:Work>
    </rdf:RDF>
  </metadata>
  <g
     inkscape:label="Layer 1"
     inkscape:groupmode="layer"
     id="layer1"
     transform="translate(-283.59884,-456.08463)">
    <g
       id="g10022"
       transform="matrix(1.25,0,0,-1.25,285.07634,456.33413)">
      <path
         d="m 0,0 c -0.542,0 -0.981,-0.441 -0.981,-0.982 l 0,-7.526 c 0,-0.541 0.439,-0.982 0.981,-0.982 l 7.526,0 c 0.542,0 0.982,0.441 0.982,0.982 l 0,7.526 C 8.508,-0.441 8.068,0 7.526,0 L 0,0 Z"
         style="fill:#ffffff;fill-opacity:1;fill-rule:nonzero;stroke:none"
         id="path10024"
         inkscape:connector-curvature="0" />
    </g>
    <g
       id="g10026"
       transform="matrix(1.25,0,0,-1.25,285.07634,468.44838)">
      <path
         d="m 0,0 c -0.652,0 -1.182,0.529 -1.182,1.184 l 0,7.525 c 0,0.654 0.53,1.182 1.182,1.182 l 7.526,0 c 0.653,0 1.182,-0.528 1.182,-1.182 l 0,-7.525 C 8.708,0.529 8.179,0 7.526,0 L 0,0 Z"
         style="fill:#373535;fill-opacity:1;fill-rule:nonzero;stroke:none"
         id="path10028"
         inkscape:connector-curvature="0" />
    </g>
    <g
       id="g10030"
       transform="matrix(1.25,0,0,-1.25,290.68309,461.26326)">
      <path
         d="m 0,0 0,1.697 0.587,0 c 0.244,0 0.286,-0.16 0.316,-0.191 C 0.994,1.418 1.056,1.365 1.184,1.365 l 0.651,0 0,1.442 -0.651,0 c -0.128,0 -0.19,0.052 -0.281,0.142 -0.03,0.028 -0.072,0.19 -0.316,0.19 l -0.897,0 0,-2.94 -0.41,0.268 -3.612,-2.332 0.847,0 0,-2.819 2.05,0 0,2.239 1.425,0 0,-2.188 2.052,0 0,2.768 0.844,0 L 0,0 Z"
         style="fill:#ffffff;fill-opacity:1;fill-rule:nonzero;stroke:none"
         id="path10032"
         inkscape:connector-curvature="0" />
    </g>
  </g>
</svg>
