<?xml version="1.0" encoding="UTF-8" standalone="no"?>
<!-- Created with Inkscape (http://www.inkscape.org/) -->

<svg
   xmlns:dc="http://purl.org/dc/elements/1.1/"
   xmlns:cc="http://creativecommons.org/ns#"
   xmlns:rdf="http://www.w3.org/1999/02/22-rdf-syntax-ns#"
   xmlns:svg="http://www.w3.org/2000/svg"
   xmlns="http://www.w3.org/2000/svg"
   xmlns:sodipodi="http://sodipodi.sourceforge.net/DTD/sodipodi-0.dtd"
   xmlns:inkscape="http://www.inkscape.org/namespaces/inkscape"
   width="3.4872084mm"
   height="3.4872084mm"
   viewBox="0 0 12.356251 12.35625"
   id="svg10338"
   version="1.1"
   inkscape:version="0.91 r13725"
   sodipodi:docname="RecyclingB.svg">
  <defs
     id="defs10340" />
  <sodipodi:namedview
     id="base"
     pagecolor="#ffffff"
     bordercolor="#666666"
     borderopacity="1.0"
     inkscape:pageopacity="0.0"
     inkscape:pageshadow="2"
     inkscape:zoom="22.4"
     inkscape:cx="6.1781217"
     inkscape:cy="6.1781294"
     inkscape:document-units="px"
     inkscape:current-layer="layer1"
     showgrid="false"
     fit-margin-top="0"
     fit-margin-left="0"
     fit-margin-right="0"
     fit-margin-bottom="0"
     inkscape:window-width="690"
     inkscape:window-height="405"
     inkscape:window-x="130"
     inkscape:window-y="130"
     inkscape:window-maximized="0" />
  <metadata
     id="metadata10343">
    <rdf:RDF>
      <cc:Work
         rdf:about="">
        <dc:format>image/svg+xml</dc:format>
        <dc:type
           rdf:resource="http://purl.org/dc/dcmitype/StillImage" />
        <dc:title></dc:title>
      </cc:Work>
    </rdf:RDF>
  </metadata>
  <g
     inkscape:label="Layer 1"
     inkscape:groupmode="layer"
     id="layer1"
     transform="translate(-285.81258,-456.08579)">
    <g
       id="g11174"
       transform="matrix(1.2500001,0,0,-1.2500001,287.28946,456.33504)">
      <path
         d="m 0,0 c -0.542,0 -0.982,-0.441 -0.982,-0.982 l 0,-7.522 c 0,-0.541 0.44,-0.98 0.982,-0.98 l 7.521,0 c 0.542,0 0.982,0.439 0.982,0.98 l 0,7.522 C 8.503,-0.441 8.063,0 7.521,0 L 0,0 Z"
         style="fill:#ffffff;fill-opacity:1;fill-rule:nonzero;stroke:none"
         id="path11176"
         inkscape:connector-curvature="0" />
    </g>
    <g
       id="g11178"
       transform="matrix(1.2500001,0,0,-1.2500001,296.69133,468.44204)">
      <path
         d="m 0,0 c 0.652,0 1.182,0.529 1.182,1.182 l 0,7.521 C 1.182,9.356 0.652,9.885 0,9.885 l -7.521,0 c -0.653,0 -1.182,-0.529 -1.182,-1.182 l 0,-7.521 C -8.703,0.529 -8.174,0 -7.521,0 L 0,0 Z"
         style="fill:#373535;fill-opacity:1;fill-rule:nonzero;stroke:none"
         id="path11180"
         inkscape:connector-curvature="0" />
    </g>
    <g
       id="g11182"
       transform="matrix(1.2500001,0,0,-1.2500001,287.07333,461.5353)">
      <path
         d="M 0,0 0.593,-0.342 0.751,-0.434 0.289,-1.232 C 0.247,-1.305 0.226,-1.385 0.226,-1.465 c 0,-0.078 0.019,-0.156 0.061,-0.226 0,0 0.404,-0.703 0.733,-1.272 0.025,0.08 0.055,0.158 0.097,0.233 l 0.904,1.562 0.156,-0.09 0.593,-0.344 -0.923,1.6 L 0,0 Z"
         style="fill:#ffffff;fill-opacity:1;fill-rule:nonzero;stroke:none"
         id="path11184"
         inkscape:connector-curvature="0" />
    </g>
    <g
       id="g11186"
       transform="matrix(1.2500001,0,0,-1.2500001,289.28158,464.33317)">
      <path
         d="m 0,0 c -0.081,-0.139 -0.374,-0.646 -0.374,-0.646 -0.052,-0.086 -0.076,-0.182 -0.076,-0.278 0,-0.095 0.024,-0.189 0.074,-0.273 0.097,-0.17 0.279,-0.274 0.476,-0.272 l 1.824,0 L 1.924,0 0,0 Z"
         style="fill:#ffffff;fill-opacity:1;fill-rule:nonzero;stroke:none"
         id="path11188"
         inkscape:connector-curvature="0" />
    </g>
    <g
       id="g11190"
       transform="matrix(1.2500001,0,0,-1.2500001,295.35096,458.58604)">
      <path
         d="m 0,0 -0.594,-0.342 -0.157,-0.092 -0.46,0.801 c -0.041,0.072 -0.101,0.131 -0.169,0.17 -0.068,0.041 -0.146,0.061 -0.227,0.061 l -1.469,0 c 0.056,-0.061 0.109,-0.125 0.151,-0.2 l 0.902,-1.562 -0.155,-0.092 -0.595,-0.342 1.847,0 L 0,0 Z"
         style="fill:#ffffff;fill-opacity:1;fill-rule:nonzero;stroke:none"
         id="path11192"
         inkscape:connector-curvature="0" />
    </g>
    <g
       id="g11194"
       transform="matrix(1.2500001,0,0,-1.2500001,291.82308,459.0963)">
      <path
         d="m 0,0 c -0.08,0.139 -0.372,0.646 -0.372,0.646 -0.05,0.086 -0.12,0.157 -0.203,0.206 -0.082,0.046 -0.175,0.072 -0.273,0.074 -0.195,-0.002 -0.377,-0.108 -0.472,-0.28 0,0 -0.77,-1.33 -0.914,-1.58 0.228,-0.131 1.045,-0.601 1.273,-0.732 C -0.824,-1.428 -0.083,-0.145 0,0"
         style="fill:#ffffff;fill-opacity:1;fill-rule:nonzero;stroke:none"
         id="path11196"
         inkscape:connector-curvature="0" />
    </g>
    <g
       id="g11198"
       transform="matrix(1.2500001,0,0,-1.2500001,293.71883,467.22379)">
      <path
         d="M 0,0 0,0.684 0,0.865 0.921,0.863 c 0.084,0 0.166,0.022 0.234,0.063 0.069,0.039 0.127,0.095 0.167,0.166 0,0 0.408,0.703 0.734,1.271 C 1.976,2.346 1.893,2.33 1.809,2.33 l -1.807,0.002 0,0.182 L 0.004,3.199 -0.922,1.6 0,0 Z"
         style="fill:#ffffff;fill-opacity:1;fill-rule:nonzero;stroke:none"
         id="path11200"
         inkscape:connector-curvature="0" />
    </g>
    <g
       id="g11202"
       transform="matrix(1.2500001,0,0,-1.2500001,295.03971,463.91567)">
      <path
         d="m 0,0 0.746,0 c 0.099,0 0.196,0.025 0.28,0.074 0.081,0.047 0.15,0.113 0.2,0.199 0.096,0.17 0.094,0.379 -0.004,0.547 0,0 -0.768,1.332 -0.912,1.582 C 0.083,2.27 -0.735,1.799 -0.962,1.668 -0.825,1.43 -0.084,0.145 0,0"
         style="fill:#ffffff;fill-opacity:1;fill-rule:nonzero;stroke:none"
         id="path11204"
         inkscape:connector-curvature="0" />
    </g>
  </g>
</svg>
