<?xml version="1.0" encoding="UTF-8" standalone="no"?>
<!-- Created with Inkscape (http://www.inkscape.org/) -->

<svg
   xmlns:dc="http://purl.org/dc/elements/1.1/"
   xmlns:cc="http://creativecommons.org/ns#"
   xmlns:rdf="http://www.w3.org/1999/02/22-rdf-syntax-ns#"
   xmlns:svg="http://www.w3.org/2000/svg"
   xmlns="http://www.w3.org/2000/svg"
   xmlns:sodipodi="http://sodipodi.sourceforge.net/DTD/sodipodi-0.dtd"
   xmlns:inkscape="http://www.inkscape.org/namespaces/inkscape"
   width="3.489325mm"
   height="3.489325mm"
   viewBox="0 0 12.363752 12.36375"
   id="svg10338"
   version="1.1"
   inkscape:version="0.91 r13725"
   sodipodi:docname="SelfGuidingTrailB.svg">
  <defs
     id="defs10340" />
  <sodipodi:namedview
     id="base"
     pagecolor="#ffffff"
     bordercolor="#666666"
     borderopacity="1.0"
     inkscape:pageopacity="0.0"
     inkscape:pageshadow="2"
     inkscape:zoom="22.4"
     inkscape:cx="5.6408084"
     inkscape:cy="8.452697"
     inkscape:document-units="px"
     inkscape:current-layer="layer1"
     showgrid="false"
     fit-margin-top="0"
     fit-margin-left="0"
     fit-margin-right="0"
     fit-margin-bottom="0"
     inkscape:window-width="690"
     inkscape:window-height="405"
     inkscape:window-x="130"
     inkscape:window-y="130"
     inkscape:window-maximized="0" />
  <metadata
     id="metadata10343">
    <rdf:RDF>
      <cc:Work
         rdf:about="">
        <dc:format>image/svg+xml</dc:format>
        <dc:type
           rdf:resource="http://purl.org/dc/dcmitype/StillImage" />
        <dc:title></dc:title>
      </cc:Work>
    </rdf:RDF>
  </metadata>
  <g
     inkscape:label="Layer 1"
     inkscape:groupmode="layer"
     id="layer1"
     transform="translate(-286.3499,-458.35286)">
    <g
       id="g11280"
       transform="matrix(1.2500001,0,0,-1.2500001,287.8274,458.60224)">
      <path
         d="m 0,0 c -0.542,0 -0.981,-0.442 -0.981,-0.983 l 0,-7.525 c 0,-0.541 0.439,-0.982 0.981,-0.982 l 7.527,0 c 0.542,0 0.982,0.441 0.982,0.982 l 0,7.525 C 8.509,-0.442 8.069,0 7.527,0 L 0,0 Z"
         style="fill:#ffffff;fill-opacity:1;fill-rule:nonzero;stroke:none"
         id="path11282"
         inkscape:connector-curvature="0" />
    </g>
    <g
       id="g11284"
       transform="matrix(1.2500001,0,0,-1.2500001,287.8274,470.71661)">
      <path
         d="m 0,0 c -0.652,0 -1.182,0.529 -1.182,1.184 l 0,7.525 c 0,0.652 0.53,1.182 1.182,1.182 l 7.527,0 c 0.653,0 1.182,-0.53 1.182,-1.182 l 0,-7.525 C 8.709,0.529 8.18,0 7.527,0 L 0,0 Z"
         style="fill:#373535;fill-opacity:1;fill-rule:nonzero;stroke:none"
         id="path11286"
         inkscape:connector-curvature="0" />
    </g>
    <g
       id="g11288"
       transform="matrix(1.2500001,0,0,-1.2500001,289.86115,461.91037)">
      <path
         d="M 0,0 C 0.312,0 0.564,0.252 0.564,0.564 0.564,0.877 0.312,1.131 0,1.131 -0.311,1.131 -0.564,0.877 -0.564,0.564 -0.564,0.252 -0.311,0 0,0"
         style="fill:#ffffff;fill-opacity:1;fill-rule:nonzero;stroke:none"
         id="path11290"
         inkscape:connector-curvature="0" />
    </g>
    <g
       id="g11292"
       transform="matrix(1.2500001,0,0,-1.2500001,288.77465,462.05686)">
      <path
         d="M 0,0 C 0.021,0.088 -0.031,0.174 -0.117,0.195 L -0.588,0.31 C -0.676,0.328 -0.764,0.277 -0.783,0.189 l -0.395,-1.636 c -0.021,-0.084 0.032,-0.172 0.119,-0.194 l 0.471,-0.113 c 0.086,-0.021 0.172,0.031 0.193,0.119 L 0,0 Z"
         style="fill:#ffffff;fill-opacity:1;fill-rule:nonzero;stroke:none"
         id="path11294"
         inkscape:connector-curvature="0" />
    </g>
    <g
       id="g11296"
       transform="matrix(1.2500001,0,0,-1.2500001,287.44415,468.90987)">
      <path
         d="m 0,0 c -0.004,-0.027 -0.008,-0.055 -0.008,-0.08 0,-0.219 0.178,-0.397 0.397,-0.397 0.181,0 0.332,0.12 0.381,0.284 l 0.683,2.824 0.649,-2.809 c 0.043,-0.172 0.201,-0.299 0.384,-0.299 0.221,0 0.399,0.178 0.399,0.397 0,0.029 -0.004,0.059 -0.01,0.086 L 1.982,3.738 2.059,4.064 2.115,3.807 C 2.17,3.639 2.324,3.621 2.324,3.621 L 3.244,3.387 C 3.262,3.383 3.279,3.383 3.299,3.383 c 0.148,0 0.271,0.121 0.271,0.271 0,0.127 -0.09,0.237 -0.209,0.264 L 2.564,4.117 2.346,5.006 C 2.242,5.5 1.77,5.488 1.77,5.488 1.309,5.5 1.193,5.018 1.193,5.018 L 0,0 Z"
         style="fill:#ffffff;fill-opacity:1;fill-rule:nonzero;stroke:none"
         id="path11298"
         inkscape:connector-curvature="0" />
    </g>
    <g
       id="g11300"
       transform="matrix(1.2500001,0,0,-1.2500001,296.8704,469.14911)">
      <path
         d="M 0,0 C 0,0.183 0.145,0.332 0.332,0.332 0.514,0.332 0.664,0.183 0.664,0 0.664,-0.182 0.514,-0.33 0.332,-0.33 0.145,-0.33 0,-0.182 0,0"
         style="fill:#ffffff;fill-opacity:1;fill-rule:nonzero;stroke:none"
         id="path11302"
         inkscape:connector-curvature="0" />
    </g>
    <g
       id="g11304"
       transform="matrix(1.2500001,0,0,-1.2500001,297.2854,468.03586)">
      <path
         d="m 0,0 c -0.187,0 -0.332,0.148 -0.332,0.33 0,0.184 0.145,0.332 0.332,0.332 0.182,0 0.332,-0.148 0.332,-0.332 C 0.332,0.148 0.182,0 0,0"
         style="fill:#ffffff;fill-opacity:1;fill-rule:nonzero;stroke:none"
         id="path11306"
         inkscape:connector-curvature="0" />
    </g>
    <g
       id="g11308"
       transform="matrix(1.2500001,0,0,-1.2500001,297.28427,466.50999)">
      <path
         d="m 0,0 c -0.187,0 -0.332,0.148 -0.332,0.33 0,0.186 0.145,0.332 0.332,0.332 0.182,0 0.331,-0.146 0.331,-0.332 C 0.331,0.148 0.182,0 0,0"
         style="fill:#ffffff;fill-opacity:1;fill-rule:nonzero;stroke:none"
         id="path11310"
         inkscape:connector-curvature="0" />
    </g>
    <g
       id="g11312"
       transform="matrix(1.2500001,0,0,-1.2500001,297.28427,464.98411)">
      <path
         d="m 0,0 c -0.187,0 -0.332,0.148 -0.332,0.33 0,0.186 0.145,0.332 0.332,0.332 0.182,0 0.331,-0.146 0.331,-0.332 C 0.331,0.148 0.182,0 0,0"
         style="fill:#ffffff;fill-opacity:1;fill-rule:nonzero;stroke:none"
         id="path11314"
         inkscape:connector-curvature="0" />
    </g>
    <g
       id="g11316"
       transform="matrix(1.2500001,0,0,-1.2500001,297.28427,463.45824)">
      <path
         d="m 0,0 c -0.187,0 -0.332,0.148 -0.332,0.33 0,0.186 0.145,0.332 0.332,0.332 0.182,0 0.33,-0.146 0.33,-0.332 C 0.33,0.148 0.182,0 0,0"
         style="fill:#ffffff;fill-opacity:1;fill-rule:nonzero;stroke:none"
         id="path11318"
         inkscape:connector-curvature="0" />
    </g>
    <g
       id="g11320"
       transform="matrix(1.2500001,0,0,-1.2500001,297.28302,461.93237)">
      <path
         d="m 0,0 c -0.186,0 -0.332,0.148 -0.332,0.33 0,0.188 0.146,0.332 0.332,0.332 0.182,0 0.331,-0.144 0.331,-0.332 C 0.331,0.148 0.182,0 0,0"
         style="fill:#ffffff;fill-opacity:1;fill-rule:nonzero;stroke:none"
         id="path11322"
         inkscape:connector-curvature="0" />
    </g>
    <g
       id="g11324"
       transform="matrix(1.2500001,0,0,-1.2500001,296.8679,459.99386)">
      <path
         d="m 0,0 c 0,0.187 0.146,0.332 0.332,0.332 0.182,0 0.33,-0.145 0.33,-0.332 0,-0.182 -0.148,-0.33 -0.33,-0.33 C 0.146,-0.33 0,-0.182 0,0"
         style="fill:#ffffff;fill-opacity:1;fill-rule:nonzero;stroke:none"
         id="path11326"
         inkscape:connector-curvature="0" />
    </g>
    <g
       id="g11328"
       transform="matrix(1.2500001,0,0,-1.2500001,294.23127,459.57637)">
      <path
         d="m 0,0 c 0.184,0 0.33,-0.146 0.33,-0.334 0,-0.18 -0.146,-0.33 -0.33,-0.33 -0.184,0 -0.332,0.15 -0.332,0.33 C -0.332,-0.146 -0.184,0 0,0"
         style="fill:#ffffff;fill-opacity:1;fill-rule:nonzero;stroke:none"
         id="path11330"
         inkscape:connector-curvature="0" />
    </g>
    <g
       id="g11332"
       transform="matrix(1.2500001,0,0,-1.2500001,295.75715,459.57399)">
      <path
         d="m 0,0 c 0.185,0 0.33,-0.148 0.33,-0.334 0,-0.18 -0.145,-0.33 -0.33,-0.33 -0.184,0 -0.332,0.15 -0.332,0.33 C -0.332,-0.148 -0.184,0 0,0"
         style="fill:#ffffff;fill-opacity:1;fill-rule:nonzero;stroke:none"
         id="path11334"
         inkscape:connector-curvature="0" />
    </g>
    <g
       id="g11336"
       transform="matrix(1.2500001,0,0,-1.2500001,294.23127,468.73174)">
      <path
         d="m 0,0 c 0.182,0 0.332,-0.148 0.332,-0.332 0,-0.182 -0.15,-0.33 -0.332,-0.33 -0.185,0 -0.332,0.148 -0.332,0.33 C -0.332,-0.148 -0.185,0 0,0"
         style="fill:#ffffff;fill-opacity:1;fill-rule:nonzero;stroke:none"
         id="path11338"
         inkscape:connector-curvature="0" />
    </g>
    <g
       id="g11340"
       transform="matrix(1.2500001,0,0,-1.2500001,295.75952,468.73174)">
      <path
         d="m 0,0 c 0.185,0 0.33,-0.148 0.33,-0.332 0,-0.182 -0.145,-0.33 -0.33,-0.33 -0.184,0 -0.332,0.148 -0.332,0.33 C -0.332,-0.148 -0.184,0 0,0"
         style="fill:#ffffff;fill-opacity:1;fill-rule:nonzero;stroke:none"
         id="path11342"
         inkscape:connector-curvature="0" />
    </g>
    <g
       id="g11344"
       transform="matrix(1.2500001,0,0,-1.2500001,293.23877,459.05399)">
      <path
         d="M 0,0 0,-1.51 -1.302,-0.754 0,0 Z"
         style="fill:#ffffff;fill-opacity:1;fill-rule:nonzero;stroke:none"
         id="path11346"
         inkscape:connector-curvature="0" />
    </g>
    <g
       id="g11348"
       transform="matrix(1.2500001,0,0,-1.2500001,292.93115,469.47874)">
      <path
         d="M 0,0 0,2.641 C 0.166,2.807 1.279,3.92 1.279,3.92 1.342,3.982 1.373,4.066 1.373,4.148 1.373,4.232 1.342,4.314 1.279,4.377 1.152,4.504 0.947,4.504 0.82,4.377 L -0.648,2.91 -0.648,0 0,0 Z"
         style="fill:#ffffff;fill-opacity:1;fill-rule:nonzero;stroke:none"
         id="path11350"
         inkscape:connector-curvature="0" />
    </g>
  </g>
</svg>
