<?xml version="1.0" encoding="UTF-8" standalone="no"?>
<!-- Created with Inkscape (http://www.inkscape.org/) -->

<svg
   xmlns:dc="http://purl.org/dc/elements/1.1/"
   xmlns:cc="http://creativecommons.org/ns#"
   xmlns:rdf="http://www.w3.org/1999/02/22-rdf-syntax-ns#"
   xmlns:svg="http://www.w3.org/2000/svg"
   xmlns="http://www.w3.org/2000/svg"
   xmlns:sodipodi="http://sodipodi.sourceforge.net/DTD/sodipodi-0.dtd"
   xmlns:inkscape="http://www.inkscape.org/namespaces/inkscape"
   width="3.4865029mm"
   height="3.4865029mm"
   viewBox="0 0 12.353751 12.35375"
   id="svg10338"
   version="1.1"
   inkscape:version="0.91 r13725"
   sodipodi:docname="TelephoneB.svg">
  <defs
     id="defs10340" />
  <sodipodi:namedview
     id="base"
     pagecolor="#ffffff"
     bordercolor="#666666"
     borderopacity="1.0"
     inkscape:pageopacity="0.0"
     inkscape:pageshadow="2"
     inkscape:zoom="22.4"
     inkscape:cx="2.8524012"
     inkscape:cy="9.1457896"
     inkscape:document-units="px"
     inkscape:current-layer="layer1"
     showgrid="false"
     fit-margin-top="0"
     fit-margin-left="0"
     fit-margin-right="0"
     fit-margin-bottom="0"
     inkscape:window-width="690"
     inkscape:window-height="405"
     inkscape:window-x="96"
     inkscape:window-y="84"
     inkscape:window-maximized="0" />
  <metadata
     id="metadata10343">
    <rdf:RDF>
      <cc:Work
         rdf:about="">
        <dc:format>image/svg+xml</dc:format>
        <dc:type
           rdf:resource="http://purl.org/dc/dcmitype/StillImage" />
        <dc:title></dc:title>
      </cc:Work>
    </rdf:RDF>
  </metadata>
  <g
     inkscape:label="Layer 1"
     inkscape:groupmode="layer"
     id="layer1"
     transform="translate(-289.13832,-459.05596)">
    <g
       id="g9850"
       transform="matrix(1.2500001,0,0,-1.2500001,290.61282,459.30521)">
      <path
         d="m 0,0 c -0.54,0 -0.979,-0.44 -0.979,-0.981 l 0,-7.521 c 0,-0.541 0.439,-0.98 0.979,-0.98 l 7.523,0 c 0.541,0 0.98,0.439 0.98,0.98 l 0,7.521 C 8.503,-0.44 8.064,0 7.523,0 L 0,0 Z"
         style="fill:#ffffff;fill-opacity:1;fill-rule:nonzero;stroke:none"
         id="path9852"
         inkscape:connector-curvature="0" />
    </g>
    <g
       id="g9854"
       transform="matrix(1.2500001,0,0,-1.2500001,300.01707,471.40971)">
      <path
         d="m 0,0 c 0.65,0 1.18,0.529 1.18,1.182 l 0,7.521 c 0,0.652 -0.53,1.18 -1.18,1.18 l -7.523,0 c -0.651,0 -1.18,-0.528 -1.18,-1.18 l 0,-7.521 C -8.703,0.529 -8.174,0 -7.523,0 L 0,0 Z"
         style="fill:#373535;fill-opacity:1;fill-rule:nonzero;stroke:none"
         id="path9856"
         inkscape:connector-curvature="0" />
    </g>
    <g
       id="g9858"
       transform="matrix(1.2500001,0,0,-1.2500001,295.0952,459.99609)">
      <path
         d="m 0,0 c -0.398,-0.043 -1.848,-0.707 -1.891,-4.123 -0.045,-3.6 1.493,-4.357 1.895,-4.35 l 0,2.377 c -0.332,0 -0.399,0.362 -0.475,1.108 -0.049,0.494 -0.064,1.103 0,1.711 0.047,0.425 0.125,0.841 0.473,0.841 L 0,0 Z"
         style="fill:#ffffff;fill-opacity:1;fill-rule:nonzero;stroke:none"
         id="path9860"
         inkscape:connector-curvature="0" />
    </g>
    <g
       id="g9862"
       transform="matrix(1.2500001,0,0,-1.2500001,296.46982,470.59184)">
      <path
         d="m 0,0 c 0.154,0 0.264,0.125 0.264,0.266 l 0.002,0.002 c 0,0 -0.002,1.851 -0.002,1.853 0,0.147 -0.119,0.262 -0.264,0.262 l -0.674,0 0,-2.383 c 0,0 0.672,-0.002 0.672,0 L 0,0 Z"
         style="fill:#ffffff;fill-opacity:1;fill-rule:nonzero;stroke:none"
         id="path9864"
         inkscape:connector-curvature="0" />
    </g>
    <g
       id="g9866"
       transform="matrix(1.2500001,0,0,-1.2500001,296.46982,463.04059)">
      <path
         d="m 0,0 c 0.154,0 0.264,0.125 0.264,0.266 l 0.002,0 c 0,0 -0.002,1.906 -0.002,1.908 C 0.264,2.32 0.145,2.436 0,2.436 l -0.674,0 0,-2.436 0.672,-0.002 L 0,0 Z"
         style="fill:#ffffff;fill-opacity:1;fill-rule:nonzero;stroke:none"
         id="path9868"
         inkscape:connector-curvature="0" />
    </g>
  </g>
</svg>
