<?xml version="1.0" encoding="UTF-8" standalone="no"?>
<!-- Created with Inkscape (http://www.inkscape.org/) -->

<svg
   xmlns:dc="http://purl.org/dc/elements/1.1/"
   xmlns:cc="http://creativecommons.org/ns#"
   xmlns:rdf="http://www.w3.org/1999/02/22-rdf-syntax-ns#"
   xmlns:svg="http://www.w3.org/2000/svg"
   xmlns="http://www.w3.org/2000/svg"
   xmlns:sodipodi="http://sodipodi.sourceforge.net/DTD/sodipodi-0.dtd"
   xmlns:inkscape="http://www.inkscape.org/namespaces/inkscape"
   width="3.4868557mm"
   height="3.4872084mm"
   viewBox="0 0 12.355001 12.35625"
   id="svg10338"
   version="1.1"
   inkscape:version="0.91 r13725"
   sodipodi:docname="WindSurfingB.svg">
  <defs
     id="defs10340">
    <clipPath
       clipPathUnits="userSpaceOnUse"
       id="clipPath10168">
      <path
         d="m 0,1224 792,0 L 792,0 0,0 0,1224 Z"
         id="path10170"
         inkscape:connector-curvature="0" />
    </clipPath>
  </defs>
  <sodipodi:namedview
     id="base"
     pagecolor="#ffffff"
     bordercolor="#666666"
     borderopacity="1.0"
     inkscape:pageopacity="0.0"
     inkscape:pageshadow="2"
     inkscape:zoom="22.4"
     inkscape:cx="3.6442793"
     inkscape:cy="8.3758189"
     inkscape:document-units="px"
     inkscape:current-layer="layer1"
     showgrid="false"
     fit-margin-top="0"
     fit-margin-left="0"
     fit-margin-right="0"
     fit-margin-bottom="0"
     inkscape:window-width="690"
     inkscape:window-height="405"
     inkscape:window-x="96"
     inkscape:window-y="84"
     inkscape:window-maximized="0" />
  <metadata
     id="metadata10343">
    <rdf:RDF>
      <cc:Work
         rdf:about="">
        <dc:format>image/svg+xml</dc:format>
        <dc:type
           rdf:resource="http://purl.org/dc/dcmitype/StillImage" />
        <dc:title></dc:title>
      </cc:Work>
    </rdf:RDF>
  </metadata>
  <g
     inkscape:label="Layer 1"
     inkscape:groupmode="layer"
     id="layer1"
     transform="translate(-288.34644,-458.28349)">
    <g
       id="g10268"
       transform="matrix(1.2500001,0,0,-1.2500001,289.82219,458.53286)">
      <path
         d="m 0,0 c -0.54,0 -0.98,-0.441 -0.98,-0.982 l 0,-7.522 c 0,-0.541 0.44,-0.98 0.98,-0.98 l 7.522,0 c 0.541,0 0.981,0.439 0.981,0.98 l 0,7.522 C 8.503,-0.441 8.063,0 7.522,0 L 0,0 Z"
         style="fill:#ffffff;fill-opacity:1;fill-rule:nonzero;stroke:none"
         id="path10270"
         inkscape:connector-curvature="0" />
    </g>
    <g
       id="g10272"
       transform="matrix(1.2500001,0,0,-1.2500001,299.22519,470.63974)">
      <path
         d="m 0,0 c 0.652,0 1.181,0.529 1.181,1.182 l 0,7.521 C 1.181,9.355 0.652,9.885 0,9.885 l -7.522,0 c -0.653,0 -1.181,-0.53 -1.181,-1.182 l 0,-7.521 C -8.703,0.529 -8.175,0 -7.522,0 L 0,0 Z"
         style="fill:#373535;fill-opacity:1;fill-rule:nonzero;stroke:none"
         id="path10274"
         inkscape:connector-curvature="0" />
    </g>
    <g
       id="g10276"
       transform="matrix(1.2500001,0,0,-1.2500001,299.45719,469.53624)">
      <path
         d="M 0,0 C -0.171,0 -0.336,0.039 -0.483,0.105 -0.634,0.176 -0.804,0.217 -0.98,0.217 -1.157,0.217 -1.327,0.176 -1.477,0.105 -1.625,0.039 -1.789,0 -1.961,0 -2.133,0 -2.298,0.039 -2.444,0.105 -2.595,0.176 -2.765,0.217 -2.942,0.217 -3.118,0.217 -3.288,0.176 -3.439,0.105 -3.586,0.039 -3.751,0 -3.923,0 -4.094,0 -4.259,0.039 -4.405,0.105 -4.557,0.176 -4.726,0.217 -4.903,0.217 -5.08,0.217 -5.249,0.176 -5.4,0.105 -5.548,0.039 -5.712,0 -5.884,0 -6.056,0 -6.22,0.039 -6.367,0.105 -6.518,0.176 -6.687,0.217 -6.864,0.217 -7.042,0.217 -7.211,0.176 -7.361,0.105 -7.509,0.039 -7.673,0 -7.845,0 l 0,0.725 c 0.172,0 0.336,0.039 0.484,0.105 0.15,0.068 0.319,0.109 0.497,0.109 0.177,0 0.346,-0.041 0.497,-0.109 0.147,-0.066 0.311,-0.105 0.483,-0.105 0.172,0 0.336,0.039 0.484,0.105 0.151,0.068 0.32,0.109 0.497,0.109 0.177,0 0.346,-0.041 0.498,-0.109 0.146,-0.066 0.311,-0.105 0.482,-0.105 0.172,0 0.337,0.039 0.484,0.105 0.151,0.068 0.321,0.109 0.497,0.109 0.177,0 0.347,-0.041 0.498,-0.109 0.146,-0.066 0.311,-0.105 0.483,-0.105 0.172,0 0.336,0.039 0.484,0.105 0.15,0.068 0.32,0.109 0.497,0.109 0.176,0 0.346,-0.041 0.497,-0.109 C -0.336,0.764 -0.171,0.725 0,0.725 L 0,0 Z"
         style="fill:#ffffff;fill-opacity:1;fill-rule:nonzero;stroke:none"
         id="path10278"
         inkscape:connector-curvature="0" />
    </g>
    <g
       id="g10280"
       transform="matrix(1.2500001,0,0,-1.2500001,293.31457,466.98987)">
      <path
         d="M 0,0 -1.359,0 C -1.56,0 -1.733,0.119 -1.812,0.291 l -0.502,1.146 c -0.01,0.04 -0.015,0.079 -0.015,0.12 0,0.275 0.223,0.498 0.497,0.498 L -0.728,2.057 0.03,2.4 C 0.042,2.408 0.073,2.416 0.106,2.416 0.236,2.416 0.343,2.309 0.343,2.18 0.343,2.1 0.302,2.027 0.241,1.984 L -0.583,1.613 C -0.638,1.57 -0.741,1.564 -0.741,1.564 l -0.496,0 0.416,-0.923 0.919,0 c 0.09,0 0.154,-0.032 0.21,-0.081 l 0.9,-0.855 C 1.334,-0.412 1.341,-0.609 1.224,-0.736 1.105,-0.861 0.908,-0.869 0.782,-0.752 L 0,0 Z"
         style="fill:#ffffff;fill-opacity:1;fill-rule:nonzero;stroke:none"
         id="path10282"
         inkscape:connector-curvature="0" />
    </g>
    <g
       id="g10284"
       transform="matrix(1.2500001,0,0,-1.2500001,299.09832,465.23211)">
      <path
         d="M 0,0 -2.877,-1.814 -5.496,4.875 C -3.152,4.565 -0.172,2.744 0,0 m -0.391,0.147 c 0.018,-0.03 0.06,-0.042 0.099,-0.042 0.076,0 0.139,0.063 0.139,0.141 0,0.037 -0.018,0.07 -0.034,0.102 -0.85,1.621 -3.144,1.138 -3.425,1.033 -0.047,-0.018 -0.075,-0.07 -0.075,-0.123 0,-0.076 0.063,-0.139 0.139,-0.139 0.024,0 0.035,0.002 0.056,0.008 2.249,0.506 2.981,-0.775 3.101,-0.98"
         style="fill:#ffffff;fill-opacity:1;fill-rule:nonzero;stroke:none"
         id="path10286"
         inkscape:connector-curvature="0" />
    </g>
    <g
       id="g10288"
       transform="matrix(1.2500001,0,0,-1.2500001,290.70357,464.29699)">
      <path
         d="M 0,0 C 0.263,0 0.476,0.213 0.476,0.475 0.476,0.736 0.263,0.949 0,0.949 -0.262,0.949 -0.475,0.736 -0.475,0.475 -0.475,0.213 -0.262,0 0,0"
         style="fill:#ffffff;fill-opacity:1;fill-rule:nonzero;stroke:none"
         id="path10290"
         inkscape:connector-curvature="0" />
    </g>
  </g>
</svg>
