<?xml version="1.0" encoding="UTF-8" standalone="no"?>
<!-- Created with Inkscape (http://www.inkscape.org/) -->

<svg
   xmlns:dc="http://purl.org/dc/elements/1.1/"
   xmlns:cc="http://creativecommons.org/ns#"
   xmlns:rdf="http://www.w3.org/1999/02/22-rdf-syntax-ns#"
   xmlns:svg="http://www.w3.org/2000/svg"
   xmlns="http://www.w3.org/2000/svg"
   xmlns:sodipodi="http://sodipodi.sourceforge.net/DTD/sodipodi-0.dtd"
   xmlns:inkscape="http://www.inkscape.org/namespaces/inkscape"
   id="svg2985"
   version="1.1"
   inkscape:version="0.92.2 (5c3e80d, 2017-08-06)"
   width="32.008518"
   height="31.998058"
   sodipodi:docname="favicon.svg"
   inkscape:export-filename="D:\Vander Ark Industries\Camp Association\NCA\src\NCA\wwwroot\docs\imgs\ncaoutline.png"
   inkscape:export-xdpi="96"
   inkscape:export-ydpi="96">
  <metadata
     id="metadata2991">
    <rdf:RDF>
      <cc:Work
         rdf:about="">
        <dc:format>image/svg+xml</dc:format>
        <dc:type
           rdf:resource="http://purl.org/dc/dcmitype/StillImage" />
        <dc:title></dc:title>
      </cc:Work>
    </rdf:RDF>
  </metadata>
  <defs
     id="defs2989">
    <linearGradient
       id="linearGradient4233">
      <stop
         id="stop4235"
         offset="0"
         style="stop-color:#000000;stop-opacity:1" />
      <stop
         id="stop4237"
         offset="1"
         style="stop-color:#b71a1a;stop-opacity:1" />
    </linearGradient>
    <linearGradient
       id="linearGradient4217">
      <stop
         style="stop-color:#000000;stop-opacity:0.502"
         offset="0"
         id="stop4219" />
      <stop
         style="stop-color:#000000;stop-opacity:0"
         offset="1"
         id="stop4221" />
    </linearGradient>
  </defs>
  <sodipodi:namedview
     pagecolor="#ffffff"
     bordercolor="#666666"
     borderopacity="1"
     objecttolerance="10"
     gridtolerance="10"
     guidetolerance="10"
     inkscape:pageopacity="0"
     inkscape:pageshadow="2"
     inkscape:window-width="3200"
     inkscape:window-height="1675"
     id="namedview2987"
     showgrid="false"
     inkscape:zoom="22.627417"
     inkscape:cx="26.057092"
     inkscape:cy="33.614829"
     inkscape:window-x="-13"
     inkscape:window-y="-13"
     inkscape:window-maximized="1"
     inkscape:current-layer="layer1"
     fit-margin-top="0"
     fit-margin-left="0"
     fit-margin-right="0"
     fit-margin-bottom="0">
    <inkscape:grid
       type="xygrid"
       id="grid3068"
       empspacing="5"
       visible="true"
       enabled="true"
       snapvisiblegridlinesonly="true"
       originx="0.71875"
       originy="4.7499997"
       spacingx="1"
       spacingy="1" />
  </sodipodi:namedview>
  <g
     inkscape:groupmode="layer"
     id="layer1"
     inkscape:label="Drawing"
     style="display:inline"
     transform="translate(0.71875,-190.75195)">
    <path
       inkscape:connector-curvature="0"
       style="display:inline;fill:none;stroke:#ffffff;stroke-width:0.75415695;stroke-linecap:butt;stroke-linejoin:miter;stroke-miterlimit:4;stroke-dasharray:none;stroke-opacity:0.45882353"
       d="m 14.986386,191.21584 c -5.2341428,-0.0105 -10.3702554,1.64878 -15.32279203,4.9691 0.11605032,11.35273 0.1141718,18.82561 15.33706303,26.14851 15.984039,-7.3229 15.985239,-14.79616 15.879383,-26.06444 -5.328015,-3.36254 -10.65951,-5.04261 -15.893654,-5.05317 z"
       id="path3035-1" />
    <path
       style="display:inline;fill:#ffffff;fill-opacity:0.45882353;stroke:#000000;stroke-width:1.47438121;stroke-linecap:butt;stroke-linejoin:miter;stroke-miterlimit:4;stroke-dasharray:none;stroke-opacity:1"
       d="m 15.000545,191.48919 c -5.1163905,-0.0103 -10.1369554,1.61169 -14.9780731,4.85731 0.11343938,11.09733 0.11160314,18.40209 14.9920241,25.56024 15.62444,-7.15815 15.625614,-14.46328 15.522137,-25.47808 -5.208147,-3.28689 -10.419699,-4.92916 -15.536088,-4.93947 z"
       id="path3035"
       inkscape:connector-curvature="0" />
    <path
       style="fill:none;stroke:#000000;stroke-width:1.46941674;stroke-linecap:round;stroke-linejoin:round;stroke-miterlimit:4;stroke-dasharray:none;stroke-opacity:1"
       d="m 0.31456415,203.48246 0.26301193,-0.3907 0.0789028,0.0781 0.0789028,-0.0781 v -0.0781 l 0.31561632,-0.18234 0.078903,0.10419 v -0.18233 l 0.3156142,-0.15627 0.1315071,0.18232 0.078903,-0.0781 0.3945188,0.49488 0.1052037,-0.10418 0.052605,-0.10419 0.289312,0.49489 0.1841094,-0.0781 0.078903,0.23442 0.4997227,0.15628 0.236711,-0.15628 0.2367115,0.36466 0.1315069,-0.23442 0.1578052,0.026 0.1578081,-0.3386 0.2630119,-0.13024 0.1315068,0.20838 0.026297,-0.0781 0.1315077,0.18232 0.2367109,-0.18232 h 0.026299 l 0.3682186,-0.15629 0.1578079,-0.23442 0.2367078,-0.15627 0.1578082,0.10418 0.078903,-0.10418 0.3419174,0.46883 0.3156134,0.26047 0.2367115,-0.0521 0.1052057,0.0521 h 0.2104102 l 0.6312278,0.13024 0.2630118,-0.57304 0.1841093,-0.13023 0.1578081,0.026 0.2893122,-0.026 0.078903,0.0781 0.2367116,0.23442 0.1841085,-0.0781 0.078903,-0.15628 0.3682187,-0.23441 0.1841091,0.13022 0.078904,-0.28651 h 0.1315063 v -0.15627 l 0.473423,-0.4949 v -0.15628 l 0.263008,-0.23442 0.0526,0.026 0.184107,0.13024 0.0526,0.23441 0.105205,0.026 0.289314,-0.26045 0.236712,0.2344 0.263009,-0.2344 h 0.131507 l 0.07891,-0.15629 h 0.157806 l 0.23671,0.39069 0.263012,-0.0781 0.631229,0.54699 h 0.368216 l 0.263012,0.31255 0.131507,-0.23442 0.157808,0.15628 0.47342,-0.36465 0.02631,0.0521 0.0526,-0.23441 0.394519,-0.28652 0.105205,-0.31256 0.289312,-0.23442 0.184109,-0.10419 0.0526,-0.20838 h 0.1578 l 0.236711,-0.0781 0.263011,0.15628 0.210411,0.15629 0.07891,0.20837 0.105203,0.15628 0.157808,0.15629 0.07891,-0.13024 0.157806,0.28651 0.394519,-0.0781 0.07891,0.15628 0.131506,-0.31256 0.315614,-0.44279 0.18411,-0.15629 0.05259,0.23443 0.236713,-0.18233 0.02631,0.15628 0.289313,-0.36465 -0.0526,-0.0781 0.157807,-0.31257 0.368218,-0.10418 0.499722,-0.52094 0.368217,-0.26047 0.236711,-0.28652 h 0.184107 l 0.236713,0.20838 0.341917,1.09397 0.447118,-0.28651 0.07891,0.20837 0.552325,-0.36466 0.157806,0.13024 0.157807,-0.23443 0.131508,-0.0781 0.157808,0.15627 0.02631,-0.13022 0.236713,0.0781 v 0.15628 l 0.0526,-0.10419 0.263009,0.26048 0.0526,-0.15629 0.263012,0.33861 0.21041,0.18233 0.315613,-0.13023 0.105205,0.31256 0.157809,-0.0521 0.368216,0.20838 0.315612,0.62512 0.263014,0.20837 0.21041,0.0521 0.07891,0.26046 0.315614,0.18234 0.157809,0.31256 0.946843,0.59908 0.789037,0.52093 0.65753,0.18232 0.394519,0.18234 0.0526,-0.15629 0.42082,0.23442 0.315613,-0.026"
       id="path3955"
       inkscape:connector-curvature="0" />
    <path
       style="fill:#ffffff;stroke-width:0.26063624;stroke-miterlimit:4;stroke-dasharray:none"
       d="m 14.364101,220.75279 c -4.213571,-2.12767 -7.2404737,-4.32344 -9.3227176,-6.76283 -2.2041051,-2.58215 -3.4162292,-5.51673 -3.893351,-9.42587 -0.037271,-0.30539 -0.073941,-0.60173 -0.081489,-0.65854 -0.012373,-0.0931 -0.00527,-0.10989 0.072216,-0.17024 0.047266,-0.0368 0.1319313,-0.0754 0.1881448,-0.0857 0.093282,-0.0171 0.1105079,-0.0108 0.1972883,0.0721 0.052296,0.05 0.1601872,0.1193 0.2397603,0.15399 0.079572,0.0346 0.1742712,0.0945 0.2104408,0.13292 0.03617,0.0384 0.113112,0.0936 0.1709833,0.12272 0.05787,0.0291 0.1408776,0.0795 0.1844582,0.11208 0.068665,0.0513 0.5823242,0.23076 0.815136,0.28477 0.043404,0.0103 0.1168528,0.0465 0.1632212,0.081 0.2557945,0.19007 0.6577458,0.17181 0.9048704,-0.0411 0.1872019,-0.1613 0.2747678,-0.1961 0.4970627,-0.19759 0.2167524,-0.001 0.367501,-0.0534 0.5451681,-0.18794 0.054619,-0.0413 0.1914422,-0.1136 0.304052,-0.16054 0.1126094,-0.0469 0.2108482,-0.095 0.2183083,-0.10691 0.00746,-0.0119 0.1106407,0.0596 0.2292898,0.15891 0.3157898,0.26418 0.3821658,0.28921 0.7944385,0.29956 0.2409191,0.006 0.4384451,0.0287 0.6684719,0.0765 0.2373437,0.0494 0.3622412,0.0633 0.4573696,0.0509 0.2551812,-0.0332 0.4733393,-0.18928 0.5968136,-0.42688 l 0.052604,-0.10117 0.151423,0.0692 c 0.2785665,0.12742 0.6655036,0.0621 0.9658597,-0.16292 0.077459,-0.0581 0.1605269,-0.0914 0.2783241,-0.11179 0.207035,-0.0358 0.377463,-0.13599 0.490705,-0.28848 0.04723,-0.0636 0.127799,-0.17009 0.179022,-0.23662 0.05122,-0.0665 0.110951,-0.17054 0.132729,-0.23113 0.06139,-0.17081 0.101909,-0.20309 0.216126,-0.17212 0.05255,0.0142 0.179025,0.0187 0.281053,0.0103 0.102025,-0.009 0.286121,-0.0155 0.409099,-0.0148 0.182043,9e-4 0.248034,-0.0103 0.35512,-0.0599 l 0.131525,-0.061 0.102649,0.0522 c 0.05646,0.0287 0.168911,0.0575 0.249898,0.0642 0.137436,0.0111 0.159518,0.0229 0.331383,0.17632 0.209686,0.18716 0.402979,0.29305 0.534901,0.29305 0.06939,0 0.117789,0.0246 0.207233,0.1056 0.225517,0.20408 0.518472,0.266 0.810307,0.17127 0.0721,-0.0234 0.187253,-0.0597 0.255897,-0.0806 0.06864,-0.0209 0.196834,-0.0925 0.284863,-0.15898 0.08803,-0.0665 0.231011,-0.15571 0.317737,-0.19826 0.163857,-0.0803 0.320657,-0.25087 0.350716,-0.38131 0.0082,-0.0355 0.05572,-0.092 0.105664,-0.12558 0.149709,-0.10055 0.295358,-0.27399 0.344641,-0.41021 0.03028,-0.0836 0.07497,-0.14746 0.128677,-0.1836 0.108432,-0.0729 0.124377,-0.0704 0.183834,0.0286 0.07898,0.13157 0.276343,0.32829 0.431396,0.43003 0.07789,0.0511 0.178511,0.11712 0.223594,0.14671 0.117369,0.077 0.242355,0.11406 0.385096,0.11406 0.06835,0 0.174618,0.0174 0.236127,0.0388 0.170241,0.059 0.409122,0.0496 0.566112,-0.0222 0.182174,-0.0832 0.292376,-0.20021 0.404053,-0.4287 l 0.09518,-0.19476 0.17189,-0.0167 c 0.208792,-0.0203 0.326923,-0.0662 0.455771,-0.1773 0.121643,-0.10485 0.484415,-0.57451 0.504531,-0.65321 0.009,-0.0349 0.06274,-0.0831 0.134218,-0.12034 0.06936,-0.0361 0.224709,-0.17371 0.370916,-0.32849 0.138365,-0.14648 0.259222,-0.26633 0.268571,-0.26633 0.0094,0 0.05552,0.12358 0.102618,0.27464 0.08015,0.25707 0.09536,0.2842 0.238008,0.42424 0.122012,0.11977 0.182876,0.15829 0.305365,0.19325 0.167007,0.0476 0.383027,0.0376 0.508342,-0.0234 0.03952,-0.0193 0.117808,-0.0292 0.179548,-0.0228 0.140625,0.0146 0.355468,-0.0472 0.519508,-0.1496 0.09787,-0.061 0.165491,-0.0825 0.278944,-0.0885 0.08236,-0.004 0.203085,-0.0311 0.268265,-0.0594 l 0.118507,-0.0515 0.115499,0.0615 c 0.06353,0.0337 0.156685,0.0801 0.207022,0.10302 0.05033,0.0229 0.155347,0.0989 0.233352,0.16887 0.159639,0.14324 0.230702,0.18435 0.39248,0.22708 0.06179,0.0163 0.154123,0.0574 0.205195,0.0915 0.05107,0.034 0.157868,0.0761 0.237329,0.0935 l 0.144474,0.0318 0.134319,0.25673 c 0.120464,0.23022 0.154871,0.27307 0.333527,0.41528 0.213027,0.16958 0.269032,0.22313 0.370316,0.35409 0.03543,0.0458 0.117066,0.11607 0.181424,0.15614 0.07039,0.0438 0.145902,0.12204 0.189529,0.19631 0.105168,0.17906 0.191621,0.24805 0.761519,0.60776 0.282122,0.17806 0.696429,0.44475 0.920677,0.59263 0.397982,0.26247 0.416124,0.27123 0.758839,0.36661 0.193111,0.0537 0.453532,0.14437 0.578714,0.20137 0.159749,0.0727 0.276768,0.10778 0.392518,0.11746 l 0.164918,0.0138 -0.01342,0.0803 c -0.0074,0.0441 -0.04289,0.26237 -0.07891,0.48482 -0.409147,2.52677 -1.233976,4.67396 -2.533013,6.59393 -0.947717,1.40073 -2.314807,2.83559 -3.895802,4.08894 -1.514471,1.20063 -3.281129,2.32663 -5.435559,3.4644 -0.715805,0.37802 -2.425768,1.21416 -2.481889,1.21358 -0.02387,-2.9e-4 -0.32158,-0.14092 -0.661575,-0.31259 z"
       id="path4519"
       inkscape:connector-curvature="0" />
    <path
       style="fill:#ffffff;stroke-width:0.26063624;stroke-miterlimit:4;stroke-dasharray:none"
       d="m 14.610636,220.87997 c -3.123845,-1.59358 -5.1079893,-2.83673 -6.9937956,-4.38193 -0.6955918,-0.56994 -1.5656108,-1.38947 -2.141724,-2.01742 -2.2444019,-2.44634 -3.5377367,-5.1559 -4.1439962,-8.68175 -0.099885,-0.5809 -0.2642531,-1.78044 -0.2642531,-1.92848 0,-0.0948 0.1027803,-0.18766 0.2476571,-0.22378 0.1107653,-0.0276 0.1162883,-0.026 0.1979732,0.0583 0.046216,0.0477 0.1512933,0.11813 0.2335049,0.15657 0.082212,0.0385 0.1595073,0.0854 0.1717679,0.10436 0.04025,0.0623 0.4684793,0.31799 0.6364193,0.38005 0.090445,0.0334 0.2732778,0.0915 0.4062933,0.12907 0.1330154,0.0375 0.2971859,0.1021 0.3648234,0.14336 0.2698669,0.1647 0.5910341,0.15805 0.8387883,-0.0173 0.3279756,-0.23221 0.3202596,-0.22893 0.5460307,-0.23242 0.2283211,-0.003 0.325639,-0.0351 0.5065847,-0.16421 0.097937,-0.0698 0.5384121,-0.28611 0.5821802,-0.28578 0.00883,8e-5 0.1107484,0.0768 0.226491,0.17057 0.3061025,0.24793 0.3700311,0.27084 0.7941358,0.28454 0.2442096,0.008 0.4503009,0.0319 0.6615139,0.077 0.3230483,0.0691 0.478911,0.0684 0.6526176,-0.003 0.1244881,-0.051 0.3348159,-0.25282 0.3909485,-0.37503 0.026341,-0.0573 0.054822,-0.10055 0.063288,-0.0959 0.2190767,0.11825 0.4019444,0.15561 0.5901829,0.12056 0.1644064,-0.0306 0.4534056,-0.15991 0.5431807,-0.24302 0.041674,-0.0386 0.1139379,-0.0675 0.1972882,-0.0788 0.2749173,-0.0374 0.4480313,-0.14885 0.6081163,-0.39139 0.04858,-0.0736 0.101513,-0.14184 0.117586,-0.1516 0.01607,-0.009 0.0626,-0.0869 0.103378,-0.17165 0.109273,-0.22683 0.14014,-0.25355 0.256539,-0.22199 0.05264,0.0142 0.173201,0.0189 0.267899,0.0103 0.09469,-0.008 0.284634,-0.0186 0.422079,-0.0221 0.187898,-0.005 0.276061,-0.0192 0.355354,-0.0581 l 0.105456,-0.0518 0.144444,0.0574 c 0.07944,0.0316 0.191792,0.0579 0.249662,0.0584 0.09157,8.1e-4 0.13083,0.023 0.30251,0.171 0.220713,0.1903 0.414765,0.29377 0.552407,0.29456 0.07103,4e-4 0.113098,0.022 0.184134,0.0944 0.194597,0.19826 0.523431,0.2703 0.81546,0.17862 0.06511,-0.0204 0.167575,-0.0497 0.227709,-0.065 0.06014,-0.0153 0.184426,-0.0823 0.276203,-0.14885 0.09178,-0.0665 0.222252,-0.1474 0.289945,-0.17963 0.179368,-0.0854 0.304476,-0.20408 0.389468,-0.36938 0.04892,-0.0952 0.112719,-0.17143 0.183839,-0.21982 0.127449,-0.0867 0.194953,-0.17199 0.30321,-0.38307 0.04728,-0.0922 0.109067,-0.17057 0.154125,-0.19552 0.0736,-0.0407 0.0764,-0.04 0.131524,0.0351 0.195089,0.26598 0.600999,0.59199 0.840354,0.67488 0.05709,0.0198 0.158539,0.0361 0.225442,0.0363 0.06689,2.2e-4 0.168991,0.0171 0.226863,0.0376 0.184607,0.0653 0.402985,0.0506 0.58661,-0.0395 0.19125,-0.0937 0.276377,-0.18583 0.380888,-0.41169 0.0892,-0.19275 0.10366,-0.20567 0.231186,-0.2062 0.139546,-5.9e-4 0.342708,-0.0672 0.452097,-0.14828 0.115919,-0.0859 0.446936,-0.49428 0.51993,-0.64145 0.03232,-0.0652 0.0899,-0.12587 0.151708,-0.15998 0.05479,-0.0302 0.225441,-0.18162 0.379208,-0.33642 l 0.279575,-0.28146 0.08413,0.26054 c 0.125557,0.38883 0.279112,0.56503 0.566396,0.64991 0.159721,0.0471 0.229647,0.0465 0.406952,-0.004 0.07911,-0.0225 0.195165,-0.0394 0.257902,-0.0375 0.152086,0.004 0.367506,-0.0594 0.526217,-0.15625 0.09426,-0.0576 0.168996,-0.0814 0.274868,-0.0877 0.07997,-0.005 0.199289,-0.0321 0.265142,-0.0607 l 0.119733,-0.052 0.202557,0.10107 c 0.111404,0.0556 0.280213,0.16517 0.375129,0.24348 0.09492,0.0783 0.226182,0.1608 0.291703,0.18332 0.06552,0.0225 0.19647,0.08 0.290997,0.12788 0.09454,0.0479 0.218895,0.0943 0.27637,0.10334 0.101126,0.0159 0.108739,0.0244 0.235858,0.26488 0.116939,0.22121 0.155912,0.269 0.354956,0.43532 0.122976,0.10271 0.23178,0.19616 0.241786,0.2076 0.165221,0.18872 0.253337,0.27502 0.325637,0.31889 0.04816,0.0292 0.113661,0.0961 0.145574,0.14867 0.108424,0.17852 0.246463,0.29212 0.72063,0.59299 0.26042,0.16524 0.680647,0.43518 0.933833,0.59984 0.448316,0.29159 0.469271,0.30194 0.802306,0.39632 0.18808,0.0533 0.447386,0.14416 0.576236,0.20186 0.153589,0.0688 0.287214,0.10966 0.388002,0.11863 0.184507,0.0164 0.17804,-0.0223 0.08757,0.5239 -0.48696,2.93998 -1.445703,5.24833 -3.051129,7.34613 -1.711977,2.23702 -4.130814,4.2118 -7.536289,6.15277 -0.936444,0.53374 -2.307549,1.24438 -3.31781,1.71962 l -0.463704,0.21814 z"
       id="path4521"
       inkscape:connector-curvature="0" />
    <path
       style="fill:#ffffff;stroke-width:0.26063624;stroke-miterlimit:4;stroke-dasharray:none"
       d="m 28.924715,203.43448 c -0.289919,-0.0804 -0.320918,-0.0962 -0.789153,-0.4025 -0.268055,-0.17532 -0.599833,-0.38988 -0.737276,-0.47678 -0.202889,-0.12828 -0.261883,-0.18039 -0.313601,-0.27699 -0.0567,-0.10592 -0.294395,-0.34822 -0.341587,-0.34822 -0.01001,0 -0.03306,-0.0404 -0.05125,-0.0898 -0.04921,-0.13361 -0.244734,-0.31183 -0.405328,-0.36948 -0.137367,-0.0493 -0.138138,-0.0502 -0.299604,-0.35275 -0.08903,-0.16683 -0.192521,-0.33471 -0.229966,-0.37308 -0.03745,-0.0384 -0.159912,-0.1204 -0.272152,-0.18227 -0.115881,-0.0638 -0.252367,-0.16558 -0.315832,-0.23535 -0.14749,-0.1621 -0.341385,-0.25661 -0.526494,-0.25661 -0.137842,0 -0.14492,-0.004 -0.290766,-0.15171 -0.105821,-0.1074 -0.187904,-0.16482 -0.281013,-0.19657 -0.07233,-0.0246 -0.184792,-0.0712 -0.249897,-0.10337 -0.164681,-0.0814 -0.428281,-0.16161 -0.634505,-0.1931 -0.213655,-0.0326 -0.406299,-0.002 -0.568034,0.0914 -0.06317,0.0363 -0.174476,0.0834 -0.247345,0.1047 -0.07286,0.0212 -0.170043,0.061 -0.215947,0.0886 -0.158742,0.095 -0.187492,0.076 -0.266615,-0.17581 -0.06903,-0.21977 -0.07736,-0.23217 -0.303621,-0.45252 -0.308686,-0.3006 -0.400185,-0.34157 -0.762717,-0.34157 -0.249878,0 -0.290634,0.007 -0.427625,0.073 -0.106005,0.0511 -0.192796,0.12138 -0.289356,0.23429 -0.07586,0.0887 -0.224697,0.22437 -0.33074,0.30146 -0.106043,0.077 -0.27372,0.22808 -0.372617,0.33555 -0.139469,0.15156 -0.205399,0.2029 -0.29384,0.22884 -0.263722,0.0774 -0.425259,0.20264 -0.534716,0.41469 -0.05638,0.10924 -0.07496,0.12431 -0.172218,0.13957 -0.05995,0.009 -0.155265,0.0403 -0.211803,0.0686 -0.106108,0.0531 -0.459521,0.37896 -0.525718,0.48468 -0.04916,0.0785 -0.09905,0.0563 -0.184911,-0.0823 -0.103066,-0.16644 -0.589368,-0.51075 -0.847871,-0.60028 -0.123252,-0.0427 -0.379659,-0.0466 -0.482605,-0.007 -0.04073,0.0155 -0.148557,0.0388 -0.239619,0.0517 -0.09107,0.0129 -0.209436,0.0457 -0.263051,0.0729 -0.109181,0.0553 -0.270148,0.21201 -0.324633,0.31597 -0.01974,0.0376 -0.130601,0.14858 -0.246344,0.24644 -0.163119,0.13794 -0.229536,0.2154 -0.295362,0.34447 -0.05388,0.10566 -0.121177,0.19245 -0.184135,0.23746 -0.05456,0.039 -0.149409,0.12583 -0.210757,0.19291 l -0.111545,0.12198 -0.168977,-0.0441 c -0.09294,-0.0243 -0.206323,-0.0442 -0.251967,-0.0442 -0.0666,0 -0.129035,-0.0405 -0.316016,-0.20512 -0.22472,-0.1978 -0.401635,-0.31137 -0.485049,-0.31137 -0.02194,0 -0.07604,-0.039 -0.120257,-0.0867 -0.04421,-0.0477 -0.14216,-0.11984 -0.217655,-0.16031 -0.115626,-0.062 -0.175161,-0.0752 -0.377651,-0.084 -0.25421,-0.0111 -0.376081,0.0133 -0.53413,0.10702 -0.142779,0.0847 -0.443649,0.0734 -0.633359,-0.0235 -0.122822,-0.0628 -0.175235,-0.0738 -0.354569,-0.0745 -0.277839,-9.9e-4 -0.386644,0.0528 -0.691697,0.34235 -0.1863432,0.17685 -0.2444995,0.24957 -0.2715703,0.33961 -0.045602,0.15168 -0.3722441,0.49633 -0.5967509,0.62965 l -0.1660769,0.0986 -0.1628534,-0.0372 c -0.2238273,-0.0512 -0.7827794,-0.0406 -0.9226734,0.0174 -0.17512,0.0726 -0.4594557,0.29752 -0.5339543,0.42231 l -0.069347,0.11618 -0.1470499,-0.0172 c -0.4023565,-0.0472 -0.3564056,-0.0253 -0.5144297,-0.24544 -0.1655192,-0.23057 -0.3126363,-0.36965 -0.4540693,-0.42924 -0.1253124,-0.0528 -0.5028165,-0.072 -0.6860624,-0.035 -0.1666925,0.0337 -0.5766396,0.29137 -0.6661576,0.41868 -0.032109,0.0457 -0.061114,0.0867 -0.064456,0.0914 -0.00335,0.004 -0.042693,-0.0103 -0.087451,-0.0329 -0.1499744,-0.0761 -0.3383488,-0.0961 -0.5067597,-0.0537 -0.167648,0.0422 -0.3850833,0.14184 -0.5100019,0.23378 -0.0656,0.0483 -0.1202385,0.0608 -0.2951545,0.0672 -0.2005746,0.007 -0.2194468,0.003 -0.2877689,-0.0593 -0.040214,-0.037 -0.1234258,-0.092 -0.1849139,-0.12228 -0.061488,-0.0302 -0.1117968,-0.0669 -0.1117968,-0.0814 0,-0.0145 -0.053983,-0.083 -0.1199613,-0.1523 -0.1207641,-0.12675 -0.2715487,-0.21299 -0.4214343,-0.24105 -0.044581,-0.008 -0.1213845,-0.0522 -0.1706746,-0.0974 -0.04929,-0.0452 -0.1903744,-0.13014 -0.3135206,-0.18874 -0.1971259,-0.0937 -0.2459228,-0.10655 -0.4080378,-0.1065 -0.1516761,6e-5 -0.214814,0.0143 -0.3581641,0.081 l -0.17402831,0.0808 -0.0171204,-0.37793 c -0.0446531,-0.98568 -0.0679722,-1.71753 -0.0811608,-2.54716 -0.007897,-0.49713 -0.0211342,-1.23024 -0.0294038,-1.62914 l -0.0150347,-0.72527 0.32430371,-0.20777 c 1.5055943,-0.96461 3.2092724,-1.8526 4.7759383,-2.48932 3.7602334,-1.52825 7.6435715,-2.09523 11.5550275,-1.68709 3.944735,0.41163 8.103132,1.89071 12.027657,4.27808 l 0.335747,0.20423 -2.99e-4,1.69627 c 0,0.93295 -0.01203,2.09719 -0.02648,2.5872 -0.02544,0.86251 -0.09042,2.11364 -0.119361,2.29837 l -0.01418,0.0903 h -0.202691 c -0.148956,0 -0.282683,-0.0222 -0.504462,-0.0836 z"
       id="path4523"
       inkscape:connector-curvature="0" />
  </g>
</svg>
