<?xml version="1.0" encoding="UTF-8" standalone="no"?>
<!-- Created with Inkscape (http://www.inkscape.org/) -->

<svg
   xmlns:dc="http://purl.org/dc/elements/1.1/"
   xmlns:cc="http://creativecommons.org/ns#"
   xmlns:rdf="http://www.w3.org/1999/02/22-rdf-syntax-ns#"
   xmlns:svg="http://www.w3.org/2000/svg"
   xmlns="http://www.w3.org/2000/svg"
   xmlns:sodipodi="http://sodipodi.sourceforge.net/DTD/sodipodi-0.dtd"
   xmlns:inkscape="http://www.inkscape.org/namespaces/inkscape"
   width="3.4865029mm"
   height="3.4872084mm"
   viewBox="0 0 12.353749 12.356249"
   id="svg9579"
   version="1.1"
   inkscape:version="0.91 r13725"
   sodipodi:docname="FirstAidB.svg">
  <defs
     id="defs9581" />
  <sodipodi:namedview
     id="base"
     pagecolor="#ffffff"
     bordercolor="#666666"
     borderopacity="1.0"
     inkscape:pageopacity="0.0"
     inkscape:pageshadow="2"
     inkscape:zoom="3.959798"
     inkscape:cx="-2.1550488"
     inkscape:cy="-0.97102421"
     inkscape:document-units="px"
     inkscape:current-layer="layer1"
     showgrid="false"
     fit-margin-top="0"
     fit-margin-left="0"
     fit-margin-right="0"
     fit-margin-bottom="0"
     inkscape:window-width="690"
     inkscape:window-height="405"
     inkscape:window-x="104"
     inkscape:window-y="104"
     inkscape:window-maximized="0" />
  <metadata
     id="metadata9584">
    <rdf:RDF>
      <cc:Work
         rdf:about="">
        <dc:format>image/svg+xml</dc:format>
        <dc:type
           rdf:resource="http://purl.org/dc/dcmitype/StillImage" />
        <dc:title></dc:title>
      </cc:Work>
    </rdf:RDF>
  </metadata>
  <g
     inkscape:label="Layer 1"
     inkscape:groupmode="layer"
     id="layer1"
     transform="translate(-434.00356,-662.14632)">
    <g
       id="g9838"
       transform="matrix(1.2499999,0,0,-1.2499999,435.48043,662.39682)">
      <path
         d="m 0,0 c -0.542,0 -0.981,-0.44 -0.981,-0.982 l 0,-7.521 c 0,-0.541 0.439,-0.981 0.981,-0.981 l 7.521,0 c 0.541,0 0.98,0.44 0.98,0.981 l 0,7.521 C 8.501,-0.44 8.062,0 7.521,0 L 0,0 Z"
         style="fill:#ffffff;fill-opacity:1;fill-rule:nonzero;stroke:none"
         id="path9840"
         inkscape:connector-curvature="0" />
    </g>
    <g
       id="g9842"
       transform="matrix(1.2499999,0,0,-1.2499999,444.88231,674.50257)">
      <path
         d="m 0,0 c 0.652,0 1.18,0.529 1.18,1.182 l 0,7.521 C 1.18,9.356 0.652,9.885 0,9.885 l -7.521,0 c -0.653,0 -1.182,-0.529 -1.182,-1.182 l 0,-7.521 C -8.703,0.529 -8.174,0 -7.521,0 L 0,0 Z"
         style="fill:#373535;fill-opacity:1;fill-rule:nonzero;stroke:none"
         id="path9844"
         inkscape:connector-curvature="0" />
    </g>
    <g
       id="g9846"
       transform="matrix(1.2499999,0,0,-1.2499999,438.83006,672.11244)">
      <path
         d="m 0,0 2.025,0 -0.002,2.023 2.028,0 0,2.028 -2.028,0 0.002,2.023 -2.025,0 0.002,-2.023 -2.027,0 0,-2.028 2.027,0 L 0,0 Z"
         style="fill:#ffffff;fill-opacity:1;fill-rule:nonzero;stroke:none"
         id="path9848"
         inkscape:connector-curvature="0" />
    </g>
  </g>
</svg>
