<?xml version="1.0" encoding="UTF-8" standalone="no"?>
<!-- Created with Inkscape (http://www.inkscape.org/) -->

<svg
   xmlns:dc="http://purl.org/dc/elements/1.1/"
   xmlns:cc="http://creativecommons.org/ns#"
   xmlns:rdf="http://www.w3.org/1999/02/22-rdf-syntax-ns#"
   xmlns:svg="http://www.w3.org/2000/svg"
   xmlns="http://www.w3.org/2000/svg"
   xmlns:sodipodi="http://sodipodi.sourceforge.net/DTD/sodipodi-0.dtd"
   xmlns:inkscape="http://www.inkscape.org/namespaces/inkscape"
   width="3.4872084mm"
   height="3.4872084mm"
   viewBox="0 0 12.356249 12.356249"
   id="svg9579"
   version="1.1"
   inkscape:version="0.91 r13725"
   sodipodi:docname="GasStationB.svg">
  <defs
     id="defs9581" />
  <sodipodi:namedview
     id="base"
     pagecolor="#ffffff"
     bordercolor="#666666"
     borderopacity="1.0"
     inkscape:pageopacity="0.0"
     inkscape:pageshadow="2"
     inkscape:zoom="3.959798"
     inkscape:cx="14.99634"
     inkscape:cy="35.70448"
     inkscape:document-units="px"
     inkscape:current-layer="layer1"
     showgrid="false"
     fit-margin-top="0"
     fit-margin-left="0"
     fit-margin-right="0"
     fit-margin-bottom="0"
     inkscape:window-width="690"
     inkscape:window-height="405"
     inkscape:window-x="104"
     inkscape:window-y="104"
     inkscape:window-maximized="0" />
  <metadata
     id="metadata9584">
    <rdf:RDF>
      <cc:Work
         rdf:about="">
        <dc:format>image/svg+xml</dc:format>
        <dc:type
           rdf:resource="http://purl.org/dc/dcmitype/StillImage" />
        <dc:title></dc:title>
      </cc:Work>
    </rdf:RDF>
  </metadata>
  <g
     inkscape:label="Layer 1"
     inkscape:groupmode="layer"
     id="layer1"
     transform="translate(-416.85217,-708.92334)">
    <g
       id="g10228"
       transform="matrix(1.2499999,0,0,-1.2499999,418.32904,709.17359)">
      <path
         d="m 0,0 c -0.542,0 -0.981,-0.44 -0.981,-0.981 l 0,-7.522 c 0,-0.541 0.439,-0.981 0.981,-0.981 l 7.521,0 c 0.542,0 0.982,0.44 0.982,0.981 l 0,7.522 C 8.503,-0.44 8.063,0 7.521,0 L 0,0 Z"
         style="fill:#ffffff;fill-opacity:1;fill-rule:nonzero;stroke:none"
         id="path10230"
         inkscape:connector-curvature="0" />
    </g>
    <g
       id="g10232"
       transform="matrix(1.2499999,0,0,-1.2499999,427.73092,708.92334)">
      <path
         d="m 0,0 -7.521,0 c -0.653,0 -1.182,-0.529 -1.182,-1.182 l 0,-7.521 c 0,-0.652 0.529,-1.182 1.182,-1.182 l 7.521,0 c 0.652,0 1.182,0.53 1.182,1.182 l 0,7.521 C 1.182,-0.529 0.652,0 0,0 m -1.477,-8.623 c -0.414,0 -0.776,0.34 -0.776,0.728 l 0,2.892 c 0,0.132 -0.107,0.239 -0.239,0.239 l -0.575,0 -0.003,-3.839 -3.046,0.05 0,6.573 c 0,0.343 0.28,0.622 0.624,0.622 l 1.798,0 c 0.343,0 0.624,-0.279 0.624,-0.622 l 0,-0.075 c 0,-0.403 -0.002,-2.299 -0.045,-2.301 l 0.616,0 c 0.353,0 0.639,-0.287 0.639,-0.639 l -0.004,-2.9 c 0,-0.191 0.208,-0.339 0.387,-0.339 0.194,0 0.44,0.16 0.428,0.429 l -0.306,1.655 -0.069,0.56 0.049,1.635 -0.137,0.002 c -0.304,0 -0.552,0.246 -0.552,0.55 l 0.015,0.856 c 0,0 -0.507,0.503 -0.507,0.573 0,0 0.196,0.195 0.266,0.195 l 1.021,-1.017 c 0.161,-0.161 0.238,-0.353 0.238,-0.589 l 0,-2.205 c 0,0 0.063,-0.477 0.063,-0.481 0,0 0.313,-1.727 0.32,-1.824 0,-0.417 -0.438,-0.728 -0.829,-0.728"
         style="fill:#373535;fill-opacity:1;fill-rule:nonzero;stroke:none"
         id="path10234"
         inkscape:connector-curvature="0" />
    </g>
    <g
       id="g10236"
       transform="matrix(1.2499999,0,0,-1.2499999,426.52117,716.51247)">
      <path
         d="m 0,0 c 0,0.004 -0.064,0.481 -0.064,0.481 l 0,2.206 c 0,0.235 -0.077,0.428 -0.237,0.588 l -1.021,1.017 c -0.071,0 -0.266,-0.194 -0.266,-0.194 0,-0.071 0.507,-0.574 0.507,-0.574 L -1.096,2.668 c 0,-0.303 0.247,-0.55 0.552,-0.55 l 0.137,-0.002 -0.049,-1.635 0.068,-0.56 0.307,-1.655 c 0.012,-0.269 -0.234,-0.429 -0.428,-0.429 -0.18,0 -0.387,0.148 -0.387,0.34 l 0.003,2.899 c 0,0.353 -0.286,0.639 -0.638,0.639 l -0.616,0 c 0.043,0.002 0.045,1.899 0.045,2.302 l 0,0.074 c 0,0.343 -0.281,0.622 -0.625,0.622 l -1.797,0 c -0.344,0 -0.624,-0.279 -0.624,-0.622 l 0,-6.573 3.046,-0.049 0.002,3.839 0.576,0 c 0.131,0 0.239,-0.108 0.239,-0.24 l 0,-2.891 c 0,-0.388 0.362,-0.729 0.776,-0.729 0.391,0 0.828,0.312 0.828,0.729 C 0.312,-1.727 0,0 0,0"
         style="fill:#ffffff;fill-opacity:1;fill-rule:nonzero;stroke:none"
         id="path10238"
         inkscape:connector-curvature="0" />
    </g>
    <g
       id="g10240"
       transform="matrix(1.2499999,0,0,-1.2499999,425.79492,712.7576)">
      <path
         d="m 0,0 c -0.036,0.009 -0.187,0.043 -0.187,0.043 l 0,-0.392 c 0,-0.108 0.082,-0.224 0.31,-0.274 0,0 0.002,0.293 0,0.391 C 0.121,-0.133 0.074,-0.02 0,0"
         style="fill:#373535;fill-opacity:1;fill-rule:nonzero;stroke:none"
         id="path10242"
         inkscape:connector-curvature="0" />
    </g>
    <g
       id="g10244"
       transform="matrix(1.2499999,0,0,-1.2499999,423.11304,711.18659)">
      <path
         d="M 0,0 -1.798,0 C -1.895,0 -1.97,-0.075 -1.97,-0.17 l 0,-1.517 c 0,-0.095 0.075,-0.169 0.172,-0.169 l 1.798,0 c 0.097,0 0.172,0.074 0.172,0.169 l 0,1.517 C 0.172,-0.075 0.097,0 0,0"
         style="fill:#373535;fill-opacity:1;fill-rule:nonzero;stroke:none"
         id="path10246"
         inkscape:connector-curvature="0" />
    </g>
  </g>
</svg>
