<?xml version="1.0" encoding="UTF-8" standalone="no"?>
<!-- Created with Inkscape (http://www.inkscape.org/) -->

<svg
   xmlns:dc="http://purl.org/dc/elements/1.1/"
   xmlns:cc="http://creativecommons.org/ns#"
   xmlns:rdf="http://www.w3.org/1999/02/22-rdf-syntax-ns#"
   xmlns:svg="http://www.w3.org/2000/svg"
   xmlns="http://www.w3.org/2000/svg"
   xmlns:sodipodi="http://sodipodi.sourceforge.net/DTD/sodipodi-0.dtd"
   xmlns:inkscape="http://www.inkscape.org/namespaces/inkscape"
   width="3.4865029mm"
   height="3.4872084mm"
   viewBox="0 0 12.353751 12.35625"
   id="svg10338"
   version="1.1"
   inkscape:version="0.91 r13725"
   sodipodi:docname="RVB.svg">
  <defs
     id="defs10340" />
  <sodipodi:namedview
     id="base"
     pagecolor="#ffffff"
     bordercolor="#666666"
     borderopacity="1.0"
     inkscape:pageopacity="0.0"
     inkscape:pageshadow="2"
     inkscape:zoom="22.4"
     inkscape:cx="6.1768709"
     inkscape:cy="6.1781298"
     inkscape:document-units="px"
     inkscape:current-layer="layer1"
     showgrid="false"
     fit-margin-top="0"
     fit-margin-left="0"
     fit-margin-right="0"
     fit-margin-bottom="0"
     inkscape:window-width="690"
     inkscape:window-height="405"
     inkscape:window-x="130"
     inkscape:window-y="130"
     inkscape:window-maximized="0" />
  <metadata
     id="metadata10343">
    <rdf:RDF>
      <cc:Work
         rdf:about="">
        <dc:format>image/svg+xml</dc:format>
        <dc:type
           rdf:resource="http://purl.org/dc/dcmitype/StillImage" />
        <dc:title></dc:title>
      </cc:Work>
    </rdf:RDF>
  </metadata>
  <g
     inkscape:label="Layer 1"
     inkscape:groupmode="layer"
     id="layer1"
     transform="translate(-285.81383,-456.08579)">
    <g
       id="g11150"
       transform="matrix(1.25,0,0,-1.25,287.28833,456.33516)">
      <path
         d="m 0,0 c -0.54,0 -0.98,-0.441 -0.98,-0.982 l 0,-7.522 c 0,-0.541 0.44,-0.98 0.98,-0.98 l 7.523,0 c 0.54,0 0.98,0.439 0.98,0.98 l 0,7.522 C 8.503,-0.441 8.063,0 7.523,0 L 0,0 Z"
         style="fill:#ffffff;fill-opacity:1;fill-rule:nonzero;stroke:none"
         id="path11152"
         inkscape:connector-curvature="0" />
    </g>
    <g
       id="g11154"
       transform="matrix(1.25,0,0,-1.25,296.69258,468.44204)">
      <path
         d="m 0,0 c 0.65,0 1.18,0.529 1.18,1.182 l 0,7.521 C 1.18,9.355 0.65,9.885 0,9.885 l -7.523,0 c -0.651,0 -1.18,-0.53 -1.18,-1.182 l 0,-7.521 C -8.703,0.529 -8.174,0 -7.523,0 L 0,0 Z"
         style="fill:#373535;fill-opacity:1;fill-rule:nonzero;stroke:none"
         id="path11156"
         inkscape:connector-curvature="0" />
    </g>
    <g
       id="g11158"
       transform="matrix(1.25,0,0,-1.25,293.98758,458.84004)">
      <path
         d="m 0,0 c 0.064,0 0.123,-0.029 0.162,-0.074 l 0.604,-0.867 c 0.013,-0.022 0.023,-0.045 0.023,-0.073 0,-0.064 -0.055,-0.119 -0.121,-0.119 l -1.037,0.002 c -0.358,0 -0.647,-0.289 -0.647,-0.646 l 0,-1.051 -4.736,0 0,2.17 c 0,0 -0.039,0.66 0.643,0.66 L 0,0 Z m 0.211,-0.856 c 0.035,0 0.062,0.03 0.062,0.065 0,0.014 -0.003,0.025 -0.011,0.037 l -0.317,0.455 c -0.011,0.014 -0.029,0.024 -0.05,0.024 l -0.698,0 c -0.062,0 -0.113,-0.051 -0.113,-0.114 l 0,-0.353 c 0,-0.063 0.051,-0.114 0.113,-0.114 l 1.014,0 z M -2.658,-2.01 c 0.076,0 0.138,0.063 0.138,0.139 l 0.002,0.873 c 0,0.076 -0.062,0.139 -0.138,0.139 l -2.004,0 c -0.076,0 -0.139,-0.063 -0.139,-0.139 l -0.002,-0.873 c 0,-0.076 0.063,-0.139 0.139,-0.139 l 2.004,0 z"
         style="fill:#ffffff;fill-opacity:1;fill-rule:nonzero;stroke:none"
         id="path11160"
         inkscape:connector-curvature="0" />
    </g>
    <g
       id="g11162"
       transform="matrix(1.25,0,0,-1.25,297.23946,463.47379)">
      <path
         d="m 0,0 0,0.455 c 0,0.184 -0.117,0.34 -0.279,0.399 L -0.674,0.986 -1.461,2.123 C -1.5,2.17 -1.559,2.199 -1.623,2.199 l -1.248,0 c -0.203,0 -0.367,-0.164 -0.367,-0.367 l 0.002,-1.332 -5.118,0 0,-0.961 c 0,-0.139 0.114,-0.252 0.252,-0.252 l 0.676,0 c 0.037,0.561 0.6,1.006 1.17,1.006 0.57,0 1.133,-0.445 1.172,-1.006 l 2.508,0 c 0.041,0.557 0.601,0.998 1.172,0.998 0.568,0 1.129,-0.441 1.17,-0.998 l 0.224,0 c 0.141,0 0.254,0.113 0.254,0.252 L 0.244,0 0,0 Z M -1.162,0.738 -2.498,0.74 c -0.119,0 -0.215,0.096 -0.215,0.215 l 0,0.688 c 0,0.119 0.096,0.214 0.213,0.214 l 0.727,0 c 0.037,0 0.07,-0.017 0.093,-0.045 l 0.614,-0.884 c 0.013,-0.02 0.023,-0.043 0.023,-0.071 0,-0.066 -0.053,-0.119 -0.119,-0.119"
         style="fill:#ffffff;fill-opacity:1;fill-rule:nonzero;stroke:none"
         id="path11164"
         inkscape:connector-curvature="0" />
    </g>
    <g
       id="g11166"
       transform="matrix(1.25,0,0,-1.25,294.51245,464.59692)">
      <path
         d="M 0,0 C 0,0.428 0.347,0.773 0.773,0.773 1.2,0.773 1.548,0.428 1.548,0 1.548,-0.428 1.2,-0.773 0.773,-0.773 0.347,-0.773 0,-0.428 0,0 m 0.773,-0.336 c 0.186,0 0.336,0.151 0.336,0.336 0,0.186 -0.15,0.336 -0.336,0.336 -0.185,0 -0.335,-0.15 -0.335,-0.336 0,-0.185 0.15,-0.336 0.335,-0.336"
         style="fill:#ffffff;fill-opacity:1;fill-rule:nonzero;stroke:none"
         id="path11168"
         inkscape:connector-curvature="0" />
    </g>
    <g
       id="g11170"
       transform="matrix(1.25,0,0,-1.25,288.45158,464.57979)">
      <path
         d="M 0,0 C 0,0.428 0.348,0.773 0.774,0.773 1.201,0.773 1.548,0.428 1.548,0 1.548,-0.428 1.201,-0.773 0.774,-0.773 0.348,-0.773 0,-0.428 0,0 M 0.774,-0.336 C 0.96,-0.336 1.11,-0.185 1.11,0 1.11,0.185 0.96,0.336 0.774,0.336 0.589,0.336 0.438,0.185 0.438,0 c 0,-0.185 0.151,-0.336 0.336,-0.336"
         style="fill:#ffffff;fill-opacity:1;fill-rule:nonzero;stroke:none"
         id="path11172"
         inkscape:connector-curvature="0" />
    </g>
  </g>
</svg>
