<?xml version="1.0" encoding="UTF-8" standalone="no"?>
<!-- Created with Inkscape (http://www.inkscape.org/) -->

<svg
   xmlns:dc="http://purl.org/dc/elements/1.1/"
   xmlns:cc="http://creativecommons.org/ns#"
   xmlns:rdf="http://www.w3.org/1999/02/22-rdf-syntax-ns#"
   xmlns:svg="http://www.w3.org/2000/svg"
   xmlns="http://www.w3.org/2000/svg"
   xmlns:sodipodi="http://sodipodi.sourceforge.net/DTD/sodipodi-0.dtd"
   xmlns:inkscape="http://www.inkscape.org/namespaces/inkscape"
   width="3.4865026mm"
   height="3.4865026mm"
   viewBox="0 0 12.353751 12.353749"
   id="svg10338"
   version="1.1"
   inkscape:version="0.91 r13725"
   sodipodi:docname="ScubaB.svg">
  <defs
     id="defs10340" />
  <sodipodi:namedview
     id="base"
     pagecolor="#ffffff"
     bordercolor="#666666"
     borderopacity="1.0"
     inkscape:pageopacity="0.0"
     inkscape:pageshadow="2"
     inkscape:zoom="22.4"
     inkscape:cx="2.5392902"
     inkscape:cy="4.5476055"
     inkscape:document-units="px"
     inkscape:current-layer="layer1"
     showgrid="false"
     fit-margin-top="0"
     fit-margin-left="0"
     fit-margin-right="0"
     fit-margin-bottom="0"
     inkscape:window-width="690"
     inkscape:window-height="405"
     inkscape:window-x="130"
     inkscape:window-y="130"
     inkscape:window-maximized="0" />
  <metadata
     id="metadata10343">
    <rdf:RDF>
      <cc:Work
         rdf:about="">
        <dc:format>image/svg+xml</dc:format>
        <dc:type
           rdf:resource="http://purl.org/dc/dcmitype/StillImage" />
        <dc:title></dc:title>
      </cc:Work>
    </rdf:RDF>
  </metadata>
  <g
     inkscape:label="Layer 1"
     inkscape:groupmode="layer"
     id="layer1"
     transform="translate(-289.45142,-454.45777)">
    <g
       id="g11252"
       transform="matrix(1.2500002,0,0,-1.2500002,290.9283,454.70702)">
      <path
         d="m 0,0 c -0.541,0 -0.981,-0.439 -0.981,-0.98 l 0,-7.522 c 0,-0.541 0.44,-0.98 0.981,-0.98 l 7.521,0 c 0.541,0 0.98,0.439 0.98,0.98 l 0,7.522 C 8.501,-0.439 8.062,0 7.521,0 L 0,0 Z"
         style="fill:#ffffff;fill-opacity:1;fill-rule:nonzero;stroke:none"
         id="path11254"
         inkscape:connector-curvature="0" />
    </g>
    <g
       id="g11256"
       transform="matrix(1.2500002,0,0,-1.2500002,300.33017,466.81152)">
      <path
         d="m 0,0 c 0.652,0 1.18,0.529 1.18,1.182 l 0,7.521 c 0,0.652 -0.528,1.18 -1.18,1.18 l -7.521,0 c -0.655,0 -1.182,-0.528 -1.182,-1.18 l 0,-7.521 C -8.703,0.529 -8.176,0 -7.521,0 L 0,0 Z"
         style="fill:#373535;fill-opacity:1;fill-rule:nonzero;stroke:none"
         id="path11258"
         inkscape:connector-curvature="0" />
    </g>
    <g
       id="g11260"
       transform="matrix(1.2500002,0,0,-1.2500002,290.6573,456.46002)">
      <path
         d="M 0,0 1.24,-1.268 1.717,-0.84 1.285,-0.004 0,0 Z"
         style="fill:#ffffff;fill-opacity:1;fill-rule:nonzero;stroke:none"
         id="path11262"
         inkscape:connector-curvature="0" />
    </g>
    <g
       id="g11264"
       transform="matrix(1.2500002,0,0,-1.2500002,297.64467,460.89853)">
      <path
         d="M 0,0 C 0.234,-0.064 0.486,0.068 0.553,0.307 0.617,0.541 0.48,0.787 0.245,0.854 L 0.061,0.904 -0.177,0.053 0,0 Z"
         style="fill:#ffffff;fill-opacity:1;fill-rule:nonzero;stroke:none"
         id="path11266"
         inkscape:connector-curvature="0" />
    </g>
    <g
       id="g11268"
       transform="matrix(1.2500002,0,0,-1.2500002,297.46405,459.69977)">
      <path
         d="M 0,0 -1.483,0.418 C -1.581,0.443 -1.68,0.385 -1.707,0.287 l -0.139,-0.496 c -0.027,-0.098 0.026,-0.197 0.125,-0.226 L -0.236,-0.85 0,0 Z"
         style="fill:#ffffff;fill-opacity:1;fill-rule:nonzero;stroke:none"
         id="path11270"
         inkscape:connector-curvature="0" />
    </g>
    <g
       id="g11272"
       transform="matrix(1.2500002,0,0,-1.2500002,297.75692,461.4624)">
      <path
         d="M 0,0 C -0.113,0.107 -0.254,0.193 -0.418,0.238 L -2.217,0.742 -3.322,2.703 C -3.381,2.805 -3.475,2.885 -3.596,2.918 -3.838,2.986 -4.09,2.844 -4.156,2.602 -4.189,2.486 -4.174,2.369 -4.121,2.27 l 1.383,-2.426 c 0,0 0.113,-0.182 0.398,-0.276 L 0.174,-1.137 1.34,-2.32 c 0.039,-0.041 0.09,-0.073 0.15,-0.09 0.176,-0.049 0.36,0.057 0.41,0.23 0.034,0.123 -0.005,0.252 -0.093,0.332 L 0,0 Z"
         style="fill:#ffffff;fill-opacity:1;fill-rule:nonzero;stroke:none"
         id="path11274"
         inkscape:connector-curvature="0" />
    </g>
    <g
       id="g11276"
       transform="matrix(1.2500002,0,0,-1.2500002,299.43542,462.07527)">
      <path
         d="m 0,0 0.261,-0.342 0.531,0.58 -0.448,0.25 C 0.387,0.803 0.191,1.107 -0.121,1.195 -0.465,1.291 -0.822,1.092 -0.918,0.748 -1.016,0.402 -0.814,0.047 -0.471,-0.049 -0.307,-0.096 -0.141,-0.07 0,0"
         style="fill:#ffffff;fill-opacity:1;fill-rule:nonzero;stroke:none"
         id="path11278"
         inkscape:connector-curvature="0" />
    </g>
  </g>
</svg>
