<?xml version="1.0" encoding="UTF-8" standalone="no"?>
<!-- Created with Inkscape (http://www.inkscape.org/) -->

<svg
   xmlns:dc="http://purl.org/dc/elements/1.1/"
   xmlns:cc="http://creativecommons.org/ns#"
   xmlns:rdf="http://www.w3.org/1999/02/22-rdf-syntax-ns#"
   xmlns:svg="http://www.w3.org/2000/svg"
   xmlns="http://www.w3.org/2000/svg"
   xmlns:sodipodi="http://sodipodi.sourceforge.net/DTD/sodipodi-0.dtd"
   xmlns:inkscape="http://www.inkscape.org/namespaces/inkscape"
   width="3.4865029mm"
   height="3.4865029mm"
   viewBox="0 0 12.353752 12.35375"
   id="svg10338"
   version="1.1"
   inkscape:version="0.91 r13725"
   sodipodi:docname="ShowerB.svg">
  <defs
     id="defs10340" />
  <sodipodi:namedview
     id="base"
     pagecolor="#ffffff"
     bordercolor="#666666"
     borderopacity="1.0"
     inkscape:pageopacity="0.0"
     inkscape:pageshadow="2"
     inkscape:zoom="22.4"
     inkscape:cx="3.3523256"
     inkscape:cy="4.6004624"
     inkscape:document-units="px"
     inkscape:current-layer="layer1"
     showgrid="false"
     fit-margin-top="0"
     fit-margin-left="0"
     fit-margin-right="0"
     fit-margin-bottom="0"
     inkscape:window-width="690"
     inkscape:window-height="405"
     inkscape:window-x="96"
     inkscape:window-y="84"
     inkscape:window-maximized="0" />
  <metadata
     id="metadata10343">
    <rdf:RDF>
      <cc:Work
         rdf:about="">
        <dc:format>image/svg+xml</dc:format>
        <dc:type
           rdf:resource="http://purl.org/dc/dcmitype/StillImage" />
        <dc:title></dc:title>
      </cc:Work>
    </rdf:RDF>
  </metadata>
  <g
     inkscape:label="Layer 1"
     inkscape:groupmode="layer"
     id="layer1"
     transform="translate(-288.63839,-454.51063)">
    <g
       id="g11652"
       transform="matrix(1.2500003,0,0,-1.2500003,290.11414,454.75988)">
      <path
         d="m 0,0 c -0.541,0 -0.98,-0.441 -0.98,-0.982 l 0,-7.522 c 0,-0.539 0.439,-0.978 0.98,-0.978 l 7.521,0 c 0.541,0 0.981,0.439 0.981,0.978 l 0,7.522 C 8.502,-0.441 8.062,0 7.521,0 L 0,0 Z"
         style="fill:#ffffff;fill-opacity:1;fill-rule:nonzero;stroke:none"
         id="path11654"
         inkscape:connector-curvature="0" />
    </g>
    <g
       id="g11656"
       transform="matrix(1.2500003,0,0,-1.2500003,299.51589,466.86438)">
      <path
         d="m 0,0 c 0.652,0 1.181,0.527 1.181,1.18 l 0,7.521 C 1.181,9.354 0.652,9.883 0,9.883 l -7.521,0 c -0.653,0 -1.181,-0.529 -1.181,-1.182 l 0,-7.521 C -8.702,0.527 -8.174,0 -7.521,0 L 0,0 Z"
         style="fill:#373535;fill-opacity:1;fill-rule:nonzero;stroke:none"
         id="path11658"
         inkscape:connector-curvature="0" />
    </g>
    <g
       id="g11660"
       transform="matrix(1.2500003,0,0,-1.2500003,295.38626,461.14414)">
      <path
         d="M 0,0 C 0.543,0 0.983,0.44 0.983,0.982 0.983,1.525 0.543,1.965 0,1.965 -0.543,1.965 -0.983,1.525 -0.983,0.982 -0.983,0.44 -0.543,0 0,0"
         style="fill:#ffffff;fill-opacity:1;fill-rule:nonzero;stroke:none"
         id="path11662"
         inkscape:connector-curvature="0" />
    </g>
    <g
       id="g11664"
       transform="matrix(1.2500003,0,0,-1.2500003,293.71389,461.53726)">
      <path
         d="m 0,0 c 0.105,0.102 0.248,0.162 0.404,0.162 l 1.938,0 1.95,1.955 C 4.709,2.537 5.256,1.992 4.838,1.572 L 2.7,-0.572 2.701,-3.5 l -2.564,0 0,1.422 -1.159,0 c -0.242,0 -0.438,0.195 -0.438,0.437 0,0.104 0.035,0.198 0.095,0.274 L 0,0 Z m 0.412,-2.074 c 0,-0.106 0.085,-0.244 0.192,-0.244 l 0,0.002 0.453,0 0.001,-0.002 c 0.106,0 0.244,0.136 0.244,0.242 l 0,0.836 C 1.302,-1.135 1.164,-1 1.058,-1 l -0.454,0 c -0.1,0 -0.181,-0.127 -0.192,-0.223 0.653,0 0.65,-0.851 0,-0.851"
         style="fill:#ffffff;fill-opacity:1;fill-rule:nonzero;stroke:none"
         id="path11666"
         inkscape:connector-curvature="0" />
    </g>
    <g
       id="g11668"
       transform="matrix(1.2500003,0,0,-1.2500003,289.84064,456.76663)">
      <path
         d="M 0,0 0.238,-0.238 1.389,0.937 1.15,1.176 0.629,0.978 0.39,1.217 -0.091,0.738 0.148,0.498 0,0 Z"
         style="fill:#ffffff;fill-opacity:1;fill-rule:nonzero;stroke:none"
         id="path11670"
         inkscape:connector-curvature="0" />
    </g>
    <g
       id="g11672"
       transform="matrix(1.2500003,0,0,-1.2500003,292.05501,461.43714)">
      <path
         d="m 0,0 c -0.023,-0.144 0.077,-0.275 0.219,-0.295 0.142,-0.023 0.277,0.08 0.295,0.219 C 0.535,0.068 0.437,0.199 0.294,0.219 0.152,0.24 0.019,0.143 0,0"
         style="fill:#ffffff;fill-opacity:1;fill-rule:nonzero;stroke:none"
         id="path11674"
         inkscape:connector-curvature="0" />
    </g>
    <g
       id="g11676"
       transform="matrix(1.2500003,0,0,-1.2500003,292.33701,460.69489)">
      <path
         d="M 0,0 C 0.02,0.137 -0.073,0.262 -0.209,0.281 -0.345,0.301 -0.47,0.207 -0.489,0.072 -0.509,-0.066 -0.415,-0.187 -0.28,-0.207 -0.146,-0.229 -0.019,-0.133 0,0"
         style="fill:#ffffff;fill-opacity:1;fill-rule:nonzero;stroke:none"
         id="path11678"
         inkscape:connector-curvature="0" />
    </g>
    <g
       id="g11680"
       transform="matrix(1.2500003,0,0,-1.2500003,291.97689,459.85751)">
      <path
         d="m 0,0 c 0.018,0.129 -0.069,0.248 -0.198,0.268 -0.129,0.017 -0.247,-0.071 -0.266,-0.2 -0.018,-0.13 0.069,-0.246 0.197,-0.265 C -0.138,-0.219 -0.018,-0.125 0,0"
         style="fill:#ffffff;fill-opacity:1;fill-rule:nonzero;stroke:none"
         id="path11682"
         inkscape:connector-curvature="0" />
    </g>
    <g
       id="g11684"
       transform="matrix(1.2500003,0,0,-1.2500003,291.61676,459.02013)">
      <path
         d="M 0,0 C 0.018,0.121 -0.065,0.234 -0.187,0.252 -0.311,0.27 -0.422,0.186 -0.439,0.065 -0.457,-0.059 -0.373,-0.168 -0.252,-0.187 -0.131,-0.207 -0.017,-0.119 0,0"
         style="fill:#ffffff;fill-opacity:1;fill-rule:nonzero;stroke:none"
         id="path11686"
         inkscape:connector-curvature="0" />
    </g>
    <g
       id="g11688"
       transform="matrix(1.2500003,0,0,-1.2500003,291.25664,458.18276)">
      <path
         d="M 0,0 C 0.017,0.115 -0.062,0.223 -0.177,0.238 -0.293,0.254 -0.397,0.176 -0.414,0.061 -0.431,-0.057 -0.352,-0.158 -0.238,-0.178 -0.123,-0.195 -0.016,-0.113 0,0"
         style="fill:#ffffff;fill-opacity:1;fill-rule:nonzero;stroke:none"
         id="path11690"
         inkscape:connector-curvature="0" />
    </g>
    <g
       id="g11692"
       transform="matrix(1.2500003,0,0,-1.2500003,290.40951,457.27451)">
      <path
         d="M 0,0 C -0.017,-0.109 0.059,-0.205 0.166,-0.223 0.273,-0.24 0.374,-0.162 0.39,-0.057 0.405,0.051 0.331,0.152 0.224,0.166 0.113,0.182 0.015,0.107 0,0"
         style="fill:#ffffff;fill-opacity:1;fill-rule:nonzero;stroke:none"
         id="path11694"
         inkscape:connector-curvature="0" />
    </g>
    <g
       id="g11696"
       transform="matrix(1.2500003,0,0,-1.2500003,293.26714,460.25551)">
      <path
         d="M 0,0 C 0.007,0.141 0.128,0.252 0.27,0.244 0.412,0.236 0.521,0.117 0.514,-0.027 0.509,-0.17 0.387,-0.277 0.244,-0.269 0.103,-0.266 -0.008,-0.144 0,0"
         style="fill:#ffffff;fill-opacity:1;fill-rule:nonzero;stroke:none"
         id="path11698"
         inkscape:connector-curvature="0" />
    </g>
    <g
       id="g11700"
       transform="matrix(1.2500003,0,0,-1.2500003,293.06451,459.90638)">
      <path
         d="M 0,0 C -0.135,0.006 -0.24,0.119 -0.232,0.258 -0.226,0.393 -0.11,0.496 0.024,0.49 0.16,0.483 0.263,0.369 0.257,0.233 0.251,0.096 0.136,-0.006 0,0"
         style="fill:#ffffff;fill-opacity:1;fill-rule:nonzero;stroke:none"
         id="path11702"
         inkscape:connector-curvature="0" />
    </g>
    <g
       id="g11704"
       transform="matrix(1.2500003,0,0,-1.2500003,292.55789,459.21788)">
      <path
         d="M 0,0 C -0.128,0.006 -0.227,0.113 -0.221,0.242 -0.214,0.371 -0.105,0.471 0.023,0.463 0.151,0.457 0.25,0.348 0.244,0.219 0.239,0.092 0.129,-0.008 0,0"
         style="fill:#ffffff;fill-opacity:1;fill-rule:nonzero;stroke:none"
         id="path11706"
         inkscape:connector-curvature="0" />
    </g>
    <g
       id="g11708"
       transform="matrix(1.2500003,0,0,-1.2500003,292.05014,458.53189)">
      <path
         d="M 0,0 C -0.121,0.006 -0.216,0.107 -0.209,0.231 -0.202,0.352 -0.1,0.445 0.023,0.44 0.144,0.434 0.237,0.33 0.231,0.209 0.227,0.088 0.122,-0.008 0,0"
         style="fill:#ffffff;fill-opacity:1;fill-rule:nonzero;stroke:none"
         id="path11710"
         inkscape:connector-curvature="0" />
    </g>
    <g
       id="g11712"
       transform="matrix(1.2500003,0,0,-1.2500003,291.54351,457.84576)">
      <path
         d="M 0,0 C -0.114,0.006 -0.204,0.104 -0.197,0.219 -0.191,0.332 -0.095,0.42 0.02,0.416 0.135,0.41 0.224,0.312 0.218,0.197 0.213,0.084 0.114,-0.006 0,0"
         style="fill:#ffffff;fill-opacity:1;fill-rule:nonzero;stroke:none"
         id="path11714"
         inkscape:connector-curvature="0" />
    </g>
    <g
       id="g11716"
       transform="matrix(1.2500003,0,0,-1.2500003,290.80376,456.90338)">
      <path
         d="M 0,0 C 0.006,0.107 0.097,0.191 0.205,0.185 0.312,0.182 0.397,0.09 0.391,-0.018 0.386,-0.125 0.293,-0.211 0.186,-0.203 0.078,-0.197 -0.006,-0.107 0,0"
         style="fill:#ffffff;fill-opacity:1;fill-rule:nonzero;stroke:none"
         id="path11718"
         inkscape:connector-curvature="0" />
    </g>
    <g
       id="g11720"
       transform="matrix(1.2500003,0,0,-1.2500003,294.14726,458.87364)">
      <path
         d="M 0,0 C -0.143,-0.008 -0.267,0.102 -0.271,0.244 -0.279,0.389 -0.167,0.51 -0.024,0.516 0.115,0.521 0.237,0.414 0.243,0.268 0.252,0.129 0.143,0.006 0,0"
         style="fill:#ffffff;fill-opacity:1;fill-rule:nonzero;stroke:none"
         id="path11722"
         inkscape:connector-curvature="0" />
    </g>
    <g
       id="g11724"
       transform="matrix(1.2500003,0,0,-1.2500003,293.76039,458.03138)">
      <path
         d="m 0,0 c 0.007,-0.131 -0.095,-0.244 -0.229,-0.25 -0.133,-0.006 -0.249,0.096 -0.254,0.229 -0.006,0.134 0.097,0.246 0.231,0.254 C -0.12,0.238 -0.007,0.137 0,0"
         style="fill:#ffffff;fill-opacity:1;fill-rule:nonzero;stroke:none"
         id="path11726"
         inkscape:connector-curvature="0" />
    </g>
    <g
       id="g11728"
       transform="matrix(1.2500003,0,0,-1.2500003,293.06939,457.52351)">
      <path
         d="m 0,0 c 0.006,-0.123 -0.09,-0.229 -0.215,-0.234 -0.125,-0.006 -0.233,0.09 -0.238,0.213 -0.006,0.127 0.092,0.232 0.217,0.238 C -0.113,0.223 -0.007,0.127 0,0"
         style="fill:#ffffff;fill-opacity:1;fill-rule:nonzero;stroke:none"
         id="path11730"
         inkscape:connector-curvature="0" />
    </g>
    <g
       id="g11732"
       transform="matrix(1.2500003,0,0,-1.2500003,292.37851,457.01576)">
      <path
         d="m 0,0 c 0.005,-0.115 -0.084,-0.215 -0.2,-0.219 -0.116,-0.006 -0.217,0.084 -0.222,0.2 -0.005,0.117 0.086,0.214 0.202,0.22 C -0.105,0.207 -0.006,0.117 0,0"
         style="fill:#ffffff;fill-opacity:1;fill-rule:nonzero;stroke:none"
         id="path11734"
         inkscape:connector-curvature="0" />
    </g>
    <g
       id="g11736"
       transform="matrix(1.2500003,0,0,-1.2500003,291.19926,456.53226)">
      <path
         d="M 0,0 C -0.006,0.109 0.079,0.201 0.187,0.205 0.293,0.211 0.386,0.127 0.391,0.019 0.396,-0.088 0.312,-0.18 0.205,-0.184 0.098,-0.19 0.004,-0.106 0,0"
         style="fill:#ffffff;fill-opacity:1;fill-rule:nonzero;stroke:none"
         id="path11738"
         inkscape:connector-curvature="0" />
    </g>
    <g
       id="g11740"
       transform="matrix(1.2500003,0,0,-1.2500003,291.80351,455.88051)">
      <path
         d="M 0,0 C 0.107,0.016 0.208,-0.059 0.224,-0.166 0.239,-0.273 0.165,-0.375 0.057,-0.389 -0.051,-0.406 -0.151,-0.33 -0.167,-0.223 -0.182,-0.115 -0.106,-0.016 0,0"
         style="fill:#ffffff;fill-opacity:1;fill-rule:nonzero;stroke:none"
         id="path11742"
         inkscape:connector-curvature="0" />
    </g>
    <g
       id="g11744"
       transform="matrix(1.2500003,0,0,-1.2500003,292.96439,456.44688)">
      <path
         d="m 0,0 c 0.017,-0.113 -0.062,-0.219 -0.176,-0.234 -0.113,-0.018 -0.219,0.062 -0.235,0.173 -0.016,0.114 0.063,0.221 0.176,0.237 C -0.123,0.191 -0.017,0.113 0,0"
         style="fill:#ffffff;fill-opacity:1;fill-rule:nonzero;stroke:none"
         id="path11746"
         inkscape:connector-curvature="0" />
    </g>
    <g
       id="g11748"
       transform="matrix(1.2500003,0,0,-1.2500003,293.84576,456.80326)">
      <path
         d="m 0,0 c 0.018,-0.121 -0.065,-0.231 -0.185,-0.248 -0.119,-0.018 -0.231,0.066 -0.248,0.183 -0.016,0.12 0.067,0.231 0.185,0.249 C -0.13,0.201 -0.018,0.119 0,0"
         style="fill:#ffffff;fill-opacity:1;fill-rule:nonzero;stroke:none"
         id="path11750"
         inkscape:connector-curvature="0" />
    </g>
    <g
       id="g11752"
       transform="matrix(1.2500003,0,0,-1.2500003,294.72589,457.16226)">
      <path
         d="M 0,0 C 0.019,-0.125 -0.068,-0.24 -0.193,-0.26 -0.317,-0.277 -0.436,-0.191 -0.452,-0.066 -0.47,0.059 -0.384,0.176 -0.26,0.193 -0.135,0.213 -0.018,0.125 0,0"
         style="fill:#ffffff;fill-opacity:1;fill-rule:nonzero;stroke:none"
         id="path11754"
         inkscape:connector-curvature="0" />
    </g>
    <g
       id="g11756"
       transform="matrix(1.2500003,0,0,-1.2500003,295.60726,457.52113)">
      <path
         d="m 0,0 c 0.019,-0.131 -0.072,-0.252 -0.202,-0.271 -0.13,-0.02 -0.253,0.072 -0.271,0.201 -0.018,0.131 0.072,0.254 0.202,0.273 C -0.141,0.221 -0.02,0.131 0,0"
         style="fill:#ffffff;fill-opacity:1;fill-rule:nonzero;stroke:none"
         id="path11758"
         inkscape:connector-curvature="0" />
    </g>
    <g
       id="g11760"
       transform="matrix(1.2500003,0,0,-1.2500003,296.48864,457.88001)">
      <path
         d="m 0,0 c 0.02,-0.137 -0.075,-0.264 -0.211,-0.283 -0.136,-0.02 -0.265,0.076 -0.283,0.211 -0.02,0.137 0.074,0.265 0.21,0.285 C -0.148,0.233 -0.02,0.137 0,0"
         style="fill:#ffffff;fill-opacity:1;fill-rule:nonzero;stroke:none"
         id="path11762"
         inkscape:connector-curvature="0" />
    </g>
    <g
       id="g11764"
       transform="matrix(1.2500003,0,0,-1.2500003,297.00014,457.96051)">
      <path
         d="M 0,0 C 0.143,0.02 0.275,-0.08 0.296,-0.223 0.317,-0.363 0.217,-0.496 0.076,-0.518 -0.066,-0.539 -0.2,-0.44 -0.219,-0.297 -0.239,-0.154 -0.142,-0.021 0,0"
         style="fill:#ffffff;fill-opacity:1;fill-rule:nonzero;stroke:none"
         id="path11766"
         inkscape:connector-curvature="0" />
    </g>
  </g>
</svg>
