<?xml version="1.0" encoding="UTF-8" standalone="no"?>
<!-- Created with Inkscape (http://www.inkscape.org/) -->

<svg
   xmlns:dc="http://purl.org/dc/elements/1.1/"
   xmlns:cc="http://creativecommons.org/ns#"
   xmlns:rdf="http://www.w3.org/1999/02/22-rdf-syntax-ns#"
   xmlns:svg="http://www.w3.org/2000/svg"
   xmlns="http://www.w3.org/2000/svg"
   xmlns:sodipodi="http://sodipodi.sourceforge.net/DTD/sodipodi-0.dtd"
   xmlns:inkscape="http://www.inkscape.org/namespaces/inkscape"
   width="3.4868553mm"
   height="3.4861498mm"
   viewBox="0 0 12.355001 12.352499"
   id="svg10338"
   version="1.1"
   inkscape:version="0.91 r13725"
   sodipodi:docname="ShelterB.svg">
  <defs
     id="defs10340" />
  <sodipodi:namedview
     id="base"
     pagecolor="#ffffff"
     bordercolor="#666666"
     borderopacity="1.0"
     inkscape:pageopacity="0.0"
     inkscape:pageshadow="2"
     inkscape:zoom="22.4"
     inkscape:cx="1.5504526"
     inkscape:cy="5.655734"
     inkscape:document-units="px"
     inkscape:current-layer="layer1"
     showgrid="false"
     fit-margin-top="0"
     fit-margin-left="0"
     fit-margin-right="0"
     fit-margin-bottom="0"
     inkscape:window-width="958"
     inkscape:window-height="1018"
     inkscape:window-x="-7"
     inkscape:window-y="0"
     inkscape:window-maximized="0" />
  <metadata
     id="metadata10343">
    <rdf:RDF>
      <cc:Work
         rdf:about="">
        <dc:format>image/svg+xml</dc:format>
        <dc:type
           rdf:resource="http://purl.org/dc/dcmitype/StillImage" />
        <dc:title></dc:title>
      </cc:Work>
    </rdf:RDF>
  </metadata>
  <g
     inkscape:label="Layer 1"
     inkscape:groupmode="layer"
     id="layer1"
     transform="translate(-290.44026,-455.56715)">
    <g
       id="g9894"
       transform="matrix(1.2500002,0,0,-1.2500002,291.91726,455.81577)">
      <path
         d="m 0,0 c -0.541,0 -0.981,-0.441 -0.981,-0.982 l 0,-7.521 c 0,-0.539 0.44,-0.979 0.981,-0.979 l 7.521,0 c 0.541,0 0.981,0.44 0.981,0.979 l 0,7.521 C 8.502,-0.441 8.062,0 7.521,0 L 0,0 Z"
         style="fill:#ffffff;fill-opacity:1;fill-rule:nonzero;stroke:none"
         id="path9896"
         inkscape:connector-curvature="0" />
    </g>
    <g
       id="g9898"
       transform="matrix(1.2500002,0,0,-1.2500002,301.31901,467.91965)">
      <path
         d="m 0,0 c 0.652,0 1.181,0.527 1.181,1.18 l 0,7.521 C 1.181,9.353 0.652,9.882 0,9.882 l -7.521,0 c -0.653,0 -1.182,-0.529 -1.182,-1.181 l 0,-7.521 C -8.703,0.527 -8.174,0 -7.521,0 L 0,0 Z"
         style="fill:#373535;fill-opacity:1;fill-rule:nonzero;stroke:none"
         id="path9900"
         inkscape:connector-curvature="0" />
    </g>
    <g
       id="g9902"
       transform="matrix(1.2500002,0,0,-1.2500002,292.60076,466.02015)">
      <path
         d="m 0,0 7.02,0 0,0.73 -6.29,0 0,2.76 6.29,2.841 0,0.756 -7.802,-3.523 0,-0.755 L 0,3.158 0,0 Z"
         style="fill:#ffffff;fill-opacity:1;fill-rule:nonzero;stroke:none"
         id="path9904"
         inkscape:connector-curvature="0" />
    </g>
  </g>
</svg>
