<?xml version="1.0" encoding="UTF-8" standalone="no"?>
<!-- Created with Inkscape (http://www.inkscape.org/) -->

<svg
   xmlns:dc="http://purl.org/dc/elements/1.1/"
   xmlns:cc="http://creativecommons.org/ns#"
   xmlns:rdf="http://www.w3.org/1999/02/22-rdf-syntax-ns#"
   xmlns:svg="http://www.w3.org/2000/svg"
   xmlns="http://www.w3.org/2000/svg"
   xmlns:sodipodi="http://sodipodi.sourceforge.net/DTD/sodipodi-0.dtd"
   xmlns:inkscape="http://www.inkscape.org/namespaces/inkscape"
   width="3.4868555mm"
   height="3.4872084mm"
   viewBox="0 0 12.355001 12.35625"
   id="svg10338"
   version="1.1"
   inkscape:version="0.91 r13725"
   sodipodi:docname="SnowmobileB.svg">
  <defs
     id="defs10340" />
  <sodipodi:namedview
     id="base"
     pagecolor="#ffffff"
     bordercolor="#666666"
     borderopacity="1.0"
     inkscape:pageopacity="0.0"
     inkscape:pageshadow="2"
     inkscape:zoom="22.4"
     inkscape:cx="6.1774954"
     inkscape:cy="6.1781225"
     inkscape:document-units="px"
     inkscape:current-layer="layer1"
     showgrid="false"
     fit-margin-top="0"
     fit-margin-left="0"
     fit-margin-right="0"
     fit-margin-bottom="0"
     inkscape:window-width="690"
     inkscape:window-height="405"
     inkscape:window-x="96"
     inkscape:window-y="84"
     inkscape:window-maximized="0" />
  <metadata
     id="metadata10343">
    <rdf:RDF>
      <cc:Work
         rdf:about="">
        <dc:format>image/svg+xml</dc:format>
        <dc:type
           rdf:resource="http://purl.org/dc/dcmitype/StillImage" />
        <dc:title></dc:title>
      </cc:Work>
    </rdf:RDF>
  </metadata>
  <g
     inkscape:label="Layer 1"
     inkscape:groupmode="layer"
     id="layer1"
     transform="translate(-285.81322,-456.08579)">
    <g
       id="g11768"
       transform="matrix(1.2500002,0,0,-1.2500002,287.29022,456.33503)">
      <path
         d="m 0,0 c -0.541,0 -0.981,-0.441 -0.981,-0.982 l 0,-7.522 c 0,-0.541 0.44,-0.98 0.981,-0.98 l 7.521,0 c 0.541,0 0.981,0.439 0.981,0.98 l 0,7.522 C 8.502,-0.441 8.062,0 7.521,0 L 0,0 Z"
         style="fill:#ffffff;fill-opacity:1;fill-rule:nonzero;stroke:none"
         id="path11770"
         inkscape:connector-curvature="0" />
    </g>
    <g
       id="g11772"
       transform="matrix(1.2500002,0,0,-1.2500002,296.69197,468.44204)">
      <path
         d="m 0,0 c 0.652,0 1.181,0.529 1.181,1.182 l 0,7.521 C 1.181,9.356 0.652,9.885 0,9.885 l -7.521,0 c -0.653,0 -1.182,-0.529 -1.182,-1.182 l 0,-7.521 C -8.703,0.529 -8.174,0 -7.521,0 L 0,0 Z"
         style="fill:#373535;fill-opacity:1;fill-rule:nonzero;stroke:none"
         id="path11774"
         inkscape:connector-curvature="0" />
    </g>
    <g
       id="g11776"
       transform="matrix(1.2500002,0,0,-1.2500002,291.03897,459.20854)">
      <path
         d="m 0,0 c 0.365,0 0.661,0.295 0.661,0.662 0,0.363 -0.296,0.66 -0.661,0.66 -0.365,0 -0.661,-0.297 -0.661,-0.66 C -0.661,0.295 -0.365,0 0,0"
         style="fill:#ffffff;fill-opacity:1;fill-rule:nonzero;stroke:none"
         id="path11778"
         inkscape:connector-curvature="0" />
    </g>
    <g
       id="g11780"
       transform="matrix(1.2500002,0,0,-1.2500002,292.01185,465.88341)">
      <path
         d="m 0,0 3.145,0 c 0,0 0.203,-0.014 0.607,0.311 l 0.688,0.525 0,-0.594 -0.702,-0.525 c 0,0 -0.209,-0.17 -0.56,-0.209 l -3.442,0 L 0,0 Z"
         style="fill:#ffffff;fill-opacity:1;fill-rule:nonzero;stroke:none"
         id="path11782"
         inkscape:connector-curvature="0" />
    </g>
    <g
       id="g11784"
       transform="matrix(1.2500002,0,0,-1.2500002,286.53572,466.49866)">
      <path
         d="m 0,0 3.146,0 0.262,0.492 -0.026,0 -3.146,0 L -0.026,0 0,0 Z"
         style="fill:#ffffff;fill-opacity:1;fill-rule:nonzero;stroke:none"
         id="path11786"
         inkscape:connector-curvature="0" />
    </g>
    <g
       id="g11788"
       transform="matrix(1.2500002,0,0,-1.2500002,291.46372,460.21441)">
      <path
         d="M 0,0 C 0,0.365 -0.296,0.662 -0.662,0.662 -1.027,0.662 -1.324,0.365 -1.324,0 l 0,-1.619 c 0,-0.205 0.1,-0.397 0.248,-0.518 l -1.482,0 -0.8,-1.453 c -0.018,-0.033 -0.026,-0.07 -0.026,-0.109 0,-0.133 0.109,-0.242 0.241,-0.242 l 5.462,0 c 0,0 0.235,-0.037 0.588,0.24 l 1.417,1.043 -0.535,0.935 c 0,0 -0.12,0.227 -0.574,0.295 l -1.07,0.18 -0.574,0.959 -0.007,0.01 C 1.481,-0.184 1.337,-0.174 1.241,-0.256 L 1.24,-0.258 C 1.173,-0.32 1.147,-0.422 1.185,-0.512 l 0.426,-0.711 0,-0.005 -0.534,-0.909 -1.077,0.41 0,0.403 0.851,0 c 0.041,-0.002 0.084,0.004 0.125,0.021 0.161,0.061 0.241,0.242 0.179,0.403 -0.047,0.125 -0.164,0.199 -0.288,0.201 L -0.001,-0.697 0,0"
         style="fill:#ffffff;fill-opacity:1;fill-rule:nonzero;stroke:none"
         id="path11790"
         inkscape:connector-curvature="0" />
    </g>
  </g>
</svg>
