<?xml version="1.0" encoding="UTF-8" standalone="no"?>
<!-- Created with Inkscape (http://www.inkscape.org/) -->

<svg
   xmlns:dc="http://purl.org/dc/elements/1.1/"
   xmlns:cc="http://creativecommons.org/ns#"
   xmlns:rdf="http://www.w3.org/1999/02/22-rdf-syntax-ns#"
   xmlns:svg="http://www.w3.org/2000/svg"
   xmlns="http://www.w3.org/2000/svg"
   xmlns:sodipodi="http://sodipodi.sourceforge.net/DTD/sodipodi-0.dtd"
   xmlns:inkscape="http://www.inkscape.org/namespaces/inkscape"
   width="3.4868557mm"
   height="3.4872084mm"
   viewBox="0 0 12.355002 12.35625"
   id="svg10338"
   version="1.1"
   inkscape:version="0.91 r13725"
   sodipodi:docname="StoreB.svg">
  <defs
     id="defs10340" />
  <sodipodi:namedview
     id="base"
     pagecolor="#ffffff"
     bordercolor="#666666"
     borderopacity="1.0"
     inkscape:pageopacity="0.0"
     inkscape:pageshadow="2"
     inkscape:zoom="22.4"
     inkscape:cx="4.3366885"
     inkscape:cy="8.1313307"
     inkscape:document-units="px"
     inkscape:current-layer="layer1"
     showgrid="false"
     fit-margin-top="0"
     fit-margin-left="0"
     fit-margin-right="0"
     fit-margin-bottom="0"
     inkscape:window-width="690"
     inkscape:window-height="405"
     inkscape:window-x="96"
     inkscape:window-y="84"
     inkscape:window-maximized="0" />
  <metadata
     id="metadata10343">
    <rdf:RDF>
      <cc:Work
         rdf:about="">
        <dc:format>image/svg+xml</dc:format>
        <dc:type
           rdf:resource="http://purl.org/dc/dcmitype/StillImage" />
        <dc:title></dc:title>
      </cc:Work>
    </rdf:RDF>
  </metadata>
  <g
     inkscape:label="Layer 1"
     inkscape:groupmode="layer"
     id="layer1"
     transform="translate(-287.65403,-458.039)">
    <g
       id="g11792"
       transform="matrix(1.2500001,0,0,-1.2500001,289.13091,458.28825)">
      <path
         d="m 0,0 c -0.542,0 -0.982,-0.441 -0.982,-0.982 l 0,-7.522 c 0,-0.541 0.44,-0.98 0.982,-0.98 l 7.521,0 c 0.541,0 0.981,0.439 0.981,0.98 l 0,7.522 C 8.502,-0.441 8.062,0 7.521,0 L 0,0 Z"
         style="fill:#ffffff;fill-opacity:1;fill-rule:nonzero;stroke:none"
         id="path11794"
         inkscape:connector-curvature="0" />
    </g>
    <g
       id="g11796"
       transform="matrix(1.2500001,0,0,-1.2500001,298.53278,470.39525)">
      <path
         d="m 0,0 c 0.651,0 1.181,0.529 1.181,1.182 l 0,7.521 C 1.181,9.356 0.651,9.885 0,9.885 l -7.521,0 c -0.653,0 -1.182,-0.529 -1.182,-1.182 l 0,-7.521 C -8.703,0.529 -8.174,0 -7.521,0 L 0,0 Z"
         style="fill:#373535;fill-opacity:1;fill-rule:nonzero;stroke:none"
         id="path11798"
         inkscape:connector-curvature="0" />
    </g>
    <g
       id="g11800"
       transform="matrix(1.2500001,0,0,-1.2500001,297.90041,463.0075)">
      <path
         d="m 0,0 c 0,0 -0.082,-1.619 -1.501,-1.484 0,0 -0.158,1.355 1.501,1.484"
         style="fill:#ffffff;fill-opacity:1;fill-rule:nonzero;stroke:none"
         id="path11802"
         inkscape:connector-curvature="0" />
    </g>
    <g
       id="g11804"
       transform="matrix(1.2500001,0,0,-1.2500001,296.48803,465.64663)">
      <path
         d="m 0,0 c 0.186,0.184 0.441,0.295 0.722,0.295 0.569,0 1.032,-0.461 1.032,-1.031 0,-0.022 0,-0.039 -0.001,-0.061 l -0.002,0 c -0.018,-0.223 -0.089,-0.5 -0.257,-0.844 0,0 -0.289,-0.552 -0.521,-0.806 L 0.951,-2.467 C 0.839,-2.58 0.682,-2.65 0.51,-2.65 c -0.21,0 -0.397,0.101 -0.509,0.259 l -0.003,0 c -0.113,-0.158 -0.299,-0.259 -0.509,-0.259 -0.173,0 -0.329,0.07 -0.442,0.183 l -0.022,0.02 c -0.23,0.254 -0.52,0.806 -0.52,0.806 -0.168,0.344 -0.239,0.623 -0.255,0.844 l -0.004,0 c -0.003,0.022 -0.003,0.039 -0.003,0.061 0,0.57 0.463,1.031 1.034,1.031 0.282,0 0.536,-0.111 0.722,-0.295"
         style="fill:#ffffff;fill-opacity:1;fill-rule:nonzero;stroke:none"
         id="path11806"
         inkscape:connector-curvature="0" />
    </g>
    <path
       d="m 292.25253,459.48738 -1.5675,0 0,0.58375 1.5675,0 0,-0.58375 z"
       style="fill:#ffffff;fill-opacity:1;fill-rule:nonzero;stroke:none"
       id="path11808"
       inkscape:connector-curvature="0" />
    <g
       id="g11810"
       transform="matrix(1.2500001,0,0,-1.2500001,289.19928,461.84051)">
      <path
         d="m 0,0 c 0,0.088 0.026,0.168 0.071,0.236 l 0.564,0.709 c 0.162,0.199 0.332,0.176 0.332,0.176 l 1.45,0 c 0.899,-0.088 0.9,-0.943 0.9,-0.943 l 0,-5.551 c 0,-0.147 -0.119,-0.266 -0.265,-0.266 l -2.782,0 c -0.148,0 -0.267,0.119 -0.267,0.266 L 0,0 Z m 0.294,-1.482 c 0,-0.153 0.211,-0.321 0.381,-0.125 l 0.463,0.603 c 0.021,0.027 0.048,0.084 0.048,0.147 l 0,1.447 c 0,0.404 -0.377,0.07 -0.519,-0.074 L 0.347,0.109 C 0.294,0.041 0.294,0.016 0.294,-0.021 l 0,-1.461 z"
         style="fill:#ffffff;fill-opacity:1;fill-rule:nonzero;stroke:none"
         id="path11812"
         inkscape:connector-curvature="0" />
    </g>
  </g>
</svg>
