<?xml version="1.0" encoding="UTF-8" standalone="no"?>
<!-- Created with Inkscape (http://www.inkscape.org/) -->

<svg
   xmlns:dc="http://purl.org/dc/elements/1.1/"
   xmlns:cc="http://creativecommons.org/ns#"
   xmlns:rdf="http://www.w3.org/1999/02/22-rdf-syntax-ns#"
   xmlns:svg="http://www.w3.org/2000/svg"
   xmlns="http://www.w3.org/2000/svg"
   xmlns:sodipodi="http://sodipodi.sourceforge.net/DTD/sodipodi-0.dtd"
   xmlns:inkscape="http://www.inkscape.org/namespaces/inkscape"
   width="3.4868555mm"
   height="3.4868555mm"
   viewBox="0 0 12.354998 12.354999"
   id="svg9579"
   version="1.1"
   inkscape:version="0.91 r13725"
   sodipodi:docname="XCSkiingB.svg">
  <defs
     id="defs9581" />
  <sodipodi:namedview
     id="base"
     pagecolor="#ffffff"
     bordercolor="#666666"
     borderopacity="1.0"
     inkscape:pageopacity="0.0"
     inkscape:pageshadow="2"
     inkscape:zoom="3.959798"
     inkscape:cx="-8.9432595"
     inkscape:cy="28.807455"
     inkscape:document-units="px"
     inkscape:current-layer="layer1"
     showgrid="false"
     fit-margin-top="0"
     fit-margin-left="0"
     fit-margin-right="0"
     fit-margin-bottom="0"
     inkscape:window-width="690"
     inkscape:window-height="405"
     inkscape:window-x="104"
     inkscape:window-y="104"
     inkscape:window-maximized="0" />
  <metadata
     id="metadata9584">
    <rdf:RDF>
      <cc:Work
         rdf:about="">
        <dc:format>image/svg+xml</dc:format>
        <dc:type
           rdf:resource="http://purl.org/dc/dcmitype/StillImage" />
        <dc:title></dc:title>
      </cc:Work>
    </rdf:RDF>
  </metadata>
  <g
     inkscape:label="Layer 1"
     inkscape:groupmode="layer"
     id="layer1"
     transform="translate(-465.6668,-667.85748)">
    <g
       id="g10416"
       transform="matrix(1.25,0,0,-1.25,467.14242,668.10798)">
      <path
         d="m 0,0 c -0.54,0 -0.98,-0.44 -0.98,-0.98 l 0,-7.522 c 0,-0.541 0.44,-0.981 0.98,-0.981 l 7.521,0 c 0.542,0 0.982,0.44 0.982,0.981 l 0,7.522 C 8.503,-0.44 8.063,0 7.521,0 L 0,0 Z"
         style="fill:#ffffff;fill-opacity:1;fill-rule:nonzero;stroke:none"
         id="path10418"
         inkscape:connector-curvature="0" />
    </g>
    <g
       id="g10420"
       transform="matrix(1.25,0,0,-1.25,476.5443,680.21248)">
      <path
         d="m 0,0 c 0.652,0 1.182,0.529 1.182,1.182 l 0,7.521 C 1.182,9.355 0.652,9.884 0,9.884 l -7.521,0 c -0.653,0 -1.181,-0.529 -1.181,-1.181 l 0,-7.521 C -8.702,0.529 -8.174,0 -7.521,0 L 0,0 Z"
         style="fill:#373535;fill-opacity:1;fill-rule:nonzero;stroke:none"
         id="path10422"
         inkscape:connector-curvature="0" />
    </g>
    <g
       id="g10424"
       transform="matrix(1.25,0,0,-1.25,476.95692,678.1971)">
      <path
         d="m 0,0 c -0.001,-0.222 -0.185,-0.4 -0.405,-0.399 l -6.585,0 0,-0.272 6.584,0 c 0.371,-0.002 0.674,0.296 0.676,0.669 L 0,0 Z"
         style="fill:#ffffff;fill-opacity:1;fill-rule:nonzero;stroke:none"
         id="path10426"
         inkscape:connector-curvature="0" />
    </g>
    <g
       id="g10428"
       transform="matrix(1.25,0,0,-1.25,474.49605,670.53598)">
      <path
         d="M 0,0 C 0.365,0 0.661,0.297 0.661,0.662 0.661,1.027 0.365,1.323 0,1.323 -0.365,1.323 -0.662,1.027 -0.662,0.662 -0.662,0.297 -0.365,0 0,0"
         style="fill:#ffffff;fill-opacity:1;fill-rule:nonzero;stroke:none"
         id="path10430"
         inkscape:connector-curvature="0" />
    </g>
    <g
       id="g10432"
       transform="matrix(1.25,0,0,-1.25,469.2543,677.65511)">
      <path
         d="M 0,0 -2.201,2.208 -2.2,1.822 -0.151,-0.234 c 0.235,-0.255 0.638,0.039 0.638,0.039 L 0.294,0.013 c 0,0 -0.19,-0.125 -0.289,-0.019 L 0,0 Z"
         style="fill:#ffffff;fill-opacity:1;fill-rule:nonzero;stroke:none"
         id="path10434"
         inkscape:connector-curvature="0" />
    </g>
    <path
       d="m 469.34192,672.44973 -2.81625,0 0,0.33625 2.81625,0 0,-0.33625 z"
       style="fill:#ffffff;fill-opacity:1;fill-rule:nonzero;stroke:none"
       id="path10436"
       inkscape:connector-curvature="0" />
    <g
       id="g10438"
       transform="matrix(1.25,0,0,-1.25,476.95442,671.64623)">
      <path
         d="m 0,0 0.257,-0.108 -2.558,-5.148 -0.283,0 L 0,0 Z"
         style="fill:#ffffff;fill-opacity:1;fill-rule:nonzero;stroke:none"
         id="path10440"
         inkscape:connector-curvature="0" />
    </g>
    <g
       id="g10442"
       transform="matrix(1.25,0,0,-1.25,471.6493,671.14998)">
      <path
         d="M 0,0 -1.029,-1.188 C -1.09,-1.264 -1.183,-1.31 -1.286,-1.31 c -0.185,0 -0.333,0.149 -0.333,0.333 0,0.099 0.043,0.188 0.112,0.249 l 1.11,1.278 c 0.061,0.073 0.153,0.12 0.256,0.12 l 1.607,0.001 c 0.118,0 0.223,-0.047 0.302,-0.123 l 1.024,-1.024 0.849,0.848 c 0.059,0.05 0.136,0.08 0.22,0.08 0.191,0 0.344,-0.154 0.344,-0.344 0,-0.083 -0.028,-0.158 -0.077,-0.217 L 3.105,-1.141 C 2.794,-1.451 2.544,-1.187 2.544,-1.187 l -0.628,0.63 -0.981,-1.134 0.899,-0.9 c 0,0 0.189,-0.176 0.081,-0.526 L 1.411,-5.363 c -0.04,-0.196 -0.213,-0.343 -0.419,-0.343 -0.236,0 -0.428,0.192 -0.428,0.429 0,0.037 0.004,0.073 0.014,0.107 l 0.414,1.843 -1.021,0.994 -0.879,-0.98 c 0,0 -0.143,-0.176 -0.52,-0.163 L -3.21,-3.479 c -0.199,-0.003 -0.38,0.133 -0.425,0.335 -0.053,0.23 0.09,0.456 0.321,0.507 0.036,0.009 0.072,0.012 0.107,0.011 L -1.674,-2.631 0.593,-0.003 0,0 Z"
         style="fill:#ffffff;fill-opacity:1;fill-rule:nonzero;stroke:none"
         id="path10444"
         inkscape:connector-curvature="0" />
    </g>
  </g>
</svg>
