<?xml version="1.0" encoding="UTF-8" standalone="no"?>
<!-- Created with Inkscape (http://www.inkscape.org/) -->

<svg
   xmlns:dc="http://purl.org/dc/elements/1.1/"
   xmlns:cc="http://creativecommons.org/ns#"
   xmlns:rdf="http://www.w3.org/1999/02/22-rdf-syntax-ns#"
   xmlns:svg="http://www.w3.org/2000/svg"
   xmlns="http://www.w3.org/2000/svg"
   xmlns:sodipodi="http://sodipodi.sourceforge.net/DTD/sodipodi-0.dtd"
   xmlns:inkscape="http://www.inkscape.org/namespaces/inkscape"
   width="3.4865022mm"
   height="3.4865022mm"
   viewBox="0 0 12.353749 12.353749"
   id="svg19743"
   version="1.1"
   inkscape:version="0.91 r13725"
   sodipodi:docname="BusW.svg">
  <defs
     id="defs19745" />
  <sodipodi:namedview
     id="base"
     pagecolor="#ffffff"
     bordercolor="#666666"
     borderopacity="1.0"
     inkscape:pageopacity="0.0"
     inkscape:pageshadow="2"
     inkscape:zoom="15.839192"
     inkscape:cx="8.4995437"
     inkscape:cy="5.0313531"
     inkscape:document-units="px"
     inkscape:current-layer="g13306"
     showgrid="false"
     fit-margin-top="0"
     fit-margin-left="0"
     fit-margin-right="0"
     fit-margin-bottom="0"
     inkscape:window-width="961"
     inkscape:window-height="405"
     inkscape:window-x="-8"
     inkscape:window-y="563"
     inkscape:window-maximized="0" />
  <metadata
     id="metadata19748">
    <rdf:RDF>
      <cc:Work
         rdf:about="">
        <dc:format>image/svg+xml</dc:format>
        <dc:type
           rdf:resource="http://purl.org/dc/dcmitype/StillImage" />
        <dc:title></dc:title>
      </cc:Work>
    </rdf:RDF>
  </metadata>
  <g
     inkscape:label="Layer 1"
     inkscape:groupmode="layer"
     id="layer1"
     transform="translate(-466.56799,-429.86905)">
    <g
       id="g13306"
       transform="matrix(1.25,0,0,-1.25,458.39758,438.71659)">
      <g
         id="g12180"
         transform="translate(15.23933,-2.8049668)">
        <path
           d="m 0,0 c 0.652,0 1.18,0.527 1.18,1.18 l 0,7.521 C 1.18,9.354 0.652,9.883 0,9.883 l -7.521,0 c -0.653,0 -1.182,-0.529 -1.182,-1.182 l 0,-7.521 C -8.703,0.527 -8.174,0 -7.521,0 L 0,0 Z"
           style="fill:#373535;fill-opacity:1;fill-rule:nonzero;stroke:none"
           id="path12182"
           inkscape:connector-curvature="0" />
      </g>
      <g
         id="g12184"
         transform="translate(7.717829,6.877635)">
        <path
           d="m 0,0 c -0.541,0 -0.981,-0.44 -0.981,-0.981 l 0,-7.522 c 0,-0.54 0.44,-0.979 0.981,-0.979 l 7.521,0 c 0.541,0 0.98,0.439 0.98,0.979 l 0,7.522 C 8.501,-0.44 8.062,0 7.521,0 L 0,0 Z"
           style="fill:#ffffff;fill-opacity:1;fill-rule:nonzero;stroke:none"
           id="path12186"
           inkscape:connector-curvature="0" />
      </g>
      <g
         id="g12188"
         transform="translate(14.07133,4.5504345)">
        <path
           d="M 0,0 C -0.078,0.388 -0.326,0.543 -0.699,0.698 -1.072,0.854 -1.945,1.039 -2.596,1.039 -3.248,1.039 -4.121,0.854 -4.494,0.698 -4.867,0.543 -5.115,0.388 -5.193,0 l -0.28,-2.152 0,-2.965 0.483,0 0,-0.465 c 0,-0.566 0.83,-0.566 0.83,0 l 0,0.465 3.129,0 0,-0.465 c 0,-0.566 0.828,-0.566 0.828,0 l 0,0.465 0.482,0 0,2.965 L 0,0 Z m -3.897,0.564 2.601,0 c 0.256,0 0.256,-0.485 0,-0.485 l -2.601,0 c -0.256,0 -0.256,0.485 0,0.485 m -0.679,-4.791 c -0.24,0 -0.437,0.195 -0.437,0.438 0,0.241 0.197,0.437 0.437,0.437 0.242,0 0.438,-0.196 0.438,-0.437 0,-0.243 -0.196,-0.438 -0.438,-0.438 m 3.959,0 c -0.242,0 -0.439,0.195 -0.439,0.438 0,0.241 0.197,0.437 0.439,0.437 0.24,0 0.436,-0.196 0.436,-0.437 0,-0.243 -0.196,-0.438 -0.436,-0.438 m 0.172,1.848 -4.297,0 c -0.125,0 -0.229,0.104 -0.229,0.229 0,0.021 0.004,0.041 0.008,0.06 l 0.229,1.697 c 0.019,0.106 0.113,0.188 0.224,0.188 l 3.832,0 c 0.112,0 0.205,-0.082 0.225,-0.188 l 0.228,-1.697 c 0.004,-0.019 0.008,-0.039 0.008,-0.06 0,-0.125 -0.103,-0.229 -0.228,-0.229"
           style="fill:#373535;fill-opacity:1;fill-rule:nonzero;stroke:none"
           id="path12190"
           inkscape:connector-curvature="0" />
      </g>
    </g>
  </g>
</svg>
