<?xml version="1.0" encoding="UTF-8" standalone="no"?>
<!-- Created with Inkscape (http://www.inkscape.org/) -->

<svg
   xmlns:dc="http://purl.org/dc/elements/1.1/"
   xmlns:cc="http://creativecommons.org/ns#"
   xmlns:rdf="http://www.w3.org/1999/02/22-rdf-syntax-ns#"
   xmlns:svg="http://www.w3.org/2000/svg"
   xmlns="http://www.w3.org/2000/svg"
   xmlns:sodipodi="http://sodipodi.sourceforge.net/DTD/sodipodi-0.dtd"
   xmlns:inkscape="http://www.inkscape.org/namespaces/inkscape"
   width="3.4865029mm"
   height="3.4865029mm"
   viewBox="0 0 12.353751 12.353751"
   id="svg19743"
   version="1.1"
   inkscape:version="0.91 r13725"
   sodipodi:docname="CanoeW.svg">
  <defs
     id="defs19745" />
  <sodipodi:namedview
     id="base"
     pagecolor="#ffffff"
     bordercolor="#666666"
     borderopacity="1.0"
     inkscape:pageopacity="0.0"
     inkscape:pageshadow="2"
     inkscape:zoom="15.839192"
     inkscape:cx="20.713564"
     inkscape:cy="7.3345013"
     inkscape:document-units="px"
     inkscape:current-layer="g13306"
     showgrid="false"
     fit-margin-top="0"
     fit-margin-left="0"
     fit-margin-right="0"
     fit-margin-bottom="0"
     inkscape:window-width="961"
     inkscape:window-height="405"
     inkscape:window-x="-8"
     inkscape:window-y="563"
     inkscape:window-maximized="0" />
  <metadata
     id="metadata19748">
    <rdf:RDF>
      <cc:Work
         rdf:about="">
        <dc:format>image/svg+xml</dc:format>
        <dc:type
           rdf:resource="http://purl.org/dc/dcmitype/StillImage" />
        <dc:title></dc:title>
      </cc:Work>
    </rdf:RDF>
  </metadata>
  <g
     inkscape:label="Layer 1"
     inkscape:groupmode="layer"
     id="layer1"
     transform="translate(-454.35398,-432.17219)">
    <g
       id="g13306"
       transform="matrix(1.25,0,0,-1.25,458.39758,438.71659)">
      <g
         id="g12966"
         transform="translate(5.4671176,-4.6474782)">
        <path
           d="m 0,0 c 0.652,0 1.181,0.528 1.181,1.181 l 0,7.521 C 1.181,9.354 0.652,9.883 0,9.883 l -7.521,0 c -0.653,0 -1.181,-0.529 -1.181,-1.181 l 0,-7.521 C -8.702,0.528 -8.174,0 -7.521,0 L 0,0 Z"
           style="fill:#373535;fill-opacity:1;fill-rule:nonzero;stroke:none"
           id="path12968"
           inkscape:connector-curvature="0" />
      </g>
      <g
         id="g12970"
         transform="translate(-2.0543824,5.0356258)">
        <path
           d="m 0,0 c -0.54,0 -0.98,-0.44 -0.98,-0.981 l 0,-7.521 c 0,-0.541 0.44,-0.981 0.98,-0.981 l 7.521,0 c 0.541,0 0.981,0.44 0.981,0.981 l 0,7.521 C 8.502,-0.44 8.062,0 7.521,0 L 0,0 Z"
           style="fill:#ffffff;fill-opacity:1;fill-rule:nonzero;stroke:none"
           id="path12972"
           inkscape:connector-curvature="0" />
      </g>
      <g
         id="g12974"
         transform="translate(0.47881764,2.4599218)">
        <path
           d="M 0,0 C 0.423,0 0.764,0.343 0.764,0.765 0.764,1.187 0.423,1.528 0,1.528 -0.422,1.528 -0.764,1.187 -0.764,0.765 -0.764,0.343 -0.422,0 0,0"
           style="fill:#373535;fill-opacity:1;fill-rule:nonzero;stroke:none"
           id="path12976"
           inkscape:connector-curvature="0" />
      </g>
      <g
         id="g12978"
         transform="translate(-2.3394824,-1.7167822)">
        <path
           d="M 0,0 C 0.179,0 0.351,0.041 0.505,0.11 0.663,0.184 0.842,0.226 1.027,0.226 1.213,0.226 1.392,0.184 1.549,0.11 1.704,0.041 1.877,0.001 2.058,0.001 2.237,0.001 2.41,0.041 2.564,0.11 2.722,0.184 2.9,0.226 3.087,0.226 3.272,0.226 3.45,0.184 3.609,0.11 3.763,0.041 3.937,0.001 4.116,0.001 c 0.18,0 0.354,0.04 0.507,0.109 0.159,0.074 0.337,0.116 0.523,0.116 0.186,0 0.364,-0.042 0.522,-0.116 0.155,-0.069 0.328,-0.109 0.508,-0.109 0.18,0 0.352,0.04 0.508,0.109 0.157,0.074 0.336,0.116 0.521,0.116 0.159,0 0.314,-0.03 0.453,-0.084 0.227,0.248 0.367,0.578 0.367,0.939 0,0.77 -0.623,1.393 -1.391,1.393 L 6.478,2.457 C 6.307,1.763 5.612,1.733 5.612,1.733 L 2.435,1.734 2.169,1.891 2.81,2.966 3.511,2.56 C 3.931,2.288 4.149,2.67 4.149,2.67 L 4.853,3.816 C 5.158,4.314 4.51,4.714 4.206,4.214 L 3.714,3.41 2.544,4.057 C 1.733,4.51 1.39,3.761 1.39,3.761 L 0.471,2.186 C 0.314,1.859 0.454,1.719 0.454,1.719 L 0,1.72 0,0 Z"
           style="fill:#373535;fill-opacity:1;fill-rule:nonzero;stroke:none"
           id="path12980"
           inkscape:connector-curvature="0" />
      </g>
      <g
         id="g12982"
         transform="translate(5.8949176,-3.2363742)">
        <path
           d="M 0,0 C -0.18,0 -0.353,0.04 -0.506,0.109 -0.665,0.183 -0.843,0.226 -1.029,0.226 -1.215,0.226 -1.394,0.183 -1.551,0.109 -1.706,0.04 -1.878,0 -2.059,0 -2.238,0 -2.411,0.04 -2.566,0.109 -2.725,0.183 -2.902,0.226 -3.088,0.226 -3.275,0.226 -3.452,0.183 -3.611,0.109 -3.765,0.04 -3.938,0 -4.118,0 -4.298,0 -4.472,0.04 -4.625,0.109 -4.784,0.183 -4.962,0.226 -5.148,0.226 -5.334,0.226 -5.513,0.183 -5.67,0.109 -5.824,0.04 -5.997,0 -6.177,0 -6.357,0 -6.53,0.04 -6.686,0.109 -6.843,0.183 -7.021,0.226 -7.207,0.226 -7.393,0.226 -7.571,0.183 -7.729,0.109 -7.884,0.04 -8.057,0 -8.236,0 l 0,0.76 c 0.179,0 0.352,0.041 0.507,0.11 0.158,0.073 0.336,0.116 0.522,0.116 0.186,0 0.364,-0.043 0.521,-0.116 0.156,-0.069 0.329,-0.11 0.509,-0.11 0.18,0 0.353,0.041 0.507,0.11 0.157,0.073 0.336,0.116 0.522,0.116 0.186,0 0.364,-0.043 0.523,-0.116 0.153,-0.069 0.327,-0.11 0.507,-0.11 0.18,0 0.353,0.041 0.507,0.11 0.159,0.073 0.336,0.116 0.523,0.116 0.186,0 0.363,-0.043 0.522,-0.116 0.155,-0.069 0.328,-0.11 0.507,-0.11 0.181,0 0.353,0.041 0.508,0.11 0.157,0.073 0.336,0.116 0.522,0.116 0.186,0 0.364,-0.043 0.523,-0.116 C -0.353,0.801 -0.18,0.76 0,0.76 L 0,0 Z"
           style="fill:#373535;fill-opacity:1;fill-rule:nonzero;stroke:none"
           id="path12984"
           inkscape:connector-curvature="0" />
      </g>
    </g>
  </g>
</svg>
