<?xml version="1.0" encoding="UTF-8" standalone="no"?>
<!-- Created with Inkscape (http://www.inkscape.org/) -->

<svg
   xmlns:dc="http://purl.org/dc/elements/1.1/"
   xmlns:cc="http://creativecommons.org/ns#"
   xmlns:rdf="http://www.w3.org/1999/02/22-rdf-syntax-ns#"
   xmlns:svg="http://www.w3.org/2000/svg"
   xmlns="http://www.w3.org/2000/svg"
   xmlns:sodipodi="http://sodipodi.sourceforge.net/DTD/sodipodi-0.dtd"
   xmlns:inkscape="http://www.inkscape.org/namespaces/inkscape"
   width="3.4868553mm"
   height="3.4865026mm"
   viewBox="0 0 12.355 12.353751"
   id="svg19743"
   version="1.1"
   inkscape:version="0.91 r13725"
   sodipodi:docname="CampfireW.svg">
  <defs
     id="defs19745" />
  <sodipodi:namedview
     id="base"
     pagecolor="#ffffff"
     bordercolor="#666666"
     borderopacity="1.0"
     inkscape:pageopacity="0.0"
     inkscape:pageshadow="2"
     inkscape:zoom="15.839192"
     inkscape:cx="9.5200065"
     inkscape:cy="6.0518162"
     inkscape:document-units="px"
     inkscape:current-layer="g13306"
     showgrid="false"
     fit-margin-top="0"
     fit-margin-left="0"
     fit-margin-right="0"
     fit-margin-bottom="0"
     inkscape:window-width="961"
     inkscape:window-height="405"
     inkscape:window-x="-8"
     inkscape:window-y="563"
     inkscape:window-maximized="0" />
  <metadata
     id="metadata19748">
    <rdf:RDF>
      <cc:Work
         rdf:about="">
        <dc:format>image/svg+xml</dc:format>
        <dc:type
           rdf:resource="http://purl.org/dc/dcmitype/StillImage" />
        <dc:title></dc:title>
      </cc:Work>
    </rdf:RDF>
  </metadata>
  <g
     inkscape:label="Layer 1"
     inkscape:groupmode="layer"
     id="layer1"
     transform="translate(-465.54753,-430.88951)">
    <g
       id="g13306"
       transform="matrix(1.25,0,0,-1.25,458.39758,438.71659)">
      <g
         id="g12192"
         transform="translate(14.422964,-3.6213363)">
        <path
           d="m 0,0 c 0.652,0 1.181,0.527 1.181,1.18 l 0,7.521 C 1.181,9.354 0.652,9.883 0,9.883 l -7.521,0 c -0.653,0 -1.182,-0.529 -1.182,-1.182 l 0,-7.521 C -8.703,0.527 -8.174,0 -7.521,0 L 0,0 Z"
           style="fill:#373535;fill-opacity:1;fill-rule:nonzero;stroke:none"
           id="path12194"
           inkscape:connector-curvature="0" />
      </g>
      <g
         id="g12196"
         transform="translate(6.9014632,6.0612643)">
        <path
           d="m 0,0 c -0.542,0 -0.981,-0.44 -0.981,-0.981 l 0,-7.522 c 0,-0.54 0.439,-0.979 0.981,-0.979 l 7.521,0 c 0.541,0 0.981,0.439 0.981,0.979 l 0,7.522 C 8.502,-0.44 8.062,0 7.521,0 L 0,0 Z"
           style="fill:#ffffff;fill-opacity:1;fill-rule:nonzero;stroke:none"
           id="path12198"
           inkscape:connector-curvature="0" />
      </g>
      <g
         id="g12200"
         transform="translate(7.2530633,-0.67553606)">
        <path
           d="m 0,0 -0.725,0 0,-1.428 c 0,-0.437 0.393,-0.794 0.876,-0.794 l 6.347,0 c 0.484,0 0.877,0.357 0.877,0.794 l 0,1.428 -0.726,0 0,-1.276 c 0,-0.161 -0.143,-0.29 -0.32,-0.29 l -6.009,0 C 0.143,-1.566 0,-1.437 0,-1.276 L 0,0 Z"
           style="fill:#373535;fill-opacity:1;fill-rule:nonzero;stroke:none"
           id="path12202"
           inkscape:connector-curvature="0" />
      </g>
      <g
         id="g12204"
         transform="translate(13.017764,-1.6291282)">
        <path
           d="m 0,0 0,1.125 -4.886,1.631 0,-1.125 L 0,0 Z"
           style="fill:#373535;fill-opacity:1;fill-rule:nonzero;stroke:none"
           id="path12206"
           inkscape:connector-curvature="0" />
      </g>
      <g
         id="g12208"
         transform="translate(9.2589634,1.125664)">
        <path
           d="m 0,0 c -0.168,0.189 -1.285,1.481 -0.158,2.598 0.939,0.931 1.076,1.714 0.76,2.093 0,0 2.39,-0.982 0.984,-3.261 C 1.346,1.043 0.744,0.586 1.059,-0.355 L 0,0 Z"
           style="fill:#373535;fill-opacity:1;fill-rule:nonzero;stroke:none"
           id="path12210"
           inkscape:connector-curvature="0" />
      </g>
      <g
         id="g12212"
         transform="translate(10.726663,0.81616804)">
        <path
           d="m 0,0 c -0.051,0.191 -0.28,0.607 0.419,1.436 0.374,0.441 0.515,1.095 0.548,1.341 0,0 1.238,-0.71 0.007,-2.446 L 0,0 Z"
           style="fill:#373535;fill-opacity:1;fill-rule:nonzero;stroke:none"
           id="path12214"
           inkscape:connector-curvature="0" />
      </g>
      <g
         id="g12216"
         transform="translate(10.990363,0.55007204)">
        <path
           d="m 0,0 2.027,0.677 0,-1.125 L 1.684,-0.561 0,0 Z"
           style="fill:#373535;fill-opacity:1;fill-rule:nonzero;stroke:none"
           id="path12218"
           inkscape:connector-curvature="0" />
      </g>
      <g
         id="g12220"
         transform="translate(10.160263,-1.0535281)">
        <path
           d="m 0,0 -2.028,-0.676 0,1.125 0.344,0.113 L 0,0 Z"
           style="fill:#373535;fill-opacity:1;fill-rule:nonzero;stroke:none"
           id="path12222"
           inkscape:connector-curvature="0" />
      </g>
    </g>
  </g>
</svg>
