<?xml version="1.0" encoding="UTF-8" standalone="no"?>
<!-- Created with Inkscape (http://www.inkscape.org/) -->

<svg
   xmlns:dc="http://purl.org/dc/elements/1.1/"
   xmlns:cc="http://creativecommons.org/ns#"
   xmlns:rdf="http://www.w3.org/1999/02/22-rdf-syntax-ns#"
   xmlns:svg="http://www.w3.org/2000/svg"
   xmlns="http://www.w3.org/2000/svg"
   xmlns:sodipodi="http://sodipodi.sourceforge.net/DTD/sodipodi-0.dtd"
   xmlns:inkscape="http://www.inkscape.org/namespaces/inkscape"
   width="3.4868555mm"
   height="3.4865029mm"
   viewBox="0 0 12.355 12.35375"
   id="svg19743"
   version="1.1"
   inkscape:version="0.91 r13725"
   sodipodi:docname="DisposalW.svg">
  <defs
     id="defs19745" />
  <sodipodi:namedview
     id="base"
     pagecolor="#ffffff"
     bordercolor="#666666"
     borderopacity="1.0"
     inkscape:pageopacity="0.0"
     inkscape:pageshadow="2"
     inkscape:zoom="15.839192"
     inkscape:cx="15.360864"
     inkscape:cy="3.1453109"
     inkscape:document-units="px"
     inkscape:current-layer="g13306"
     showgrid="false"
     fit-margin-top="0"
     fit-margin-left="0"
     fit-margin-right="0"
     fit-margin-bottom="0"
     inkscape:window-width="961"
     inkscape:window-height="405"
     inkscape:window-x="-8"
     inkscape:window-y="563"
     inkscape:window-maximized="0" />
  <metadata
     id="metadata19748">
    <rdf:RDF>
      <cc:Work
         rdf:about="">
        <dc:format>image/svg+xml</dc:format>
        <dc:type
           rdf:resource="http://purl.org/dc/dcmitype/StillImage" />
        <dc:title></dc:title>
      </cc:Work>
    </rdf:RDF>
  </metadata>
  <g
     inkscape:label="Layer 1"
     inkscape:groupmode="layer"
     id="layer1"
     transform="translate(-444.40164,-427.98298)">
    <g
       id="g13306"
       transform="matrix(1.25,0,0,-1.25,458.39758,438.71659)">
      <g
         id="g12736"
         transform="translate(-2.4937489,-1.2961157)">
        <path
           d="m 0,0 c 0.652,0 1.181,0.527 1.181,1.18 l 0,7.521 C 1.181,9.354 0.652,9.883 0,9.883 l -7.521,0 c -0.653,0 -1.182,-0.529 -1.182,-1.182 l 0,-7.521 C -8.703,0.527 -8.174,0 -7.521,0 L 0,0 Z"
           style="fill:#373535;fill-opacity:1;fill-rule:nonzero;stroke:none"
           id="path12738"
           inkscape:connector-curvature="0" />
      </g>
      <g
         id="g12740"
         transform="translate(-10.015249,8.3874843)">
        <path
           d="m 0,0 c -0.541,0 -0.981,-0.441 -0.981,-0.982 l 0,-7.522 c 0,-0.539 0.44,-0.978 0.981,-0.978 l 7.521,0 c 0.541,0 0.981,0.439 0.981,0.978 l 0,7.522 C 8.502,-0.441 8.062,0 7.521,0 L 0,0 Z"
           style="fill:#ffffff;fill-opacity:1;fill-rule:nonzero;stroke:none"
           id="path12742"
           inkscape:connector-curvature="0" />
      </g>
      <g
         id="g12744"
         transform="translate(-7.1646489,3.4987883)">
        <path
           d="m 0,0 -1.374,0 c -0.511,0 -0.925,0.414 -0.925,0.926 l -0.002,1.615 c 0,0.693 0.562,1.256 1.255,1.256 l 4.269,0 c 0.693,0 1.255,-0.563 1.255,-1.256 L 4.48,0.26 l 0.475,0 C 5.097,0.26 5.211,0.145 5.211,0 L 2.175,0 C 2.142,0.52 1.615,0.932 1.087,0.932 0.56,0.932 0.033,0.52 0,0 m 3.447,2.055 c 0.144,0 0.26,0.117 0.26,0.261 l 0,0.428 c 0,0.145 -0.116,0.26 -0.26,0.26 l -0.9,0 c -0.143,0 -0.258,-0.115 -0.258,-0.26 l 0,-0.428 c 0,-0.144 0.115,-0.261 0.258,-0.261 l 0.9,0 z M 0.873,2.053 c 0.144,0 0.259,0.117 0.259,0.262 l 0,0.429 c 0,0.145 -0.115,0.26 -0.259,0.26 l -1.95,0 c -0.144,0 -0.259,-0.115 -0.259,-0.26 l 0,-0.429 c 0,-0.145 0.115,-0.262 0.259,-0.262 l 1.95,0 z"
           style="fill:#373535;fill-opacity:1;fill-rule:nonzero;stroke:none"
           id="path12746"
           inkscape:connector-curvature="0" />
      </g>
      <g
         id="g12748"
         transform="translate(-1.9488489,2.6296923)">
        <path
           d="m 0,0 -0.003,-2.504 c 0,-0.182 -0.148,-0.332 -0.332,-0.332 l -7.919,0 c -0.184,0 -0.332,0.15 -0.332,0.332 l 10e-4,2.498 1.746,0 0,-0.422 -1.181,-0.002 c -0.059,0 -0.108,-0.043 -0.118,-0.099 l 0,-1.662 c 0,-0.127 0.102,-0.227 0.227,-0.227 l 3.487,0 c 0.125,0 0.222,0.1 0.222,0.227 l 0.001,1.642 c 0,0.067 -0.054,0.119 -0.12,0.119 l -1.317,0.002 0,0.428 1.379,0 c -0.321,0.07 -0.563,0.356 -0.563,0.697 0,0.395 0.32,0.715 0.715,0.715 0.395,0 0.714,-0.32 0.714,-0.715 C -3.393,0.356 -3.633,0.07 -3.955,0 L 0,0 Z m -4.107,0.389 c 0.171,0 0.31,0.138 0.31,0.308 0,0.172 -0.139,0.311 -0.31,0.311 -0.171,0 -0.31,-0.139 -0.31,-0.311 0,-0.17 0.139,-0.308 0.31,-0.308"
           style="fill:#373535;fill-opacity:1;fill-rule:nonzero;stroke:none"
           id="path12750"
           inkscape:connector-curvature="0" />
      </g>
      <g
         id="g12752"
         transform="translate(-8.3385489,3.1140843)">
        <path
           d="m 0,0 0.3,0 0,-1.615 0.345,0 c 0,0 0.111,-0.024 0.075,-0.145 L 0.248,-2.336 c 0,0 -0.032,-0.049 -0.092,-0.049 -0.058,0 -0.091,0.049 -0.091,0.049 l -0.484,0.576 c -0.037,0.121 0.075,0.145 0.075,0.145 L 0,-1.615 0,0 Z"
           style="fill:#373535;fill-opacity:1;fill-rule:nonzero;stroke:none"
           id="path12754"
           inkscape:connector-curvature="0" />
      </g>
    </g>
  </g>
</svg>
