<?xml version="1.0" encoding="UTF-8" standalone="no"?>
<!-- Created with Inkscape (http://www.inkscape.org/) -->

<svg
   xmlns:dc="http://purl.org/dc/elements/1.1/"
   xmlns:cc="http://creativecommons.org/ns#"
   xmlns:rdf="http://www.w3.org/1999/02/22-rdf-syntax-ns#"
   xmlns:svg="http://www.w3.org/2000/svg"
   xmlns="http://www.w3.org/2000/svg"
   xmlns:sodipodi="http://sodipodi.sourceforge.net/DTD/sodipodi-0.dtd"
   xmlns:inkscape="http://www.inkscape.org/namespaces/inkscape"
   width="3.4872081mm"
   height="3.4872081mm"
   viewBox="0 0 12.35625 12.356249"
   id="svg19743"
   version="1.1"
   inkscape:version="0.91 r13725"
   sodipodi:docname="GasW.svg">
  <defs
     id="defs19745" />
  <sodipodi:namedview
     id="base"
     pagecolor="#ffffff"
     bordercolor="#666666"
     borderopacity="1.0"
     inkscape:pageopacity="0.0"
     inkscape:pageshadow="2"
     inkscape:zoom="15.839192"
     inkscape:cx="12.333513"
     inkscape:cy="4.0039634"
     inkscape:document-units="px"
     inkscape:current-layer="g13306"
     showgrid="false"
     fit-margin-top="0"
     fit-margin-left="0"
     fit-margin-right="0"
     fit-margin-bottom="0"
     inkscape:window-width="961"
     inkscape:window-height="405"
     inkscape:window-x="-8"
     inkscape:window-y="563"
     inkscape:window-maximized="0" />
  <metadata
     id="metadata19748">
    <rdf:RDF>
      <cc:Work
         rdf:about="">
        <dc:format>image/svg+xml</dc:format>
        <dc:type
           rdf:resource="http://purl.org/dc/dcmitype/StillImage" />
        <dc:title></dc:title>
      </cc:Work>
    </rdf:RDF>
  </metadata>
  <g
     inkscape:label="Layer 1"
     inkscape:groupmode="layer"
     id="layer1"
     transform="translate(-462.73402,-428.83915)">
    <g
       id="g13306"
       transform="matrix(1.25,0,0,-1.25,458.39758,438.71659)">
      <g
         id="g13444"
         transform="translate(12.17215,7.9019513)">
        <path
           d="m 0,0 -7.521,0 c -0.653,0 -1.182,-0.529 -1.182,-1.182 l 0,-7.521 c 0,-0.652 0.529,-1.182 1.182,-1.182 l 7.521,0 c 0.652,0 1.182,0.53 1.182,1.182 l 0,7.521 C 1.182,-0.529 0.652,0 0,0 m -1.477,-8.623 c -0.414,0 -0.776,0.34 -0.776,0.728 l 0,2.892 c 0,0.132 -0.107,0.239 -0.239,0.239 l -0.575,0 -0.003,-3.839 -3.046,0.05 0,6.573 c 0,0.343 0.28,0.622 0.624,0.622 l 1.798,0 c 0.343,0 0.624,-0.279 0.624,-0.622 l 0,-0.075 c 0,-0.403 -0.002,-2.299 -0.045,-2.301 l 0.616,0 c 0.353,0 0.639,-0.287 0.639,-0.639 l -0.004,-2.9 c 0,-0.191 0.208,-0.339 0.387,-0.339 0.194,0 0.44,0.16 0.428,0.429 l -0.306,1.655 -0.069,0.56 0.049,1.635 -0.137,0.002 c -0.304,0 -0.551,0.246 -0.551,0.55 l 0.014,0.856 c 0,0 -0.507,0.503 -0.507,0.573 0,0 0.196,0.195 0.266,0.195 l 1.021,-1.017 c 0.161,-0.161 0.238,-0.353 0.238,-0.589 l 0,-2.205 c 0,0 0.063,-0.477 0.063,-0.481 0,0 0.313,-1.727 0.32,-1.824 0,-0.417 -0.438,-0.728 -0.829,-0.728"
           style="fill:#373535;fill-opacity:1;fill-rule:nonzero;stroke:none"
           id="path13446"
           inkscape:connector-curvature="0" />
      </g>
      <g
         id="g13448"
         transform="translate(4.6506493,7.7017513)">
        <path
           d="m 0,0 c -0.542,0 -0.981,-0.44 -0.981,-0.981 l 0,-7.522 c 0,-0.541 0.439,-0.981 0.981,-0.981 l 7.521,0 c 0.542,0 0.982,0.44 0.982,0.981 l 0,7.522 C 8.503,-0.44 8.063,0 7.521,0 L 0,0 Z"
           style="fill:#ffffff;fill-opacity:1;fill-rule:nonzero;stroke:none"
           id="path13450"
           inkscape:connector-curvature="0" />
      </g>
      <g
         id="g13452"
         transform="translate(11.204449,1.8306469)">
        <path
           d="m 0,0 c 0,0.004 -0.064,0.481 -0.064,0.481 l 0,2.206 c 0,0.235 -0.077,0.428 -0.237,0.588 l -1.021,1.017 c -0.071,0 -0.266,-0.194 -0.266,-0.194 0,-0.071 0.507,-0.574 0.507,-0.574 L -1.096,2.668 c 0,-0.303 0.247,-0.55 0.552,-0.55 l 0.137,-0.002 -0.049,-1.635 0.068,-0.56 0.307,-1.655 c 0.012,-0.269 -0.235,-0.429 -0.428,-0.429 -0.18,0 -0.387,0.148 -0.387,0.34 l 0.003,2.899 c 0,0.353 -0.286,0.639 -0.638,0.639 l -0.617,0 c 0.043,0.002 0.045,1.899 0.045,2.302 l 0,0.074 c 0,0.343 -0.28,0.622 -0.624,0.622 l -1.798,0 c -0.343,0 -0.624,-0.279 -0.624,-0.622 l 0,-6.573 3.046,-0.049 0.003,3.839 0.575,0 c 0.132,0 0.24,-0.108 0.24,-0.24 l 0,-2.891 c 0,-0.388 0.362,-0.729 0.776,-0.729 0.391,0 0.828,0.312 0.828,0.729 C 0.312,-1.727 0,0 0,0 m -0.458,2.381 c -0.228,0.05 -0.311,0.166 -0.311,0.274 l 0,0.392 c 0,0 0.152,-0.034 0.188,-0.043 0.074,-0.02 0.121,-0.133 0.123,-0.232 0.002,-0.098 0,-0.391 0,-0.391 m -2.097,0.193 c 0,-0.095 -0.075,-0.17 -0.172,-0.17 l -1.798,0 c -0.096,0 -0.171,0.075 -0.171,0.17 l 0,1.517 c 0,0.095 0.075,0.17 0.171,0.17 l 1.798,0 c 0.097,0 0.172,-0.075 0.172,-0.17 l 0,-1.517 z"
           style="fill:#373535;fill-opacity:1;fill-rule:nonzero;stroke:none"
           id="path13454"
           inkscape:connector-curvature="0" />
      </g>
    </g>
  </g>
</svg>
