<?xml version="1.0" encoding="UTF-8" standalone="no"?>
<!-- Created with Inkscape (http://www.inkscape.org/) -->

<svg
   xmlns:dc="http://purl.org/dc/elements/1.1/"
   xmlns:cc="http://creativecommons.org/ns#"
   xmlns:rdf="http://www.w3.org/1999/02/22-rdf-syntax-ns#"
   xmlns:svg="http://www.w3.org/2000/svg"
   xmlns="http://www.w3.org/2000/svg"
   xmlns:sodipodi="http://sodipodi.sourceforge.net/DTD/sodipodi-0.dtd"
   xmlns:inkscape="http://www.inkscape.org/namespaces/inkscape"
   width="3.4946165mm"
   height="3.4946165mm"
   viewBox="0 0 12.3825 12.382499"
   id="svg19743"
   version="1.1"
   inkscape:version="0.91 r13725"
   sodipodi:docname="HospitalW.svg">
  <defs
     id="defs19745" />
  <sodipodi:namedview
     id="base"
     pagecolor="#ffffff"
     bordercolor="#666666"
     borderopacity="1.0"
     inkscape:pageopacity="0.0"
     inkscape:pageshadow="2"
     inkscape:zoom="15.839192"
     inkscape:cx="11.790606"
     inkscape:cy="3.7129695"
     inkscape:document-units="px"
     inkscape:current-layer="g13306"
     showgrid="false"
     fit-margin-top="0"
     fit-margin-left="0"
     fit-margin-right="0"
     fit-margin-bottom="0"
     inkscape:window-width="961"
     inkscape:window-height="405"
     inkscape:window-x="-8"
     inkscape:window-y="563"
     inkscape:window-maximized="0" />
  <metadata
     id="metadata19748">
    <rdf:RDF>
      <cc:Work
         rdf:about="">
        <dc:format>image/svg+xml</dc:format>
        <dc:type
           rdf:resource="http://purl.org/dc/dcmitype/StillImage" />
        <dc:title></dc:title>
      </cc:Work>
    </rdf:RDF>
  </metadata>
  <g
     inkscape:label="Layer 1"
     inkscape:groupmode="layer"
     id="layer1"
     transform="translate(-463.27692,-428.52191)">
    <g
       id="g13306"
       transform="matrix(1.25,0,0,-1.25,458.39758,438.71659)">
      <g
         id="g12474"
         transform="translate(5.0844679,7.9357436)">
        <path
           d="m 0,0 c -0.541,0 -0.98,-0.44 -0.98,-0.98 l 0,-7.522 c 0,-0.542 0.439,-0.982 0.98,-0.982 l 7.521,0 c 0.541,0 0.981,0.44 0.981,0.982 l 0,7.522 C 8.502,-0.44 8.062,0 7.521,0 L 0,0 Z"
           style="fill:#ffffff;fill-opacity:1;fill-rule:nonzero;stroke:none"
           id="path12476"
           inkscape:connector-curvature="0" />
      </g>
      <g
         id="g12478"
         transform="translate(12.625468,-1.7502569)">
        <path
           d="m 0,0 c 0.653,0 1.184,0.529 1.184,1.184 l 0,7.539 C 1.184,9.375 0.653,9.906 0,9.906 l -7.538,0 c -0.654,0 -1.184,-0.531 -1.184,-1.183 l 0,-7.539 C -8.722,0.529 -8.192,0 -7.538,0 L 0,0 Z"
           style="fill:#008dd1;fill-opacity:1;fill-rule:nonzero;stroke:none"
           id="path12480"
           inkscape:connector-curvature="0" />
      </g>
      <g
         id="g12482"
         transform="translate(5.0873679,7.9558397)">
        <path
           d="m 0,0 c -0.542,0 -0.983,-0.441 -0.983,-0.983 l 0,-7.539 c 0,-0.543 0.441,-0.984 0.983,-0.984 l 7.538,0 c 0.543,0 0.983,0.441 0.983,0.984 l 0,7.539 C 8.521,-0.441 8.081,0 7.538,0 L 0,0 Z"
           style="fill:#ffffff;fill-opacity:1;fill-rule:nonzero;stroke:none"
           id="path12484"
           inkscape:connector-curvature="0" />
      </g>
      <g
         id="g12486"
         transform="translate(10.191868,6.2868396)">
        <path
           d="m 0,0 0,-2.1 -2.653,0 0,2.1 -1.328,0 0,-6.17 1.328,0 0,2.744 2.653,0 0,-2.744 1.329,0 0,6.17 L 0,0 Z"
           style="fill:#008dd1;fill-opacity:1;fill-rule:nonzero;stroke:none"
           id="path12488"
           inkscape:connector-curvature="0" />
      </g>
    </g>
  </g>
</svg>
