<?xml version="1.0" encoding="UTF-8" standalone="no"?>
<!-- Created with Inkscape (http://www.inkscape.org/) -->

<svg
   xmlns:dc="http://purl.org/dc/elements/1.1/"
   xmlns:cc="http://creativecommons.org/ns#"
   xmlns:rdf="http://www.w3.org/1999/02/22-rdf-syntax-ns#"
   xmlns:svg="http://www.w3.org/2000/svg"
   xmlns="http://www.w3.org/2000/svg"
   xmlns:sodipodi="http://sodipodi.sourceforge.net/DTD/sodipodi-0.dtd"
   xmlns:inkscape="http://www.inkscape.org/namespaces/inkscape"
   width="3.4865029mm"
   height="3.4868555mm"
   viewBox="0 0 12.353751 12.354999"
   id="svg19743"
   version="1.1"
   inkscape:version="0.91 r13725"
   sodipodi:docname="IceSkatingW.svg">
  <defs
     id="defs19745" />
  <sodipodi:namedview
     id="base"
     pagecolor="#ffffff"
     bordercolor="#666666"
     borderopacity="1.0"
     inkscape:pageopacity="0.0"
     inkscape:pageshadow="2"
     inkscape:zoom="15.839192"
     inkscape:cx="21.25672"
     inkscape:cy="2.509348"
     inkscape:document-units="px"
     inkscape:current-layer="g13306"
     showgrid="false"
     fit-margin-top="0"
     fit-margin-left="0"
     fit-margin-right="0"
     fit-margin-bottom="0"
     inkscape:window-width="961"
     inkscape:window-height="405"
     inkscape:window-x="-8"
     inkscape:window-y="563"
     inkscape:window-maximized="0" />
  <metadata
     id="metadata19748">
    <rdf:RDF>
      <cc:Work
         rdf:about="">
        <dc:format>image/svg+xml</dc:format>
        <dc:type
           rdf:resource="http://purl.org/dc/dcmitype/StillImage" />
        <dc:title></dc:title>
      </cc:Work>
    </rdf:RDF>
  </metadata>
  <g
     inkscape:label="Layer 1"
     inkscape:groupmode="layer"
     id="layer1"
     transform="translate(-453.8108,-427.34579)">
    <g
       id="g13306"
       transform="matrix(1.25,0,0,-1.25,458.39758,438.71659)">
      <g
         id="g13082"
         transform="translate(5.0325794,-0.78735712)">
        <path
           d="m 0,0 c 0.652,0 1.181,0.529 1.181,1.182 l 0,7.522 c 0,0.652 -0.529,1.18 -1.181,1.18 l -7.521,0 c -0.653,0 -1.181,-0.528 -1.181,-1.18 l 0,-7.522 C -8.702,0.529 -8.174,0 -7.521,0 L 0,0 Z"
           style="fill:#373535;fill-opacity:1;fill-rule:nonzero;stroke:none"
           id="path13084"
           inkscape:connector-curvature="0" />
      </g>
      <g
         id="g13086"
         transform="translate(-2.4889206,8.8967469)">
        <path
           d="m 0,0 c -0.54,0 -0.98,-0.44 -0.98,-0.98 l 0,-7.523 c 0,-0.541 0.44,-0.981 0.98,-0.981 l 7.521,0 c 0.541,0 0.981,0.44 0.981,0.981 l 0,7.523 C 8.502,-0.44 8.062,0 7.521,0 L 0,0 Z"
           style="fill:#ffffff;fill-opacity:1;fill-rule:nonzero;stroke:none"
           id="path13088"
           inkscape:connector-curvature="0" />
      </g>
      <g
         id="g13090"
         transform="translate(3.8997794,6.5593469)">
        <path
           d="M 0,0 C 0.384,0 0.695,0.312 0.695,0.694 0.695,1.078 0.384,1.389 0,1.389 -0.384,1.389 -0.694,1.078 -0.694,0.694 -0.694,0.312 -0.384,0 0,0"
           style="fill:#373535;fill-opacity:1;fill-rule:nonzero;stroke:none"
           id="path13092"
           inkscape:connector-curvature="0" />
      </g>
      <g
         id="g13094"
         transform="translate(1.9280794,0.63744288)">
        <path
           d="m 0,0 1.793,0 c 0,0 0.136,-0.014 0.136,0.128 l 0,0.141 0.264,0 c 0,0 0.061,-0.485 -0.3,-0.531 L 0,-0.262 0,0 Z"
           style="fill:#373535;fill-opacity:1;fill-rule:nonzero;stroke:none"
           id="path13096"
           inkscape:connector-curvature="0" />
      </g>
      <g
         id="g13098"
         transform="translate(-2.5455206,2.0241469)">
        <path
           d="m 0,0 1.269,-1.268 c 0,0 0.085,-0.104 0.185,-0.004 l 0.101,0.1 0.186,-0.187 c 0,0 -0.301,-0.387 -0.589,-0.164 L -0.185,-0.186 0,0 Z"
           style="fill:#373535;fill-opacity:1;fill-rule:nonzero;stroke:none"
           id="path13100"
           inkscape:connector-curvature="0" />
      </g>
      <g
         id="g13102"
         transform="translate(2.3499794,2.4655469)">
        <path
           d="m 0,0 0.002,-1.257 c 0,-0.236 0.191,-0.428 0.429,-0.428 0.215,0 0.426,0.25 0.426,0.428 l 0,1.749 c 0,0.122 -0.05,0.233 -0.132,0.311 L -0.302,1.826 1.06,3.188 C 1.315,3.507 1.181,3.89 1.181,3.89 1.039,4.314 0.558,4.329 0.558,4.329 L -2.951,4.33 c -0.187,0 -0.339,-0.151 -0.339,-0.339 0,-0.188 0.152,-0.339 0.339,-0.339 L -0.528,3.648 -1.549,2.633 c -0.145,-0.15 -0.219,-0.318 -0.219,-0.537 0,-0.211 0.083,-0.4 0.223,-0.537 L 0,0 Z"
           style="fill:#373535;fill-opacity:1;fill-rule:nonzero;stroke:none"
           id="path13104"
           inkscape:connector-curvature="0" />
      </g>
      <g
         id="g13106"
         transform="translate(0.58827935,3.8327469)">
        <path
           d="m 0,0 c -0.032,0.031 -0.061,0.065 -0.089,0.102 l -2.024,-2.029 c -0.154,-0.123 -0.203,-0.34 -0.112,-0.52 0.106,-0.207 0.361,-0.289 0.568,-0.183 0.028,0.015 0.053,0.032 0.078,0.052 L 0.499,-0.497 0,0 Z"
           style="fill:#373535;fill-opacity:1;fill-rule:nonzero;stroke:none"
           id="path13108"
           inkscape:connector-curvature="0" />
      </g>
    </g>
  </g>
</svg>
