<?xml version="1.0" encoding="UTF-8" standalone="no"?>
<!-- Created with Inkscape (http://www.inkscape.org/) -->

<svg
   xmlns:dc="http://purl.org/dc/elements/1.1/"
   xmlns:cc="http://creativecommons.org/ns#"
   xmlns:rdf="http://www.w3.org/1999/02/22-rdf-syntax-ns#"
   xmlns:svg="http://www.w3.org/2000/svg"
   xmlns="http://www.w3.org/2000/svg"
   xmlns:sodipodi="http://sodipodi.sourceforge.net/DTD/sodipodi-0.dtd"
   xmlns:inkscape="http://www.inkscape.org/namespaces/inkscape"
   width="3.486855mm"
   height="3.4865022mm"
   viewBox="0 0 12.354999 12.35375"
   id="svg19743"
   version="1.1"
   inkscape:version="0.91 r13725"
   sodipodi:docname="BoatRampW.svg">
  <defs
     id="defs19745" />
  <sodipodi:namedview
     id="base"
     pagecolor="#ffffff"
     bordercolor="#666666"
     borderopacity="1.0"
     inkscape:pageopacity="0.0"
     inkscape:pageshadow="2"
     inkscape:zoom="15.839192"
     inkscape:cx="24.316008"
     inkscape:cy="2.031852"
     inkscape:document-units="px"
     inkscape:current-layer="g13306"
     showgrid="false"
     fit-margin-top="0"
     fit-margin-left="0"
     fit-margin-right="0"
     fit-margin-bottom="0"
     inkscape:window-width="961"
     inkscape:window-height="405"
     inkscape:window-x="-8"
     inkscape:window-y="563"
     inkscape:window-maximized="0" />
  <metadata
     id="metadata19748">
    <rdf:RDF>
      <cc:Work
         rdf:about="">
        <dc:format>image/svg+xml</dc:format>
        <dc:type
           rdf:resource="http://purl.org/dc/dcmitype/StillImage" />
        <dc:title></dc:title>
      </cc:Work>
    </rdf:RDF>
  </metadata>
  <g
     inkscape:label="Layer 1"
     inkscape:groupmode="layer"
     id="layer1"
     transform="translate(-450.75152,-426.86954)">
    <g
       id="g13306"
       transform="matrix(1.25,0,0,-1.25,458.39758,438.71659)">
      <g
         id="g12670"
         transform="translate(2.5861502,-0.40536207)">
        <path
           d="m 0,0 c 0.652,0 1.181,0.528 1.181,1.181 l 0,7.521 C 1.181,9.354 0.652,9.883 0,9.883 l -7.521,0 c -0.653,0 -1.182,-0.529 -1.182,-1.181 l 0,-7.521 C -8.703,0.528 -8.174,0 -7.521,0 L 0,0 Z"
           style="fill:#373535;fill-opacity:1;fill-rule:nonzero;stroke:none"
           id="path12672"
           inkscape:connector-curvature="0" />
      </g>
      <g
         id="g12674"
         transform="translate(-4.9353512,9.2777357)">
        <path
           d="m 0,0 c -0.542,0 -0.981,-0.44 -0.981,-0.981 l 0,-7.522 c 0,-0.54 0.439,-0.98 0.981,-0.98 l 7.521,0 c 0.541,0 0.981,0.44 0.981,0.98 l 0,7.522 C 8.502,-0.44 8.062,0 7.521,0 L 0,0 Z"
           style="fill:#ffffff;fill-opacity:1;fill-rule:nonzero;stroke:none"
           id="path12676"
           inkscape:connector-curvature="0" />
      </g>
      <g
         id="g12678"
         transform="translate(-3.947051,7.4885353)">
        <path
           d="M 0,0 1.664,-0.453 2.588,0.187 2.909,0.11 1.994,-0.532 7.037,-1.915 6.668,-3.269 1.607,-1.89 C -0.355,-1.307 0.003,0.001 0.003,0.001"
           style="fill:#373535;fill-opacity:1;fill-rule:nonzero;stroke:none"
           id="path12680"
           inkscape:connector-curvature="0" />
      </g>
      <g
         id="g12682"
         transform="translate(0.42694977,4.0257347)">
        <path
           d="M 0,0 C -0.006,0.113 -0.027,0.221 -0.064,0.323 L 2.218,-0.312 2.145,-0.593 0,0 Z"
           style="fill:#373535;fill-opacity:1;fill-rule:nonzero;stroke:none"
           id="path12684"
           inkscape:connector-curvature="0" />
      </g>
      <g
         id="g12686"
         transform="translate(-1.6452506,4.5980388)">
        <path
           d="m 0,0 c 0.061,0.09 0.135,0.171 0.218,0.24 l -3.807,1.051 0,-0.302 L 0,0 Z"
           style="fill:#373535;fill-opacity:1;fill-rule:nonzero;stroke:none"
           id="path12688"
           inkscape:connector-curvature="0" />
      </g>
      <g
         id="g12690"
         transform="translate(3.0119503,1.3236382)">
        <path
           d="M 0,0 C -0.181,0 -0.352,0.041 -0.506,0.11 -0.665,0.184 -0.843,0.226 -1.029,0.226 -1.215,0.226 -1.393,0.184 -1.551,0.11 -1.706,0.041 -1.878,0 -2.059,0 -2.239,0 -2.411,0.041 -2.566,0.11 -2.725,0.184 -2.902,0.226 -3.088,0.226 -3.274,0.226 -3.452,0.184 -3.611,0.11 -3.765,0.041 -3.939,0 -4.118,0 -4.298,0 -4.471,0.041 -4.625,0.11 -4.784,0.184 -4.963,0.226 -5.148,0.226 -5.334,0.226 -5.513,0.184 -5.67,0.11 -5.824,0.041 -5.998,0 -6.178,0 -6.357,0 -6.53,0.041 -6.686,0.11 -6.843,0.184 -7.021,0.226 -7.207,0.226 -7.393,0.226 -7.571,0.184 -7.73,0.11 -7.884,0.041 -8.058,0 -8.236,0 l -0.012,3.022 4.163,-1.147 c -0.287,0.139 -0.486,0.43 -0.486,0.768 0,0.473 0.382,0.856 0.855,0.856 0.472,0 0.856,-0.383 0.856,-0.856 0,-0.471 -0.384,-0.855 -0.856,-0.855 -0.028,0 -0.057,0.006 -0.084,0.009 L -0.006,0.751 0,0 Z m -3.716,2.273 c 0.205,0 0.371,0.165 0.371,0.37 0,0.206 -0.166,0.372 -0.371,0.372 -0.205,0 -0.371,-0.166 -0.371,-0.372 0,-0.205 0.166,-0.37 0.371,-0.37"
           style="fill:#373535;fill-opacity:1;fill-rule:nonzero;stroke:none"
           id="path12692"
           inkscape:connector-curvature="0" />
      </g>
    </g>
  </g>
</svg>
