<?xml version="1.0" encoding="UTF-8" standalone="no"?>
<!-- Created with Inkscape (http://www.inkscape.org/) -->

<svg
   xmlns:dc="http://purl.org/dc/elements/1.1/"
   xmlns:cc="http://creativecommons.org/ns#"
   xmlns:rdf="http://www.w3.org/1999/02/22-rdf-syntax-ns#"
   xmlns:svg="http://www.w3.org/2000/svg"
   xmlns="http://www.w3.org/2000/svg"
   xmlns:sodipodi="http://sodipodi.sourceforge.net/DTD/sodipodi-0.dtd"
   xmlns:inkscape="http://www.inkscape.org/namespaces/inkscape"
   width="3.4865026mm"
   height="3.4865026mm"
   viewBox="0 0 12.35375 12.353749"
   id="svg19743"
   version="1.1"
   inkscape:version="0.91 r13725"
   sodipodi:docname="OffRoadW.svg">
  <defs
     id="defs19745" />
  <sodipodi:namedview
     id="base"
     pagecolor="#ffffff"
     bordercolor="#666666"
     borderopacity="1.0"
     inkscape:pageopacity="0.0"
     inkscape:pageshadow="2"
     inkscape:zoom="15.839192"
     inkscape:cx="-1.9452011"
     inkscape:cy="4.2461918"
     inkscape:document-units="px"
     inkscape:current-layer="g13306"
     showgrid="false"
     fit-margin-top="0"
     fit-margin-left="0"
     fit-margin-right="0"
     fit-margin-bottom="0"
     inkscape:window-width="961"
     inkscape:window-height="405"
     inkscape:window-x="-8"
     inkscape:window-y="563"
     inkscape:window-maximized="0" />
  <metadata
     id="metadata19748">
    <rdf:RDF>
      <cc:Work
         rdf:about="">
        <dc:format>image/svg+xml</dc:format>
        <dc:type
           rdf:resource="http://purl.org/dc/dcmitype/StillImage" />
        <dc:title></dc:title>
      </cc:Work>
    </rdf:RDF>
  </metadata>
  <g
     inkscape:label="Layer 1"
     inkscape:groupmode="layer"
     id="layer1"
     transform="translate(-477.01274,-429.08388)">
    <g
       id="g13306"
       transform="matrix(1.25,0,0,-1.25,458.39758,438.71659)">
      <g
         id="g12894"
         transform="translate(23.593124,-2.1768304)">
        <path
           d="m 0,0 c 0.652,0 1.182,0.528 1.182,1.18 l 0,7.522 C 1.182,9.354 0.652,9.883 0,9.883 l -7.521,0 c -0.653,0 -1.18,-0.529 -1.18,-1.181 l 0,-7.522 C -8.701,0.528 -8.174,0 -7.521,0 L 0,0 Z"
           style="fill:#373535;fill-opacity:1;fill-rule:nonzero;stroke:none"
           id="path12896"
           inkscape:connector-curvature="0" />
      </g>
      <g
         id="g12898"
         transform="translate(16.071623,7.5057702)">
        <path
           d="m 0,0 c -0.54,0 -0.979,-0.44 -0.979,-0.981 l 0,-7.522 c 0,-0.54 0.439,-0.979 0.979,-0.979 l 7.521,0 c 0.542,0 0.982,0.439 0.982,0.979 l 0,7.522 C 8.503,-0.44 8.063,0 7.521,0 L 0,0 Z"
           style="fill:#ffffff;fill-opacity:1;fill-rule:nonzero;stroke:none"
           id="path12900"
           inkscape:connector-curvature="0" />
      </g>
      <g
         id="g12902"
         transform="translate(21.386124,1.4344658)">
        <path
           d="M 0,0 C 0,0.536 0.435,0.972 0.973,0.972 1.509,0.972 1.944,0.536 1.944,0 1.944,-0.538 1.509,-0.974 0.973,-0.974 0.435,-0.974 0,-0.538 0,0 m 0.973,-0.422 c 0.233,0 0.421,0.188 0.421,0.422 0,0.232 -0.188,0.421 -0.421,0.421 C 0.739,0.421 0.552,0.232 0.552,0 c 0,-0.234 0.187,-0.422 0.421,-0.422"
           style="fill:#373535;fill-opacity:1;fill-rule:nonzero;stroke:none"
           id="path12904"
           inkscape:connector-curvature="0" />
      </g>
      <g
         id="g12906"
         transform="translate(23.806024,2.4754659)">
        <path
           d="m 0,0 -0.002,0.981 c 0,0.39 -0.348,0.349 -0.348,0.349 l -1.964,0 -0.717,1.209 -0.422,0 0.717,-1.209 -0.543,-0.919 -1.239,0.002 c -0.427,0.878 -1.296,0.823 -1.296,0.823 l -2.348,0 0,-2.087 0.336,0 c 0.045,0.709 0.726,1.273 1.447,1.273 0.721,0 1.404,-0.565 1.447,-1.273 l 2.041,-0.002 c 0.043,0.71 0.727,1.275 1.448,1.275 0.72,0 1.406,-0.565 1.447,-1.276 l 0.127,-0.001 c 0.14,0 0.254,0.114 0.254,0.254 L 0.385,0 0,0 Z"
           style="fill:#373535;fill-opacity:1;fill-rule:nonzero;stroke:none"
           id="path12908"
           inkscape:connector-curvature="0" />
      </g>
      <g
         id="g12910"
         transform="translate(16.451523,1.4344658)">
        <path
           d="M 0,0 C 0,0.536 0.436,0.972 0.972,0.972 1.51,0.972 1.943,0.536 1.943,0 1.943,-0.538 1.51,-0.974 0.972,-0.974 0.436,-0.974 0,-0.538 0,0 m 0.972,-0.422 c 0.233,0 0.423,0.188 0.423,0.422 0,0.232 -0.19,0.421 -0.423,0.421 C 0.74,0.421 0.551,0.232 0.551,0 c 0,-0.234 0.189,-0.422 0.421,-0.422"
           style="fill:#373535;fill-opacity:1;fill-rule:nonzero;stroke:none"
           id="path12912"
           inkscape:connector-curvature="0" />
      </g>
    </g>
  </g>
</svg>
