<?xml version="1.0" encoding="UTF-8" standalone="no"?>
<!-- Created with Inkscape (http://www.inkscape.org/) -->

<svg
   xmlns:dc="http://purl.org/dc/elements/1.1/"
   xmlns:cc="http://creativecommons.org/ns#"
   xmlns:rdf="http://www.w3.org/1999/02/22-rdf-syntax-ns#"
   xmlns:svg="http://www.w3.org/2000/svg"
   xmlns="http://www.w3.org/2000/svg"
   xmlns:sodipodi="http://sodipodi.sourceforge.net/DTD/sodipodi-0.dtd"
   xmlns:inkscape="http://www.inkscape.org/namespaces/inkscape"
   width="3.4865026mm"
   height="3.4865026mm"
   viewBox="0 0 12.35375 12.35375"
   id="svg19743"
   version="1.1"
   inkscape:version="0.91 r13725"
   sodipodi:docname="ParkingW.svg">
  <defs
     id="defs19745" />
  <sodipodi:namedview
     id="base"
     pagecolor="#ffffff"
     bordercolor="#666666"
     borderopacity="1.0"
     inkscape:pageopacity="0.0"
     inkscape:pageshadow="2"
     inkscape:zoom="15.839192"
     inkscape:cx="9.1298644"
     inkscape:cy="5.095957"
     inkscape:document-units="px"
     inkscape:current-layer="g13306"
     showgrid="false"
     fit-margin-top="0"
     fit-margin-left="0"
     fit-margin-right="0"
     fit-margin-bottom="0"
     inkscape:window-width="961"
     inkscape:window-height="405"
     inkscape:window-x="-8"
     inkscape:window-y="563"
     inkscape:window-maximized="0" />
  <metadata
     id="metadata19748">
    <rdf:RDF>
      <cc:Work
         rdf:about="">
        <dc:format>image/svg+xml</dc:format>
        <dc:type
           rdf:resource="http://purl.org/dc/dcmitype/StillImage" />
        <dc:title></dc:title>
      </cc:Work>
    </rdf:RDF>
  </metadata>
  <g
     inkscape:label="Layer 1"
     inkscape:groupmode="layer"
     id="layer1"
     transform="translate(-465.93767,-429.93364)">
    <g
       id="g13306"
       transform="matrix(1.25,0,0,-1.25,458.39758,438.71659)">
      <g
         id="g12334"
         transform="translate(14.734075,-2.856639)">
        <path
           d="m 0,0 c 0.652,0 1.181,0.529 1.181,1.182 l 0,7.521 c 0,0.652 -0.529,1.18 -1.181,1.18 l -7.521,0 c -0.653,0 -1.181,-0.528 -1.181,-1.18 l 0,-7.521 C -8.702,0.529 -8.174,0 -7.521,0 L 0,0 Z"
           style="fill:#373535;fill-opacity:1;fill-rule:nonzero;stroke:none"
           id="path12336"
           inkscape:connector-curvature="0" />
      </g>
      <g
         id="g12338"
         transform="translate(7.2125748,6.8269616)">
        <path
           d="m 0,0 c -0.54,0 -0.98,-0.439 -0.98,-0.98 l 0,-7.522 c 0,-0.541 0.44,-0.98 0.98,-0.98 l 7.521,0 c 0.541,0 0.981,0.439 0.981,0.98 l 0,7.522 C 8.502,-0.439 8.062,0 7.521,0 L 0,0 Z"
           style="fill:#ffffff;fill-opacity:1;fill-rule:nonzero;stroke:none"
           id="path12340"
           inkscape:connector-curvature="0" />
      </g>
      <g
         id="g12342"
         transform="translate(11.648075,5.5105615)">
        <path
           d="M 0,0 C 1.269,0 2.296,-1.027 2.296,-2.295 2.296,-3.564 1.269,-4.592 0,-4.592 l -1.477,0.002 0,-2.18 -1.324,0 0,6.77 L 0,0 Z m 0.021,-3.285 c 0.561,0 1.016,0.455 1.016,1.015 0,0.563 -0.455,1.018 -1.016,1.018 l -1.498,0.002 0,-2.035 1.498,0 z"
           style="fill:#373535;fill-opacity:1;fill-rule:nonzero;stroke:none"
           id="path12344"
           inkscape:connector-curvature="0" />
      </g>
    </g>
  </g>
</svg>
