<?xml version="1.0" encoding="UTF-8" standalone="no"?>
<!-- Created with Inkscape (http://www.inkscape.org/) -->

<svg
   xmlns:dc="http://purl.org/dc/elements/1.1/"
   xmlns:cc="http://creativecommons.org/ns#"
   xmlns:rdf="http://www.w3.org/1999/02/22-rdf-syntax-ns#"
   xmlns:svg="http://www.w3.org/2000/svg"
   xmlns="http://www.w3.org/2000/svg"
   xmlns:sodipodi="http://sodipodi.sourceforge.net/DTD/sodipodi-0.dtd"
   xmlns:inkscape="http://www.inkscape.org/namespaces/inkscape"
   width="3.4868555mm"
   height="3.4865029mm"
   viewBox="0 0 12.355 12.353751"
   id="svg19743"
   version="1.1"
   inkscape:version="0.91 r13725"
   sodipodi:docname="PicnicW.svg">
  <defs
     id="defs19745" />
  <sodipodi:namedview
     id="base"
     pagecolor="#ffffff"
     bordercolor="#666666"
     borderopacity="1.0"
     inkscape:pageopacity="0.0"
     inkscape:pageshadow="2"
     inkscape:zoom="15.839192"
     inkscape:cx="15.210774"
     inkscape:cy="4.5483656"
     inkscape:document-units="px"
     inkscape:current-layer="g13306"
     showgrid="false"
     fit-margin-top="0"
     fit-margin-left="0"
     fit-margin-right="0"
     fit-margin-bottom="0"
     inkscape:window-width="961"
     inkscape:window-height="405"
     inkscape:window-x="-8"
     inkscape:window-y="563"
     inkscape:window-maximized="0" />
  <metadata
     id="metadata19748">
    <rdf:RDF>
      <cc:Work
         rdf:about="">
        <dc:format>image/svg+xml</dc:format>
        <dc:type
           rdf:resource="http://purl.org/dc/dcmitype/StillImage" />
        <dc:title></dc:title>
      </cc:Work>
    </rdf:RDF>
  </metadata>
  <g
     inkscape:label="Layer 1"
     inkscape:groupmode="layer"
     id="layer1"
     transform="translate(-459.85676,-424.33528)">
    <g
       id="g13306"
       transform="matrix(1.25,0,0,-1.25,458.39758,438.71659)">
      <g
         id="g12322"
         transform="translate(9.8703409,1.6220486)">
        <path
           d="m 0,0 c 0.652,0 1.181,0.527 1.181,1.18 l 0,7.521 C 1.181,9.354 0.652,9.883 0,9.883 l -7.522,0 c -0.652,0 -1.181,-0.529 -1.181,-1.182 l 0,-7.521 C -8.703,0.527 -8.174,0 -7.522,0 L 0,0 Z"
           style="fill:#373535;fill-opacity:1;fill-rule:nonzero;stroke:none"
           id="path12324"
           inkscape:connector-curvature="0" />
      </g>
      <g
         id="g12326"
         transform="translate(2.3478409,11.305641)">
        <path
           d="m 0,0 c -0.54,0 -0.98,-0.441 -0.98,-0.982 l 0,-7.522 c 0,-0.539 0.44,-0.978 0.98,-0.978 l 7.522,0 c 0.541,0 0.981,0.439 0.981,0.978 l 0,7.522 C 8.503,-0.441 8.063,0 7.522,0 L 0,0 Z"
           style="fill:#ffffff;fill-opacity:1;fill-rule:nonzero;stroke:none"
           id="path12328"
           inkscape:connector-curvature="0" />
      </g>
      <g
         id="g12330"
         transform="translate(3.4494409,8.6631446)">
        <path
           d="m 0,0 0,0.728 5.291,0 0,-0.728 -1.336,0 0.796,-1.971 1.971,0 0,-0.728 -1.674,0 0.932,-2.295 -0.905,0 -0.931,2.295 -3.01,0 -0.925,-2.295 -0.904,0 0.925,2.295 -1.661,0 0,0.728 1.957,0 L 1.323,0 0,0 Z m 1.35,-1.971 2.416,0 L 2.97,0 2.146,0 1.35,-1.971 Z"
           style="fill:#373535;fill-opacity:1;fill-rule:nonzero;stroke:none"
           id="path12332"
           inkscape:connector-curvature="0" />
      </g>
    </g>
  </g>
</svg>
