<?xml version="1.0" encoding="UTF-8" standalone="no"?>
<!-- Created with Inkscape (http://www.inkscape.org/) -->

<svg
   xmlns:dc="http://purl.org/dc/elements/1.1/"
   xmlns:cc="http://creativecommons.org/ns#"
   xmlns:rdf="http://www.w3.org/1999/02/22-rdf-syntax-ns#"
   xmlns:svg="http://www.w3.org/2000/svg"
   xmlns="http://www.w3.org/2000/svg"
   xmlns:sodipodi="http://sodipodi.sourceforge.net/DTD/sodipodi-0.dtd"
   xmlns:inkscape="http://www.inkscape.org/namespaces/inkscape"
   width="3.4949694mm"
   height="3.4946167mm"
   viewBox="0 0 12.383749 12.3825"
   id="svg19743"
   version="1.1"
   inkscape:version="0.91 r13725"
   sodipodi:docname="RadiatorWaterW.svg">
  <defs
     id="defs19745" />
  <sodipodi:namedview
     id="base"
     pagecolor="#ffffff"
     bordercolor="#666666"
     borderopacity="1.0"
     inkscape:pageopacity="0.0"
     inkscape:pageshadow="2"
     inkscape:zoom="15.839192"
     inkscape:cx="14.599422"
     inkscape:cy="5.0728097"
     inkscape:document-units="px"
     inkscape:current-layer="g13306"
     showgrid="false"
     fit-margin-top="0"
     fit-margin-left="0"
     fit-margin-right="0"
     fit-margin-bottom="0"
     inkscape:window-width="961"
     inkscape:window-height="405"
     inkscape:window-x="-8"
     inkscape:window-y="563"
     inkscape:window-maximized="0" />
  <metadata
     id="metadata19748">
    <rdf:RDF>
      <cc:Work
         rdf:about="">
        <dc:format>image/svg+xml</dc:format>
        <dc:type
           rdf:resource="http://purl.org/dc/dcmitype/StillImage" />
        <dc:title></dc:title>
      </cc:Work>
    </rdf:RDF>
  </metadata>
  <g
     inkscape:label="Layer 1"
     inkscape:groupmode="layer"
     id="layer1"
     transform="translate(-460.46811,-424.83097)">
    <g
       id="g13306"
       transform="matrix(1.25,0,0,-1.25,458.39758,438.71659)">
      <g
         id="g13042"
         transform="translate(10.37942,1.2024984)">
        <path
           d="m 0,0 c 0.652,0 1.184,0.529 1.184,1.184 l 0,7.539 C 1.184,9.375 0.652,9.906 0,9.906 l -7.539,0 c -0.654,0 -1.184,-0.531 -1.184,-1.183 l 0,-7.539 C -8.723,0.529 -8.193,0 -7.539,0 L 0,0 Z"
           style="fill:#373535;fill-opacity:1;fill-rule:nonzero;stroke:none"
           id="path13044"
           inkscape:connector-curvature="0" />
      </g>
      <g
         id="g13046"
         transform="translate(2.84042,10.909594)">
        <path
           d="m 0,0 c -0.543,0 -0.983,-0.441 -0.983,-0.984 l 0,-7.539 c 0,-0.541 0.44,-0.983 0.983,-0.983 l 7.539,0 c 0.542,0 0.983,0.442 0.983,0.983 l 0,7.539 C 8.522,-0.441 8.081,0 7.539,0 L 0,0 Z"
           style="fill:#ffffff;fill-opacity:1;fill-rule:nonzero;stroke:none"
           id="path13048"
           inkscape:connector-curvature="0" />
      </g>
      <g
         id="g13050"
         transform="translate(6.41462,2.4174024)">
        <path
           d="m 0,0 c -0.599,0 -1.083,0.484 -1.083,1.086 0,0.599 0.484,1.086 1.083,1.086 0.602,0 1.087,-0.487 1.087,-1.086 C 1.087,0.484 0.602,0 0,0 m 0.472,1.086 c 0,0.26 -0.21,0.471 -0.472,0.471 -0.258,0 -0.47,-0.211 -0.47,-0.471 0,-0.258 0.212,-0.469 0.47,-0.469 0.262,0 0.472,0.211 0.472,0.469"
           style="fill:#373535;fill-opacity:1;fill-rule:nonzero;stroke:none"
           id="path13052"
           inkscape:connector-curvature="0" />
      </g>
      <g
         id="g13054"
         transform="translate(4.11972,4.5266984)">
        <path
           d="m 0,0 c 0.078,0.547 0.299,0.822 0.455,0.859 0.912,0.208 2.5,0.317 3.147,0.362 l -1.625,2.683 0.488,0 1.578,-2.611 1.016,1.658 c 0.048,0.076 0.22,0.266 0.572,0.266 l 1.053,0 0,-0.418 -1.053,0 c 0,0 -0.117,0.006 -0.209,-0.08 C 5.371,2.672 5.336,2.604 5.244,2.453 l -0.715,-1.201 1.994,0 0,-2.176 -2.726,0 C 3.748,-0.133 3.096,0.498 2.291,0.498 1.486,0.498 0.834,-0.133 0.787,-0.926 l -0.6,0 c -0.156,0 -0.283,0.127 -0.283,0.283 L 0,0 Z"
           style="fill:#373535;fill-opacity:1;fill-rule:nonzero;stroke:none"
           id="path13056"
           inkscape:connector-curvature="0" />
      </g>
      <g
         id="g13058"
         transform="translate(2.50642,10.181002)">
        <path
           d="M 0,0 C 0.469,0 1.967,-0.664 2.568,-1.699 L 1.937,-2.213 c 0,0 -0.667,0.906 -1.937,1.143 L 0,0 Z"
           style="fill:#373535;fill-opacity:1;fill-rule:nonzero;stroke:none"
           id="path13060"
           inkscape:connector-curvature="0" />
      </g>
      <g
         id="g13062"
         transform="translate(4.40682,6.4682024)">
        <path
           d="m 0,0 c 0,-0.303 0.244,-0.549 0.547,-0.549 0.303,0 0.549,0.246 0.549,0.549 0,0.301 -0.549,1.56 -0.549,1.56 C 0.547,1.56 0,0.301 0,0"
           style="fill:#373535;fill-opacity:1;fill-rule:nonzero;stroke:none"
           id="path13064"
           inkscape:connector-curvature="0" />
      </g>
    </g>
  </g>
</svg>
