<?xml version="1.0" encoding="UTF-8" standalone="no"?>
<!-- Created with Inkscape (http://www.inkscape.org/) -->

<svg
   xmlns:dc="http://purl.org/dc/elements/1.1/"
   xmlns:cc="http://creativecommons.org/ns#"
   xmlns:rdf="http://www.w3.org/1999/02/22-rdf-syntax-ns#"
   xmlns:svg="http://www.w3.org/2000/svg"
   xmlns="http://www.w3.org/2000/svg"
   xmlns:sodipodi="http://sodipodi.sourceforge.net/DTD/sodipodi-0.dtd"
   xmlns:inkscape="http://www.inkscape.org/namespaces/inkscape"
   width="3.4868555mm"
   height="3.4865029mm"
   viewBox="0 0 12.355 12.35375"
   id="svg19743"
   version="1.1"
   inkscape:version="0.91 r13725"
   sodipodi:docname="RestroomsW.svg">
  <defs
     id="defs19745" />
  <sodipodi:namedview
     id="base"
     pagecolor="#ffffff"
     bordercolor="#666666"
     borderopacity="1.0"
     inkscape:pageopacity="0.0"
     inkscape:pageshadow="2"
     inkscape:zoom="15.839192"
     inkscape:cx="-12.626478"
     inkscape:cy="6.9140143"
     inkscape:document-units="px"
     inkscape:current-layer="g13306"
     showgrid="false"
     fit-margin-top="0"
     fit-margin-left="0"
     fit-margin-right="0"
     fit-margin-bottom="0"
     inkscape:window-width="961"
     inkscape:window-height="405"
     inkscape:window-x="-8"
     inkscape:window-y="563"
     inkscape:window-maximized="0" />
  <metadata
     id="metadata19748">
    <rdf:RDF>
      <cc:Work
         rdf:about="">
        <dc:format>image/svg+xml</dc:format>
        <dc:type
           rdf:resource="http://purl.org/dc/dcmitype/StillImage" />
        <dc:title></dc:title>
      </cc:Work>
    </rdf:RDF>
  </metadata>
  <g
     inkscape:label="Layer 1"
     inkscape:groupmode="layer"
     id="layer1"
     transform="translate(-456.72256,-429.99298)">
    <g
       id="g13306"
       transform="matrix(1.25,0,0,-1.25,458.39758,438.71659)">
      <g
         id="g12788"
         transform="translate(7.3629828,-2.9041089)">
        <path
           d="m 0,0 c 0.652,0 1.181,0.527 1.181,1.18 l 0,7.521 C 1.181,9.354 0.652,9.883 0,9.883 l -7.521,0 c -0.653,0 -1.182,-0.529 -1.182,-1.182 l 0,-7.521 C -8.703,0.527 -8.174,0 -7.521,0 L 0,0 Z"
           style="fill:#373535;fill-opacity:1;fill-rule:nonzero;stroke:none"
           id="path12790"
           inkscape:connector-curvature="0" />
      </g>
      <g
         id="g12792"
         transform="translate(-0.15851718,6.7794991)">
        <path
           d="m 0,0 c -0.541,0 -0.981,-0.441 -0.981,-0.982 l 0,-7.522 c 0,-0.539 0.44,-0.978 0.981,-0.978 l 7.521,0 c 0.541,0 0.981,0.439 0.981,0.978 l 0,7.522 C 8.502,-0.441 8.062,0 7.521,0 L 0,0 Z"
           style="fill:#ffffff;fill-opacity:1;fill-rule:nonzero;stroke:none"
           id="path12794"
           inkscape:connector-curvature="0" />
      </g>
      <path
         d="m 3.9173828,-1.1718049 -0.525,0 0,6.596 0.525,0 0,-6.596 z"
         style="fill:#373535;fill-opacity:1;fill-rule:nonzero;stroke:none"
         id="path12796"
         inkscape:connector-curvature="0" />
      <g
         id="g12798"
         transform="translate(1.5240828,4.2169951)">
        <path
           d="M 0,0 C 0.375,0 0.644,-0.309 0.7,-0.477 L 1.159,-1.988 C 1.251,-2.313 0.838,-2.447 0.739,-2.131 l -0.413,1.387 -0.238,0 0.692,-2.465 -0.66,0 0,-1.924 c 0,-0.328 -0.493,-0.326 -0.493,0 l 0,1.936 -0.251,0 0,-1.932 c 0,-0.332 -0.495,-0.332 -0.495,0 l 0,1.92 -0.662,0 0.685,2.465 -0.227,0 -0.414,-1.391 c -0.098,-0.303 -0.515,-0.179 -0.42,0.147 l 0.46,1.511 C -1.648,-0.305 -1.431,0 -1.054,0 L 0,0 Z"
           style="fill:#373535;fill-opacity:1;fill-rule:nonzero;stroke:none"
           id="path12800"
           inkscape:connector-curvature="0" />
      </g>
      <g
         id="g12802"
         transform="translate(1.0250828,4.3302911)">
        <path
           d="M 0,0 C 0.296,0 0.536,0.24 0.536,0.535 0.536,0.832 0.296,1.072 0,1.072 -0.296,1.072 -0.535,0.832 -0.535,0.535 -0.535,0.24 -0.296,0 0,0"
           style="fill:#373535;fill-opacity:1;fill-rule:nonzero;stroke:none"
           id="path12804"
           inkscape:connector-curvature="0" />
      </g>
      <g
         id="g12806"
         transform="translate(6.2301828,4.3400911)">
        <path
           d="M 0,0 C 0.296,0 0.536,0.238 0.536,0.535 0.536,0.83 0.296,1.07 0,1.07 -0.295,1.07 -0.535,0.83 -0.535,0.535 -0.535,0.238 -0.295,0 0,0"
           style="fill:#373535;fill-opacity:1;fill-rule:nonzero;stroke:none"
           id="path12808"
           inkscape:connector-curvature="0" />
      </g>
      <g
         id="g12810"
         transform="translate(5.5045828,-0.8553009)">
        <path
           d="m 0,0 c 0,-0.166 0.134,-0.301 0.3,-0.301 0.166,0 0.301,0.135 0.301,0.301 l 0,2.52 0.252,0 0,-2.52 c 0,-0.166 0.133,-0.301 0.299,-0.301 0.166,0 0.3,0.135 0.3,0.301 l 0.002,4.344 0.25,0 0,-1.602 c 0,-0.322 0.42,-0.322 0.419,0 l 0,1.637 c 0,0.355 -0.276,0.703 -0.692,0.703 L 0.01,5.084 c -0.38,0 -0.685,-0.311 -0.685,-0.695 l 0,-1.647 c 0,-0.318 0.422,-0.318 0.422,0 l 0,1.602 0.254,0 L 0,0 Z"
           style="fill:#373535;fill-opacity:1;fill-rule:nonzero;stroke:none"
           id="path12812"
           inkscape:connector-curvature="0" />
      </g>
    </g>
  </g>
</svg>
