<?xml version="1.0" encoding="UTF-8" standalone="no"?>
<!-- Created with Inkscape (http://www.inkscape.org/) -->

<svg
   xmlns:dc="http://purl.org/dc/elements/1.1/"
   xmlns:cc="http://creativecommons.org/ns#"
   xmlns:rdf="http://www.w3.org/1999/02/22-rdf-syntax-ns#"
   xmlns:svg="http://www.w3.org/2000/svg"
   xmlns="http://www.w3.org/2000/svg"
   xmlns:sodipodi="http://sodipodi.sourceforge.net/DTD/sodipodi-0.dtd"
   xmlns:inkscape="http://www.inkscape.org/namespaces/inkscape"
   width="3.4872084mm"
   height="3.4872084mm"
   viewBox="0 0 12.35625 12.35625"
   id="svg19743"
   version="1.1"
   inkscape:version="0.91 r13725"
   sodipodi:docname="RecyclingW.svg">
  <defs
     id="defs19745" />
  <sodipodi:namedview
     id="base"
     pagecolor="#ffffff"
     bordercolor="#666666"
     borderopacity="1.0"
     inkscape:pageopacity="0.0"
     inkscape:pageshadow="2"
     inkscape:zoom="15.839192"
     inkscape:cx="-12.626478"
     inkscape:cy="6.9140143"
     inkscape:document-units="px"
     inkscape:current-layer="g13306"
     showgrid="false"
     fit-margin-top="0"
     fit-margin-left="0"
     fit-margin-right="0"
     fit-margin-bottom="0"
     inkscape:window-width="961"
     inkscape:window-height="405"
     inkscape:window-x="-8"
     inkscape:window-y="563"
     inkscape:window-maximized="0" />
  <metadata
     id="metadata19748">
    <rdf:RDF>
      <cc:Work
         rdf:about="">
        <dc:format>image/svg+xml</dc:format>
        <dc:type
           rdf:resource="http://purl.org/dc/dcmitype/StillImage" />
        <dc:title></dc:title>
      </cc:Work>
    </rdf:RDF>
  </metadata>
  <g
     inkscape:label="Layer 1"
     inkscape:groupmode="layer"
     id="layer1"
     transform="translate(-472.38898,-431.74919)">
    <g
       id="g13306"
       transform="matrix(1.25,0,0,-1.25,458.39758,438.71659)">
      <g
         id="g12506"
         transform="translate(19.896123,-4.3110784)">
        <path
           d="m 0,0 c 0.652,0 1.182,0.529 1.182,1.182 l 0,7.521 C 1.182,9.356 0.652,9.885 0,9.885 l -7.521,0 c -0.653,0 -1.182,-0.529 -1.182,-1.182 l 0,-7.521 C -8.703,0.529 -8.174,0 -7.521,0 L 0,0 Z"
           style="fill:#373535;fill-opacity:1;fill-rule:nonzero;stroke:none"
           id="path12508"
           inkscape:connector-curvature="0" />
      </g>
      <g
         id="g12510"
         transform="translate(12.374623,5.3745216)">
        <path
           d="m 0,0 c -0.542,0 -0.981,-0.441 -0.981,-0.982 l 0,-7.522 c 0,-0.541 0.439,-0.98 0.981,-0.98 l 7.521,0 c 0.542,0 0.982,0.439 0.982,0.98 l 0,7.522 C 8.503,-0.441 8.063,0 7.521,0 L 0,0 Z"
           style="fill:#ffffff;fill-opacity:1;fill-rule:nonzero;stroke:none"
           id="path12512"
           inkscape:connector-curvature="0" />
      </g>
      <g
         id="g12514"
         transform="translate(12.201823,1.2143136)">
        <path
           d="M 0,0 0.593,-0.342 0.751,-0.434 0.289,-1.232 C 0.247,-1.305 0.225,-1.385 0.225,-1.465 c 0,-0.078 0.02,-0.156 0.062,-0.226 0,0 0.404,-0.703 0.734,-1.272 0.024,0.08 0.054,0.158 0.096,0.233 l 0.904,1.562 0.156,-0.09 0.594,-0.344 -0.924,1.6 L 0,0 Z"
           style="fill:#373535;fill-opacity:1;fill-rule:nonzero;stroke:none"
           id="path12516"
           inkscape:connector-curvature="0" />
      </g>
      <g
         id="g12518"
         transform="translate(13.968423,-1.0239824)">
        <path
           d="m 0,0 c -0.081,-0.139 -0.374,-0.646 -0.374,-0.646 -0.052,-0.086 -0.076,-0.182 -0.076,-0.278 0,-0.095 0.024,-0.189 0.074,-0.273 0.097,-0.17 0.279,-0.274 0.476,-0.272 l 1.824,0 L 1.924,0 0,0 Z"
           style="fill:#373535;fill-opacity:1;fill-rule:nonzero;stroke:none"
           id="path12520"
           inkscape:connector-curvature="0" />
      </g>
      <g
         id="g12522"
         transform="translate(18.823823,3.5737216)">
        <path
           d="m 0,0 -0.594,-0.342 -0.157,-0.092 -0.46,0.801 c -0.041,0.072 -0.1,0.131 -0.169,0.17 -0.068,0.041 -0.146,0.061 -0.227,0.061 l -1.469,0 c 0.057,-0.061 0.109,-0.125 0.151,-0.2 l 0.903,-1.562 -0.156,-0.092 -0.594,-0.342 1.846,0 L 0,0 Z"
           style="fill:#373535;fill-opacity:1;fill-rule:nonzero;stroke:none"
           id="path12524"
           inkscape:connector-curvature="0" />
      </g>
      <g
         id="g12526"
         transform="translate(16.001623,3.1655136)">
        <path
           d="m 0,0 c -0.08,0.139 -0.372,0.646 -0.372,0.646 -0.05,0.086 -0.12,0.157 -0.203,0.206 -0.082,0.046 -0.175,0.072 -0.273,0.074 -0.195,-0.002 -0.378,-0.108 -0.472,-0.28 0,0 -0.77,-1.33 -0.914,-1.58 0.228,-0.131 1.045,-0.601 1.273,-0.732 C -0.824,-1.428 -0.083,-0.145 0,0"
           style="fill:#373535;fill-opacity:1;fill-rule:nonzero;stroke:none"
           id="path12528"
           inkscape:connector-curvature="0" />
      </g>
      <g
         id="g12530"
         transform="translate(17.518223,-3.3364784)">
        <path
           d="M 0,0 0,0.684 0,0.865 0.921,0.863 c 0.084,0 0.166,0.022 0.234,0.063 0.069,0.039 0.127,0.095 0.167,0.166 0,0 0.407,0.703 0.734,1.271 C 1.976,2.346 1.893,2.33 1.809,2.33 l -1.807,0.002 0,0.182 L 0.004,3.199 -0.922,1.6 0,0 Z"
           style="fill:#373535;fill-opacity:1;fill-rule:nonzero;stroke:none"
           id="path12532"
           inkscape:connector-curvature="0" />
      </g>
      <g
         id="g12534"
         transform="translate(18.574823,-0.68998239)">
        <path
           d="m 0,0 0.746,0 c 0.099,0 0.196,0.025 0.28,0.074 0.081,0.047 0.15,0.113 0.2,0.199 0.096,0.17 0.094,0.379 -0.004,0.547 0,0 -0.768,1.332 -0.912,1.582 C 0.083,2.27 -0.735,1.799 -0.962,1.668 -0.825,1.43 -0.084,0.145 0,0"
           style="fill:#373535;fill-opacity:1;fill-rule:nonzero;stroke:none"
           id="path12536"
           inkscape:connector-curvature="0" />
      </g>
    </g>
  </g>
</svg>
