<?xml version="1.0" encoding="UTF-8" standalone="no"?>
<!-- Created with Inkscape (http://www.inkscape.org/) -->

<svg
   xmlns:dc="http://purl.org/dc/elements/1.1/"
   xmlns:cc="http://creativecommons.org/ns#"
   xmlns:rdf="http://www.w3.org/1999/02/22-rdf-syntax-ns#"
   xmlns:svg="http://www.w3.org/2000/svg"
   xmlns="http://www.w3.org/2000/svg"
   xmlns:sodipodi="http://sodipodi.sourceforge.net/DTD/sodipodi-0.dtd"
   xmlns:inkscape="http://www.inkscape.org/namespaces/inkscape"
   width="3.4868553mm"
   height="3.4872081mm"
   viewBox="0 0 12.354999 12.356249"
   id="svg19743"
   version="1.1"
   inkscape:version="0.91 r13725"
   sodipodi:docname="SailingW.svg">
  <defs
     id="defs19745" />
  <sodipodi:namedview
     id="base"
     pagecolor="#ffffff"
     bordercolor="#666666"
     borderopacity="1.0"
     inkscape:pageopacity="0.0"
     inkscape:pageshadow="2"
     inkscape:zoom="15.839192"
     inkscape:cx="2.5542384"
     inkscape:cy="9.2165356"
     inkscape:document-units="px"
     inkscape:current-layer="g13306"
     showgrid="false"
     fit-margin-top="0"
     fit-margin-left="0"
     fit-margin-right="0"
     fit-margin-bottom="0"
     inkscape:window-width="961"
     inkscape:window-height="405"
     inkscape:window-x="-8"
     inkscape:window-y="563"
     inkscape:window-maximized="0" />
  <metadata
     id="metadata19748">
    <rdf:RDF>
      <cc:Work
         rdf:about="">
        <dc:format>image/svg+xml</dc:format>
        <dc:type
           rdf:resource="http://purl.org/dc/dcmitype/StillImage" />
        <dc:title></dc:title>
      </cc:Work>
    </rdf:RDF>
  </metadata>
  <g
     inkscape:label="Layer 1"
     inkscape:groupmode="layer"
     id="layer1"
     transform="translate(-457.20827,-434.05171)">
    <g
       id="g13306"
       transform="matrix(1.25,0,0,-1.25,458.39758,438.71659)">
      <g
         id="g13410"
         transform="translate(7.7515537,-6.1530949)">
        <path
           d="m 0,0 c 0.652,0 1.181,0.529 1.181,1.182 l 0,7.521 C 1.181,9.356 0.652,9.885 0,9.885 l -7.521,0 c -0.653,0 -1.182,-0.529 -1.182,-1.182 l 0,-7.521 C -8.703,0.529 -8.174,0 -7.521,0 L 0,0 Z"
           style="fill:#373535;fill-opacity:1;fill-rule:nonzero;stroke:none"
           id="path13412"
           inkscape:connector-curvature="0" />
      </g>
      <g
         id="g13414"
         transform="translate(0.23005322,3.5325057)">
        <path
           d="m 0,0 c -0.541,0 -0.981,-0.441 -0.981,-0.982 l 0,-7.522 c 0,-0.541 0.44,-0.98 0.981,-0.98 l 7.521,0 c 0.541,0 0.981,0.439 0.981,0.98 l 0,7.522 C 8.502,-0.441 8.062,0 7.521,0 L 0,0 Z"
           style="fill:#ffffff;fill-opacity:1;fill-rule:nonzero;stroke:none"
           id="path13416"
           inkscape:connector-curvature="0" />
      </g>
      <g
         id="g13418"
         transform="translate(7.9370537,-5.3229909)">
        <path
           d="M 0,0 C -0.171,0 -0.336,0.039 -0.482,0.105 -0.633,0.176 -0.803,0.217 -0.98,0.217 -1.157,0.217 -1.327,0.176 -1.477,0.105 -1.625,0.039 -1.789,0 -1.961,0 -2.132,0 -2.297,0.039 -2.443,0.105 -2.595,0.176 -2.764,0.217 -2.941,0.217 -3.118,0.217 -3.288,0.176 -3.438,0.105 -3.586,0.039 -3.751,0 -3.922,0 -4.094,0 -4.258,0.039 -4.405,0.105 -4.556,0.176 -4.726,0.217 -4.902,0.217 -5.08,0.217 -5.25,0.176 -5.4,0.105 -5.547,0.039 -5.712,0 -5.884,0 -6.055,0 -6.22,0.039 -6.367,0.105 -6.518,0.176 -6.687,0.217 -6.864,0.217 -7.041,0.217 -7.211,0.176 -7.361,0.105 -7.509,0.039 -7.673,0 -7.845,0 l 0,0.725 c 0.172,0 0.336,0.039 0.484,0.105 0.15,0.068 0.32,0.109 0.497,0.109 0.177,0 0.346,-0.041 0.497,-0.109 0.147,-0.066 0.312,-0.105 0.483,-0.105 0.172,0 0.337,0.039 0.484,0.105 0.15,0.068 0.32,0.109 0.498,0.109 0.176,0 0.346,-0.041 0.497,-0.109 0.147,-0.066 0.311,-0.105 0.483,-0.105 0.171,0 0.336,0.039 0.484,0.105 0.15,0.068 0.32,0.109 0.497,0.109 0.177,0 0.346,-0.041 0.498,-0.109 0.146,-0.066 0.311,-0.105 0.482,-0.105 0.172,0 0.336,0.039 0.484,0.105 0.15,0.068 0.32,0.109 0.497,0.109 0.177,0 0.347,-0.041 0.498,-0.109 C -0.336,0.764 -0.171,0.725 0,0.725 L 0,0 Z"
           style="fill:#373535;fill-opacity:1;fill-rule:nonzero;stroke:none"
           id="path13420"
           inkscape:connector-curvature="0" />
      </g>
      <g
         id="g13422"
         transform="translate(4.7876535,3.1575056)">
        <path
           d="m 0,0 0,-5.453 -4.466,0 L 0,0 Z"
           style="fill:#373535;fill-opacity:1;fill-rule:nonzero;stroke:none"
           id="path13424"
           inkscape:connector-curvature="0" />
      </g>
      <g
         id="g13426"
         transform="translate(5.2114536,1.8997136)">
        <path
           d="M 0,0 C 1.314,-0.611 2.875,-2.24 2.671,-4.195 L 0,-4.195 0,0 Z"
           style="fill:#373535;fill-opacity:1;fill-rule:nonzero;stroke:none"
           id="path13428"
           inkscape:connector-curvature="0" />
      </g>
      <g
         id="g13430"
         transform="translate(7.3169537,-2.6901907)">
        <path
           d="m 0,0 -1.219,0 -4.721,0 0,-1.078 c 0.066,-0.018 0.132,-0.037 0.193,-0.066 0.147,-0.065 0.312,-0.104 0.483,-0.104 0.172,0 0.337,0.039 0.484,0.104 0.15,0.07 0.32,0.111 0.498,0.111 0.177,0 0.346,-0.041 0.497,-0.111 0.147,-0.065 0.311,-0.104 0.483,-0.104 0.171,0 0.336,0.039 0.484,0.104 0.15,0.07 0.32,0.111 0.497,0.111 0.178,0 0.346,-0.041 0.498,-0.111 0.146,-0.065 0.311,-0.104 0.482,-0.104 0.033,0 0.064,0.008 0.096,0.012 0.003,0 0.004,-0.004 0.007,-0.004 0.021,0 0.037,0.01 0.058,0.01 0.039,0.005 0.079,0.009 0.119,0.019 0.35,0.072 0.577,0.346 0.577,0.346 L 0.199,0 0,0 Z"
           style="fill:#373535;fill-opacity:1;fill-rule:nonzero;stroke:none"
           id="path13432"
           inkscape:connector-curvature="0" />
      </g>
    </g>
  </g>
</svg>
