<?xml version="1.0" encoding="UTF-8" standalone="no"?>
<!-- Created with Inkscape (http://www.inkscape.org/) -->

<svg
   xmlns:dc="http://purl.org/dc/elements/1.1/"
   xmlns:cc="http://creativecommons.org/ns#"
   xmlns:rdf="http://www.w3.org/1999/02/22-rdf-syntax-ns#"
   xmlns:svg="http://www.w3.org/2000/svg"
   xmlns="http://www.w3.org/2000/svg"
   xmlns:sodipodi="http://sodipodi.sourceforge.net/DTD/sodipodi-0.dtd"
   xmlns:inkscape="http://www.inkscape.org/namespaces/inkscape"
   width="3.4893248mm"
   height="3.4893248mm"
   viewBox="0 0 12.36375 12.363749"
   id="svg19743"
   version="1.1"
   inkscape:version="0.91 r13725"
   sodipodi:docname="SelfGuidingTrailW.svg">
  <defs
     id="defs19745" />
  <sodipodi:namedview
     id="base"
     pagecolor="#ffffff"
     bordercolor="#666666"
     borderopacity="1.0"
     inkscape:pageopacity="0.0"
     inkscape:pageshadow="2"
     inkscape:zoom="15.839192"
     inkscape:cx="19.431153"
     inkscape:cy="2.9855861"
     inkscape:document-units="px"
     inkscape:current-layer="g13306"
     showgrid="false"
     fit-margin-top="0"
     fit-margin-left="0"
     fit-margin-right="0"
     fit-margin-bottom="0"
     inkscape:window-width="961"
     inkscape:window-height="405"
     inkscape:window-x="-8"
     inkscape:window-y="563"
     inkscape:window-maximized="0" />
  <metadata
     id="metadata19748">
    <rdf:RDF>
      <cc:Work
         rdf:about="">
        <dc:format>image/svg+xml</dc:format>
        <dc:type
           rdf:resource="http://purl.org/dc/dcmitype/StillImage" />
        <dc:title></dc:title>
      </cc:Work>
    </rdf:RDF>
  </metadata>
  <g
     inkscape:label="Layer 1"
     inkscape:groupmode="layer"
     id="layer1"
     transform="translate(-440.33136,-427.81326)">
    <g
       id="g13306"
       transform="matrix(1.25,0,0,-1.25,458.39758,438.71659)">
      <g
         id="g12550"
         transform="translate(-13.270974,-1.1683371)">
        <path
           d="m 0,0 c -0.652,0 -1.182,0.529 -1.182,1.184 l 0,7.525 c 0,0.652 0.53,1.182 1.182,1.182 l 7.527,0 c 0.653,0 1.182,-0.53 1.182,-1.182 l 0,-7.525 C 8.709,0.529 8.18,0 7.527,0 L 0,0 Z"
           style="fill:#373535;fill-opacity:1;fill-rule:nonzero;stroke:none"
           id="path12552"
           inkscape:connector-curvature="0" />
      </g>
      <g
         id="g12554"
         transform="translate(-13.270974,8.5231595)">
        <path
           d="m 0,0 c -0.542,0 -0.982,-0.442 -0.982,-0.983 l 0,-7.525 c 0,-0.541 0.44,-0.982 0.982,-0.982 l 7.527,0 c 0.542,0 0.982,0.441 0.982,0.982 l 0,7.525 C 8.509,-0.442 8.069,0 7.527,0 L 0,0 Z"
           style="fill:#ffffff;fill-opacity:1;fill-rule:nonzero;stroke:none"
           id="path12556"
           inkscape:connector-curvature="0" />
      </g>
      <g
         id="g12558"
         transform="translate(-11.644074,5.8766553)">
        <path
           d="M 0,0 C 0.312,0 0.564,0.252 0.564,0.564 0.564,0.877 0.312,1.131 0,1.131 -0.311,1.131 -0.564,0.877 -0.564,0.564 -0.564,0.252 -0.311,0 0,0"
           style="fill:#373535;fill-opacity:1;fill-rule:nonzero;stroke:none"
           id="path12560"
           inkscape:connector-curvature="0" />
      </g>
      <g
         id="g12562"
         transform="translate(-12.513174,5.7594633)">
        <path
           d="M 0,0 C 0.021,0.088 -0.031,0.174 -0.117,0.195 L -0.588,0.31 C -0.676,0.328 -0.764,0.277 -0.783,0.189 l -0.395,-1.636 c -0.021,-0.084 0.032,-0.172 0.119,-0.194 l 0.471,-0.113 c 0.086,-0.021 0.172,0.031 0.193,0.119 L 0,0 Z"
           style="fill:#373535;fill-opacity:1;fill-rule:nonzero;stroke:none"
           id="path12564"
           inkscape:connector-curvature="0" />
      </g>
      <g
         id="g12566"
         transform="translate(-13.577674,0.27705504)">
        <path
           d="m 0,0 c -0.004,-0.027 -0.008,-0.055 -0.008,-0.08 0,-0.219 0.178,-0.397 0.397,-0.397 0.181,0 0.332,0.12 0.381,0.284 l 0.683,2.824 0.649,-2.809 c 0.043,-0.172 0.201,-0.299 0.384,-0.299 0.221,0 0.399,0.178 0.399,0.397 0,0.029 -0.004,0.059 -0.01,0.086 L 1.982,3.738 2.059,4.064 2.115,3.807 C 2.17,3.639 2.324,3.621 2.324,3.621 L 3.244,3.387 C 3.262,3.383 3.279,3.383 3.299,3.383 c 0.148,0 0.271,0.121 0.271,0.271 0,0.127 -0.09,0.237 -0.209,0.264 L 2.564,4.117 2.346,5.006 C 2.242,5.5 1.77,5.488 1.77,5.488 1.309,5.5 1.193,5.018 1.193,5.018 L 0,0 Z"
           style="fill:#373535;fill-opacity:1;fill-rule:nonzero;stroke:none"
           id="path12568"
           inkscape:connector-curvature="0" />
      </g>
      <g
         id="g12570"
         transform="translate(-6.0366734,0.08566304)">
        <path
           d="M 0,0 C 0,0.183 0.145,0.332 0.332,0.332 0.514,0.332 0.664,0.183 0.664,0 0.664,-0.182 0.514,-0.33 0.332,-0.33 0.145,-0.33 0,-0.182 0,0"
           style="fill:#373535;fill-opacity:1;fill-rule:nonzero;stroke:none"
           id="path12572"
           inkscape:connector-curvature="0" />
      </g>
      <g
         id="g12574"
         transform="translate(-5.7045734,0.97626304)">
        <path
           d="m 0,0 c -0.187,0 -0.332,0.148 -0.332,0.33 0,0.184 0.145,0.332 0.332,0.332 0.182,0 0.332,-0.148 0.332,-0.332 C 0.332,0.148 0.182,0 0,0"
           style="fill:#373535;fill-opacity:1;fill-rule:nonzero;stroke:none"
           id="path12576"
           inkscape:connector-curvature="0" />
      </g>
      <g
         id="g12578"
         transform="translate(-5.7055734,2.1969591)">
        <path
           d="m 0,0 c -0.187,0 -0.332,0.148 -0.332,0.33 0,0.186 0.145,0.332 0.332,0.332 0.182,0 0.331,-0.146 0.331,-0.332 C 0.331,0.148 0.182,0 0,0"
           style="fill:#373535;fill-opacity:1;fill-rule:nonzero;stroke:none"
           id="path12580"
           inkscape:connector-curvature="0" />
      </g>
      <g
         id="g12582"
         transform="translate(-5.7055734,3.4176632)">
        <path
           d="m 0,0 c -0.187,0 -0.332,0.148 -0.332,0.33 0,0.186 0.145,0.332 0.332,0.332 0.182,0 0.331,-0.146 0.331,-0.332 C 0.331,0.148 0.182,0 0,0"
           style="fill:#373535;fill-opacity:1;fill-rule:nonzero;stroke:none"
           id="path12584"
           inkscape:connector-curvature="0" />
      </g>
      <g
         id="g12586"
         transform="translate(-5.7055734,4.6383592)">
        <path
           d="m 0,0 c -0.187,0 -0.332,0.148 -0.332,0.33 0,0.186 0.145,0.332 0.332,0.332 0.182,0 0.33,-0.146 0.33,-0.332 C 0.33,0.148 0.182,0 0,0"
           style="fill:#373535;fill-opacity:1;fill-rule:nonzero;stroke:none"
           id="path12588"
           inkscape:connector-curvature="0" />
      </g>
      <g
         id="g12590"
         transform="translate(-5.7065734,5.8590553)">
        <path
           d="m 0,0 c -0.186,0 -0.332,0.148 -0.332,0.33 0,0.188 0.146,0.332 0.332,0.332 0.182,0 0.331,-0.144 0.331,-0.332 C 0.331,0.148 0.182,0 0,0"
           style="fill:#373535;fill-opacity:1;fill-rule:nonzero;stroke:none"
           id="path12592"
           inkscape:connector-curvature="0" />
      </g>
      <g
         id="g12594"
         transform="translate(-6.0385734,7.4098634)">
        <path
           d="m 0,0 c 0,0.187 0.146,0.332 0.332,0.332 0.182,0 0.33,-0.145 0.33,-0.332 0,-0.182 -0.148,-0.33 -0.33,-0.33 C 0.146,-0.33 0,-0.182 0,0"
           style="fill:#373535;fill-opacity:1;fill-rule:nonzero;stroke:none"
           id="path12596"
           inkscape:connector-curvature="0" />
      </g>
      <g
         id="g12598"
         transform="translate(-8.1479735,7.7438554)">
        <path
           d="m 0,0 c 0.185,0 0.33,-0.146 0.33,-0.334 0,-0.18 -0.145,-0.33 -0.33,-0.33 -0.184,0 -0.332,0.15 -0.332,0.33 C -0.332,-0.146 -0.184,0 0,0"
           style="fill:#373535;fill-opacity:1;fill-rule:nonzero;stroke:none"
           id="path12600"
           inkscape:connector-curvature="0" />
      </g>
      <g
         id="g12602"
         transform="translate(-6.9272735,7.7457594)">
        <path
           d="m 0,0 c 0.185,0 0.33,-0.148 0.33,-0.334 0,-0.18 -0.145,-0.33 -0.33,-0.33 -0.184,0 -0.332,0.15 -0.332,0.33 C -0.332,-0.148 -0.184,0 0,0"
           style="fill:#373535;fill-opacity:1;fill-rule:nonzero;stroke:none"
           id="path12604"
           inkscape:connector-curvature="0" />
      </g>
      <g
         id="g12606"
         transform="translate(-8.1479735,0.41955904)">
        <path
           d="m 0,0 c 0.182,0 0.332,-0.148 0.332,-0.332 0,-0.182 -0.15,-0.33 -0.332,-0.33 -0.185,0 -0.332,0.148 -0.332,0.33 C -0.332,-0.148 -0.185,0 0,0"
           style="fill:#373535;fill-opacity:1;fill-rule:nonzero;stroke:none"
           id="path12608"
           inkscape:connector-curvature="0" />
      </g>
      <g
         id="g12610"
         transform="translate(-6.9252735,0.41955904)">
        <path
           d="m 0,0 c 0.185,0 0.33,-0.148 0.33,-0.332 0,-0.182 -0.145,-0.33 -0.33,-0.33 -0.184,0 -0.332,0.148 -0.332,0.33 C -0.332,-0.148 -0.184,0 0,0"
           style="fill:#373535;fill-opacity:1;fill-rule:nonzero;stroke:none"
           id="path12612"
           inkscape:connector-curvature="0" />
      </g>
      <g
         id="g12614"
         transform="translate(-8.9418736,8.1617594)">
        <path
           d="M 0,0 0,-1.51 -1.302,-0.754 0,0 Z"
           style="fill:#373535;fill-opacity:1;fill-rule:nonzero;stroke:none"
           id="path12616"
           inkscape:connector-curvature="0" />
      </g>
      <g
         id="g12618"
         transform="translate(-9.1879736,-0.17804096)">
        <path
           d="M 0,0 0,2.641 C 0.166,2.807 1.279,3.92 1.279,3.92 1.342,3.982 1.373,4.066 1.373,4.148 1.373,4.232 1.342,4.314 1.279,4.377 1.152,4.504 0.947,4.504 0.82,4.377 L -0.648,2.91 -0.648,0 0,0 Z"
           style="fill:#373535;fill-opacity:1;fill-rule:nonzero;stroke:none"
           id="path12620"
           inkscape:connector-curvature="0" />
      </g>
    </g>
  </g>
</svg>
