<?xml version="1.0" encoding="UTF-8" standalone="no"?>
<!-- Created with Inkscape (http://www.inkscape.org/) -->

<svg
   xmlns:dc="http://purl.org/dc/elements/1.1/"
   xmlns:cc="http://creativecommons.org/ns#"
   xmlns:rdf="http://www.w3.org/1999/02/22-rdf-syntax-ns#"
   xmlns:svg="http://www.w3.org/2000/svg"
   xmlns="http://www.w3.org/2000/svg"
   xmlns:sodipodi="http://sodipodi.sourceforge.net/DTD/sodipodi-0.dtd"
   xmlns:inkscape="http://www.inkscape.org/namespaces/inkscape"
   width="3.4865029mm"
   height="3.4865029mm"
   viewBox="0 0 12.353751 12.35375"
   id="svg19743"
   version="1.1"
   inkscape:version="0.91 r13725"
   sodipodi:docname="ShowersW.svg">
  <defs
     id="defs19745" />
  <sodipodi:namedview
     id="base"
     pagecolor="#ffffff"
     bordercolor="#666666"
     borderopacity="1.0"
     inkscape:pageopacity="0.0"
     inkscape:pageshadow="2"
     inkscape:zoom="15.839192"
     inkscape:cx="6.4404335"
     inkscape:cy="9.3584107"
     inkscape:document-units="px"
     inkscape:current-layer="layer1"
     showgrid="false"
     fit-margin-top="0"
     fit-margin-left="0"
     fit-margin-right="0"
     fit-margin-bottom="0"
     inkscape:window-width="961"
     inkscape:window-height="405"
     inkscape:window-x="-8"
     inkscape:window-y="563"
     inkscape:window-maximized="0" />
  <metadata
     id="metadata19748">
    <rdf:RDF>
      <cc:Work
         rdf:about="">
        <dc:format>image/svg+xml</dc:format>
        <dc:type
           rdf:resource="http://purl.org/dc/dcmitype/StillImage" />
        <dc:title></dc:title>
      </cc:Work>
    </rdf:RDF>
  </metadata>
  <g
     inkscape:label="Layer 1"
     inkscape:groupmode="layer"
     id="layer1"
     transform="translate(-453.32208,-431.69009)">
    <g
       id="g13294"
       transform="matrix(1.25,0,0,-1.25,464.19958,444.04384)">
      <path
         d="m 0,0 c 0.652,0 1.181,0.527 1.181,1.18 l 0,7.521 C 1.181,9.354 0.652,9.883 0,9.883 l -7.521,0 c -0.653,0 -1.181,-0.529 -1.181,-1.182 l 0,-7.521 C -8.702,0.527 -8.174,0 -7.521,0 L 0,0 Z"
         style="fill:#373535;fill-opacity:1;fill-rule:nonzero;stroke:none"
         id="path13296"
         inkscape:connector-curvature="0" />
    </g>
    <g
       id="g13298"
       transform="matrix(1.25,0,0,-1.25,454.7977,431.93934)">
      <path
         d="m 0,0 c -0.54,0 -0.98,-0.441 -0.98,-0.982 l 0,-7.522 c 0,-0.539 0.44,-0.978 0.98,-0.978 l 7.521,0 c 0.541,0 0.981,0.439 0.981,0.978 l 0,7.522 C 8.502,-0.441 8.062,0 7.521,0 L 0,0 Z"
         style="fill:#ffffff;fill-opacity:1;fill-rule:nonzero;stroke:none"
         id="path13300"
         inkscape:connector-curvature="0" />
    </g>
    <g
       id="g13302"
       transform="matrix(1.25,0,0,-1.25,460.06995,438.32359)">
      <path
         d="M 0,0 C 0.543,0 0.982,0.439 0.982,0.982 0.982,1.525 0.543,1.965 0,1.965 -0.543,1.965 -0.983,1.525 -0.983,0.982 -0.983,0.439 -0.543,0 0,0"
         style="fill:#373535;fill-opacity:1;fill-rule:nonzero;stroke:none"
         id="path13304"
         inkscape:connector-curvature="0" />
    </g>
    <g
       id="g13306"
       transform="matrix(1.25,0,0,-1.25,458.39758,438.71659)">
      <path
         d="m 0,0 c 0.105,0.102 0.248,0.162 0.404,0.162 l 1.938,0 1.95,1.955 C 4.709,2.537 5.256,1.992 4.838,1.572 L 2.7,-0.572 2.701,-3.5 l -2.564,0 0,1.422 -1.159,0 c -0.242,0 -0.438,0.195 -0.438,0.437 0,0.104 0.035,0.198 0.095,0.274 L 0,0 Z m 0.412,-2.074 c 0,-0.106 0.085,-0.244 0.192,-0.244 l 0.001,0.002 0.452,0 0.001,-0.002 c 0.106,0 0.244,0.136 0.244,0.242 l 0,0.836 C 1.302,-1.135 1.164,-1 1.058,-1 l -0.454,0 c -0.1,0 -0.181,-0.127 -0.192,-0.223 0.653,0 0.65,-0.851 0,-0.851"
         style="fill:#373535;fill-opacity:1;fill-rule:nonzero;stroke:none"
         id="path13308"
         inkscape:connector-curvature="0" />
    </g>
    <g
       id="g13310"
       transform="matrix(1.25,0,0,-1.25,454.5242,433.94609)">
      <path
         d="M 0,0 0.238,-0.238 1.389,0.937 1.15,1.176 0.629,0.979 0.39,1.217 -0.091,0.738 0.148,0.498 0,0 Z"
         style="fill:#373535;fill-opacity:1;fill-rule:nonzero;stroke:none"
         id="path13312"
         inkscape:connector-curvature="0" />
    </g>
    <g
       id="g13314"
       transform="matrix(1.25,0,0,-1.25,456.73858,438.61659)">
      <path
         d="m 0,0 c -0.022,-0.144 0.077,-0.275 0.219,-0.295 0.142,-0.023 0.277,0.08 0.295,0.219 C 0.535,0.068 0.437,0.199 0.294,0.219 0.152,0.24 0.019,0.143 0,0"
         style="fill:#373535;fill-opacity:1;fill-rule:nonzero;stroke:none"
         id="path13316"
         inkscape:connector-curvature="0" />
    </g>
    <g
       id="g13318"
       transform="matrix(1.25,0,0,-1.25,457.02058,437.87434)">
      <path
         d="M 0,0 C 0.02,0.137 -0.073,0.262 -0.209,0.281 -0.345,0.301 -0.47,0.207 -0.489,0.072 -0.509,-0.066 -0.415,-0.187 -0.28,-0.207 -0.146,-0.229 -0.018,-0.133 0,0"
         style="fill:#373535;fill-opacity:1;fill-rule:nonzero;stroke:none"
         id="path13320"
         inkscape:connector-curvature="0" />
    </g>
    <g
       id="g13322"
       transform="matrix(1.25,0,0,-1.25,456.66045,437.03696)">
      <path
         d="m 0,0 c 0.018,0.129 -0.069,0.248 -0.198,0.268 -0.129,0.017 -0.247,-0.071 -0.266,-0.2 -0.018,-0.13 0.069,-0.246 0.197,-0.265 C -0.138,-0.219 -0.018,-0.125 0,0"
         style="fill:#373535;fill-opacity:1;fill-rule:nonzero;stroke:none"
         id="path13324"
         inkscape:connector-curvature="0" />
    </g>
    <g
       id="g13326"
       transform="matrix(1.25,0,0,-1.25,456.30033,436.19959)">
      <path
         d="M 0,0 C 0.018,0.121 -0.065,0.234 -0.187,0.252 -0.311,0.27 -0.422,0.186 -0.439,0.065 -0.457,-0.059 -0.373,-0.168 -0.252,-0.187 -0.131,-0.207 -0.017,-0.119 0,0"
         style="fill:#373535;fill-opacity:1;fill-rule:nonzero;stroke:none"
         id="path13328"
         inkscape:connector-curvature="0" />
    </g>
    <g
       id="g13330"
       transform="matrix(1.25,0,0,-1.25,455.94033,435.36209)">
      <path
         d="M 0,0 C 0.017,0.115 -0.062,0.223 -0.177,0.238 -0.293,0.254 -0.398,0.176 -0.414,0.06 -0.431,-0.057 -0.353,-0.158 -0.238,-0.178 -0.123,-0.195 -0.016,-0.113 0,0"
         style="fill:#373535;fill-opacity:1;fill-rule:nonzero;stroke:none"
         id="path13332"
         inkscape:connector-curvature="0" />
    </g>
    <g
       id="g13334"
       transform="matrix(1.25,0,0,-1.25,455.09308,434.45396)">
      <path
         d="M 0,0 C -0.017,-0.109 0.059,-0.205 0.166,-0.223 0.274,-0.24 0.374,-0.162 0.39,-0.057 0.405,0.051 0.331,0.152 0.224,0.166 0.113,0.182 0.015,0.107 0,0"
         style="fill:#373535;fill-opacity:1;fill-rule:nonzero;stroke:none"
         id="path13336"
         inkscape:connector-curvature="0" />
    </g>
    <g
       id="g13338"
       transform="matrix(1.25,0,0,-1.25,457.95083,437.43496)">
      <path
         d="M 0,0 C 0.007,0.141 0.128,0.252 0.27,0.244 0.412,0.236 0.52,0.117 0.514,-0.027 0.509,-0.17 0.387,-0.277 0.244,-0.269 0.102,-0.266 -0.008,-0.144 0,0"
         style="fill:#373535;fill-opacity:1;fill-rule:nonzero;stroke:none"
         id="path13340"
         inkscape:connector-curvature="0" />
    </g>
    <g
       id="g13342"
       transform="matrix(1.25,0,0,-1.25,457.74808,437.08584)">
      <path
         d="M 0,0 C -0.135,0.006 -0.24,0.119 -0.232,0.258 -0.225,0.393 -0.11,0.496 0.025,0.49 0.16,0.482 0.263,0.369 0.257,0.232 0.251,0.096 0.136,-0.006 0,0"
         style="fill:#373535;fill-opacity:1;fill-rule:nonzero;stroke:none"
         id="path13344"
         inkscape:connector-curvature="0" />
    </g>
    <g
       id="g13346"
       transform="matrix(1.25,0,0,-1.25,457.24158,436.39734)">
      <path
         d="M 0,0 C -0.128,0.006 -0.228,0.113 -0.221,0.242 -0.214,0.371 -0.105,0.471 0.023,0.463 0.151,0.457 0.25,0.348 0.244,0.219 0.239,0.092 0.129,-0.008 0,0"
         style="fill:#373535;fill-opacity:1;fill-rule:nonzero;stroke:none"
         id="path13348"
         inkscape:connector-curvature="0" />
    </g>
    <g
       id="g13350"
       transform="matrix(1.25,0,0,-1.25,456.7337,435.71121)">
      <path
         d="M 0,0 C -0.121,0.006 -0.216,0.107 -0.209,0.23 -0.202,0.352 -0.1,0.445 0.023,0.439 0.144,0.433 0.237,0.33 0.232,0.209 0.227,0.088 0.122,-0.008 0,0"
         style="fill:#373535;fill-opacity:1;fill-rule:nonzero;stroke:none"
         id="path13352"
         inkscape:connector-curvature="0" />
    </g>
    <g
       id="g13354"
       transform="matrix(1.25,0,0,-1.25,456.22708,435.02521)">
      <path
         d="M 0,0 C -0.114,0.006 -0.204,0.104 -0.197,0.219 -0.191,0.332 -0.095,0.42 0.021,0.416 0.135,0.41 0.224,0.312 0.218,0.197 0.213,0.084 0.114,-0.006 0,0"
         style="fill:#373535;fill-opacity:1;fill-rule:nonzero;stroke:none"
         id="path13356"
         inkscape:connector-curvature="0" />
    </g>
    <g
       id="g13358"
       transform="matrix(1.25,0,0,-1.25,455.48733,434.08284)">
      <path
         d="M 0,0 C 0.006,0.107 0.097,0.191 0.205,0.185 0.312,0.182 0.396,0.09 0.391,-0.018 0.386,-0.125 0.293,-0.211 0.186,-0.203 0.078,-0.197 -0.006,-0.107 0,0"
         style="fill:#373535;fill-opacity:1;fill-rule:nonzero;stroke:none"
         id="path13360"
         inkscape:connector-curvature="0" />
    </g>
    <g
       id="g13362"
       transform="matrix(1.25,0,0,-1.25,458.83095,436.05309)">
      <path
         d="M 0,0 C -0.143,-0.008 -0.267,0.102 -0.271,0.244 -0.279,0.389 -0.167,0.51 -0.025,0.516 0.115,0.521 0.237,0.414 0.243,0.268 0.252,0.129 0.143,0.006 0,0"
         style="fill:#373535;fill-opacity:1;fill-rule:nonzero;stroke:none"
         id="path13364"
         inkscape:connector-curvature="0" />
    </g>
    <g
       id="g13366"
       transform="matrix(1.25,0,0,-1.25,458.44395,435.21084)">
      <path
         d="m 0,0 c 0.007,-0.131 -0.095,-0.244 -0.229,-0.25 -0.133,-0.006 -0.249,0.096 -0.254,0.229 -0.006,0.134 0.097,0.246 0.231,0.253 C -0.12,0.238 -0.007,0.137 0,0"
         style="fill:#373535;fill-opacity:1;fill-rule:nonzero;stroke:none"
         id="path13368"
         inkscape:connector-curvature="0" />
    </g>
    <g
       id="g13370"
       transform="matrix(1.25,0,0,-1.25,457.75295,434.70297)">
      <path
         d="M 0,0 C 0.006,-0.123 -0.09,-0.229 -0.215,-0.234 -0.34,-0.24 -0.448,-0.145 -0.453,-0.021 -0.459,0.105 -0.361,0.211 -0.236,0.217 -0.113,0.223 -0.007,0.127 0,0"
         style="fill:#373535;fill-opacity:1;fill-rule:nonzero;stroke:none"
         id="path13372"
         inkscape:connector-curvature="0" />
    </g>
    <g
       id="g13374"
       transform="matrix(1.25,0,0,-1.25,457.06208,434.19521)">
      <path
         d="m 0,0 c 0.005,-0.115 -0.084,-0.215 -0.2,-0.219 -0.116,-0.006 -0.217,0.084 -0.222,0.2 -0.005,0.117 0.086,0.214 0.202,0.22 C -0.105,0.207 -0.006,0.117 0,0"
         style="fill:#373535;fill-opacity:1;fill-rule:nonzero;stroke:none"
         id="path13376"
         inkscape:connector-curvature="0" />
    </g>
    <g
       id="g13378"
       transform="matrix(1.25,0,0,-1.25,455.88295,433.71171)">
      <path
         d="M 0,0 C -0.006,0.109 0.079,0.201 0.186,0.205 0.293,0.211 0.386,0.127 0.391,0.02 0.395,-0.088 0.312,-0.18 0.205,-0.184 0.098,-0.189 0.004,-0.105 0,0"
         style="fill:#373535;fill-opacity:1;fill-rule:nonzero;stroke:none"
         id="path13380"
         inkscape:connector-curvature="0" />
    </g>
    <g
       id="g13382"
       transform="matrix(1.25,0,0,-1.25,456.4872,433.05996)">
      <path
         d="M 0,0 C 0.106,0.016 0.208,-0.058 0.224,-0.166 0.239,-0.273 0.165,-0.375 0.057,-0.389 -0.051,-0.406 -0.151,-0.33 -0.167,-0.223 -0.182,-0.115 -0.107,-0.016 0,0"
         style="fill:#373535;fill-opacity:1;fill-rule:nonzero;stroke:none"
         id="path13384"
         inkscape:connector-curvature="0" />
    </g>
    <g
       id="g13386"
       transform="matrix(1.25,0,0,-1.25,457.64808,433.62634)">
      <path
         d="m 0,0 c 0.017,-0.113 -0.062,-0.219 -0.176,-0.234 -0.113,-0.018 -0.219,0.062 -0.235,0.174 -0.016,0.113 0.063,0.22 0.176,0.236 C -0.123,0.191 -0.017,0.113 0,0"
         style="fill:#373535;fill-opacity:1;fill-rule:nonzero;stroke:none"
         id="path13388"
         inkscape:connector-curvature="0" />
    </g>
    <g
       id="g13390"
       transform="matrix(1.25,0,0,-1.25,458.52933,433.98271)">
      <path
         d="m 0,0 c 0.018,-0.121 -0.065,-0.23 -0.185,-0.248 -0.119,-0.018 -0.231,0.066 -0.248,0.184 -0.016,0.119 0.067,0.23 0.185,0.248 C -0.13,0.201 -0.018,0.119 0,0"
         style="fill:#373535;fill-opacity:1;fill-rule:nonzero;stroke:none"
         id="path13392"
         inkscape:connector-curvature="0" />
    </g>
    <g
       id="g13394"
       transform="matrix(1.25,0,0,-1.25,459.40945,434.34159)">
      <path
         d="M 0,0 C 0.019,-0.125 -0.068,-0.24 -0.193,-0.26 -0.317,-0.277 -0.436,-0.191 -0.452,-0.066 -0.47,0.059 -0.384,0.176 -0.26,0.193 -0.135,0.213 -0.018,0.125 0,0"
         style="fill:#373535;fill-opacity:1;fill-rule:nonzero;stroke:none"
         id="path13396"
         inkscape:connector-curvature="0" />
    </g>
    <g
       id="g13398"
       transform="matrix(1.25,0,0,-1.25,460.29083,434.70059)">
      <path
         d="m 0,0 c 0.019,-0.131 -0.072,-0.252 -0.202,-0.271 -0.13,-0.02 -0.253,0.072 -0.271,0.201 -0.018,0.131 0.072,0.254 0.202,0.273 C -0.141,0.221 -0.02,0.131 0,0"
         style="fill:#373535;fill-opacity:1;fill-rule:nonzero;stroke:none"
         id="path13400"
         inkscape:connector-curvature="0" />
    </g>
    <g
       id="g13402"
       transform="matrix(1.25,0,0,-1.25,461.1722,435.05946)">
      <path
         d="m 0,0 c 0.02,-0.137 -0.075,-0.264 -0.211,-0.283 -0.136,-0.02 -0.265,0.076 -0.283,0.211 -0.02,0.137 0.074,0.265 0.21,0.285 C -0.148,0.232 -0.02,0.137 0,0"
         style="fill:#373535;fill-opacity:1;fill-rule:nonzero;stroke:none"
         id="path13404"
         inkscape:connector-curvature="0" />
    </g>
    <g
       id="g13406"
       transform="matrix(1.25,0,0,-1.25,461.6837,435.13996)">
      <path
         d="M 0,0 C 0.143,0.02 0.275,-0.08 0.296,-0.223 0.317,-0.363 0.217,-0.496 0.076,-0.518 -0.065,-0.539 -0.2,-0.44 -0.219,-0.297 -0.239,-0.154 -0.142,-0.021 0,0"
         style="fill:#373535;fill-opacity:1;fill-rule:nonzero;stroke:none"
         id="path13408"
         inkscape:connector-curvature="0" />
    </g>
  </g>
</svg>
