<?xml version="1.0" encoding="UTF-8" standalone="no"?>
<!-- Created with Inkscape (http://www.inkscape.org/) -->

<svg
   xmlns:dc="http://purl.org/dc/elements/1.1/"
   xmlns:cc="http://creativecommons.org/ns#"
   xmlns:rdf="http://www.w3.org/1999/02/22-rdf-syntax-ns#"
   xmlns:svg="http://www.w3.org/2000/svg"
   xmlns="http://www.w3.org/2000/svg"
   xmlns:sodipodi="http://sodipodi.sourceforge.net/DTD/sodipodi-0.dtd"
   xmlns:inkscape="http://www.inkscape.org/namespaces/inkscape"
   width="3.4868555mm"
   height="3.4872084mm"
   viewBox="0 0 12.355 12.35625"
   id="svg19743"
   version="1.1"
   inkscape:version="0.91 r13725"
   sodipodi:docname="SleddingW.svg">
  <defs
     id="defs19745" />
  <sodipodi:namedview
     id="base"
     pagecolor="#ffffff"
     bordercolor="#666666"
     borderopacity="1.0"
     inkscape:pageopacity="0.0"
     inkscape:pageshadow="2"
     inkscape:zoom="15.839192"
     inkscape:cx="17.246744"
     inkscape:cy="3.3709408"
     inkscape:document-units="px"
     inkscape:current-layer="layer1"
     showgrid="false"
     fit-margin-top="0"
     fit-margin-left="0"
     fit-margin-right="0"
     fit-margin-bottom="0"
     inkscape:window-width="961"
     inkscape:window-height="405"
     inkscape:window-x="-8"
     inkscape:window-y="563"
     inkscape:window-maximized="0" />
  <metadata
     id="metadata19748">
    <rdf:RDF>
      <cc:Work
         rdf:about="">
        <dc:format>image/svg+xml</dc:format>
        <dc:type
           rdf:resource="http://purl.org/dc/dcmitype/StillImage" />
        <dc:title></dc:title>
      </cc:Work>
    </rdf:RDF>
  </metadata>
  <g
     inkscape:label="Layer 1"
     inkscape:groupmode="layer"
     id="layer1"
     transform="translate(-442.51577,-425.70012)">
    <g
       id="g12430"
       transform="matrix(1.25,0,0,-1.25,453.39327,438.05637)">
      <path
         d="m 0,0 c 0.652,0 1.182,0.529 1.182,1.182 l 0,7.521 C 1.182,9.356 0.652,9.885 0,9.885 l -7.521,0 c -0.653,0 -1.181,-0.529 -1.181,-1.182 l 0,-7.521 C -8.702,0.529 -8.174,0 -7.521,0 L 0,0 Z"
         style="fill:#373535;fill-opacity:1;fill-rule:nonzero;stroke:none"
         id="path12432"
         inkscape:connector-curvature="0" />
    </g>
    <g
       id="g12434"
       transform="matrix(1.25,0,0,-1.25,443.99139,425.9495)">
      <path
         d="m 0,0 c -0.54,0 -0.98,-0.441 -0.98,-0.982 l 0,-7.522 c 0,-0.541 0.44,-0.98 0.98,-0.98 l 7.521,0 c 0.542,0 0.982,0.439 0.982,0.98 l 0,7.522 C 8.503,-0.441 8.063,0 7.521,0 L 0,0 Z"
         style="fill:#ffffff;fill-opacity:1;fill-rule:nonzero;stroke:none"
         id="path12436"
         inkscape:connector-curvature="0" />
    </g>
    <g
       id="g12438"
       transform="matrix(1.25,0,0,-1.25,452.42889,433.49825)">
      <path
         d="M 0,0 C 0.431,0 0.779,0.35 0.779,0.781 0.779,1.211 0.431,1.559 0,1.559 -0.431,1.559 -0.779,1.211 -0.779,0.781 -0.779,0.35 -0.431,0 0,0"
         style="fill:#373535;fill-opacity:1;fill-rule:nonzero;stroke:none"
         id="path12440"
         inkscape:connector-curvature="0" />
    </g>
    <g
       id="g12442"
       transform="matrix(1.25,0,0,-1.25,453.12589,435.676)">
      <path
         d="m 0,0 c 0.034,-0.012 0.071,-0.018 0.11,-0.018 0.2,0 0.362,0.163 0.362,0.362 0,0.15 -0.093,0.281 -0.225,0.334 l -1.078,0.42 -0.784,1.394 c 0,0 -0.065,0.154 -0.292,0.238 L -4.48,3.762 -6.011,6.354 c -0.089,0.148 -0.252,0.25 -0.439,0.25 -0.283,0 -0.512,-0.231 -0.512,-0.514 0,-0.09 0.024,-0.174 0.065,-0.248 l 1.899,-3.221 -1.204,0.481 -0.303,-0.182 4.811,-1.893 -0.001,0 0.196,-0.312 c 0,0 0.078,-0.168 0.312,-0.26 L -0.591,0.223 C -0.98,-0.166 -1.524,0.002 -1.524,0.002 l -5.874,2.359 -0.325,-0.193 6.134,-2.426 c 0.713,-0.26 1.296,0.363 1.296,0.363 l 0,-0.001 L 0,0 Z"
         style="fill:#373535;fill-opacity:1;fill-rule:nonzero;stroke:none"
         id="path12444"
         inkscape:connector-curvature="0" />
    </g>
  </g>
</svg>
