<?xml version="1.0" encoding="UTF-8" standalone="no"?>
<!-- Created with Inkscape (http://www.inkscape.org/) -->

<svg
   xmlns:dc="http://purl.org/dc/elements/1.1/"
   xmlns:cc="http://creativecommons.org/ns#"
   xmlns:rdf="http://www.w3.org/1999/02/22-rdf-syntax-ns#"
   xmlns:svg="http://www.w3.org/2000/svg"
   xmlns="http://www.w3.org/2000/svg"
   xmlns:sodipodi="http://sodipodi.sourceforge.net/DTD/sodipodi-0.dtd"
   xmlns:inkscape="http://www.inkscape.org/namespaces/inkscape"
   width="3.4868555mm"
   height="3.4872084mm"
   viewBox="0 0 12.355 12.35625"
   id="svg19743"
   version="1.1"
   inkscape:version="0.91 r13725"
   sodipodi:docname="SnowmobileW.svg">
  <defs
     id="defs19745" />
  <sodipodi:namedview
     id="base"
     pagecolor="#ffffff"
     bordercolor="#666666"
     borderopacity="1.0"
     inkscape:pageopacity="0.0"
     inkscape:pageshadow="2"
     inkscape:zoom="15.839192"
     inkscape:cx="14.794184"
     inkscape:cy="4.2638809"
     inkscape:document-units="px"
     inkscape:current-layer="layer1"
     showgrid="false"
     fit-margin-top="0"
     fit-margin-left="0"
     fit-margin-right="0"
     fit-margin-bottom="0"
     inkscape:window-width="961"
     inkscape:window-height="405"
     inkscape:window-x="-8"
     inkscape:window-y="563"
     inkscape:window-maximized="0" />
  <metadata
     id="metadata19748">
    <rdf:RDF>
      <cc:Work
         rdf:about="">
        <dc:format>image/svg+xml</dc:format>
        <dc:type
           rdf:resource="http://purl.org/dc/dcmitype/StillImage" />
        <dc:title></dc:title>
      </cc:Work>
    </rdf:RDF>
  </metadata>
  <g
     inkscape:label="Layer 1"
     inkscape:groupmode="layer"
     id="layer1"
     transform="translate(-444.96833,-426.59306)">
    <g
       id="g12926"
       transform="matrix(1.25,0,0,-1.25,455.84708,438.94931)">
      <path
         d="m 0,0 c 0.652,0 1.181,0.529 1.181,1.182 l 0,7.521 C 1.181,9.355 0.652,9.885 0,9.885 l -7.521,0 c -0.653,0 -1.182,-0.53 -1.182,-1.182 l 0,-7.521 C -8.703,0.529 -8.174,0 -7.521,0 L 0,0 Z"
         style="fill:#373535;fill-opacity:1;fill-rule:nonzero;stroke:none"
         id="path12928"
         inkscape:connector-curvature="0" />
    </g>
    <g
       id="g12930"
       transform="matrix(1.25,0,0,-1.25,446.44521,426.84231)">
      <path
         d="m 0,0 c -0.541,0 -0.981,-0.441 -0.981,-0.982 l 0,-7.522 c 0,-0.541 0.44,-0.98 0.981,-0.98 l 7.521,0 c 0.541,0 0.981,0.439 0.981,0.98 l 0,7.522 C 8.502,-0.441 8.062,0 7.521,0 L 0,0 Z"
         style="fill:#ffffff;fill-opacity:1;fill-rule:nonzero;stroke:none"
         id="path12932"
         inkscape:connector-curvature="0" />
    </g>
    <g
       id="g12934"
       transform="matrix(1.25,0,0,-1.25,450.19395,429.71593)">
      <path
         d="m 0,0 c 0.365,0 0.661,0.295 0.661,0.662 0,0.363 -0.296,0.66 -0.661,0.66 -0.365,0 -0.661,-0.297 -0.661,-0.66 C -0.661,0.295 -0.365,0 0,0"
         style="fill:#373535;fill-opacity:1;fill-rule:nonzero;stroke:none"
         id="path12936"
         inkscape:connector-curvature="0" />
    </g>
    <g
       id="g12938"
       transform="matrix(1.25,0,0,-1.25,451.16683,436.39068)">
      <path
         d="m 0,0 3.145,0 c 0,0 0.203,-0.014 0.607,0.31 l 0.689,0.526 0,-0.594 -0.703,-0.525 c 0,0 -0.209,-0.17 -0.56,-0.209 l -3.442,0 L 0,0 Z"
         style="fill:#373535;fill-opacity:1;fill-rule:nonzero;stroke:none"
         id="path12940"
         inkscape:connector-curvature="0" />
    </g>
    <g
       id="g12942"
       transform="matrix(1.25,0,0,-1.25,445.69083,437.00593)">
      <path
         d="m 0,0 3.146,0 0.262,0.492 -0.026,0 -3.146,0 L -0.026,0 0,0 Z"
         style="fill:#373535;fill-opacity:1;fill-rule:nonzero;stroke:none"
         id="path12944"
         inkscape:connector-curvature="0" />
    </g>
    <g
       id="g12946"
       transform="matrix(1.25,0,0,-1.25,450.61883,430.72181)">
      <path
         d="M 0,0 C 0,0.365 -0.296,0.662 -0.662,0.662 -1.027,0.662 -1.324,0.365 -1.324,0 l 0,-1.619 c 0,-0.205 0.1,-0.397 0.248,-0.518 l -1.482,0 -0.8,-1.453 c -0.018,-0.033 -0.026,-0.07 -0.026,-0.109 0,-0.133 0.109,-0.242 0.241,-0.242 l 5.462,0 c 0,0 0.235,-0.038 0.588,0.24 l 1.417,1.043 -0.535,0.935 c 0,0 -0.12,0.227 -0.574,0.295 l -1.069,0.18 -0.575,0.959 -0.007,0.01 C 1.481,-0.184 1.337,-0.174 1.241,-0.256 L 1.24,-0.258 C 1.173,-0.32 1.147,-0.422 1.185,-0.512 l 0.426,-0.711 0,-0.006 -0.534,-0.908 -1.077,0.41 0,0.403 0.851,0 c 0.041,-0.002 0.084,0.004 0.125,0.021 0.161,0.061 0.241,0.243 0.179,0.403 -0.047,0.125 -0.164,0.199 -0.288,0.201 L -0.001,-0.697 0,0"
         style="fill:#373535;fill-opacity:1;fill-rule:nonzero;stroke:none"
         id="path12948"
         inkscape:connector-curvature="0" />
    </g>
  </g>
</svg>
