<?xml version="1.0" encoding="UTF-8" standalone="no"?>
<!-- Created with Inkscape (http://www.inkscape.org/) -->

<svg
   xmlns:dc="http://purl.org/dc/elements/1.1/"
   xmlns:cc="http://creativecommons.org/ns#"
   xmlns:rdf="http://www.w3.org/1999/02/22-rdf-syntax-ns#"
   xmlns:svg="http://www.w3.org/2000/svg"
   xmlns="http://www.w3.org/2000/svg"
   xmlns:sodipodi="http://sodipodi.sourceforge.net/DTD/sodipodi-0.dtd"
   xmlns:inkscape="http://www.inkscape.org/namespaces/inkscape"
   width="3.4872084mm"
   height="3.4865029mm"
   viewBox="0 0 12.35625 12.35375"
   id="svg19743"
   version="1.1"
   inkscape:version="0.91 r13725"
   sodipodi:docname="SwimmingW.svg">
  <defs
     id="defs19745" />
  <sodipodi:namedview
     id="base"
     pagecolor="#ffffff"
     bordercolor="#666666"
     borderopacity="1.0"
     inkscape:pageopacity="0.0"
     inkscape:pageshadow="2"
     inkscape:zoom="15.839192"
     inkscape:cx="4.3519635"
     inkscape:cy="7.6564065"
     inkscape:document-units="px"
     inkscape:current-layer="layer1"
     showgrid="false"
     fit-margin-top="0"
     fit-margin-left="0"
     fit-margin-right="0"
     fit-margin-bottom="0"
     inkscape:window-width="458"
     inkscape:window-height="405"
     inkscape:window-x="208"
     inkscape:window-y="208"
     inkscape:window-maximized="0" />
  <metadata
     id="metadata19748">
    <rdf:RDF>
      <cc:Work
         rdf:about="">
        <dc:format>image/svg+xml</dc:format>
        <dc:type
           rdf:resource="http://purl.org/dc/dcmitype/StillImage" />
        <dc:title></dc:title>
      </cc:Work>
    </rdf:RDF>
  </metadata>
  <g
     inkscape:label="Layer 1"
     inkscape:groupmode="layer"
     id="layer1"
     transform="translate(-455.41055,-430.42112)">
    <g
       id="g12694"
       transform="matrix(1.25,0,0,-1.25,466.2893,442.77487)">
      <path
         d="m 0,0 c 0.652,0 1.182,0.527 1.182,1.18 l 0,7.521 C 1.182,9.354 0.652,9.883 0,9.883 l -7.521,0 c -0.653,0 -1.182,-0.529 -1.182,-1.182 l 0,-7.521 C -8.703,0.527 -8.174,0 -7.521,0 L 0,0 Z"
         style="fill:#373535;fill-opacity:1;fill-rule:nonzero;stroke:none"
         id="path12696"
         inkscape:connector-curvature="0" />
    </g>
    <g
       id="g12698"
       transform="matrix(1.25,0,0,-1.25,456.88742,430.67037)">
      <path
         d="m 0,0 c -0.542,0 -0.981,-0.441 -0.981,-0.982 l 0,-7.522 c 0,-0.539 0.439,-0.978 0.981,-0.978 l 7.521,0 c 0.542,0 0.982,0.439 0.982,0.978 l 0,7.522 C 8.503,-0.441 8.063,0 7.521,0 L 0,0 Z"
         style="fill:#ffffff;fill-opacity:1;fill-rule:nonzero;stroke:none"
         id="path12700"
         inkscape:connector-curvature="0" />
    </g>
    <g
       id="g12702"
       transform="matrix(1.25,0,0,-1.25,466.5798,440.61174)">
      <path
         d="m 0,0 c -0.172,0 -0.336,0.039 -0.482,0.105 -0.151,0.069 -0.321,0.11 -0.498,0.11 -0.178,0 -0.348,-0.041 -0.499,-0.11 C -1.625,0.039 -1.789,0 -1.961,0 c -0.172,0 -0.336,0.039 -0.482,0.105 -0.153,0.069 -0.323,0.11 -0.498,0.11 -0.178,0 -0.348,-0.041 -0.498,-0.11 C -3.586,0.039 -3.752,0 -3.922,0 -4.094,0 -4.258,0.039 -4.406,0.105 -4.557,0.174 -4.727,0.215 -4.902,0.215 -5.08,0.215 -5.25,0.174 -5.4,0.105 -5.547,0.039 -5.713,0 -5.885,0 c -0.17,0 -0.336,0.039 -0.482,0.105 -0.151,0.069 -0.32,0.11 -0.498,0.11 -0.176,0 -0.346,-0.041 -0.496,-0.11 C -7.51,0.039 -7.674,0 -7.846,0 l 0,0.725 c 0.172,0 0.336,0.039 0.485,0.103 0.15,0.07 0.32,0.111 0.496,0.111 0.178,0 0.347,-0.041 0.498,-0.111 0.146,-0.064 0.312,-0.103 0.482,-0.103 0.172,0 0.338,0.039 0.485,0.103 0.15,0.07 0.32,0.111 0.498,0.111 0.175,0 0.345,-0.041 0.496,-0.111 0.148,-0.064 0.312,-0.103 0.484,-0.103 0.17,0 0.336,0.039 0.483,0.103 0.15,0.07 0.32,0.111 0.498,0.111 0.175,0 0.345,-0.041 0.498,-0.111 0.146,-0.064 0.31,-0.103 0.482,-0.103 0.172,0 0.336,0.039 0.482,0.103 0.151,0.07 0.321,0.111 0.499,0.111 0.177,0 0.347,-0.041 0.498,-0.111 C -0.336,0.764 -0.172,0.725 0,0.725 L 0,0 Z"
         style="fill:#373535;fill-opacity:1;fill-rule:nonzero;stroke:none"
         id="path12704"
         inkscape:connector-curvature="0" />
    </g>
    <g
       id="g12706"
       transform="matrix(1.25,0,0,-1.25,465.15892,438.05074)">
      <path
         d="M 0,0 C 0.516,0 0.934,0.42 0.934,0.935 0.934,1.451 0.516,1.869 0,1.869 -0.516,1.869 -0.934,1.451 -0.934,0.935 -0.934,0.42 -0.553,0 0,0"
         style="fill:#373535;fill-opacity:1;fill-rule:nonzero;stroke:none"
         id="path12708"
         inkscape:connector-curvature="0" />
    </g>
    <g
       id="g12710"
       transform="matrix(1.25,0,0,-1.25,458.36455,438.70749)">
      <path
         d="m 0,0 c 0.072,-0.018 0.141,-0.043 0.205,-0.072 0.147,-0.067 0.313,-0.106 0.482,-0.106 0.172,0 0.338,0.039 0.485,0.106 0.15,0.068 0.32,0.111 0.498,0.111 0.176,0 0.346,-0.043 0.496,-0.111 0.148,-0.067 0.313,-0.106 0.484,-0.106 0.17,0 0.336,0.039 0.483,0.106 0.15,0.068 0.32,0.111 0.498,0.111 0.176,0 0.346,-0.043 0.498,-0.111 0.146,-0.067 0.31,-0.106 0.482,-0.106 0.125,0 0.246,0.022 0.36,0.057 l -1.557,2.81 1.811,0.33 c 0.265,0.051 0.459,0.26 0.459,0.528 0,0.295 -0.241,0.531 -0.534,0.531 -0.021,0 -0.041,0 -0.06,-0.002 L 2.293,3.566 C 2.096,3.521 1.836,3.234 1.984,2.881 1.992,2.861 2,2.844 2.008,2.824 L 2.738,1.506 0,0 Z"
         style="fill:#373535;fill-opacity:1;fill-rule:nonzero;stroke:none"
         id="path12712"
         inkscape:connector-curvature="0" />
    </g>
  </g>
</svg>
