<?xml version="1.0" encoding="UTF-8" standalone="no"?>
<!-- Created with Inkscape (http://www.inkscape.org/) -->

<svg
   xmlns:dc="http://purl.org/dc/elements/1.1/"
   xmlns:cc="http://creativecommons.org/ns#"
   xmlns:rdf="http://www.w3.org/1999/02/22-rdf-syntax-ns#"
   xmlns:svg="http://www.w3.org/2000/svg"
   xmlns="http://www.w3.org/2000/svg"
   xmlns:sodipodi="http://sodipodi.sourceforge.net/DTD/sodipodi-0.dtd"
   xmlns:inkscape="http://www.inkscape.org/namespaces/inkscape"
   width="3.4865029mm"
   height="3.4865029mm"
   viewBox="0 0 12.35375 12.35375"
   id="svg19659"
   version="1.1"
   inkscape:version="0.91 r13725"
   sodipodi:docname="TrailheadW.svg">
  <defs
     id="defs19661" />
  <sodipodi:namedview
     id="base"
     pagecolor="#ffffff"
     bordercolor="#666666"
     borderopacity="1.0"
     inkscape:pageopacity="0.0"
     inkscape:pageshadow="2"
     inkscape:zoom="1.4"
     inkscape:cx="185.25448"
     inkscape:cy="-0.92914223"
     inkscape:document-units="px"
     inkscape:current-layer="layer1"
     showgrid="false"
     fit-margin-top="0"
     fit-margin-left="0"
     fit-margin-right="0"
     fit-margin-bottom="0"
     inkscape:window-width="458"
     inkscape:window-height="405"
     inkscape:window-x="156"
     inkscape:window-y="156"
     inkscape:window-maximized="0" />
  <metadata
     id="metadata19664">
    <rdf:RDF>
      <cc:Work
         rdf:about="">
        <dc:format>image/svg+xml</dc:format>
        <dc:type
           rdf:resource="http://purl.org/dc/dcmitype/StillImage" />
        <dc:title></dc:title>
      </cc:Work>
    </rdf:RDF>
  </metadata>
  <g
     inkscape:label="Layer 1"
     inkscape:groupmode="layer"
     id="layer1"
     transform="translate(-546.68027,-241.89961)">
    <g
       id="g12370"
       transform="matrix(1.25,0,0,-1.25,557.55902,254.25336)">
      <path
         d="m 0,0 c 0.65,0 1.18,0.527 1.18,1.18 l 0,7.523 c 0,0.653 -0.53,1.18 -1.18,1.18 l -7.521,0 c -0.653,0 -1.182,-0.527 -1.182,-1.18 l 0,-7.523 C -8.703,0.527 -8.174,0 -7.521,0 L 0,0 Z"
         style="fill:#373535;fill-opacity:1;fill-rule:nonzero;stroke:none"
         id="path12372"
         inkscape:connector-curvature="0" />
    </g>
    <g
       id="g12374"
       transform="matrix(1.25,0,0,-1.25,548.15714,242.14887)">
      <path
         d="m 0,0 c -0.542,0 -0.981,-0.439 -0.981,-0.98 l 0,-7.524 c 0,-0.539 0.439,-0.978 0.981,-0.978 l 7.521,0 c 0.541,0 0.98,0.439 0.98,0.978 l 0,7.524 C 8.501,-0.439 8.062,0 7.521,0 L 0,0 Z"
         style="fill:#ffffff;fill-opacity:1;fill-rule:nonzero;stroke:none"
         id="path12376"
         inkscape:connector-curvature="0" />
    </g>
    <g
       id="g12378"
       transform="matrix(1.25,0,0,-1.25,552.99602,244.47299)">
      <path
         d="m 0,0 c 0.365,0 0.66,0.297 0.66,0.662 0,0.365 -0.295,0.66 -0.66,0.66 -0.365,0 -0.662,-0.295 -0.662,-0.66 C -0.662,0.297 -0.365,0 0,0"
         style="fill:#373535;fill-opacity:1;fill-rule:nonzero;stroke:none"
         id="path12380"
         inkscape:connector-curvature="0" />
    </g>
    <g
       id="g12382"
       transform="matrix(1.25,0,0,-1.25,551.59964,244.60974)">
      <path
         d="m 0,0 c 0.025,0.102 -0.039,0.203 -0.139,0.229 l -0.55,0.132 C -0.793,0.385 -0.895,0.324 -0.918,0.223 l -0.463,-1.916 c -0.025,-0.102 0.037,-0.203 0.139,-0.229 l 0.553,-0.133 c 0.099,-0.025 0.203,0.037 0.226,0.139 L 0,0 Z"
         style="fill:#373535;fill-opacity:1;fill-rule:nonzero;stroke:none"
         id="path12384"
         inkscape:connector-curvature="0" />
    </g>
    <g
       id="g12386"
       transform="matrix(1.25,0,0,-1.25,554.77702,253.12787)">
      <path
         d="m 0,0 c 0,-0.004 -0.002,-0.008 -0.002,-0.01 0,-0.084 0.068,-0.152 0.152,-0.152 0.077,0 0.141,0.059 0.151,0.133 L 1.41,5.988 1.41,6 C 1.41,6.082 1.344,6.15 1.26,6.15 1.184,6.15 1.125,6.092 1.109,6.018 L 0,0 Z"
         style="fill:#373535;fill-opacity:1;fill-rule:nonzero;stroke:none"
         id="path12388"
         inkscape:connector-curvature="0" />
    </g>
    <g
       id="g12390"
       transform="matrix(1.25,0,0,-1.25,550.16402,252.63462)">
      <path
         d="m 0,0 c -0.006,-0.031 -0.008,-0.062 -0.008,-0.094 0,-0.258 0.207,-0.465 0.465,-0.465 0.211,0 0.389,0.141 0.445,0.332 L 1.701,3.08 2.463,-0.207 c 0.049,-0.203 0.232,-0.352 0.449,-0.352 0.258,0 0.465,0.207 0.465,0.465 0,0.035 -0.004,0.069 -0.01,0.102 L 2.322,4.375 2.41,4.76 2.479,4.457 C 2.541,4.26 2.721,4.24 2.721,4.24 L 3.797,3.967 C 3.818,3.963 3.84,3.961 3.861,3.961 c 0.176,0 0.319,0.141 0.319,0.316 0,0.151 -0.104,0.278 -0.244,0.311 L 3.004,4.822 2.748,5.861 C 2.627,6.441 2.072,6.428 2.072,6.428 1.533,6.441 1.398,5.875 1.398,5.875 L 0,0 Z"
         style="fill:#373535;fill-opacity:1;fill-rule:nonzero;stroke:none"
         id="path12392"
         inkscape:connector-curvature="0" />
    </g>
  </g>
</svg>
