<?xml version="1.0" encoding="UTF-8" standalone="no"?>
<!-- Created with Inkscape (http://www.inkscape.org/) -->

<svg
   xmlns:dc="http://purl.org/dc/elements/1.1/"
   xmlns:cc="http://creativecommons.org/ns#"
   xmlns:rdf="http://www.w3.org/1999/02/22-rdf-syntax-ns#"
   xmlns:svg="http://www.w3.org/2000/svg"
   xmlns="http://www.w3.org/2000/svg"
   xmlns:sodipodi="http://sodipodi.sourceforge.net/DTD/sodipodi-0.dtd"
   xmlns:inkscape="http://www.inkscape.org/namespaces/inkscape"
   width="3.4868555mm"
   height="3.4868555mm"
   viewBox="0 0 12.355 12.355"
   id="svg19743"
   version="1.1"
   inkscape:version="0.91 r13725"
   sodipodi:docname="XCSkiingW.svg">
  <defs
     id="defs19745" />
  <sodipodi:namedview
     id="base"
     pagecolor="#ffffff"
     bordercolor="#666666"
     borderopacity="1.0"
     inkscape:pageopacity="0.0"
     inkscape:pageshadow="2"
     inkscape:zoom="15.839192"
     inkscape:cx="18.324761"
     inkscape:cy="7.6604834"
     inkscape:document-units="px"
     inkscape:current-layer="g13306"
     showgrid="false"
     fit-margin-top="0"
     fit-margin-left="0"
     fit-margin-right="0"
     fit-margin-bottom="0"
     inkscape:window-width="961"
     inkscape:window-height="405"
     inkscape:window-x="-8"
     inkscape:window-y="563"
     inkscape:window-maximized="0" />
  <metadata
     id="metadata19748">
    <rdf:RDF>
      <cc:Work
         rdf:about="">
        <dc:format>image/svg+xml</dc:format>
        <dc:type
           rdf:resource="http://purl.org/dc/dcmitype/StillImage" />
        <dc:title></dc:title>
      </cc:Work>
    </rdf:RDF>
  </metadata>
  <g
     inkscape:label="Layer 1"
     inkscape:groupmode="layer"
     id="layer1"
     transform="translate(-456.74278,-432.49692)">
    <g
       id="g13306"
       transform="matrix(1.25,0,0,-1.25,458.39758,438.71659)">
      <g
         id="g12622"
         transform="translate(7.7081619,-3.2959616)">
        <path
           d="m 0,0 c -0.001,-0.222 -0.185,-0.4 -0.405,-0.399 l -6.585,0 0,-0.272 6.584,0 c 0.371,-0.002 0.674,0.296 0.676,0.669 L 0,0 Z"
           style="fill:#373535;fill-opacity:1;fill-rule:nonzero;stroke:none"
           id="path12624"
           inkscape:connector-curvature="0" />
      </g>
      <g
         id="g12626"
         transform="translate(7.3781619,-4.9082656)">
        <path
           d="m 0,0 c 0.652,0 1.182,0.529 1.182,1.182 l 0,7.521 C 1.182,9.355 0.652,9.884 0,9.884 l -7.521,0 c -0.653,0 -1.181,-0.529 -1.181,-1.181 l 0,-7.521 C -8.702,0.529 -8.174,0 -7.521,0 L 0,0 Z"
           style="fill:#373535;fill-opacity:1;fill-rule:nonzero;stroke:none"
           id="path12628"
           inkscape:connector-curvature="0" />
      </g>
      <g
         id="g12630"
         transform="translate(-0.14333811,4.7753344)">
        <path
           d="m 0,0 c -0.541,0 -0.98,-0.44 -0.98,-0.98 l 0,-7.522 c 0,-0.541 0.439,-0.981 0.98,-0.981 l 7.521,0 c 0.542,0 0.982,0.44 0.982,0.981 l 0,7.522 C 8.503,-0.44 8.063,0 7.521,0 L 0,0 Z"
           style="fill:#ffffff;fill-opacity:1;fill-rule:nonzero;stroke:none"
           id="path12632"
           inkscape:connector-curvature="0" />
      </g>
      <g
         id="g12634"
         transform="translate(5.7394619,2.8329344)">
        <path
           d="M 0,0 C 0.365,0 0.661,0.297 0.661,0.662 0.661,1.027 0.365,1.323 0,1.323 -0.365,1.323 -0.662,1.027 -0.662,0.662 -0.662,0.297 -0.365,0 0,0"
           style="fill:#373535;fill-opacity:1;fill-rule:nonzero;stroke:none"
           id="path12636"
           inkscape:connector-curvature="0" />
      </g>
      <g
         id="g12638"
         transform="translate(1.5460619,-2.8623696)">
        <path
           d="M 0,0 -2.201,2.208 -2.2,1.822 -0.151,-0.234 c 0.235,-0.255 0.638,0.039 0.638,0.039 L 0.294,0.013 c 0,0 -0.19,-0.125 -0.289,-0.019 L 0,0 Z"
           style="fill:#373535;fill-opacity:1;fill-rule:nonzero;stroke:none"
           id="path12640"
           inkscape:connector-curvature="0" />
      </g>
      <path
         d="m 1.6167619,1.3019344 -2.25300001,0 0,-0.269 2.25300001,0 0,0.269 z"
         style="fill:#373535;fill-opacity:1;fill-rule:nonzero;stroke:none"
         id="path12642"
         inkscape:connector-curvature="0" />
      <g
         id="g12644"
         transform="translate(7.7062619,1.9447344)">
        <path
           d="m 0,0 0.257,-0.108 -2.558,-5.148 -0.283,0 L 0,0 Z"
           style="fill:#373535;fill-opacity:1;fill-rule:nonzero;stroke:none"
           id="path12646"
           inkscape:connector-curvature="0" />
      </g>
      <g
         id="g12648"
         transform="translate(3.4620619,2.3417344)">
        <path
           d="M 0,0 -1.029,-1.188 C -1.09,-1.264 -1.183,-1.31 -1.286,-1.31 c -0.185,0 -0.333,0.149 -0.333,0.333 0,0.099 0.043,0.188 0.112,0.249 l 1.11,1.278 c 0.061,0.073 0.153,0.12 0.256,0.12 l 1.607,0.001 c 0.118,0 0.223,-0.047 0.302,-0.123 l 1.024,-1.024 0.849,0.848 c 0.059,0.05 0.136,0.08 0.22,0.08 0.191,0 0.344,-0.154 0.344,-0.344 0,-0.083 -0.028,-0.158 -0.077,-0.217 L 3.105,-1.141 C 2.794,-1.451 2.544,-1.187 2.544,-1.187 l -0.628,0.63 -0.981,-1.134 0.899,-0.9 c 0,0 0.189,-0.176 0.081,-0.526 L 1.411,-5.363 c -0.04,-0.196 -0.213,-0.343 -0.419,-0.343 -0.236,0 -0.428,0.192 -0.428,0.429 0,0.037 0.004,0.073 0.014,0.107 l 0.414,1.843 -1.021,0.994 -0.879,-0.98 c 0,0 -0.143,-0.176 -0.52,-0.163 L -3.21,-3.479 c -0.199,-0.003 -0.38,0.133 -0.425,0.335 -0.053,0.23 0.09,0.456 0.321,0.507 0.036,0.009 0.072,0.012 0.107,0.011 L -1.674,-2.631 0.593,-0.003 0,0 Z"
           style="fill:#373535;fill-opacity:1;fill-rule:nonzero;stroke:none"
           id="path12650"
           inkscape:connector-curvature="0" />
      </g>
    </g>
  </g>
</svg>
